<svg xmlns="http://www.w3.org/2000/svg" width="24" height="24" viewBox="0 0 24 24" fill="none">
  <path d="M11.999 2C14.7141 2 15.054 2.01203 16.1201 2.06055C17.1847 2.1093 17.9123 2.2781 18.5498 2.52539C19.2079 2.78055 19.7642 3.12171 20.3203 3.67773C20.8765 4.23348 21.2184 4.79165 21.4746 5.44922C21.7204 6.08505 21.8895 6.81237 21.9395 7.87695C21.9874 8.94339 22 9.28442 22 12C22 14.7155 21.9874 15.0558 21.9395 16.1221C21.8895 17.1862 21.7204 17.9138 21.4746 18.5498C21.2184 19.2072 20.8765 19.7655 20.3203 20.3213C19.765 20.8772 19.2079 21.2193 18.5508 21.4746C17.9146 21.7219 17.1866 21.8907 16.1221 21.9395C15.0555 21.988 14.7157 22 12 22C9.28451 22 8.94354 21.988 7.87695 21.9395C6.81261 21.8907 6.08545 21.7219 5.44922 21.4746C4.79219 21.2192 4.23414 20.8773 3.67871 20.3213C3.12279 19.7656 2.78099 19.2074 2.52539 18.5498C2.27831 17.914 2.1095 17.1867 2.06055 16.1221C2.01222 15.0556 2 14.7156 2 12C2 9.28459 2.01286 8.94323 2.06055 7.87695C2.10846 6.81279 2.27748 6.08526 2.52539 5.44922C2.78162 4.79181 3.12352 4.23351 3.67969 3.67773C4.23537 3.12192 4.79364 2.78075 5.45117 2.52539C6.08692 2.27816 6.81353 2.10929 7.87793 2.06055C8.94415 2.01202 9.28519 2.00001 11.999 2ZM11.1035 3.7998C9.24013 3.80189 8.88237 3.8138 7.95996 3.85547C6.98537 3.90027 6.45598 4.06273 6.10352 4.2002C5.63686 4.38186 5.30311 4.59922 4.95312 4.94922C4.60337 5.29905 4.38625 5.63223 4.20508 6.09863C4.06821 6.45113 3.90493 6.98105 3.86035 7.95605C3.81245 9.00986 3.80371 9.32516 3.80371 11.9951C3.80371 14.6652 3.81245 14.9822 3.86035 16.0361C3.90472 17.011 4.06822 17.5405 4.20508 17.8926C4.3867 18.3594 4.60325 18.6921 4.95312 19.042C5.30311 19.392 5.63686 19.6088 6.10352 19.79C6.45618 19.9269 6.98526 20.0898 7.95996 20.1348C9.0141 20.1827 9.33085 20.1934 12.001 20.1934C14.6708 20.1934 14.9879 20.1827 16.042 20.1348C17.0167 20.0902 17.5464 19.9275 17.8984 19.79C18.3652 19.6088 18.6979 19.3919 19.0479 19.042C19.3976 18.6923 19.6147 18.36 19.7959 17.8936C19.9328 17.5415 20.0951 17.012 20.1396 16.0371C20.1876 14.9831 20.1982 14.6663 20.1982 11.998C20.1982 9.3293 20.1876 9.01217 20.1396 7.95801C20.0953 6.9831 19.9328 6.45363 19.7959 6.10156C19.6143 5.63517 19.3976 5.30196 19.0479 4.95215C18.6981 4.6022 18.365 4.38533 17.8984 4.2041C17.546 4.06724 17.0167 3.90398 16.042 3.85938C14.9877 3.81146 14.6708 3.80176 12.001 3.80176C11.6672 3.80176 11.3698 3.80134 11.1035 3.80176V3.7998ZM12.001 6.86426C14.8369 6.86429 17.1357 9.16398 17.1357 12C17.1357 14.836 14.8369 17.1347 12.001 17.1348C9.16502 17.1348 6.86523 14.836 6.86523 12C6.86524 9.16396 9.16502 6.86426 12.001 6.86426ZM12.001 8.66699C10.16 8.66699 8.66797 10.159 8.66797 12C8.66797 13.8408 10.16 15.333 12.001 15.333C13.8417 15.333 15.334 13.8408 15.334 12C15.334 10.159 13.8417 8.66702 12.001 8.66699ZM17.3389 5.46191C18.0013 5.46202 18.5391 5.99967 18.5391 6.66211C18.5391 7.32454 18.0013 7.8622 17.3389 7.8623C16.6764 7.8623 16.1387 7.3246 16.1387 6.66211C16.1387 5.9994 16.6764 5.46191 17.3389 5.46191Z" fill="white"/>
</svg>