<svg class="svg-icon-social-linkedin" width="24" height="24" viewBox="0 0 24 24" fill="none" xmlns="http://www.w3.org/2000/svg">
<path d="M20.5713 2C21.3302 2 22 2.67006 22 3.47363V20.5713C22 21.3749 21.3302 22 20.5713 22H3.38379C2.62492 21.9999 2 21.3748 2 20.5713V3.47363C2 2.67011 2.62492 2.00008 3.38379 2H20.5713ZM5.08008 19.1426H8.02637V9.63379H5.08008V19.1426ZM15.5713 9.36621C14.1428 9.36626 13.1606 10.1698 12.7588 10.9287H12.7139V9.63379H9.90137V19.1426H12.8486V14.4551C12.8487 13.2052 13.0715 12.0001 14.6338 12C16.1516 12 16.1514 13.4286 16.1514 14.5V19.1426H19.1426V13.9199C19.1426 11.3753 18.5624 9.36621 15.5713 9.36621ZM6.55371 4.85742C5.57157 4.85742 4.8125 5.66113 4.8125 6.59863C4.81273 7.53594 5.57171 8.29492 6.55371 8.29492C7.49101 8.29485 8.24977 7.53589 8.25 6.59863C8.25 5.66118 7.49115 4.8575 6.55371 4.85742Z" fill="white"/>
</svg>
