<?xml version="1.0" standalone="no"?>
<!DOCTYPE svg PUBLIC "-//W3C//DTD SVG 1.1//EN" "http://www.w3.org/Graphics/SVG/1.1/DTD/svg11.dtd">
<svg xmlns="http://www.w3.org/2000/svg"><metadata>This SVG WebFont was generated by YouWorkForThem.
Copyright (c)2015, HK Grotesk Pro Latin by Alfredo Marco Pradil (ammpradil@gmail.com) and HK Grotesk Pro Cyrillic by Stefan Peev (http://www.contextbg.net/). HK Grotesk is a trademark of Alfredo Marco Pradil.</metadata><defs><font horiz-adv-x="735" id="ywftsvg"><font-face ascent="1434" bbox="-968 -514 2658 2242.02" cap-height="1413" descent="-614" font-family="" font-stretch="normal" font-weight="300" panose-1="0 0 4 0 0 0 0 0 0 0" underline-position="0" underline-thickness="0" unicode-range="U+0020-FB02" units-per-em="2048" x-height="999"/><missing-glyph d="M190 0v961h833v-961h-833zM238 48h738v865h-738v-865z" horiz-adv-x="1214"/><glyph d="M828 999v-999h-87v918h-424v-918h-93v918h-178v81h178v87q0 172 89.5 256.5t236.5 84.5q153 0 277 -92l-47 -66q-98 79 -226 79q-116 0 -176.5 -62.5t-60.5 -200.5v-86h511z" glyph-name="uniFB01" horiz-adv-x="1016" unicode="fi"/><glyph d="M890 -14q-55 0 -91.5 16.5t-54.5 50t-24.5 71t-6.5 91.5v1070q-78 63 -185 63q-108 0 -164 -62.5t-56 -200.5v-86h230l-1 -81h-229v-918h-95v918h-167v81h167v87q0 172 85.5 256.5t225.5 84.5q80 0 143.5 -21.5t140.5 -72.5v-1095q0 -32 1.5 -51t7.5 -44t18.5 -38 t35.5 -22.5t57 -9.5q41 0 85 10l3 -82q-70 -15 -126 -15z" glyph-name="uniFB02" horiz-adv-x="1070" unicode="fl"/><glyph d="M224 0v918h-178v81h178v101q0 147 102.5 237t259.5 90q129 0 233 -64q76 64 206 64q71 0 145 -37l-32 -78q-58 29 -105 29q-199 0 -199 -188v-154h337v-81h-337v-918h-97v918h-420v-918h-93zM317 999h420v162q0 88 39 139q-81 48 -186 48q-126 0 -199.5 -68.5 t-73.5 -181.5v-99z" glyph-name="f_f.liga" horiz-adv-x="1211" unicode="ff"/><glyph d="M1347 999v-999h-94v918h-422v-918h-94v918h-420v-918h-93v918h-178v81h178v101q0 147 102.5 237t259.5 90q144 0 251 -75q85 75 227 75q154 0 275 -92l-47 -66q-96 79 -224 79q-117 0 -177 -62.5t-60 -200.5v-86h516zM737 999v87q0 124 50 207q-90 55 -197 55 q-126 0 -199.5 -68.5t-73.5 -181.5v-99h420z" glyph-name="f_f_i.liga" horiz-adv-x="1534" unicode="ffi"/><glyph d="M1439 -14q-59 0 -97 16.5t-57 50t-25.5 71t-6.5 91.5v1076q-81 57 -185 57q-117 0 -177 -62.5t-60 -200.5v-86h241v-81h-241v-918h-94v918h-420v-918h-93v918h-178v81h178v101q0 147 102.5 237t259.5 90q144 0 252 -74q84 74 226 74q151 0 283 -94v-1095q0 -33 1 -51.5 t8 -43.5t20 -38t38 -22.5t62 -9.5q46 0 92 10l3 -82q-72 -15 -132 -15zM317 999h420v87q0 132 54 205q-88 57 -201 57q-126 0 -199.5 -68.5t-73.5 -181.5v-99z" glyph-name="f_f_l.liga" horiz-adv-x="1625" unicode="ffl"/><glyph d="M922 -61q-158 0 -301.5 61t-247 165t-165 247t-61.5 301t61.5 301t165 247t247 165t301.5 61t301 -61t247 -165t165 -247t61 -301t-61 -301t-165 -247t-247 -165t-301 -61zM922 10q143 0 273 55.5t224 149.5t149.5 224.5t55.5 273.5t-55.5 273t-149.5 224t-224 149.5 t-273 55.5q-144 0 -274 -55.5t-224 -149.5t-149.5 -224t-55.5 -273t55.5 -273.5t149.5 -224.5t224 -149.5t274 -55.5zM518 410q-14 0 -24.5 9.5t-10.5 24.5v537q0 15 10.5 26t24.5 11q16 0 26.5 -11t10.5 -26v-537q0 -15 -10.5 -24.5t-26.5 -9.5zM922 410q-16 0 -25.5 9.5 t-9.5 24.5v537q0 15 10 26t25 11t24.5 -11t9.5 -26v-537q0 -15 -9.5 -24.5t-24.5 -9.5zM1323 410q-14 0 -23 10l-270 268q-8 11 -8 25q0 16 8 24l265 262q14 15 32 15q14 0 23.5 -9t9.5 -24q0 -14 -10 -25l-244 -243l244 -244q10 -10 10 -25q0 -13 -11.5 -23.5t-25.5 -10.5z M653 678q-15 0 -25 9.5t-10 25.5q0 15 10 25t25 10h133q16 0 26.5 -10t10.5 -25q0 -16 -10.5 -25.5t-26.5 -9.5h-133z" glyph-name="h_d_c_o.liga" horiz-adv-x="1843" unicode="hdco"/><glyph d="M190 0v961h833v-961h-833zM238 48h738v865h-738v-865z" glyph-name=".notdef" horiz-adv-x="1214"/><glyph glyph-name="glyph1" horiz-adv-x="0"/><glyph glyph-name="glyph2" horiz-adv-x="682"/><glyph glyph-name="space" horiz-adv-x="533" unicode=" "/><glyph d="M274 388l-9 1025h94l-9 -1025h-76zM261 0v205h102v-205h-102z" glyph-name="exclam" horiz-adv-x="624" unicode="!"/><glyph d="M266 965v448h81v-448h-81zM574 965v448h82v-448h-82z" glyph-name="quotedbl" horiz-adv-x="922" unicode="&quot;"/><glyph d="M291 0l91 434h-254v71h269l88 430h-271v74h286l88 404h78l-86 -407h389l86 407h78l-86 -407h260v-71h-275l-91 -430h280v-71h-295l-89 -434h-79l91 434h-390l-89 -434h-79zM475 505h391l87 430h-389z" glyph-name="numbersign" horiz-adv-x="1434" unicode="#"/><glyph d="M1031 380q0 -171 -122.5 -279.5t-309.5 -112.5v-248l-48 -2v251q-172 10 -291 109.5t-148 268.5l98 23q21 -140 111.5 -221t229.5 -92v638q-46 18 -77 31t-72.5 33.5t-68 40t-56 47t-46 57t-27.5 68.5t-11 84q0 148 101.5 245t256.5 105v233h48v-232q249 -9 370 -221 l-82 -51q-98 173 -288 182v-543q164 -64 222 -95q159 -87 197 -219q13 -46 13 -100zM291 1080q0 -52 19.5 -93.5t58.5 -73t80.5 -54t101.5 -46.5v524q-114 -8 -187 -79.5t-73 -177.5zM599 76q149 3 241.5 86.5t92.5 210.5q0 54 -19.5 99t-47 75t-77 60t-88.5 47t-102 42 v-620z" glyph-name="dollar" horiz-adv-x="1153" unicode="$"/><glyph d="M418 795q-52 0 -95.5 18.5t-73 50t-50 72.5t-30 85t-9.5 90q0 79 25.5 148.5t84.5 118.5t142 49q114 0 186 -89.5t72 -227.5t-70.5 -226.5t-181.5 -88.5zM357 0l776 1413h71l-776 -1413h-71zM418 864q81 0 132.5 68.5t51.5 177.5q0 104 -49.5 176.5t-140.5 72.5 q-63 0 -106 -39t-60.5 -93t-17.5 -116q0 -63 18 -116.5t62.5 -92t109.5 -38.5zM1152 -14q-86 0 -146.5 49.5t-86 118.5t-25.5 148t25.5 148.5t84.5 118.5t142 49q114 0 186 -89.5t72 -227.5t-70.5 -226.5t-181.5 -88.5zM1152 55q81 0 132.5 68.5t51.5 177.5q0 104 -50 176.5 t-140 72.5q-63 0 -106 -39t-60.5 -93t-17.5 -116q0 -63 18 -116.5t62.5 -92t109.5 -38.5z" glyph-name="percent" horiz-adv-x="1564" unicode="%"/><glyph d="M1275 -3l-68 -59l-192 225q-174 -177 -438 -177q-190 0 -305.5 89.5t-115.5 244.5q0 65 21 121.5t52 97.5t81.5 80.5t95.5 66t109 58.5q-2 2 -28.5 32.5t-37 44t-36 46.5t-38.5 57t-29 56.5t-23 64t-7 62.5q0 140 103.5 229t253.5 89q141 0 237.5 -91t96.5 -226 q0 -48 -12.5 -90t-39.5 -78t-55.5 -64.5t-74 -57.5t-81 -49t-89.5 -47l359 -420q102 154 119 382l92 -8q-21 -264 -151 -444zM408 1106q0 -35 12.5 -72.5t40 -79t44.5 -64.5t52.5 -64t36.5 -43q63 31 100 51t86 53t74.5 62t44.5 70.5t19 87.5q0 103 -68.5 172t-175.5 69 q-116 0 -191 -67t-75 -175zM575 68q235 0 384 162l-384 451q-49 -25 -84 -45t-76 -47t-68.5 -54t-51.5 -60.5t-35.5 -72.5t-11.5 -83q0 -117 88 -184t239 -67z" glyph-name="ampersand" horiz-adv-x="1426" unicode="&amp;"/><glyph d="M264 993v420h82v-420h-82z" glyph-name="quotesingle" horiz-adv-x="610" unicode="'"/><glyph d="M387 -42q-105 122 -168.5 339.5t-63.5 407.5q0 212 59 410.5t173 337.5h91q-124 -151 -184.5 -349t-60.5 -400t64 -404t179 -342h-89z" glyph-name="parenleft" horiz-adv-x="565" unicode="("/><glyph d="M178 -42h-89q115 140 179 342t64 404t-60.5 400t-184.5 349h91q114 -139 173 -337.5t59 -410.5q0 -190 -63.5 -407.5t-168.5 -339.5z" glyph-name="parenright" horiz-adv-x="565" unicode=")"/><glyph d="M351 847l-102 73l180 196l-256 36l41 122l232 -107l-34 246h125l-36 -246l234 107l40 -122l-256 -36l179 -196l-104 -73l-120 242z" glyph-name="asterisk" horiz-adv-x="948" unicode="*"/><glyph d="M614 116v472h-472v76h472v472h75v-472h472v-76h-472v-472h-75z" glyph-name="plus" horiz-adv-x="1303" unicode="+"/><glyph d="M167 -319l233 580h109l-273 -580h-69z" glyph-name="comma" horiz-adv-x="658" unicode=","/><glyph d="M180 593v75h525v-75h-525z" glyph-name="hyphen" horiz-adv-x="884" unicode="-"/><glyph d="M262 0v205h96v-205h-96z" glyph-name="period" horiz-adv-x="620" unicode="."/><glyph d="M29 -426l718 1839h92l-717 -1839h-93z" glyph-name="slash" horiz-adv-x="868" unicode="/"/><glyph d="M596 -14q-83 0 -153.5 24t-121.5 64.5t-91 98t-65.5 121t-42.5 136t-23.5 140t-6.5 137.5q0 101 13 195.5t48 192.5t88 170t141 118t200 46q127 0 226 -62t157.5 -166.5t88 -231t29.5 -266.5q0 -110 -17.5 -212t-56 -194.5t-94 -161t-138 -109t-181.5 -40.5zM594 80 q81 0 147 35t110 94.5t74 140.5t43.5 170t13.5 185q0 124 -22.5 232.5t-68.5 199.5t-125.5 144t-183.5 53q-75 0 -136.5 -26.5t-103.5 -73.5t-72.5 -106.5t-47.5 -132t-25 -143t-8 -145.5q0 -91 11 -174t39.5 -168t73 -146.5t116.5 -100t165 -38.5z" glyph-name="zero" horiz-adv-x="1174" unicode="0"/><glyph d="M650 1413h93v-1413h-97v1105h-363v77h258q109 0 109 97v134z" glyph-name="one" horiz-adv-x="1174" unicode="1"/><glyph d="M104 0v100q94 59 160.5 103t156.5 110.5t153 122.5t130.5 129t108.5 142t67.5 150.5t26.5 163.5q0 146 -83 231t-233 85q-166 0 -253.5 -104t-89.5 -282l-96 5q0 212 116.5 341t322.5 129q190 0 302.5 -108.5t112.5 -298.5q0 -82 -24.5 -164.5t-65.5 -154t-101.5 -144 t-124.5 -132.5t-144 -122t-150.5 -109.5t-152.5 -98.5l-23 -4h862v-90h-978z" glyph-name="two" horiz-adv-x="1174" unicode="2"/><glyph d="M577 -14q-216 0 -349.5 114t-133.5 312l94 5q0 -157 106 -248t284 -91q171 0 279 87.5t108 236.5q0 63 -20 112.5t-56 81.5t-79.5 54t-98 33t-102.5 15t-102 4v94q383 -2 383 265q0 122 -89 198t-227 76q-144 0 -232 -80t-89 -213l-93 6q0 171 116 275t297 104 q174 0 292.5 -100t118.5 -256q0 -72 -25.5 -128.5t-71 -93t-98 -59t-116.5 -34.5q78 -11 144.5 -36.5t122 -67.5t87.5 -108t32 -149q0 -187 -135.5 -298t-346.5 -111z" glyph-name="three" horiz-adv-x="1174" unicode="3"/><glyph d="M883 429h232v-90h-232v-339h-97v339h-725v68l727 1006h95v-984zM183 429h603v844z" glyph-name="four" horiz-adv-x="1174" unicode="4"/><glyph d="M611 934q190 0 318.5 -134t128.5 -331q0 -132 -63.5 -243t-173.5 -175.5t-241 -64.5q-173 0 -300.5 110t-167.5 288l92 24q33 -149 132 -240.5t244 -91.5q161 0 269.5 115t108.5 279q0 161 -100.5 267.5t-258.5 106.5q-99 0 -187 -47.5t-150 -136.5l-105 32l126 721h706 v-91h-628l-93 -541q151 153 343 153z" glyph-name="five" horiz-adv-x="1174" unicode="5"/><glyph d="M588 907q191 0 328.5 -135.5t137.5 -324.5q0 -190 -137 -325.5t-329 -135.5q-127 0 -234.5 62t-170 168t-62.5 231q0 141 80 257l418 709h111l-317 -540q83 34 175 34zM588 79q152 0 261 108t109 260q0 151 -109 259t-261 108q-153 0 -262 -108t-109 -259 q0 -153 108.5 -260.5t262.5 -107.5z" glyph-name="six" horiz-adv-x="1174" unicode="6"/><glyph d="M93 1413h1007v-67l-714 -1346h-108l710 1322h-895v91z" glyph-name="seven" horiz-adv-x="1174" unicode="7"/><glyph d="M587 -14q-88 0 -168.5 26t-146 75t-104.5 128t-39 177q0 139 78.5 239t210.5 136q-95 38 -149.5 121.5t-54.5 195.5q0 80 32.5 146t86 108.5t120 65.5t137.5 23q160 0 267.5 -98t107.5 -255q0 -107 -56 -189t-151 -118q132 -38 208 -137.5t76 -236.5q0 -99 -38.5 -178.5 t-103 -128t-145 -74.5t-168.5 -26zM593 803q121 0 199.5 75t78.5 192q0 123 -78.5 198t-201.5 75q-114 0 -197 -69.5t-83 -190.5q0 -126 77.5 -203t204.5 -77zM586 72q151 0 255 84.5t104 239.5q0 145 -100.5 233.5t-258.5 88.5q-160 0 -260.5 -88t-100.5 -233 q0 -105 52.5 -180.5t132.5 -110t176 -34.5z" glyph-name="eight" horiz-adv-x="1174" unicode="8"/><glyph d="M1047 966q0 -137 -77 -252l-422 -714h-110l317 541q-83 -34 -175 -34q-126 0 -233.5 61.5t-170.5 167.5t-63 230q0 191 137 326t330 135t330 -135t137 -326zM210 966q0 -151 108.5 -259t261.5 -108t261.5 108t108.5 259q0 153 -108 261t-262 108q-153 0 -261.5 -108.5 t-108.5 -260.5z" glyph-name="nine" horiz-adv-x="1174" unicode="9"/><glyph d="M268 749v205h102v-205h-102zM268 0v205h102v-205h-102z" glyph-name="colon" horiz-adv-x="638" unicode=":"/><glyph d="M344 749v205h102v-205h-102zM134 -319l234 580h109l-274 -580h-69z" glyph-name="semicolon" horiz-adv-x="677" unicode=";"/><glyph d="M1085 74l-957 545l957 546l37 -65l-843 -481l843 -481z" glyph-name="less" horiz-adv-x="1277" unicode="&lt;"/><glyph d="M285 817v83h770v-83h-770zM285 444v82h770v-82h-770z" glyph-name="equal" horiz-adv-x="1340" unicode="="/><glyph d="M192 74l-37 64l843 481l-843 481l37 65l957 -546z" glyph-name="greater" horiz-adv-x="1277" unicode=">"/><glyph d="M488 384v173q0 59 20 104.5t52 74t71 52.5t78 47.5t71 52t52 73.5t20 105q0 135 -86 207.5t-242 72.5q-149 0 -233 -79t-86 -217h-85q1 174 110.5 275.5t290.5 101.5q190 0 303 -95.5t113 -267.5q0 -71 -20 -126.5t-52.5 -90t-71.5 -62t-78 -49.5t-71.5 -45.5t-52.5 -57 t-20 -77.5v-172h-83zM479 0v205h103v-205h-103z" glyph-name="question" horiz-adv-x="1074" unicode="?"/><glyph d="M1065 -355q-145 0 -278 38t-243.5 112.5t-192.5 178.5t-127.5 243t-45.5 299q0 196 67.5 366.5t185.5 293t287.5 192.5t365.5 70q194 0 360.5 -68t281.5 -185.5t180 -280t65 -347.5q0 -94 -16.5 -182t-53 -168t-89 -140t-129.5 -95t-169 -35q-105 0 -159.5 64.5 t-49.5 184.5q0 69 9 135q-65 -118 -164.5 -190.5t-225.5 -72.5q-145 0 -224.5 95.5t-79.5 256.5q0 82 20 169.5t62 171t99.5 149t140.5 106t177 40.5q121 0 192.5 -66t85.5 -188l41 202l80 -3q-2 -9 -69.5 -322t-78.5 -428q-26 -225 142 -225q79 0 144 31t108.5 83t73 122.5 t43 147t13.5 158.5q0 170 -59 318.5t-164 255.5t-256.5 169t-329.5 62q-181 0 -336 -64t-263 -176t-169.5 -269t-61.5 -337q0 -184 64.5 -335.5t175 -250.5t257.5 -153t314 -54q140 0 278 47l28 -74q-152 -52 -307 -52zM930 137q83 0 154.5 35.5t121.5 93.5t85.5 132 t52.5 151t17 150q0 131 -58.5 199.5t-174.5 68.5q-103 0 -188 -53.5t-137 -137.5t-80 -180t-28 -188q0 -132 59.5 -201.5t175.5 -69.5z" glyph-name="at" horiz-adv-x="2145" unicode="@"/><glyph d="M87 0l512 1413h90l511 -1413h-106l-124 352h-650l-124 -352h-109zM351 438h588l-294 843z" glyph-name="A" horiz-adv-x="1288" unicode="A"/><glyph d="M238 0v1413h408q191 0 302 -90t111 -268q0 -108 -57 -192.5t-146 -117.5q125 -26 198 -122.5t73 -237.5q0 -185 -119.5 -285t-327.5 -100h-442zM337 777h358q117 0 194.5 74.5t77.5 199.5q0 134 -82 203t-238 69h-310v-546zM337 94h344q173 0 261 76t88 225 q0 136 -79 215.5t-218 79.5h-396v-596z" glyph-name="B" horiz-adv-x="1271" unicode="B"/><glyph d="M776 -14q-200 0 -342.5 92t-213 253.5t-70.5 377.5q0 217 71 377.5t216 250.5t350 90q413 0 561 -374l-93 -37q-57 164 -172 240.5t-297 76.5q-262 0 -400 -164t-138 -456q0 -137 31 -249.5t93 -199.5t165 -135t239 -48q176 0 294 78.5t188 241.5l92 -37 q-168 -378 -574 -378z" glyph-name="C" horiz-adv-x="1463" unicode="C"/><glyph d="M238 0v1413h372q347 0 531.5 -185.5t184.5 -531.5q0 -333 -187 -514.5t-531 -181.5h-370zM337 91h262q302 0 465 154t163 455q0 622 -619 622h-271v-1231z" glyph-name="D" horiz-adv-x="1472" unicode="D"/><glyph d="M238 0v1413h918v-91h-819v-566h730v-91h-730v-571h819v-94h-918z" glyph-name="E" horiz-adv-x="1283" unicode="E"/><glyph d="M238 0v1413h939v-91h-840v-566h737v-91h-737v-665h-99z" glyph-name="F" horiz-adv-x="1268" unicode="F"/><glyph d="M776 -14q-200 0 -342.5 92t-213 253.5t-70.5 377.5q0 217 71 377.5t215.5 250.5t350.5 90q208 0 347 -93t214 -281l-89 -37q-60 166 -176.5 245t-296.5 79q-261 0 -399.5 -167.5t-138.5 -459.5q0 -137 31 -250.5t93 -201t165 -136.5t239 -49q187 0 309.5 90.5 t173.5 266.5l2 201h-354v82h451v-716h-81l-7 272q-153 -286 -494 -286z" glyph-name="G" horiz-adv-x="1544" unicode="G"/><glyph d="M238 0v1413h99v-655h782v655h98v-1413h-98v666h-782v-666h-99z" glyph-name="H" horiz-adv-x="1455" unicode="H"/><glyph d="M238 0v1413h99v-1413h-99z" glyph-name="I" horiz-adv-x="575" unicode="I"/><glyph d="M537 -14q-191 0 -309.5 115t-132.5 302l97 10q11 -153 101.5 -243.5t243.5 -90.5q173 0 254 108.5t81 327.5v807h-589v91h687v-896q0 -256 -107.5 -393.5t-325.5 -137.5z" glyph-name="J" horiz-adv-x="1182" unicode="J"/><glyph d="M238 0v1413h99v-886l847 886h133l-533 -549l568 -864h-122l-514 797l-379 -392v-405h-99z" glyph-name="K" horiz-adv-x="1438" unicode="K"/><glyph d="M238 0v1413h99v-1319h660v-94h-759z" glyph-name="L" horiz-adv-x="1077" unicode="L"/><glyph d="M1393 1413h138v-1413h-95v1289l-503 -1176h-97l-503 1179v-1292h-95v1413h139l508 -1190z" glyph-name="M" horiz-adv-x="1769" unicode="M"/><glyph d="M1087 1413h95v-1413h-110l-739 1263v-1263h-95v1413h109l740 -1262v1262z" glyph-name="N" horiz-adv-x="1420" unicode="N"/><glyph d="M783 -14q-126 0 -231 38t-179 105t-125.5 158t-76 197t-24.5 223t24.5 223t76 197t125.5 157.5t179 104.5t231 38q158 0 282 -58t200.5 -158t116 -228.5t39.5 -275.5q0 -117 -24.5 -223t-75.5 -197t-125.5 -158t-180 -105t-232.5 -38zM783 75q109 0 198 33t151 90.5 t104.5 138t62 173t19.5 197.5q0 131 -32 243t-95.5 200t-168 138t-239.5 50q-134 0 -238 -50t-167 -138t-95 -200t-32 -243q0 -132 32 -244t95 -200t167 -138t238 -50z" glyph-name="O" horiz-adv-x="1569" unicode="O"/><glyph d="M238 0v1413h370q215 0 341 -105t126 -289q0 -186 -124.5 -288t-342.5 -102h-272v-629h-98zM336 722h272q181 0 275.5 76.5t94.5 220.5q0 143 -96.5 222t-273.5 79h-272v-598z" glyph-name="P" horiz-adv-x="1186" unicode="P"/><glyph d="M1384 -76l-202 201q-161 -139 -400 -139q-126 0 -231.5 38t-179.5 105t-125 158t-75.5 197t-24.5 223t24.5 222.5t75.5 197t125 158t179.5 104.5t231.5 38q127 0 232.5 -38t180 -105t125.5 -158t75.5 -197t24.5 -223q0 -156 -43.5 -291t-128.5 -231l201 -198zM782 80 q201 0 331 112l-250 244l65 61l249 -244q145 172 145 454q0 131 -33 242.5t-97.5 198t-169.5 136t-240 49.5q-134 0 -239 -49.5t-169 -136t-97 -198t-33 -242.5t33 -243t97 -198.5t169 -136t239 -49.5z" glyph-name="Q" horiz-adv-x="1595" unicode="Q"/><glyph d="M238 0v1413h375q210 0 337 -102t127 -285q0 -144 -81 -237.5t-226 -124.5l391 -664h-111l-376 653q-60 -4 -99 -4h-238v-649h-99zM337 732h284q173 2 265.5 77t92.5 216q0 142 -96.5 220.5t-268.5 78.5h-277v-592z" glyph-name="R" horiz-adv-x="1262" unicode="R"/><glyph d="M588 -12q-185 0 -315.5 100.5t-160.5 278.5l98 23q22 -149 124 -231.5t256 -82.5q152 0 247.5 84t95.5 213q0 80 -41 140t-106 97t-144 68t-158 64t-144 73t-106 106.5t-41 154.5q0 155 110 253t275 98q264 0 391 -221l-82 -51q-53 94 -129 138.5t-183 44.5 q-122 0 -203 -73t-81 -185q0 -57 25.5 -103t68 -77t98 -57.5t117 -49.5t123 -47.5t117 -57.5t98 -73.5t68 -100.5t25.5 -134q0 -173 -126 -282.5t-317 -109.5z" glyph-name="S" horiz-adv-x="1153" unicode="S"/><glyph d="M590 0v1324h-511v89h1118v-89h-509v-1324h-98z" glyph-name="T" horiz-adv-x="1277" unicode="T"/><glyph d="M702 -14q-242 0 -367 140.5t-125 397.5v889h98v-880q0 -221 98 -336t296 -115q200 0 299 117t99 341v873h98v-879q0 -263 -126 -405.5t-370 -142.5z" glyph-name="U" horiz-adv-x="1408" unicode="U"/><glyph d="M1177 1413h108l-557 -1413h-85l-558 1413h108l493 -1270z" glyph-name="V" horiz-adv-x="1369" unicode="V"/><glyph d="M499 0l-402 1413h103l357 -1276l387 1202h83l387 -1202l358 1276h103l-402 -1413h-104l-383 1185l-383 -1185h-104z" glyph-name="W" horiz-adv-x="1972" unicode="W"/><glyph d="M93 0l500 715l-489 698h118l437 -633l438 633h117l-488 -698l500 -715h-117l-450 646l-449 -646h-117z" glyph-name="X" horiz-adv-x="1319" unicode="X"/><glyph d="M614 0v536l-540 877h119l471 -779l473 779h120l-541 -877v-536h-102z" glyph-name="Y" horiz-adv-x="1331" unicode="Y"/><glyph d="M1206 1413v-82l-975 -1241h971v-90h-1100v81l975 1241h-927v91h1056z" glyph-name="Z" horiz-adv-x="1317" unicode="Z"/><glyph d="M229 -112v1634h353v-67h-273v-1499h273v-68h-353z" glyph-name="bracketleft" horiz-adv-x="667" unicode="["/><glyph d="M782 -427l-755 1940h92l755 -1940h-92z" glyph-name="backslash" horiz-adv-x="901" unicode="\"/><glyph d="M438 -112h-353v68h273v1499h-273v67h353v-1634z" glyph-name="bracketright" horiz-adv-x="667" unicode="]"/><glyph d="M143 469l425 983l428 -983h-102l-326 793l-322 -793h-103z" glyph-name="asciicircum" horiz-adv-x="1139" unicode="^"/><glyph d="M256 -75v75h791v-75h-791z" glyph-name="underscore" horiz-adv-x="1303" unicode="_"/><glyph d="M331 1122l-243 291h103l215 -291h-75z" glyph-name="grave" horiz-adv-x="489" unicode="`"/><glyph d="M517 1013q186 0 286.5 -105t100.5 -296v-612h-81l-6 225q-59 -117 -158.5 -178t-221.5 -61q-153 0 -246 80t-93 218q0 285 426 285h292v27q0 169 -72 250.5t-227 81.5q-102 0 -175 -42t-132 -128l-73 54q74 103 164 152t216 49zM453 69q131 0 223 74t140 209v144h-288 q-333 0 -333 -215q0 -98 68.5 -155t189.5 -57z" glyph-name="a" horiz-adv-x="1068" unicode="a"/><glyph d="M673 -14q-131 0 -234.5 74.5t-148.5 200.5v-261h-97v1413h97v-674q45 126 148 200t234 74q130 0 227 -69t146 -184t49 -259t-49 -260t-146 -185.5t-226 -69.5zM653 75q162 0 254 119.5t92 306.5q0 186 -92 305.5t-254 119.5q-165 0 -267.5 -120.5t-102.5 -304.5 q0 -185 102.5 -305.5t267.5 -120.5z" glyph-name="b" horiz-adv-x="1207" unicode="b"/><glyph d="M549 -14q-201 0 -319.5 145t-118.5 367q0 100 27.5 191t80 164t137.5 116.5t191 43.5q133 0 235 -69.5t157 -198.5l-90 -35q-41 101 -120.5 158.5t-181.5 57.5q-111 0 -190 -62t-114.5 -156.5t-35.5 -209.5q0 -86 21.5 -161t62 -134.5t107 -94t150.5 -34.5 q105 0 182.5 56.5t111.5 157.5l87 -33q-45 -127 -145.5 -198t-234.5 -71z" glyph-name="c" horiz-adv-x="1020" unicode="c"/><glyph d="M558 -14q-197 0 -323 148t-126 367q0 142 56 258.5t159 185t233 68.5q132 0 235 -74t148 -200v674h96v-1413h-89l-4 266q-45 -129 -148.5 -204.5t-236.5 -75.5zM578 74q164 0 266.5 121t102.5 306q0 184 -102.5 304.5t-266.5 120.5q-165 0 -269 -121.5t-104 -303.5 q0 -184 104 -305.5t269 -121.5z" glyph-name="d" horiz-adv-x="1229" unicode="d"/><glyph d="M565 -14q-211 0 -332 141.5t-121 366.5q0 146 51 263t151 186.5t234 69.5q92 0 166 -28.5t121 -74.5t78.5 -106t44.5 -119.5t13 -119.5q0 -63 -6 -86h-753q5 -191 98 -298t255 -107q99 0 169 30t142 104l67 -61q-86 -87 -173 -124t-205 -37zM212 551h663q3 32 0 62 q-3 46 -15 89.5t-38 85.5t-62.5 73.5t-91.5 50.5t-121 19q-144 0 -234 -104.5t-101 -275.5z" glyph-name="e" horiz-adv-x="1076" unicode="e"/><glyph d="M263 0v918h-217v81h218v162q0 130 72 198t199 68q67 0 138 -37l-32 -78q-53 29 -98 29q-183 0 -183 -188v-154h313v-81h-313v-918h-97z" glyph-name="f" horiz-adv-x="713" unicode="f"/><glyph d="M553 113q56 -8 87 -13t81.5 -16t80 -22.5t65.5 -32t55.5 -44.5t33 -59t13.5 -78q0 -145 -111 -227t-294 -82q-198 0 -317 95t-119 248q0 20 3 42l156 154q-138 56 -143 183q0 96 83 168q-89 95 -89 233q0 153 108 252t270 99q159 0 266 -97l149 135l51 -63l-149 -132 q59 -85 59 -200q0 -152 -106.5 -248t-268.5 -96q-133 0 -230 66q-60 -42 -60 -102q1 -24 11.5 -44t24 -34t41.5 -26.5t49 -19.5t61.5 -15.5t65 -12.5t73.5 -11zM519 937q-126 0 -204.5 -77t-78.5 -199q0 -120 77 -194.5t204 -74.5t203.5 74t76.5 193q0 124 -76.5 201 t-201.5 77zM563 -384q139 0 227.5 56t88.5 166q0 40 -18.5 69.5t-47.5 47.5t-74.5 31t-91 21t-104.5 17q-15 2 -23 3q-112 15 -172 31l-139 -156q-1 -11 1 -31q7 -118 103.5 -186.5t249.5 -68.5z" glyph-name="g" horiz-adv-x="1050" unicode="g"/><glyph d="M193 0v1413h96v-601q42 96 125.5 148.5t191.5 52.5q163 0 250.5 -100t92.5 -269v-644h-96v613q0 313 -267 313q-137 0 -217 -91.5t-80 -242.5v-592h-96z" glyph-name="h" horiz-adv-x="1115" unicode="h"/><glyph d="M188 1215v198h99v-198h-99zM190 0v999h94v-999h-94z" glyph-name="i" horiz-adv-x="474" unicode="i"/><glyph d="M190 1215v198h99v-198h-99zM32 -431q-73 0 -158 31l26 84q69 -28 124 -28q86 0 127 50t41 155v1138h95v-1132q0 -144 -63 -221t-192 -77z" glyph-name="j" horiz-adv-x="479" unicode="j"/><glyph d="M193 0v1413h94v-1000l560 586h125l-358 -369l422 -630h-112l-375 569l-262 -272v-297h-94z" glyph-name="k" horiz-adv-x="1083" unicode="k"/><glyph d="M362 -14q-44 0 -76.5 12t-51.5 31t-30 49.5t-14.5 62t-3.5 74.5v1198h95v-1175q0 -33 1 -51.5t7.5 -43.5t18.5 -38t35 -22.5t57 -9.5q42 0 85 10l3 -82q-70 -15 -126 -15z" glyph-name="l" horiz-adv-x="542" unicode="l"/><glyph d="M191 0l-1 999h93v-190q39 99 120 151.5t191 52.5q121 0 202 -59t111 -177q38 113 125.5 174.5t207.5 61.5q172 0 255.5 -113t83.5 -322v-578h-95v568q0 180 -62.5 268t-198.5 88q-132 0 -211 -88t-79 -230v-606h-95v614q0 150 -65 230t-195 80q-133 0 -212.5 -88 t-79.5 -230v-606h-95z" glyph-name="m" horiz-adv-x="1744" unicode="m"/><glyph d="M190 0v999h95v-187q42 96 126.5 148.5t192.5 52.5q163 0 250 -100t91 -269v-644h-94v613q0 150 -69 230.5t-201 80.5q-136 0 -216 -84.5t-80 -233.5v-606h-95z" glyph-name="n" horiz-adv-x="1111" unicode="n"/><glyph d="M577 -14q-136 0 -244.5 68.5t-168.5 186t-60 261.5q0 142 60 258.5t168.5 184.5t244.5 68q205 0 340.5 -147.5t135.5 -363.5q0 -218 -135.5 -367t-340.5 -149zM577 70q168 0 273 124t105 308q0 183 -105 305t-273 122q-167 0 -270.5 -122t-103.5 -305 q0 -185 103.5 -308.5t270.5 -123.5z" glyph-name="o" horiz-adv-x="1158" unicode="o"/><glyph d="M193 -414v1413h97v-261q45 126 148.5 200.5t234.5 74.5q129 0 226 -69.5t146 -185.5t49 -260t-49 -259t-146 -184t-227 -69q-131 0 -234 74.5t-148 199.5v-674h-97zM653 74q162 0 254 119.5t92 304.5q0 187 -92 306.5t-254 119.5q-165 0 -267.5 -121t-102.5 -305 q0 -183 103 -303.5t267 -120.5z" glyph-name="p" horiz-adv-x="1207" unicode="p"/><glyph d="M1014 -414h-97v674q-45 -125 -148 -199.5t-234 -74.5q-130 0 -227 69t-146 184t-49 259t49 260t146 185.5t226 69.5q131 0 234.5 -74.5t148.5 -200.5v261h97v-1413zM554 74q164 0 267 120.5t103 303.5q0 184 -102.5 305t-267.5 121q-162 0 -254 -119.5t-92 -306.5 q0 -185 92 -304.5t254 -119.5z" glyph-name="q" horiz-adv-x="1207" unicode="q"/><glyph d="M190 0v999h93v-223q25 79 79.5 134t116.5 79t126 24q85 0 147 -40l-44 -79q-55 26 -115 26q-55 0 -108 -21.5t-99 -64.5t-74.5 -119.5t-28.5 -175.5v-539h-93z" glyph-name="r" horiz-adv-x="785" unicode="r"/><glyph d="M486 -14q-143 0 -252 71.5t-149 186.5l79 34q32 -92 116.5 -151t201.5 -59q120 0 187.5 56t67.5 148q0 62 -33.5 103.5t-87 62t-118 36t-129.5 33t-118.5 43t-87 76.5t-33.5 125q0 122 93 192t239 70q114 0 203 -53.5t139 -152.5l-74 -40q-41 78 -110 123t-161 45 q-108 0 -173 -47.5t-65 -125.5q0 -56 33.5 -94t87.5 -57.5t119 -34.5t129.5 -34t118.5 -48t87.5 -84t33.5 -134q0 -138 -95.5 -214t-248.5 -76z" glyph-name="s" horiz-adv-x="934" unicode="s"/><glyph d="M479 -14q-129 0 -194.5 74.5t-65.5 220.5v637h-167v81h169v303l93 72v-375h289v-81h-289v-623q0 -116 44 -169.5t135 -53.5q60 0 109 19l3 -88q-62 -17 -126 -17z" glyph-name="t" horiz-adv-x="685" unicode="t"/><glyph d="M507 -14q-163 0 -250 100t-91 270v643h94v-613q0 -150 69 -230.5t201 -80.5q136 0 216 85t80 234v605h94v-999h-94v188q-42 -97 -126.5 -149.5t-192.5 -52.5z" glyph-name="u" horiz-adv-x="1111" unicode="u"/><glyph d="M459 0l-408 999h103l347 -880l346 880h105l-409 -999h-84z" glyph-name="v" horiz-adv-x="1002" unicode="v"/><glyph d="M354 0l-285 999h102l235 -858l295 858h92l293 -858l236 858h102l-286 -999h-94l-297 871l-299 -871h-94z" glyph-name="w" horiz-adv-x="1492" unicode="w"/><glyph d="M61 0l375 501l-375 498h115l322 -432l320 432h117l-375 -498l377 -501h-118l-321 434l-321 -434h-116z" glyph-name="x" horiz-adv-x="997" unicode="x"/><glyph d="M319 -427l166 435l-437 991h105l383 -878l324 878h103l-540 -1426h-104z" glyph-name="y" horiz-adv-x="1016" unicode="y"/><glyph d="M887 999v-84l-692 -833h686v-82h-809v76l703 842h-667v81h779z" glyph-name="z" horiz-adv-x="971" unicode="z"/><glyph d="M433 -132q-96 0 -148.5 64.5t-52.5 176.5v373q0 53 -30.5 84t-86.5 50v79q59 15 88 48.5t29 105.5v413q0 236 215 236h88v-66h-60q-85 0 -122.5 -42.5t-37.5 -129.5v-412q0 -80 -29.5 -124.5t-91.5 -64.5v-8q121 -48 121 -168v-372q0 -83 38 -130t108 -47h73v-66h-101z " glyph-name="braceleft" horiz-adv-x="627" unicode="{"/><glyph d="M288 -512v2046h74v-2046h-74z" glyph-name="bar" horiz-adv-x="650" unicode="|"/><glyph d="M194 -132h-101v66h73q70 0 108 47t38 130v372q0 120 121 168v8q-62 20 -91.5 64.5t-29.5 124.5v412q0 87 -37.5 129.5t-122.5 42.5h-60v66h88q215 0 215 -236v-413q0 -72 29 -105.5t88 -48.5v-79q-56 -19 -86.5 -50t-30.5 -84v-373q0 -112 -52.5 -176.5t-148.5 -64.5z " glyph-name="braceright" horiz-adv-x="627" unicode="}"/><glyph d="M810 386q-47 0 -85 19t-61 47.5t-47 62t-44 62t-51 47.5t-68 19q-69 0 -107 -56.5t-38 -156.5h-75q0 129 59.5 205t160.5 76q58 0 102 -26.5t71 -64t51.5 -75t57 -64t74.5 -26.5q67 0 108 64.5t41 170.5h75q0 -137 -61.5 -220.5t-162.5 -83.5z" glyph-name="asciitilde" horiz-adv-x="1268" unicode="~"/><glyph glyph-name="uni00A0" horiz-adv-x="563" unicode=" "/><glyph d="M261 1413h102v-205h-102v205zM274 1025h76l9 -1025h-94z" glyph-name="exclamdown" horiz-adv-x="624" unicode="¡"/><glyph d="M599 -213v201q-186 13 -295 155t-109 355q0 130 43.5 241.5t137.5 188t223 84.5v188h55v-188q126 -5 222 -74.5t148 -192.5l-91 -35q-38 95 -111.5 151t-167.5 63v-848q97 5 168.5 61t103.5 151l88 -33q-44 -123 -138.5 -193t-221.5 -75v-198zM599 78v844 q-100 -8 -171.5 -70.5t-104 -153.5t-32.5 -200t33 -199.5t104.5 -151.5t170.5 -69z" glyph-name="cent" horiz-adv-x="1199" unicode="¢"/><glyph d="M304 82h910v-82h-1026v106q126 31 205 116t79 189q0 35 -9 75.5t-19 68t-29.5 76t-27.5 70.5h-191v82h169q-39 115 -39 229q0 179 111 295.5t291 116.5q135 0 237 -79t153 -215l-78 -28q-43 115 -124 177.5t-188 62.5q-143 0 -231.5 -91.5t-88.5 -240.5q0 -112 43 -227 h466v-82h-445q5 -14 26 -67t28.5 -76.5t16.5 -66t9 -79.5q0 -58 -17.5 -109t-43 -85t-61.5 -63t-65 -44.5t-61 -28.5z" glyph-name="sterling" horiz-adv-x="1294" unicode="£"/><glyph d="M325 190l-53 55l99 98q-109 125 -109 292t109 292l-98 97l53 55l98 -99q125 109 292 109t292 -109l99 98l53 -53l-98 -97q109 -126 109 -293.5t-109 -292.5l98 -97l-53 -55l-99 99q-124 -109 -291.5 -109t-293.5 109zM447 367q111 -112 268.5 -112t268.5 112 q111 111 111.5 268t-111.5 267q-111 112 -268.5 112t-267.5 -112q-111 -110 -111 -268t110 -267z" glyph-name="currency" horiz-adv-x="1432" unicode="¤"/><glyph d="M684 0v229h-378v79h378v220h-378v80h334l-496 805h119l471 -779l473 779h119l-497 -805h334v-80h-377v-220h377v-79h-377v-229h-102z" glyph-name="yen" horiz-adv-x="1470" unicode="¥"/><glyph d="M288 731v744h81v-744h-81zM288 -307v727h81v-727h-81z" glyph-name="brokenbar" horiz-adv-x="657" unicode="¦"/><glyph d="M617 -13q-315 0 -426 270l89 29q54 -116 135.5 -168t207.5 -52q138 0 228 54.5t90 140.5q0 55 -39 94.5t-102 63.5t-138.5 45t-151.5 45.5t-139 57t-102 88.5t-39 132q0 116 89 199q-88 65 -88 167q0 122 104.5 198t257.5 76q251 0 368 -170l-76 -46q-47 71 -118 105 t-177 34q-122 0 -200 -57t-78 -141q0 -48 30.5 -84t80.5 -57.5t114 -42.5t130.5 -37t130.5 -42.5t114 -58t80.5 -84t30.5 -119.5q0 -118 -86 -198q86 -66 86 -168q0 -84 -56 -147t-147.5 -95t-202.5 -32zM856 466q85 59 85 159q0 61 -36.5 106.5t-100 74.5t-129.5 49.5 t-147.5 46t-130.5 50.5q-85 -60 -85 -162q0 -51 27.5 -91.5t70 -65.5t102.5 -48t116.5 -38t121 -37t106.5 -44z" glyph-name="section" horiz-adv-x="1220" unicode="§"/><glyph d="M185 1215v198h82v-198h-82zM538 1215v198h82v-198h-82z" glyph-name="dieresis" horiz-adv-x="791" unicode="¨"/><glyph d="M870 -16q-147 0 -281 57t-230.5 154t-154 231t-57.5 281q0 196 97 362.5t263.5 263.5t362.5 97t362 -97t262.5 -263.5t96.5 -362.5q0 -147 -57 -281t-153.5 -231t-230 -154t-280.5 -57zM870 48q133 0 255 52.5t210 140.5t140 210t52 256q0 178 -88 329.5t-239.5 240 t-329.5 88.5q-134 0 -256 -52t-210 -140.5t-140 -210t-52 -255.5t52 -256t140 -210.5t210 -140.5t256 -52zM892 224q-125 0 -219 63.5t-142.5 172t-48.5 245.5q0 75 16 145t49.5 131.5t81 108t114.5 73t147 26.5q124 0 219.5 -65t147.5 -185l-77 -30q-40 97 -116 151.5 t-174 54.5q-106 0 -182 -59t-110.5 -150t-34.5 -201q0 -111 35 -201.5t111 -148t182 -57.5q101 0 175.5 54.5t106.5 150.5l74 -29q-42 -119 -135.5 -184.5t-219.5 -65.5z" glyph-name="copyright" horiz-adv-x="1739" unicode="©"/><glyph d="M463 703q-105 0 -171 56.5t-66 150.5q0 104 77.5 155.5t222.5 51.5h209q0 16 -2 46q-9 209 -213 209q-72 0 -124.5 -30t-97.5 -93l-47 34q56 77 119 110.5t152 33.5q131 0 200.5 -73.5t69.5 -207.5v-433h-54l-1 153q-99 -163 -274 -163zM472 760q173 0 256 179 q6 79 7 124h-205q-241 0 -241 -153q0 -68 50.5 -109t132.5 -41z" glyph-name="ordfeminine" horiz-adv-x="1069" unicode="ª"/><glyph d="M473 175l-384 336l384 336v-88l-282 -248l282 -248v-88zM829 175l-384 336l384 336v-88l-282 -248l282 -248v-88z" glyph-name="guillemotleft" horiz-adv-x="979" unicode="«"/><glyph d="M967 291v420h-798v86h890v-506h-92z" glyph-name="logicalnot" horiz-adv-x="1343" unicode="¬"/><glyph d="M180 593v75h668v-75h-668z" glyph-name="uni00AD" horiz-adv-x="1027" unicode="­"/><glyph d="M870 -16q-147 0 -281 57t-230.5 154t-154 231t-57.5 281q0 196 97 362.5t263.5 263.5t362.5 97t362 -97t262.5 -263.5t96.5 -362.5q0 -147 -57 -281t-153.5 -231t-230 -154t-280.5 -57zM870 48q133 0 255 52.5t210 140.5t140 210t52 256q0 178 -88 329.5t-239.5 240 t-329.5 88.5q-134 0 -256 -52t-210 -140.5t-140 -210t-52 -255.5t52 -256t140 -210.5t210 -140.5t256 -52zM650 263v887h236q135 0 213.5 -65.5t78.5 -179.5q0 -88 -49 -147t-139 -79l243 -416h-77l-234 407q-36 -2 -58 -2h-146v-405h-68zM718 725h173q107 1 163.5 47.5 t56.5 132.5q0 87 -58.5 134.5t-165.5 47.5h-169v-362z" glyph-name="registered" horiz-adv-x="1739" unicode="®"/><glyph d="M184 1244v61h544v-61h-544z" glyph-name="macron" horiz-adv-x="902" unicode="¯"/><glyph d="M501 855q-118 0 -202 84t-84 202t84 202t202 84q117 0 201 -84t84 -202t-84 -202t-201 -84zM501 923q90 0 153.5 63.5t63.5 154.5t-63.5 154.5t-153.5 63.5q-91 0 -154.5 -63.5t-63.5 -154.5t63.5 -154.5t154.5 -63.5z" glyph-name="degree" horiz-adv-x="1001" unicode="°"/><glyph d="M646 188v482h-482v75h482v480h76v-480h481v-75h-481v-482h-76zM164 -75v75h1024v-75h-1024z" glyph-name="plusminus" horiz-adv-x="1364" unicode="±"/><glyph d="M165 1066h500v-67h-606v69q58 37 93.5 60t93 63.5t93.5 72t79.5 76.5t68.5 85t42 88.5t17 96.5q0 83 -47 131.5t-132 48.5q-95 0 -145 -61.5t-51 -162.5l-71 3q0 128 71 207.5t196 79.5q114 0 182.5 -66t68.5 -182q0 -272 -453 -542z" glyph-name="uni00B2" unicode="²"/><glyph d="M357 987q-130 0 -212 69t-82 189l69 5q0 -91 62 -143t164 -52q97 0 159 49.5t62 134.5q0 174 -264 172v67q103 0 161.5 33t58.5 117q0 69 -51 112t-128 43q-83 0 -133.5 -45.5t-51.5 -120.5l-69 4q0 104 71.5 167.5t180.5 63.5q106 0 178.5 -60.5t72.5 -155.5 q0 -144 -176 -187q97 -15 159 -68.5t62 -145.5q0 -114 -83 -181t-210 -67z" glyph-name="uni00B3" unicode="³"/><glyph d="M87 1128l216 285h103l-243 -285h-76z" glyph-name="acute" horiz-adv-x="490" unicode="´"/><glyph d="M286 -355v1354h94v-613q0 -150 69 -230.5t201 -80.5q136 0 216 85t80 234v605h94v-999h-94v188q-42 -97 -126.5 -149.5t-192.5 -52.5q-194 0 -262 154v-495h-79z" glyph-name="uni00B5" horiz-adv-x="1288" unicode="µ"/><glyph d="M601 -246v869q-119 0 -220.5 45.5t-166.5 137.5t-65 212t65 212t166.5 137.5t220.5 45.5h71v-1659h-71zM893 -246v1659h71v-1659h-71z" glyph-name="paragraph" horiz-adv-x="1252" unicode="¶"/><glyph d="M354 602q-54 0 -91.5 38t-37.5 91q0 55 37 91.5t92 36.5q54 0 91.5 -37t37.5 -91q0 -53 -38 -91t-91 -38z" glyph-name="periodcentered" horiz-adv-x="708" unicode="·"/><glyph d="M296 -514q-62 0 -116 36t-76 93l59 25q15 -42 52 -68t83 -26q65 0 101 32.5t36 91.5q0 58 -48 94t-138 44q-42 3 -93 3l107 188h63l-84 -143q40 -2 67 -7q91 -15 139 -60t48 -116q0 -85 -54.5 -136t-145.5 -51z" glyph-name="cedilla" horiz-adv-x="608" unicode="¸"/><glyph d="M376 1847h69v-848h-72v654h-215v56h149q69 0 69 63v75z" glyph-name="uni00B9" unicode="¹"/><glyph d="M512 717q-145 0 -241.5 102.5t-96.5 253.5q0 150 96.5 252t241.5 102q144 0 240 -102.5t96 -251.5q0 -151 -95.5 -253.5t-240.5 -102.5zM512 780q119 0 192.5 83t73.5 210q0 126 -73.5 209t-192.5 83q-120 0 -194 -82.5t-74 -209.5t74 -210t194 -83z" glyph-name="ordmasculine" horiz-adv-x="1024" unicode="º"/><glyph d="M150 175v88l282 248l-282 248v88l384 -336zM506 175v88l282 248l-282 248v88l384 -336z" glyph-name="guillemotright" horiz-adv-x="979" unicode="»"/><glyph d="M376 1346v75h69v-848h-72v654h-215v56h149q69 0 69 63zM1224 1413h71l-776 -1413h-71zM1549 270h138v-67h-138v-203h-72v203h-429v48l433 597h68v-578zM1140 270h337v472z" glyph-name="onequarter" horiz-adv-x="1743" unicode="¼"/><glyph d="M376 1346v75h69v-848h-72v654h-215v56h149q69 0 69 63zM1224 1413h71l-776 -1413h-71zM1175 67h498v-67h-606v68q46 29 72 46t72.5 48.5t75 53.5t68.5 55.5t65 61t53.5 63t44 68t26 70.5t10.5 76q0 83 -47 132t-132 49q-96 0 -145.5 -61.5t-50.5 -163.5l-71 4 q0 127 71 206.5t196 79.5q114 0 182.5 -65.5t68.5 -181.5q0 -270 -451 -542z" glyph-name="onehalf" horiz-adv-x="1743" unicode="½"/><glyph d="M650 813q0 -114 -83 -181t-210 -67q-130 0 -212 69t-82 189l69 5q0 -91 62 -143t164 -52q97 0 159 49.5t62 134.5q0 174 -264 172v67q103 0 161.5 33t58.5 117q0 69 -51 112t-128 43q-83 0 -133.5 -45.5t-51.5 -120.5l-69 4q0 104 71.5 167.5t180.5 63.5 q106 0 178.5 -60.5t72.5 -155.5q0 -144 -176 -187q97 -15 159 -68.5t62 -145.5zM1224 1413h71l-776 -1413h-71zM1549 270h138v-67h-138v-203h-72v203h-429v48l433 597h68v-578zM1140 270h337v472z" glyph-name="threequarters" horiz-adv-x="1743" unicode="¾"/><glyph d="M595 1413v-205h-103v205h103zM586 1029v-173q0 -60 -20 -105t-52 -73.5t-71 -52t-78 -47.5t-71 -52.5t-52 -74t-20 -104.5q0 -135 86 -207.5t242 -72.5q149 0 233 79t86 217h85q-1 -174 -110.5 -275.5t-290.5 -101.5q-190 0 -303 95.5t-113 267.5q0 71 20 126.5t52.5 90 t71.5 62t78 49.5t71.5 45.5t52.5 57t20 77.5v172h83z" glyph-name="questiondown" horiz-adv-x="1074" unicode="¿"/><glyph d="M612 1535l-243 291h103l215 -291h-75zM87 0l512 1413h90l511 -1413h-106l-124 352h-650l-124 -352h-109zM351 438h588l-294 843z" glyph-name="Agrave" horiz-adv-x="1288" unicode="À"/><glyph d="M594 1541l216 285h103l-243 -285h-76zM87 0l512 1413h90l511 -1413h-106l-124 352h-650l-124 -352h-109zM351 438h588l-294 843z" glyph-name="Aacute" horiz-adv-x="1288" unicode="Á"/><glyph d="M345 1531l297 307l297 -307h-85l-212 219l-212 -219h-85zM87 0l512 1413h90l511 -1413h-106l-124 352h-650l-124 -352h-109zM351 438h588l-294 843z" glyph-name="Acircumflex" horiz-adv-x="1288" unicode="Â"/><glyph d="M787 1575q-40 0 -71.5 14t-50.5 35.5t-38 46t-34 45.5t-38.5 35t-52.5 14q-53 1 -84 -44.5t-31 -124.5h-60q0 109 47.5 171t130.5 61q44 0 77.5 -19t54.5 -47t41 -56t47 -47.5t62 -19.5q47 0 77 49.5t30 130.5h62q0 -111 -46.5 -177.5t-122.5 -66.5zM87 0l512 1413h90 l511 -1413h-106l-124 352h-650l-124 -352h-109zM351 438h588l-294 843z" glyph-name="Atilde" horiz-adv-x="1288" unicode="Ã"/><glyph d="M423 1628v198h82v-198h-82zM776 1628v198h82v-198h-82zM87 0l512 1413h90l511 -1413h-106l-124 352h-650l-124 -352h-109zM351 438h588l-294 843z" glyph-name="Adieresis" horiz-adv-x="1288" unicode="Ä"/><glyph d="M640 1516q-76 0 -129 53.5t-53 128.5q0 76 53 129t129 53q75 0 128.5 -53.5t53.5 -128.5q0 -76 -53 -129t-129 -53zM640 1574q52 0 88.5 36t36.5 89q0 52 -35.5 88t-89.5 36q-52 0 -88 -36t-36 -88q0 -54 35.5 -89.5t88.5 -35.5zM87 0l512 1413h90l511 -1413h-106 l-124 352h-650l-124 -352h-109zM351 438h588l-294 843z" glyph-name="Aring" horiz-adv-x="1288" unicode="Å"/><glyph d="M87 0l510 1413h1193v-88h-786v-572h683v-85h-683v-578h786v-90h-884v352h-587l-123 -352h-109zM350 431h556v897h-244z" glyph-name="AE" horiz-adv-x="1917" unicode="Æ"/><glyph d="M1350 364q-155 -349 -514 -376l-78 -132q40 -2 67 -7q91 -15 139 -60t48 -116q0 -85 -54.5 -136t-145.5 -51q-62 0 -116 36t-76 93l59 25q15 -42 52 -68t83 -26q65 0 101 32.5t36 91.5q0 58 -48 94t-138 44q-42 3 -93 3l100 175q-199 1 -340.5 93t-211.5 253.5t-70 376.5 q0 217 71 377.5t216 250.5t350 90q413 0 561 -374l-93 -37q-57 164 -172 240.5t-297 76.5q-262 0 -400 -164t-138 -456q0 -137 31 -249.5t93 -199.5t165 -135t239 -48q176 0 294 78.5t188 241.5z" glyph-name="Ccedilla" horiz-adv-x="1463" unicode="Ç"/><glyph d="M668 1535l-243 291h103l215 -291h-75zM238 0v1413h918v-91h-819v-566h730v-91h-730v-571h819v-94h-918z" glyph-name="Egrave" horiz-adv-x="1283" unicode="È"/><glyph d="M650 1541l216 285h103l-243 -285h-76zM238 0v1413h918v-91h-819v-566h730v-91h-730v-571h819v-94h-918z" glyph-name="Eacute" horiz-adv-x="1283" unicode="É"/><glyph d="M401 1531l297 307l297 -307h-85l-212 219l-212 -219h-85zM238 0v1413h918v-91h-819v-566h730v-91h-730v-571h819v-94h-918z" glyph-name="Ecircumflex" horiz-adv-x="1283" unicode="Ê"/><glyph d="M479 1628v198h82v-198h-82zM832 1628v198h82v-198h-82zM238 0v1413h918v-91h-819v-566h730v-91h-730v-571h819v-94h-918z" glyph-name="Edieresis" horiz-adv-x="1283" unicode="Ë"/><glyph d="M256 1535l-243 291h103l215 -291h-75zM238 0v1413h99v-1413h-99z" glyph-name="Igrave" horiz-adv-x="575" unicode="Ì"/><glyph d="M238 1541l216 285h103l-243 -285h-76zM238 0v1413h99v-1413h-99z" glyph-name="Iacute" horiz-adv-x="575" unicode="Í"/><glyph d="M-11 1531l297 307l297 -307h-85l-212 219l-212 -219h-85zM238 0v1413h99v-1413h-99z" glyph-name="Icircumflex" horiz-adv-x="575" unicode="Î"/><glyph d="M67 1628v198h82v-198h-82zM420 1628v198h82v-198h-82zM238 0v1413h99v-1413h-99z" glyph-name="Idieresis" horiz-adv-x="575" unicode="Ï"/><glyph d="M610 1413q347 0 531.5 -185.5t184.5 -531.5q0 -333 -187 -514.5t-531 -181.5h-370v673h-153v68h153v672h372zM599 91q302 0 465 154t163 455q0 622 -619 622h-271v-581h383v-68h-383v-582h262z" glyph-name="Eth" horiz-adv-x="1472" unicode="Ð"/><glyph d="M569 1765q-53 1 -84 -44.5t-31 -124.5h-60q0 109 47.5 171t130.5 61q44 0 77.5 -19t54.5 -47t41 -56t47 -47.5t62 -19.5q47 0 77 49.5t30 130.5h62q0 -111 -46.5 -177.5t-122.5 -66.5q-40 0 -71.5 14t-50.5 35.5t-38 46t-34 45.5t-38.5 35t-52.5 14zM1087 1413h95v-1413 h-110l-739 1263v-1263h-95v1413h109l740 -1262v1262z" glyph-name="Ntilde" horiz-adv-x="1420" unicode="Ñ"/><glyph d="M753 1535l-243 291h103l215 -291h-75zM783 -14q-126 0 -231 38t-179 105t-125.5 158t-76 197t-24.5 223t24.5 223t76 197t125.5 157.5t179 104.5t231 38q158 0 282 -58t200.5 -158t116 -228.5t39.5 -275.5q0 -117 -24.5 -223t-75.5 -197t-125.5 -158t-180 -105 t-232.5 -38zM783 75q109 0 198 33t151 90.5t104.5 138t62 173t19.5 197.5q0 131 -32 243t-95.5 200t-168 138t-239.5 50q-134 0 -238 -50t-167 -138t-95 -200t-32 -243q0 -132 32 -244t95 -200t167 -138t238 -50z" glyph-name="Ograve" horiz-adv-x="1569" unicode="Ò"/><glyph d="M735 1541l216 285h103l-243 -285h-76zM783 -14q-126 0 -231 38t-179 105t-125.5 158t-76 197t-24.5 223t24.5 223t76 197t125.5 157.5t179 104.5t231 38q158 0 282 -58t200.5 -158t116 -228.5t39.5 -275.5q0 -117 -24.5 -223t-75.5 -197t-125.5 -158t-180 -105 t-232.5 -38zM783 75q109 0 198 33t151 90.5t104.5 138t62 173t19.5 197.5q0 131 -32 243t-95.5 200t-168 138t-239.5 50q-134 0 -238 -50t-167 -138t-95 -200t-32 -243q0 -132 32 -244t95 -200t167 -138t238 -50z" glyph-name="Oacute" horiz-adv-x="1569" unicode="Ó"/><glyph d="M486 1531l297 307l297 -307h-85l-212 219l-212 -219h-85zM783 -14q-126 0 -231 38t-179 105t-125.5 158t-76 197t-24.5 223t24.5 223t76 197t125.5 157.5t179 104.5t231 38q158 0 282 -58t200.5 -158t116 -228.5t39.5 -275.5q0 -117 -24.5 -223t-75.5 -197t-125.5 -158 t-180 -105t-232.5 -38zM783 75q109 0 198 33t151 90.5t104.5 138t62 173t19.5 197.5q0 131 -32 243t-95.5 200t-168 138t-239.5 50q-134 0 -238 -50t-167 -138t-95 -200t-32 -243q0 -132 32 -244t95 -200t167 -138t238 -50z" glyph-name="Ocircumflex" horiz-adv-x="1569" unicode="Ô"/><glyph d="M928 1575q-40 0 -71.5 14t-50.5 35.5t-38 46t-34 45.5t-38.5 35t-52.5 14q-53 1 -84 -44.5t-31 -124.5h-60q0 109 47.5 171t130.5 61q44 0 77.5 -19t54.5 -47t41 -56t47 -47.5t62 -19.5q47 0 77 49.5t30 130.5h62q0 -111 -46.5 -177.5t-122.5 -66.5zM783 -14 q-126 0 -231 38t-179 105t-125.5 158t-76 197t-24.5 223t24.5 223t76 197t125.5 157.5t179 104.5t231 38q158 0 282 -58t200.5 -158t116 -228.5t39.5 -275.5q0 -117 -24.5 -223t-75.5 -197t-125.5 -158t-180 -105t-232.5 -38zM783 75q109 0 198 33t151 90.5t104.5 138 t62 173t19.5 197.5q0 131 -32 243t-95.5 200t-168 138t-239.5 50q-134 0 -238 -50t-167 -138t-95 -200t-32 -243q0 -132 32 -244t95 -200t167 -138t238 -50z" glyph-name="Otilde" horiz-adv-x="1569" unicode="Õ"/><glyph d="M564 1628v198h82v-198h-82zM917 1628v198h82v-198h-82zM783 -14q-126 0 -231 38t-179 105t-125.5 158t-76 197t-24.5 223t24.5 223t76 197t125.5 157.5t179 104.5t231 38q158 0 282 -58t200.5 -158t116 -228.5t39.5 -275.5q0 -117 -24.5 -223t-75.5 -197t-125.5 -158 t-180 -105t-232.5 -38zM783 75q109 0 198 33t151 90.5t104.5 138t62 173t19.5 197.5q0 131 -32 243t-95.5 200t-168 138t-239.5 50q-134 0 -238 -50t-167 -138t-95 -200t-32 -243q0 -132 32 -244t95 -200t167 -138t238 -50z" glyph-name="Odieresis" horiz-adv-x="1569" unicode="Ö"/><glyph d="M893 258l-334 334l-333 -334l-54 54l334 334l-334 333l53 53l334 -333l333 333l54 -53l-334 -334l334 -334z" glyph-name="multiply" horiz-adv-x="1120" unicode="×"/><glyph d="M1187 1292q116 -97 175 -250.5t59 -334.5q0 -117 -24.5 -223t-75.5 -197t-125.5 -158t-180 -105t-232.5 -38q-205 0 -353 99l-53 -85h-76l78 124q-114 97 -173 250t-59 333q0 117 24.5 223t76 197t125.5 157.5t179 104.5t231 38q204 0 352 -97l52 83h76zM251 707 q0 -156 45 -286t134 -216l656 1046q-127 87 -303 87q-134 0 -238 -50t-167 -138t-95 -200t-32 -243zM783 75q109 0 198 33t151 90.5t104.5 138t62 173t19.5 197.5q0 157 -45.5 287.5t-136.5 215.5l-656 -1046q126 -89 303 -89z" glyph-name="Oslash" horiz-adv-x="1569" unicode="Ø"/><glyph d="M675 1535l-243 291h103l215 -291h-75zM702 -14q-242 0 -367 140.5t-125 397.5v889h98v-880q0 -221 98 -336t296 -115q200 0 299 117t99 341v873h98v-879q0 -263 -126 -405.5t-370 -142.5z" glyph-name="Ugrave" horiz-adv-x="1408" unicode="Ù"/><glyph d="M657 1541l216 285h103l-243 -285h-76zM702 -14q-242 0 -367 140.5t-125 397.5v889h98v-880q0 -221 98 -336t296 -115q200 0 299 117t99 341v873h98v-879q0 -263 -126 -405.5t-370 -142.5z" glyph-name="Uacute" horiz-adv-x="1408" unicode="Ú"/><glyph d="M408 1531l297 307l297 -307h-85l-212 219l-212 -219h-85zM702 -14q-242 0 -367 140.5t-125 397.5v889h98v-880q0 -221 98 -336t296 -115q200 0 299 117t99 341v873h98v-879q0 -263 -126 -405.5t-370 -142.5z" glyph-name="Ucircumflex" horiz-adv-x="1408" unicode="Û"/><glyph d="M486 1628v198h82v-198h-82zM839 1628v198h82v-198h-82zM702 -14q-242 0 -367 140.5t-125 397.5v889h98v-880q0 -221 98 -336t296 -115q200 0 299 117t99 341v873h98v-879q0 -263 -126 -405.5t-370 -142.5z" glyph-name="Udieresis" horiz-adv-x="1408" unicode="Ü"/><glyph d="M616 1542l216 285h103l-243 -285h-76zM614 0v536l-540 877h119l471 -779l473 779h120l-541 -877v-536h-102z" glyph-name="Yacute" horiz-adv-x="1331" unicode="Ý"/><glyph d="M238 0v1413h91v-207h294q211 0 328 -103.5t117 -284.5q0 -190 -123 -291.5t-340 -101.5h-276v-425h-91zM329 509h276q182 0 277.5 79t95.5 227t-97 229.5t-276 81.5h-276v-617z" glyph-name="Thorn" horiz-adv-x="1181" unicode="Þ"/><glyph d="M725 -13q-118 0 -257 61l33 83q126 -57 222 -57q114 0 180 64t66 171q0 53 -23 99.5t-57 78t-74 65.5t-74 63t-57 69.5t-23 84.5q0 34 12.5 62t32.5 47t44 36.5t47.5 34.5t43.5 36t32.5 47t12.5 63q0 113 -86 180.5t-214 67.5q-153 0 -227 -112.5t-74 -344.5v-886h-94 v886q0 268 102.5 404.5t288.5 136.5q166 0 282 -95t116 -242q0 -50 -17 -90t-42.5 -63.5t-55.5 -45t-55.5 -37t-42.5 -39t-17 -50.5t17.5 -53t45 -49t61.5 -47.5t67.5 -54.5t61 -64.5t45 -83t17.5 -104.5q0 -146 -94 -234t-246 -88z" glyph-name="germandbls" horiz-adv-x="1209" unicode="ß"/><glyph d="M565 1122h-75l-243 291h103zM517 1013q186 0 286.5 -105t100.5 -296v-612h-81l-6 225q-59 -117 -158.5 -178t-221.5 -61q-153 0 -246 80t-93 218q0 285 426 285h292v27q0 169 -72 250.5t-227 81.5q-102 0 -175 -42t-132 -128l-73 54q74 103 164 152t216 49zM453 69 q131 0 223 74t140 209v144h-288q-333 0 -333 -215q0 -98 68.5 -155t189.5 -57z" glyph-name="agrave" horiz-adv-x="1068" unicode="à"/><glyph d="M791 1413l-243 -285h-76l216 285h103zM517 1013q186 0 286.5 -105t100.5 -296v-612h-81l-6 225q-59 -117 -158.5 -178t-221.5 -61q-153 0 -246 80t-93 218q0 285 426 285h292v27q0 169 -72 250.5t-227 81.5q-102 0 -175 -42t-132 -128l-73 54q74 103 164 152t216 49z M453 69q131 0 223 74t140 209v144h-288q-333 0 -333 -215q0 -98 68.5 -155t189.5 -57z" glyph-name="aacute" horiz-adv-x="1068" unicode="á"/><glyph d="M520 1337l-212 -219h-85l297 307l297 -307h-85zM517 1013q186 0 286.5 -105t100.5 -296v-612h-81l-6 225q-59 -117 -158.5 -178t-221.5 -61q-153 0 -246 80t-93 218q0 285 426 285h292v27q0 169 -72 250.5t-227 81.5q-102 0 -175 -42t-132 -128l-73 54q74 103 164 152 t216 49zM453 69q131 0 223 74t140 209v144h-288q-333 0 -333 -215q0 -98 68.5 -155t189.5 -57z" glyph-name="acircumflex" horiz-adv-x="1068" unicode="â"/><glyph d="M380 1352q-53 1 -84 -44.5t-31 -124.5h-60q0 109 47.5 171t130.5 61q44 0 77.5 -19t54.5 -47t41 -56t47 -47.5t62 -19.5q47 0 77 49.5t30 130.5h62q0 -111 -46.5 -177.5t-122.5 -66.5q-40 0 -71.5 14t-50.5 35.5t-38 46t-34 45.5t-38.5 35t-52.5 14zM517 1013 q186 0 286.5 -105t100.5 -296v-612h-81l-6 225q-59 -117 -158.5 -178t-221.5 -61q-153 0 -246 80t-93 218q0 285 426 285h292v27q0 169 -72 250.5t-227 81.5q-102 0 -175 -42t-132 -128l-73 54q74 103 164 152t216 49zM453 69q131 0 223 74t140 209v144h-288 q-333 0 -333 -215q0 -98 68.5 -155t189.5 -57z" glyph-name="atilde" horiz-adv-x="1068" unicode="ã"/><glyph d="M383 1413v-198h-82v198h82zM736 1413v-198h-82v198h82zM517 1013q186 0 286.5 -105t100.5 -296v-612h-81l-6 225q-59 -117 -158.5 -178t-221.5 -61q-153 0 -246 80t-93 218q0 285 426 285h292v27q0 169 -72 250.5t-227 81.5q-102 0 -175 -42t-132 -128l-73 54 q74 103 164 152t216 49zM453 69q131 0 223 74t140 209v144h-288q-333 0 -333 -215q0 -98 68.5 -155t189.5 -57z" glyph-name="adieresis" horiz-adv-x="1068" unicode="ä"/><glyph d="M518 1103q-76 0 -129 53.5t-53 128.5q0 76 53 129t129 53q75 0 128.5 -53.5t53.5 -128.5q0 -76 -53 -129t-129 -53zM518 1410q-52 0 -88 -36t-36 -88q0 -54 35.5 -89.5t88.5 -35.5q52 0 88.5 36.5t36.5 88.5t-35.5 88t-89.5 36zM517 1013q186 0 286.5 -105t100.5 -296 v-612h-81l-6 225q-59 -117 -158.5 -178t-221.5 -61q-153 0 -246 80t-93 218q0 285 426 285h292v27q0 169 -72 250.5t-227 81.5q-102 0 -175 -42t-132 -128l-73 54q74 103 164 152t216 49zM453 69q131 0 223 74t140 209v144h-288q-333 0 -333 -215q0 -98 68.5 -155t189.5 -57 z" glyph-name="aring" horiz-adv-x="1068" unicode="å"/><glyph d="M431 -14q-150 0 -243.5 80t-93.5 213q0 145 107.5 208.5t319.5 63.5h292q0 37 -3 72q-6 155 -80 230.5t-219 75.5q-100 0 -174 -40.5t-134 -124.5l-68 50q75 103 164.5 150.5t214.5 47.5q150 0 240 -75t114 -217q44 135 140.5 212.5t228.5 77.5q91 0 164.5 -28t120 -73 t77.5 -105.5t44 -121t13 -124.5q0 -44 -7 -79h-745q3 -190 93.5 -297t249.5 -107q101 0 170.5 29.5t142.5 103.5l67 -61q-87 -86 -174 -122t-206 -36q-142 0 -242.5 71t-145.5 197q-140 -271 -428 -271zM903 551h657q2 37 -1 65q-3 57 -22.5 109.5t-57 99.5t-102 75 t-147.5 28q-143 0 -232 -105.5t-95 -271.5zM444 60q132 0 226 68t159 204q-14 68 -16 147h-287q-173 0 -257.5 -47.5t-84.5 -151.5q0 -101 70 -160.5t190 -59.5z" glyph-name="ae" horiz-adv-x="1761" unicode="æ"/><glyph d="M548 74q105 0 182.5 56.5t111.5 157.5l87 -33q-43 -121 -136.5 -191.5t-219.5 -76.5l-77 -131q40 -2 67 -7q91 -15 139 -60t48 -116q0 -85 -54.5 -136t-145.5 -51q-62 0 -116 36t-76 93l59 25q15 -42 52 -68t83 -26q65 0 101 32.5t36 91.5q0 58 -48 94t-138 44 q-42 3 -93 3l100 177q-184 14 -291.5 156.5t-107.5 353.5q0 100 27.5 191t80 164t137.5 116.5t191 43.5q133 0 235 -69.5t157 -198.5l-90 -35q-41 101 -120.5 158.5t-181.5 57.5q-111 0 -190 -62t-114.5 -156.5t-35.5 -209.5q0 -86 21.5 -161t62 -134.5t107 -94t150.5 -34.5 z" glyph-name="ccedilla" horiz-adv-x="1020" unicode="ç"/><glyph d="M507 1122l-243 291h103l215 -291h-75zM565 -14q-211 0 -332 141.5t-121 366.5q0 146 51 263t151 186.5t234 69.5q92 0 166 -28.5t121 -74.5t78.5 -106t44.5 -119.5t13 -119.5q0 -63 -6 -86h-753q5 -191 98 -298t255 -107q99 0 169 30t142 104l67 -61q-86 -87 -173 -124 t-205 -37zM212 551h663q3 32 0 62q-3 46 -15 89.5t-38 85.5t-62.5 73.5t-91.5 50.5t-121 19q-144 0 -234 -104.5t-101 -275.5z" glyph-name="egrave" horiz-adv-x="1076" unicode="è"/><glyph d="M489 1128l216 285h103l-243 -285h-76zM565 -14q-211 0 -332 141.5t-121 366.5q0 146 51 263t151 186.5t234 69.5q92 0 166 -28.5t121 -74.5t78.5 -106t44.5 -119.5t13 -119.5q0 -63 -6 -86h-753q5 -191 98 -298t255 -107q99 0 169 30t142 104l67 -61q-86 -87 -173 -124 t-205 -37zM212 551h663q3 32 0 62q-3 46 -15 89.5t-38 85.5t-62.5 73.5t-91.5 50.5t-121 19q-144 0 -234 -104.5t-101 -275.5z" glyph-name="eacute" horiz-adv-x="1076" unicode="é"/><glyph d="M240 1118l297 307l297 -307h-85l-212 219l-212 -219h-85zM565 -14q-211 0 -332 141.5t-121 366.5q0 146 51 263t151 186.5t234 69.5q92 0 166 -28.5t121 -74.5t78.5 -106t44.5 -119.5t13 -119.5q0 -63 -6 -86h-753q5 -191 98 -298t255 -107q99 0 169 30t142 104l67 -61 q-86 -87 -173 -124t-205 -37zM212 551h663q3 32 0 62q-3 46 -15 89.5t-38 85.5t-62.5 73.5t-91.5 50.5t-121 19q-144 0 -234 -104.5t-101 -275.5z" glyph-name="ecircumflex" horiz-adv-x="1076" unicode="ê"/><glyph d="M318 1215v198h82v-198h-82zM671 1215v198h82v-198h-82zM565 -14q-211 0 -332 141.5t-121 366.5q0 146 51 263t151 186.5t234 69.5q92 0 166 -28.5t121 -74.5t78.5 -106t44.5 -119.5t13 -119.5q0 -63 -6 -86h-753q5 -191 98 -298t255 -107q99 0 169 30t142 104l67 -61 q-86 -87 -173 -124t-205 -37zM212 551h663q3 32 0 62q-3 46 -15 89.5t-38 85.5t-62.5 73.5t-91.5 50.5t-121 19q-144 0 -234 -104.5t-101 -275.5z" glyph-name="edieresis" horiz-adv-x="1076" unicode="ë"/><glyph d="M207 1122l-243 291h103l215 -291h-75zM190 0v999h95v-999h-95z" glyph-name="igrave" horiz-adv-x="476" unicode="ì"/><glyph d="M189 1128l216 285h103l-243 -285h-76zM190 0v999h95v-999h-95z" glyph-name="iacute" horiz-adv-x="476" unicode="í"/><glyph d="M-60 1118l297 307l297 -307h-85l-212 219l-212 -219h-85zM190 0v999h95v-999h-95z" glyph-name="icircumflex" horiz-adv-x="476" unicode="î"/><glyph d="M18 1215v198h82v-198h-82zM371 1215v198h82v-198h-82zM190 0v999h95v-999h-95z" glyph-name="idieresis" horiz-adv-x="476" unicode="ï"/><glyph d="M562 -14q-128 0 -236 63t-169.5 169t-61.5 230t63 228t170.5 164t232.5 60q118 0 210 -77l-210 357l-133 -151h-61l169 192l-117 192h104l74 -124l108 124h62l-142 -161l334 -569q69 -113 69 -238q0 -190 -136.5 -324.5t-329.5 -134.5zM561 79q154 0 262.5 107.5 t108.5 260.5q0 151 -109 259t-262 108q-152 0 -261 -108t-109 -259q0 -152 109 -260t261 -108z" glyph-name="eth" horiz-adv-x="1142" unicode="ð"/><glyph d="M707 1162q-40 0 -71.5 14t-50.5 35.5t-38 46t-34 45.5t-38.5 35t-52.5 14q-53 1 -84 -44.5t-31 -124.5h-60q0 109 47.5 171t130.5 61q44 0 77.5 -19t54.5 -47t41 -56t47 -47.5t62 -19.5q47 0 77 49.5t30 130.5h62q0 -111 -46.5 -177.5t-122.5 -66.5zM190 0v999h95v-187 q42 96 126.5 148.5t192.5 52.5q163 0 250 -100t91 -269v-644h-94v613q0 150 -69 230.5t-201 80.5q-136 0 -216 -84.5t-80 -233.5v-606h-95z" glyph-name="ntilde" horiz-adv-x="1111" unicode="ñ"/><glyph d="M548 1122l-243 291h103l215 -291h-75zM577 -14q-136 0 -244.5 68.5t-168.5 186t-60 261.5q0 142 60 258.5t168.5 184.5t244.5 68q205 0 340.5 -147.5t135.5 -363.5q0 -218 -135.5 -367t-340.5 -149zM577 70q168 0 273 124t105 308q0 183 -105 305t-273 122 q-167 0 -270.5 -122t-103.5 -305q0 -185 103.5 -308.5t270.5 -123.5z" glyph-name="ograve" horiz-adv-x="1158" unicode="ò"/><glyph d="M530 1128l216 285h103l-243 -285h-76zM577 -14q-136 0 -244.5 68.5t-168.5 186t-60 261.5q0 142 60 258.5t168.5 184.5t244.5 68q205 0 340.5 -147.5t135.5 -363.5q0 -218 -135.5 -367t-340.5 -149zM577 70q168 0 273 124t105 308q0 183 -105 305t-273 122 q-167 0 -270.5 -122t-103.5 -305q0 -185 103.5 -308.5t270.5 -123.5z" glyph-name="oacute" horiz-adv-x="1158" unicode="ó"/><glyph d="M281 1118l297 307l297 -307h-85l-212 219l-212 -219h-85zM577 -14q-136 0 -244.5 68.5t-168.5 186t-60 261.5q0 142 60 258.5t168.5 184.5t244.5 68q205 0 340.5 -147.5t135.5 -363.5q0 -218 -135.5 -367t-340.5 -149zM577 70q168 0 273 124t105 308q0 183 -105 305 t-273 122q-167 0 -270.5 -122t-103.5 -305q0 -185 103.5 -308.5t270.5 -123.5z" glyph-name="ocircumflex" horiz-adv-x="1158" unicode="ô"/><glyph d="M723 1162q-40 0 -71.5 14t-50.5 35.5t-38 46t-34 45.5t-38.5 35t-52.5 14q-53 1 -84 -44.5t-31 -124.5h-60q0 109 47.5 171t130.5 61q44 0 77.5 -19t54.5 -47t41 -56t47 -47.5t62 -19.5q47 0 77 49.5t30 130.5h62q0 -111 -46.5 -177.5t-122.5 -66.5zM577 -14 q-136 0 -244.5 68.5t-168.5 186t-60 261.5q0 142 60 258.5t168.5 184.5t244.5 68q205 0 340.5 -147.5t135.5 -363.5q0 -218 -135.5 -367t-340.5 -149zM577 70q168 0 273 124t105 308q0 183 -105 305t-273 122q-167 0 -270.5 -122t-103.5 -305q0 -185 103.5 -308.5 t270.5 -123.5z" glyph-name="otilde" horiz-adv-x="1158" unicode="õ"/><glyph d="M359 1215v198h82v-198h-82zM712 1215v198h82v-198h-82zM577 -14q-136 0 -244.5 68.5t-168.5 186t-60 261.5q0 142 60 258.5t168.5 184.5t244.5 68q205 0 340.5 -147.5t135.5 -363.5q0 -218 -135.5 -367t-340.5 -149zM577 70q168 0 273 124t105 308q0 183 -105 305 t-273 122q-167 0 -270.5 -122t-103.5 -305q0 -185 103.5 -308.5t270.5 -123.5z" glyph-name="odieresis" horiz-adv-x="1158" unicode="ö"/><glyph d="M437 891v205h102v-205h-102zM145 591v75h684v-75h-684zM437 142v205h102v-205h-102z" glyph-name="divide" horiz-adv-x="987" unicode="÷"/><glyph d="M865 915q88 -71 138 -178.5t50 -234.5q0 -218 -135.5 -367t-340.5 -149q-139 0 -250 72l-36 -58h-53l53 84q-88 71 -137.5 180t-49.5 238q0 142 60 258.5t168.5 184.5t244.5 68q140 0 251 -72l36 57h53zM203 502q0 -104 35.5 -193t99.5 -149l444 708q-89 61 -205 61 q-167 0 -270.5 -122t-103.5 -305zM577 70q168 0 273 124t105 308q0 104 -35.5 191.5t-101.5 146.5l-444 -708q89 -62 203 -62z" glyph-name="oslash" horiz-adv-x="1158" unicode="ø"/><glyph d="M522 1122l-243 291h103l215 -291h-75zM507 -14q-163 0 -250 100t-91 270v643h94v-613q0 -150 69 -230.5t201 -80.5q136 0 216 85t80 234v605h94v-999h-94v188q-42 -97 -126.5 -149.5t-192.5 -52.5z" glyph-name="ugrave" horiz-adv-x="1111" unicode="ù"/><glyph d="M504 1128l216 285h103l-243 -285h-76zM507 -14q-163 0 -250 100t-91 270v643h94v-613q0 -150 69 -230.5t201 -80.5q136 0 216 85t80 234v605h94v-999h-94v188q-42 -97 -126.5 -149.5t-192.5 -52.5z" glyph-name="uacute" horiz-adv-x="1111" unicode="ú"/><glyph d="M255 1118l297 307l297 -307h-85l-212 219l-212 -219h-85zM507 -14q-163 0 -250 100t-91 270v643h94v-613q0 -150 69 -230.5t201 -80.5q136 0 216 85t80 234v605h94v-999h-94v188q-42 -97 -126.5 -149.5t-192.5 -52.5z" glyph-name="ucircumflex" horiz-adv-x="1111" unicode="û"/><glyph d="M333 1215v198h82v-198h-82zM686 1215v198h82v-198h-82zM507 -14q-163 0 -250 100t-91 270v643h94v-613q0 -150 69 -230.5t201 -80.5q136 0 216 85t80 234v605h94v-999h-94v188q-42 -97 -126.5 -149.5t-192.5 -52.5z" glyph-name="udieresis" horiz-adv-x="1111" unicode="ü"/><glyph d="M454 1128l216 285h103l-243 -285h-76zM319 -427l166 435l-437 991h105l383 -878l324 878h103l-540 -1426h-104z" glyph-name="yacute" horiz-adv-x="1016" unicode="ý"/><glyph d="M673 1013q129 0 226 -69.5t146 -185.5t49 -260t-49 -259t-146 -184t-227 -69q-131 0 -234 74.5t-148 199.5v-674h-97v1827h97v-675q45 126 148.5 200.5t234.5 74.5zM653 924q-165 0 -267.5 -121t-102.5 -305q0 -183 103 -303.5t267 -120.5q162 0 254 119.5t92 304.5 q0 187 -92 306.5t-254 119.5z" glyph-name="thorn" horiz-adv-x="1207" unicode="þ"/><glyph d="M283 1215v198h82v-198h-82zM636 1215v198h82v-198h-82zM319 -427l166 435l-437 991h105l383 -878l324 878h103l-540 -1426h-104z" glyph-name="ydieresis" horiz-adv-x="1016" unicode="ÿ"/><glyph d="M371 1657v61h544v-61h-544zM87 0l512 1413h90l511 -1413h-106l-124 352h-650l-124 -352h-109zM351 438h588l-294 843z" glyph-name="Amacron" horiz-adv-x="1288" unicode="Ā"/><glyph d="M793 1305v-61h-544v61h544zM517 1013q186 0 286.5 -105t100.5 -296v-612h-81l-6 225q-59 -117 -158.5 -178t-221.5 -61q-153 0 -246 80t-93 218q0 285 426 285h292v27q0 169 -72 250.5t-227 81.5q-102 0 -175 -42t-132 -128l-73 54q74 103 164 152t216 49zM453 69 q131 0 223 74t140 209v144h-288q-333 0 -333 -215q0 -98 68.5 -155t189.5 -57z" glyph-name="amacron" horiz-adv-x="1068" unicode="ā"/><glyph d="M642 1563q-149 0 -225.5 67.5t-76.5 195.5h71q0 -99 60 -150.5t171 -51.5t170 51.5t59 150.5h71q0 -129 -76.5 -196t-223.5 -67zM87 0l512 1413h90l511 -1413h-106l-124 352h-650l-124 -352h-109zM351 438h588l-294 843z" glyph-name="Abreve" horiz-adv-x="1288" unicode="Ă"/><glyph d="M520 1150q-149 0 -225.5 67.5t-76.5 195.5h71q0 -99 60 -150.5t171 -51.5t170 51.5t59 150.5h71q0 -129 -76.5 -196t-223.5 -67zM517 1013q186 0 286.5 -105t100.5 -296v-612h-81l-6 225q-59 -117 -158.5 -178t-221.5 -61q-153 0 -246 80t-93 218q0 285 426 285h292v27 q0 169 -72 250.5t-227 81.5q-102 0 -175 -42t-132 -128l-73 54q74 103 164 152t216 49zM453 69q131 0 223 74t140 209v144h-288q-333 0 -333 -215q0 -98 68.5 -155t189.5 -57z" glyph-name="abreve" horiz-adv-x="1068" unicode="ă"/><glyph d="M1231 -304l52 -36q-79 -117 -213 -117q-93 0 -147.5 49t-54.5 135q0 95 72 170t164 103h-10l-124 352h-650l-124 -352h-109l512 1413h90l511 -1413q-112 -31 -191 -102t-79 -160q0 -66 36 -99t102 -33q100 0 163 90zM351 438h588l-294 843z" glyph-name="Aogonek" horiz-adv-x="1288" unicode="Ą"/><glyph d="M935 -304l52 -36q-79 -117 -213 -117q-93 0 -147.5 49t-54.5 135q0 99 77.5 176t173.5 101l-6 221q-59 -117 -158.5 -178t-221.5 -61q-153 0 -246 80t-93 218q0 285 426 285h292v27q0 169 -72 250.5t-227 81.5q-102 0 -175 -42t-132 -128l-73 54q74 103 164 152t216 49 q186 0 286.5 -105t100.5 -296v-612q-112 -31 -191 -102t-79 -160q0 -66 36 -99t102 -33q100 0 163 90zM453 69q131 0 223 74t140 209v144h-288q-333 0 -333 -215q0 -98 68.5 -155t189.5 -57z" glyph-name="aogonek" horiz-adv-x="1068" unicode="ą"/><glyph d="M689 1541l216 285h103l-243 -285h-76zM776 -14q-200 0 -342.5 92t-213 253.5t-70.5 377.5q0 217 71 377.5t216 250.5t350 90q413 0 561 -374l-93 -37q-57 164 -172 240.5t-297 76.5q-262 0 -400 -164t-138 -456q0 -137 31 -249.5t93 -199.5t165 -135t239 -48 q176 0 294 78.5t188 241.5l92 -37q-168 -378 -574 -378z" glyph-name="Cacute" horiz-adv-x="1463" unicode="Ć"/><glyph d="M500 1128l216 285h103l-243 -285h-76zM549 -14q-201 0 -319.5 145t-118.5 367q0 100 27.5 191t80 164t137.5 116.5t191 43.5q133 0 235 -69.5t157 -198.5l-90 -35q-41 101 -120.5 158.5t-181.5 57.5q-111 0 -190 -62t-114.5 -156.5t-35.5 -209.5q0 -86 21.5 -161 t62 -134.5t107 -94t150.5 -34.5q105 0 182.5 56.5t111.5 157.5l87 -33q-45 -127 -145.5 -198t-234.5 -71z" glyph-name="cacute" horiz-adv-x="1020" unicode="ć"/><glyph d="M687 1628v198h99v-198h-99zM776 -14q-200 0 -342.5 92t-213 253.5t-70.5 377.5q0 217 71 377.5t216 250.5t350 90q413 0 561 -374l-93 -37q-57 164 -172 240.5t-297 76.5q-262 0 -400 -164t-138 -456q0 -137 31 -249.5t93 -199.5t165 -135t239 -48q176 0 294 78.5 t188 241.5l92 -37q-168 -378 -574 -378z" glyph-name="Cdotaccent" horiz-adv-x="1463" unicode="Ċ"/><glyph d="M498 1215v198h99v-198h-99zM549 -14q-201 0 -319.5 145t-118.5 367q0 100 27.5 191t80 164t137.5 116.5t191 43.5q133 0 235 -69.5t157 -198.5l-90 -35q-41 101 -120.5 158.5t-181.5 57.5q-111 0 -190 -62t-114.5 -156.5t-35.5 -209.5q0 -86 21.5 -161t62 -134.5t107 -94 t150.5 -34.5q105 0 182.5 56.5t111.5 157.5l87 -33q-45 -127 -145.5 -198t-234.5 -71z" glyph-name="cdotaccent" horiz-adv-x="1020" unicode="ċ"/><glyph d="M736 1526l-296 300h85l211 -216l213 216h84zM776 -14q-200 0 -342.5 92t-213 253.5t-70.5 377.5q0 217 71 377.5t216 250.5t350 90q413 0 561 -374l-93 -37q-57 164 -172 240.5t-297 76.5q-262 0 -400 -164t-138 -456q0 -137 31 -249.5t93 -199.5t165 -135t239 -48 q176 0 294 78.5t188 241.5l92 -37q-168 -378 -574 -378z" glyph-name="Ccaron" horiz-adv-x="1463" unicode="Č"/><glyph d="M547 1113l-296 300h85l211 -216l213 216h84zM549 -14q-201 0 -319.5 145t-118.5 367q0 100 27.5 191t80 164t137.5 116.5t191 43.5q133 0 235 -69.5t157 -198.5l-90 -35q-41 101 -120.5 158.5t-181.5 57.5q-111 0 -190 -62t-114.5 -156.5t-35.5 -209.5q0 -86 21.5 -161 t62 -134.5t107 -94t150.5 -34.5q105 0 182.5 56.5t111.5 157.5l87 -33q-45 -127 -145.5 -198t-234.5 -71z" glyph-name="ccaron" horiz-adv-x="1020" unicode="č"/><glyph d="M753 1526l-296 300h85l211 -216l213 216h84zM238 0v1413h372q347 0 531.5 -185.5t184.5 -531.5q0 -333 -187 -514.5t-531 -181.5h-370zM337 91h262q302 0 465 154t163 455q0 622 -619 622h-271v-1231z" glyph-name="Dcaron" horiz-adv-x="1472" unicode="Ď"/><glyph d="M558 -14q-197 0 -323 148t-126 367q0 142 56 258.5t159 185t233 68.5q132 0 235 -74t148 -200v674h96v-1413h-89l-4 266q-45 -129 -148.5 -204.5t-236.5 -75.5zM1165 1005l119 408h100l-156 -408h-63zM578 74q164 0 266.5 121t102.5 306q0 184 -102.5 304.5t-266.5 120.5 q-165 0 -269 -121.5t-104 -303.5q0 -184 104 -305.5t269 -121.5z" glyph-name="dcaron" horiz-adv-x="1229" unicode="ď"/><glyph d="M610 1413q347 0 531.5 -185.5t184.5 -531.5q0 -333 -187 -514.5t-531 -181.5h-370v673h-153v68h153v672h372zM599 91q302 0 465 154t163 455q0 622 -619 622h-271v-581h383v-68h-383v-582h262z" glyph-name="Dcroat" horiz-adv-x="1472" unicode="Đ"/><glyph d="M1175 1252v-68h-139v-1184h-89l-4 266q-45 -129 -148.5 -204.5t-236.5 -75.5q-197 0 -323 148t-126 367q0 142 56 258.5t159 185t233 68.5q132 0 235 -74t148 -200v445h-400v68h400v161h96v-161h139zM578 74q164 0 266.5 121t102.5 306q0 184 -102.5 304.5t-266.5 120.5 q-165 0 -269 -121.5t-104 -303.5q0 -184 104 -305.5t269 -121.5z" glyph-name="dcroat" horiz-adv-x="1229" unicode="đ"/><glyph d="M427 1657v61h544v-61h-544zM238 0v1413h918v-91h-819v-566h730v-91h-730v-571h819v-94h-918z" glyph-name="Emacron" horiz-adv-x="1283" unicode="Ē"/><glyph d="M266 1244v61h544v-61h-544zM565 -14q-211 0 -332 141.5t-121 366.5q0 146 51 263t151 186.5t234 69.5q92 0 166 -28.5t121 -74.5t78.5 -106t44.5 -119.5t13 -119.5q0 -63 -6 -86h-753q5 -191 98 -298t255 -107q99 0 169 30t142 104l67 -61q-86 -87 -173 -124t-205 -37z M212 551h663q3 32 0 62q-3 46 -15 89.5t-38 85.5t-62.5 73.5t-91.5 50.5t-121 19q-144 0 -234 -104.5t-101 -275.5z" glyph-name="emacron" horiz-adv-x="1076" unicode="ē"/><glyph d="M648 1628v198h99v-198h-99zM238 0v1413h918v-91h-819v-566h730v-91h-730v-571h819v-94h-918z" glyph-name="Edotaccent" horiz-adv-x="1283" unicode="Ė"/><glyph d="M487 1215v198h99v-198h-99zM565 -14q-211 0 -332 141.5t-121 366.5q0 146 51 263t151 186.5t234 69.5q92 0 166 -28.5t121 -74.5t78.5 -106t44.5 -119.5t13 -119.5q0 -63 -6 -86h-753q5 -191 98 -298t255 -107q99 0 169 30t142 104l67 -61q-86 -87 -173 -124t-205 -37z M212 551h663q3 32 0 62q-3 46 -15 89.5t-38 85.5t-62.5 73.5t-91.5 50.5t-121 19q-144 0 -234 -104.5t-101 -275.5z" glyph-name="edotaccent" horiz-adv-x="1076" unicode="ė"/><glyph d="M1187 -304l52 -36q-79 -117 -213 -117q-93 0 -147.5 49t-54.5 135q0 95 72 170t164 103h-822v1413h918v-91h-819v-566h730v-91h-730v-571h819v-94q-112 -31 -191 -102t-79 -160q0 -66 36 -99t102 -33q100 0 163 90z" glyph-name="Eogonek" horiz-adv-x="1283" unicode="Ę"/><glyph d="M971 565q0 -63 -6 -86h-753q5 -191 98 -298t255 -107q99 0 169 30t142 104l67 -61q-114 -116 -242 -147q-71 -39 -114.5 -95t-43.5 -121q0 -66 36 -99t102 -33q100 0 163 90l52 -36q-79 -117 -213 -117q-93 0 -147.5 49t-54.5 135q0 123 120 214q-12 -1 -36 -1 q-211 0 -332 141.5t-121 366.5q0 146 51 263t151 186.5t234 69.5q92 0 166 -28.5t121 -74.5t78.5 -106t44.5 -119.5t13 -119.5zM875 551q3 32 0 62q-3 46 -15 89.5t-38 85.5t-62.5 73.5t-91.5 50.5t-121 19q-144 0 -234 -104.5t-101 -275.5h663z" glyph-name="eogonek" horiz-adv-x="1076" unicode="ę"/><glyph d="M697 1526l-296 300h85l211 -216l213 216h84zM238 0v1413h918v-91h-819v-566h730v-91h-730v-571h819v-94h-918z" glyph-name="Ecaron" horiz-adv-x="1283" unicode="Ě"/><glyph d="M536 1113l-296 300h85l211 -216l213 216h84zM565 -14q-211 0 -332 141.5t-121 366.5q0 146 51 263t151 186.5t234 69.5q92 0 166 -28.5t121 -74.5t78.5 -106t44.5 -119.5t13 -119.5q0 -63 -6 -86h-753q5 -191 98 -298t255 -107q99 0 169 30t142 104l67 -61 q-86 -87 -173 -124t-205 -37zM212 551h663q3 32 0 62q-3 46 -15 89.5t-38 85.5t-62.5 73.5t-91.5 50.5t-121 19q-144 0 -234 -104.5t-101 -275.5z" glyph-name="ecaron" horiz-adv-x="1076" unicode="ě"/><glyph d="M781 1563q-149 0 -225.5 67.5t-76.5 195.5h71q0 -99 60 -150.5t171 -51.5t170 51.5t59 150.5h71q0 -129 -76.5 -196t-223.5 -67zM776 -14q-200 0 -342.5 92t-213 253.5t-70.5 377.5q0 217 71 377.5t215.5 250.5t350.5 90q208 0 347 -93t214 -281l-89 -37 q-60 166 -176.5 245t-296.5 79q-261 0 -399.5 -167.5t-138.5 -459.5q0 -137 31 -250.5t93 -201t165 -136.5t239 -49q187 0 309.5 90.5t173.5 266.5l2 201h-354v82h451v-716h-81l-7 272q-153 -286 -494 -286z" glyph-name="Gbreve" horiz-adv-x="1544" unicode="Ğ"/><glyph d="M528 1150q-149 0 -225.5 67.5t-76.5 195.5h71q0 -99 60 -150.5t171 -51.5t170 51.5t59 150.5h71q0 -129 -76.5 -196t-223.5 -67zM553 113q56 -8 87 -13t81.5 -16t80 -22.5t65.5 -32t55.5 -44.5t33 -59t13.5 -78q0 -145 -111 -227t-294 -82q-198 0 -317 95t-119 248 q0 20 3 42l156 154q-138 56 -143 183q0 96 83 168q-89 95 -89 233q0 153 108 252t270 99q159 0 266 -97l149 135l51 -63l-149 -132q59 -85 59 -200q0 -152 -106.5 -248t-268.5 -96q-133 0 -230 66q-60 -42 -60 -102q1 -24 11.5 -44t24 -34t41.5 -26.5t49 -19.5t61.5 -15.5 t65 -12.5t73.5 -11zM519 937q-126 0 -204.5 -77t-78.5 -199q0 -120 77 -194.5t204 -74.5t203.5 74t76.5 193q0 124 -76.5 201t-201.5 77zM563 -384q139 0 227.5 56t88.5 166q0 40 -18.5 69.5t-47.5 47.5t-74.5 31t-91 21t-104.5 17q-15 2 -23 3q-112 15 -172 31l-139 -156 q-1 -11 1 -31q7 -118 103.5 -186.5t249.5 -68.5z" glyph-name="gbreve" horiz-adv-x="1050" unicode="ğ"/><glyph d="M731 1628v198h99v-198h-99zM776 -14q-200 0 -342.5 92t-213 253.5t-70.5 377.5q0 217 71 377.5t215.5 250.5t350.5 90q208 0 347 -93t214 -281l-89 -37q-60 166 -176.5 245t-296.5 79q-261 0 -399.5 -167.5t-138.5 -459.5q0 -137 31 -250.5t93 -201t165 -136.5t239 -49 q187 0 309.5 90.5t173.5 266.5l2 201h-354v82h451v-716h-81l-7 272q-153 -286 -494 -286z" glyph-name="Gdotaccent" horiz-adv-x="1544" unicode="Ġ"/><glyph d="M578 1413v-198h-99v198h99zM553 113q56 -8 87 -13t81.5 -16t80 -22.5t65.5 -32t55.5 -44.5t33 -59t13.5 -78q0 -145 -111 -227t-294 -82q-198 0 -317 95t-119 248q0 20 3 42l156 154q-138 56 -143 183q0 96 83 168q-89 95 -89 233q0 153 108 252t270 99q159 0 266 -97 l149 135l51 -63l-149 -132q59 -85 59 -200q0 -152 -106.5 -248t-268.5 -96q-133 0 -230 66q-60 -42 -60 -102q1 -24 11.5 -44t24 -34t41.5 -26.5t49 -19.5t61.5 -15.5t65 -12.5t73.5 -11zM519 937q-126 0 -204.5 -77t-78.5 -199q0 -120 77 -194.5t204 -74.5t203.5 74 t76.5 193q0 124 -76.5 201t-201.5 77zM563 -384q139 0 227.5 56t88.5 166q0 40 -18.5 69.5t-47.5 47.5t-74.5 31t-91 21t-104.5 17q-15 2 -23 3q-112 15 -172 31l-139 -156q-1 -11 1 -31q7 -118 103.5 -186.5t249.5 -68.5z" glyph-name="gdotaccent" horiz-adv-x="1050" unicode="ġ"/><glyph d="M776 -14q-200 0 -342.5 92t-213 253.5t-70.5 377.5q0 217 71 377.5t215.5 250.5t350.5 90q208 0 347 -93t214 -281l-89 -37q-60 166 -176.5 245t-296.5 79q-261 0 -399.5 -167.5t-138.5 -459.5q0 -137 31 -250.5t93 -201t165 -136.5t239 -49q187 0 309.5 90.5 t173.5 266.5l2 201h-354v82h451v-716h-81l-7 272q-153 -286 -494 -286zM557 -444l198 329h102l-234 -329h-66z" glyph-name="Gcommaaccent" horiz-adv-x="1544" unicode="Ģ"/><glyph d="M745 1421l-198 -294h-102l234 294h66zM553 113q56 -8 87 -13t81.5 -16t80 -22.5t65.5 -32t55.5 -44.5t33 -59t13.5 -78q0 -145 -111 -227t-294 -82q-198 0 -317 95t-119 248q0 20 3 42l156 154q-138 56 -143 183q0 96 83 168q-89 95 -89 233q0 153 108 252t270 99 q159 0 266 -97l149 135l51 -63l-149 -132q59 -85 59 -200q0 -152 -106.5 -248t-268.5 -96q-133 0 -230 66q-60 -42 -60 -102q1 -24 11.5 -44t24 -34t41.5 -26.5t49 -19.5t61.5 -15.5t65 -12.5t73.5 -11zM519 937q-126 0 -204.5 -77t-78.5 -199q0 -120 77 -194.5t204 -74.5 t203.5 74t76.5 193q0 124 -76.5 201t-201.5 77zM563 -384q139 0 227.5 56t88.5 166q0 40 -18.5 69.5t-47.5 47.5t-74.5 31t-91 21t-104.5 17q-15 2 -23 3q-112 15 -172 31l-139 -156q-1 -11 1 -31q7 -118 103.5 -186.5t249.5 -68.5z" glyph-name="gcommaaccent" horiz-adv-x="1050" unicode="ģ"/><glyph d="M1364 1146v-61h-147v-1085h-98v666h-782v-666h-99v1085h-145v61h145v267h99v-267h782v267h98v-267h147zM1119 758v327h-782v-327h782z" glyph-name="Hbar" horiz-adv-x="1455" unicode="Ħ"/><glyph d="M606 1013q163 0 250.5 -100t92.5 -269v-644h-96v613q0 313 -267 313q-137 0 -217 -91.5t-80 -242.5v-592h-96v1153h-195v68h195v192h96v-192h344v-68h-344v-341q42 96 125.5 148.5t191.5 52.5z" glyph-name="hbar" horiz-adv-x="1115" unicode="ħ"/><glyph d="M431 1575q-40 0 -71.5 14t-50.5 35.5t-38 46t-34 45.5t-38.5 35t-52.5 14q-53 1 -84 -44.5t-31 -124.5h-60q0 109 47.5 171t130.5 61q44 0 77.5 -19t54.5 -47t41 -56t47 -47.5t62 -19.5q47 0 77 49.5t30 130.5h62q0 -111 -46.5 -177.5t-122.5 -66.5zM238 0v1413h99v-1413 h-99z" glyph-name="Itilde" horiz-adv-x="575" unicode="Ĩ"/><glyph d="M382 1162q-40 0 -71.5 14t-50.5 35.5t-38 46t-34 45.5t-38.5 35t-52.5 14q-53 1 -84 -44.5t-31 -124.5h-60q0 109 47.5 171t130.5 61q44 0 77.5 -19t54.5 -47t41 -56t47 -47.5t62 -19.5q47 0 77 49.5t30 130.5h62q0 -111 -46.5 -177.5t-122.5 -66.5zM190 0v999h95v-999 h-95z" glyph-name="itilde" horiz-adv-x="476" unicode="ĩ"/><glyph d="M15 1657v61h544v-61h-544zM238 0v1413h99v-1413h-99z" glyph-name="Imacron" horiz-adv-x="575" unicode="Ī"/><glyph d="M-34 1244v61h544v-61h-544zM190 0v999h95v-999h-95z" glyph-name="imacron" horiz-adv-x="476" unicode="ī"/><glyph d="M368 -304l52 -36q-79 -117 -213 -117q-93 0 -147.5 49t-54.5 135q0 95 72 170t164 103h-3v1413h99v-1413q-112 -31 -191 -102t-79 -160q0 -66 36 -99t102 -33q100 0 163 90z" glyph-name="Iogonek" horiz-adv-x="575" unicode="Į"/><glyph d="M286 1413v-198h-99v198h99zM316 -304l52 -36q-79 -117 -213 -117q-93 0 -147.5 49t-54.5 135q0 96 72 171t165 102v999h95v-999q-112 -31 -191 -102t-79 -160q0 -66 36 -99t102 -33q100 0 163 90z" glyph-name="iogonek" horiz-adv-x="476" unicode="į"/><glyph d="M236 1628v198h99v-198h-99zM238 0v1413h99v-1413h-99z" glyph-name="Idotaccent" horiz-adv-x="575" unicode="İ"/><glyph d="M190 0v999h95v-999h-95z" glyph-name="dotlessi" horiz-adv-x="476" unicode="ı"/><glyph d="M238 0v1413h99v-1413h-99zM1112 -14q-191 0 -309.5 115t-132.5 302l97 10q11 -153 101.5 -243.5t243.5 -90.5q173 0 254 108.5t81 327.5v807h-589v91h687v-896q0 -256 -107.5 -393.5t-325.5 -137.5z" glyph-name="IJ" horiz-adv-x="1757" unicode="Ĳ"/><glyph d="M238 0v1413h99v-886l847 886h133l-533 -549l568 -864h-122l-514 797l-379 -392v-405h-99zM461 -444l198 329h102l-234 -329h-66z" glyph-name="Kcommaaccent" horiz-adv-x="1438" unicode="Ķ"/><glyph d="M193 0v1413h94v-1000l560 586h125l-358 -369l422 -630h-112l-375 569l-262 -272v-297h-94zM366 -444l198 329h102l-234 -329h-66z" glyph-name="kcommaaccent" horiz-adv-x="1083" unicode="ķ"/><glyph d="M191 0v999h95v-586l560 586h125l-359 -369l423 -630h-113l-375 569l-261 -272v-297h-95z" glyph-name="kgreenlandic" horiz-adv-x="1081" unicode="ĸ"/><glyph d="M274 1541l216 285h103l-243 -285h-76zM238 0v1413h99v-1319h660v-94h-759z" glyph-name="Lacute" horiz-adv-x="1077" unicode="Ĺ"/><glyph d="M214 1541l216 285h103l-243 -285h-76zM362 -14q-44 0 -76.5 12t-51.5 31t-30 49.5t-14.5 62t-3.5 74.5v1198h95v-1175q0 -33 1 -51.5t7.5 -43.5t18.5 -38t35 -22.5t57 -9.5q42 0 85 10l3 -82q-70 -15 -126 -15z" glyph-name="lacute" horiz-adv-x="542" unicode="ĺ"/><glyph d="M238 0v1413h99v-1319h660v-94h-759zM376 -444l198 329h102l-234 -329h-66z" glyph-name="Lcommaaccent" horiz-adv-x="1077" unicode="Ļ"/><glyph d="M362 -14q-44 0 -76.5 12t-51.5 31t-30 49.5t-14.5 62t-3.5 74.5v1198h95v-1175q0 -33 1 -51.5t7.5 -43.5t18.5 -38t35 -22.5t57 -9.5q42 0 85 10l3 -82q-70 -15 -126 -15zM130 -444l198 329h102l-234 -329h-66z" glyph-name="lcommaaccent" horiz-adv-x="542" unicode="ļ"/><glyph d="M238 0v1413h99v-1319h660v-94h-759zM747 1005l119 408h100l-156 -408h-63z" glyph-name="Lcaron" horiz-adv-x="1077" unicode="Ľ"/><glyph d="M362 -14q-44 0 -76.5 12t-51.5 31t-30 49.5t-14.5 62t-3.5 74.5v1198h95v-1175q0 -33 1 -51.5t7.5 -43.5t18.5 -38t35 -22.5t57 -9.5q42 0 85 10l3 -82q-70 -15 -126 -15zM409 1005l119 408h100l-156 -408h-63z" glyph-name="lcaron" horiz-adv-x="542" unicode="ľ"/><glyph d="M337 94h660v-94h-759v390l-131 -149v111l131 149v912h99v-800l383 435v-110l-383 -435v-409z" glyph-name="Lslash" horiz-adv-x="1077" unicode="Ł"/><glyph d="M494 83l2 -82q-68 -15 -126 -15q-44 0 -76.5 12t-51.5 31t-30 49.5t-14.5 62t-3.5 74.5v320l-94 -100v97l94 100v781h95v-681l175 186l1 -95l-176 -187v-398q0 -33 1 -51.5t7.5 -43.5t18.5 -38t35 -22.5t57 -9.5q42 0 86 10z" glyph-name="lslash" horiz-adv-x="564" unicode="ł"/><glyph d="M980 1826l-243 -285h-76l216 285h103zM1087 1413h95v-1413h-110l-739 1263v-1263h-95v1413h109l740 -1262v1262z" glyph-name="Nacute" horiz-adv-x="1420" unicode="Ń"/><glyph d="M514 1128l216 285h103l-243 -285h-76zM190 0v999h95v-187q42 96 126.5 148.5t192.5 52.5q163 0 250 -100t91 -269v-644h-94v613q0 150 -69 230.5t-201 80.5q-136 0 -216 -84.5t-80 -233.5v-606h-95z" glyph-name="nacute" horiz-adv-x="1111" unicode="ń"/><glyph d="M1087 1413h95v-1413h-110l-739 1263v-1263h-95v1413h109l740 -1262v1262zM467 -444l198 329h102l-234 -329h-66z" glyph-name="Ncommaaccent" horiz-adv-x="1420" unicode="Ņ"/><glyph d="M190 0v999h95v-187q42 96 126.5 148.5t192.5 52.5q163 0 250 -100t91 -269v-644h-94v613q0 150 -69 230.5t-201 80.5q-136 0 -216 -84.5t-80 -233.5v-606h-95zM320 -444l198 329h102l-234 -329h-66z" glyph-name="ncommaaccent" horiz-adv-x="1111" unicode="ņ"/><glyph d="M1005 1826l-297 -300l-296 300h85l211 -216l213 216h84zM1087 1413h95v-1413h-110l-739 1263v-1263h-95v1413h109l740 -1262v1262z" glyph-name="Ncaron" horiz-adv-x="1420" unicode="Ň"/><glyph d="M561 1113l-296 300h85l211 -216l213 216h84zM190 0v999h95v-187q42 96 126.5 148.5t192.5 52.5q163 0 250 -100t91 -269v-644h-94v613q0 150 -69 230.5t-201 80.5q-136 0 -216 -84.5t-80 -233.5v-606h-95z" glyph-name="ncaron" horiz-adv-x="1111" unicode="ň"/><glyph d="M1087 1413h94v-1451q0 -138 -64.5 -218t-202.5 -80q-67 0 -147 25l6 67q64 -23 119 -23q101 0 151.5 52.5t50.5 135.5q0 37 -14 63l-747 1282v-1266h-95v1413h109l740 -1265v1265z" glyph-name="Eng" horiz-adv-x="1421" unicode="Ŋ"/><glyph d="M673 -431q-57 0 -140 25l24 74q63 -20 114 -20q180 0 180 211v754q0 150 -69 230.5t-201 80.5q-136 0 -216 -84.5t-80 -233.5v-606h-95v999h95v-187q42 96 126.5 148.5t192.5 52.5q163 0 249.5 -99.5t91.5 -269.5v-775q0 -140 -70 -220t-202 -80z" glyph-name="eng" horiz-adv-x="1133" unicode="ŋ"/><glyph d="M512 1657v61h544v-61h-544zM783 -14q-126 0 -231 38t-179 105t-125.5 158t-76 197t-24.5 223t24.5 223t76 197t125.5 157.5t179 104.5t231 38q158 0 282 -58t200.5 -158t116 -228.5t39.5 -275.5q0 -117 -24.5 -223t-75.5 -197t-125.5 -158t-180 -105t-232.5 -38zM783 75 q109 0 198 33t151 90.5t104.5 138t62 173t19.5 197.5q0 131 -32 243t-95.5 200t-168 138t-239.5 50q-134 0 -238 -50t-167 -138t-95 -200t-32 -243q0 -132 32 -244t95 -200t167 -138t238 -50z" glyph-name="Omacron" horiz-adv-x="1569" unicode="Ō"/><glyph d="M307 1244v61h544v-61h-544zM577 -14q-136 0 -244.5 68.5t-168.5 186t-60 261.5q0 142 60 258.5t168.5 184.5t244.5 68q205 0 340.5 -147.5t135.5 -363.5q0 -218 -135.5 -367t-340.5 -149zM577 70q168 0 273 124t105 308q0 183 -105 305t-273 122q-167 0 -270.5 -122 t-103.5 -305q0 -185 103.5 -308.5t270.5 -123.5z" glyph-name="omacron" horiz-adv-x="1158" unicode="ō"/><glyph d="M569 1528l216 298h89l-229 -298h-76zM895 1528l216 298h103l-243 -298h-76zM783 -14q-126 0 -231 38t-179 105t-125.5 158t-76 197t-24.5 223t24.5 223t76 197t125.5 157.5t179 104.5t231 38q158 0 282 -58t200.5 -158t116 -228.5t39.5 -275.5q0 -117 -24.5 -223 t-75.5 -197t-125.5 -158t-180 -105t-232.5 -38zM783 75q109 0 198 33t151 90.5t104.5 138t62 173t19.5 197.5q0 131 -32 243t-95.5 200t-168 138t-239.5 50q-134 0 -238 -50t-167 -138t-95 -200t-32 -243q0 -132 32 -244t95 -200t167 -138t238 -50z" glyph-name="Ohungarumlaut" horiz-adv-x="1569" unicode="Ő"/><glyph d="M364 1115l216 298h89l-229 -298h-76zM690 1115l216 298h103l-243 -298h-76zM577 -14q-136 0 -244.5 68.5t-168.5 186t-60 261.5q0 142 60 258.5t168.5 184.5t244.5 68q205 0 340.5 -147.5t135.5 -363.5q0 -218 -135.5 -367t-340.5 -149zM577 70q168 0 273 124t105 308 q0 183 -105 305t-273 122q-167 0 -270.5 -122t-103.5 -305q0 -185 103.5 -308.5t270.5 -123.5z" glyph-name="ohungarumlaut" horiz-adv-x="1158" unicode="ő"/><glyph d="M2243 1322h-819v-566h730v-91h-730v-571h819v-94h-918v293q-79 -144 -215 -225.5t-327 -81.5q-126 0 -231 38t-179 105t-125.5 158t-76 197t-24.5 223t24.5 223t76 197t125.5 157.5t179 104.5t231 38q191 0 327 -81.5t215 -225.5v293h918v-91zM783 75q109 0 198 33 t151 90.5t104.5 138t62 173t19.5 197.5q0 131 -32 243t-95.5 200t-168 138t-239.5 50q-134 0 -238 -50t-167 -138t-95 -200t-32 -243q0 -132 32 -244t95 -200t167 -138t238 -50z" glyph-name="OE" horiz-adv-x="2371" unicode="Œ"/><glyph d="M1817 565q0 -63 -6 -86h-753q5 -191 98 -298t255 -107q99 0 169 30t142 104l67 -61q-86 -87 -173 -124t-205 -37q-148 0 -254 72.5t-157 200.5q-59 -125 -171 -199t-252 -74q-136 0 -244.5 68.5t-168.5 186t-60 261.5q0 142 60 258.5t168.5 184.5t244.5 68 q142 0 254.5 -74.5t170.5 -199.5q51 127 152 200.5t240 73.5q92 0 166 -28.5t121 -74.5t78.5 -106t44.5 -119.5t13 -119.5zM1721 551q3 32 0 62q-3 46 -15 89.5t-38 85.5t-62.5 73.5t-91.5 50.5t-121 19q-144 0 -234 -104.5t-101 -275.5h663zM577 70q168 0 273 124t105 308 q0 183 -105 305t-273 122q-167 0 -270.5 -122t-103.5 -305q0 -185 103.5 -308.5t270.5 -123.5z" glyph-name="oe" horiz-adv-x="1922" unicode="œ"/><glyph d="M576 1541l216 285h103l-243 -285h-76zM238 0v1413h375q210 0 337 -102t127 -285q0 -144 -81 -237.5t-226 -124.5l391 -664h-111l-376 653q-60 -4 -99 -4h-238v-649h-99zM337 732h284q173 2 265.5 77t92.5 216q0 142 -96.5 220.5t-268.5 78.5h-277v-592z" glyph-name="Racute" horiz-adv-x="1262" unicode="Ŕ"/><glyph d="M388 1128l216 285h103l-243 -285h-76zM190 0v999h93v-223q25 79 79.5 134t116.5 79t126 24q85 0 147 -40l-44 -79q-55 26 -115 26q-55 0 -108 -21.5t-99 -64.5t-74.5 -119.5t-28.5 -175.5v-539h-93z" glyph-name="racute" horiz-adv-x="785" unicode="ŕ"/><glyph d="M238 0v1413h375q210 0 337 -102t127 -285q0 -144 -81 -237.5t-226 -124.5l391 -664h-111l-376 653q-60 -4 -99 -4h-238v-649h-99zM337 732h284q173 2 265.5 77t92.5 216q0 142 -96.5 220.5t-268.5 78.5h-277v-592zM457 -444l198 329h102l-234 -329h-66z" glyph-name="Rcommaaccent" horiz-adv-x="1262" unicode="Ŗ"/><glyph d="M190 0v999h93v-223q25 79 79.5 134t116.5 79t126 24q85 0 147 -40l-44 -79q-55 26 -115 26q-55 0 -108 -21.5t-99 -64.5t-74.5 -119.5t-28.5 -175.5v-539h-93zM151 -444l198 329h102l-234 -329h-66z" glyph-name="rcommaaccent" horiz-adv-x="785" unicode="ŗ"/><glyph d="M623 1526l-296 300h85l211 -216l213 216h84zM238 0v1413h375q210 0 337 -102t127 -285q0 -144 -81 -237.5t-226 -124.5l391 -664h-111l-376 653q-60 -4 -99 -4h-238v-649h-99zM337 732h284q173 2 265.5 77t92.5 216q0 142 -96.5 220.5t-268.5 78.5h-277v-592z" glyph-name="Rcaron" horiz-adv-x="1262" unicode="Ř"/><glyph d="M435 1113l-296 300h85l211 -216l213 216h84zM190 0v999h93v-223q25 79 79.5 134t116.5 79t126 24q85 0 147 -40l-44 -79q-55 26 -115 26q-55 0 -108 -21.5t-99 -64.5t-74.5 -119.5t-28.5 -175.5v-539h-93z" glyph-name="rcaron" horiz-adv-x="785" unicode="ř"/><glyph d="M520 1541l216 285h103l-243 -285h-76zM588 -12q-185 0 -315.5 100.5t-160.5 278.5l98 23q22 -149 124 -231.5t256 -82.5q152 0 247.5 84t95.5 213q0 80 -41 140t-106 97t-144 68t-158 64t-144 73t-106 106.5t-41 154.5q0 155 110 253t275 98q264 0 391 -221l-82 -51 q-53 94 -129 138.5t-183 44.5q-122 0 -203 -73t-81 -185q0 -57 25.5 -103t68 -77t98 -57.5t117 -49.5t123 -47.5t117 -57.5t98 -73.5t68 -100.5t25.5 -134q0 -173 -126 -282.5t-317 -109.5z" glyph-name="Sacute" horiz-adv-x="1153" unicode="Ś"/><glyph d="M408 1128l216 285h103l-243 -285h-76zM486 -14q-143 0 -252 71.5t-149 186.5l79 34q32 -92 116.5 -151t201.5 -59q120 0 187.5 56t67.5 148q0 62 -33.5 103.5t-87 62t-118 36t-129.5 33t-118.5 43t-87 76.5t-33.5 125q0 122 93 192t239 70q114 0 203 -53.5t139 -152.5 l-74 -40q-41 78 -110 123t-161 45q-108 0 -173 -47.5t-65 -125.5q0 -56 33.5 -94t87.5 -57.5t119 -34.5t129.5 -34t118.5 -48t87.5 -84t33.5 -134q0 -138 -95.5 -214t-248.5 -76z" glyph-name="sacute" horiz-adv-x="934" unicode="ś"/><glyph d="M1031 380q0 -172 -124 -281t-313 -111l-78 -132q40 -2 67 -7q91 -15 139 -60t48 -116q0 -85 -54.5 -136t-145.5 -51q-62 0 -116 36t-76 93l59 25q15 -42 52 -68t83 -26q65 0 101 32.5t36 91.5q0 58 -48 94t-138 44q-42 3 -93 3l102 180q-165 15 -278.5 113.5 t-141.5 262.5l98 23q22 -149 124 -231.5t256 -82.5q152 0 247.5 84t95.5 213q0 80 -41 140t-106 97t-144 68t-158 64t-144 73t-106 106.5t-41 154.5q0 155 110 253t275 98q264 0 391 -221l-82 -51q-53 94 -129 138.5t-183 44.5q-122 0 -203 -73t-81 -185q0 -57 25.5 -103 t68 -77t98 -57.5t117 -49.5t123 -47.5t117 -57.5t98 -73.5t68 -100.5t25.5 -134z" glyph-name="Scedilla" horiz-adv-x="1153" unicode="Ş"/><glyph d="M830 276q0 -129 -84.5 -204.5t-223.5 -84.5l-77 -131q40 -2 67 -7q91 -15 139 -60t48 -116q0 -85 -54.5 -136t-145.5 -51q-62 0 -116 36t-76 93l59 25q15 -42 52 -68t83 -26q65 0 101 32.5t36 91.5q0 58 -48 94t-138 44q-42 3 -93 3l100 176q-134 7 -235 77.5t-139 179.5 l79 34q32 -92 116.5 -151t201.5 -59q120 0 187.5 56t67.5 148q0 62 -33.5 103.5t-87 62t-118 36t-129.5 33t-118.5 43t-87 76.5t-33.5 125q0 122 93 192t239 70q114 0 203 -53.5t139 -152.5l-74 -40q-41 78 -110 123t-161 45q-108 0 -173 -47.5t-65 -125.5q0 -56 33.5 -94 t87.5 -57.5t119 -34.5t129.5 -34t118.5 -48t87.5 -84t33.5 -134z" glyph-name="scedilla" horiz-adv-x="934" unicode="ş"/><glyph d="M567 1526l-296 300h85l211 -216l213 216h84zM588 -12q-185 0 -315.5 100.5t-160.5 278.5l98 23q22 -149 124 -231.5t256 -82.5q152 0 247.5 84t95.5 213q0 80 -41 140t-106 97t-144 68t-158 64t-144 73t-106 106.5t-41 154.5q0 155 110 253t275 98q264 0 391 -221 l-82 -51q-53 94 -129 138.5t-183 44.5q-122 0 -203 -73t-81 -185q0 -57 25.5 -103t68 -77t98 -57.5t117 -49.5t123 -47.5t117 -57.5t98 -73.5t68 -100.5t25.5 -134q0 -173 -126 -282.5t-317 -109.5z" glyph-name="Scaron" horiz-adv-x="1153" unicode="Š"/><glyph d="M455 1113l-296 300h85l211 -216l213 216h84zM486 -14q-143 0 -252 71.5t-149 186.5l79 34q32 -92 116.5 -151t201.5 -59q120 0 187.5 56t67.5 148q0 62 -33.5 103.5t-87 62t-118 36t-129.5 33t-118.5 43t-87 76.5t-33.5 125q0 122 93 192t239 70q114 0 203 -53.5 t139 -152.5l-74 -40q-41 78 -110 123t-161 45q-108 0 -173 -47.5t-65 -125.5q0 -56 33.5 -94t87.5 -57.5t119 -34.5t129.5 -34t118.5 -48t87.5 -84t33.5 -134q0 -138 -95.5 -214t-248.5 -76z" glyph-name="scaron" horiz-adv-x="934" unicode="š"/><glyph d="M590 0v1324h-511v89h1118v-89h-509v-1324h-98zM644 -514q-62 0 -116 36t-76 93l59 25q15 -42 52 -68t83 -26q65 0 101 32.5t36 91.5q0 58 -48 94t-138 44q-42 3 -93 3l107 188h63l-84 -143q40 -2 67 -7q91 -15 139 -60t48 -116q0 -85 -54.5 -136t-145.5 -51z" glyph-name="Tcommaaccent" horiz-adv-x="1277" unicode="Ţ"/><glyph d="M492 -151q91 -15 139 -60t48 -116q0 -85 -54.5 -136t-145.5 -51q-62 0 -116 36t-76 93l59 25q15 -42 52 -68t83 -26q65 0 101 32.5t36 91.5q0 58 -48 94t-138 44q-42 3 -93 3l101 177q-221 23 -221 293v637h-167v81h169v303l93 72v-375h289v-81h-289v-623 q0 -116 44 -169.5t135 -53.5q60 0 109 19l3 -88q-45 -13 -103 -16l-77 -131q40 -2 67 -7z" glyph-name="tcommaaccent" horiz-adv-x="685" unicode="ţ"/><glyph d="M641 1526l-296 300h85l211 -216l213 216h84zM590 0v1324h-511v89h1118v-89h-509v-1324h-98z" glyph-name="Tcaron" horiz-adv-x="1277" unicode="Ť"/><glyph d="M481 1156l119 408h100l-156 -408h-63zM479 -14q-129 0 -194.5 74.5t-65.5 220.5v637h-167v81h169v303l93 72v-375h289v-81h-289v-623q0 -116 44 -169.5t135 -53.5q60 0 109 19l3 -88q-62 -17 -126 -17z" glyph-name="tcaron" horiz-adv-x="685" unicode="ť"/><glyph d="M1197 1324h-509v-583h272v-68h-272v-673h-98v673h-265v68h265v583h-511v89h1118v-89z" glyph-name="Tbar" horiz-adv-x="1277" unicode="Ŧ"/><glyph d="M655 466h-341v-171q0 -116 44 -169.5t135 -53.5q60 0 109 19l3 -88q-62 -17 -126 -17q-129 0 -194.5 74.5t-65.5 220.5v185h-199v68h199v384h-167v81h169v303l93 72v-375h289v-81h-289v-384h341v-68z" glyph-name="tbar" horiz-adv-x="685" unicode="ŧ"/><glyph d="M850 1575q-40 0 -71.5 14t-50.5 35.5t-38 46t-34 45.5t-38.5 35t-52.5 14q-53 1 -84 -44.5t-31 -124.5h-60q0 109 47.5 171t130.5 61q44 0 77.5 -19t54.5 -47t41 -56t47 -47.5t62 -19.5q47 0 77 49.5t30 130.5h62q0 -111 -46.5 -177.5t-122.5 -66.5zM702 -14 q-242 0 -367 140.5t-125 397.5v889h98v-880q0 -221 98 -336t296 -115q200 0 299 117t99 341v873h98v-879q0 -263 -126 -405.5t-370 -142.5z" glyph-name="Utilde" horiz-adv-x="1408" unicode="Ũ"/><glyph d="M697 1162q-40 0 -71.5 14t-50.5 35.5t-38 46t-34 45.5t-38.5 35t-52.5 14q-53 1 -84 -44.5t-31 -124.5h-60q0 109 47.5 171t130.5 61q44 0 77.5 -19t54.5 -47t41 -56t47 -47.5t62 -19.5q47 0 77 49.5t30 130.5h62q0 -111 -46.5 -177.5t-122.5 -66.5zM507 -14 q-163 0 -250 100t-91 270v643h94v-613q0 -150 69 -230.5t201 -80.5q136 0 216 85t80 234v605h94v-999h-94v188q-42 -97 -126.5 -149.5t-192.5 -52.5z" glyph-name="utilde" horiz-adv-x="1111" unicode="ũ"/><glyph d="M434 1657v61h544v-61h-544zM702 -14q-242 0 -367 140.5t-125 397.5v889h98v-880q0 -221 98 -336t296 -115q200 0 299 117t99 341v873h98v-879q0 -263 -126 -405.5t-370 -142.5z" glyph-name="Umacron" horiz-adv-x="1408" unicode="Ū"/><glyph d="M281 1244v61h544v-61h-544zM507 -14q-163 0 -250 100t-91 270v643h94v-613q0 -150 69 -230.5t201 -80.5q136 0 216 85t80 234v605h94v-999h-94v188q-42 -97 -126.5 -149.5t-192.5 -52.5z" glyph-name="umacron" horiz-adv-x="1111" unicode="ū"/><glyph d="M703 1516q-76 0 -129 53.5t-53 128.5q0 76 53 129t129 53q75 0 128.5 -53.5t53.5 -128.5q0 -76 -53 -129t-129 -53zM703 1574q53 0 89 36t36 89q0 52 -35.5 88t-89.5 36q-52 0 -88 -36t-36 -88q0 -54 35.5 -89.5t88.5 -35.5zM702 -14q-242 0 -367 140.5t-125 397.5v889 h98v-880q0 -221 98 -336t296 -115q200 0 299 117t99 341v873h98v-879q0 -263 -126 -405.5t-370 -142.5z" glyph-name="Uring" horiz-adv-x="1408" unicode="Ů"/><glyph d="M550 1103q-76 0 -129 53.5t-53 128.5q0 76 53 129t129 53q75 0 128.5 -53.5t53.5 -128.5q0 -76 -53 -129t-129 -53zM550 1161q52 0 88.5 36.5t36.5 88.5t-35.5 88t-89.5 36q-52 0 -88 -36t-36 -88q0 -54 35.5 -89.5t88.5 -35.5zM507 -14q-163 0 -250 100t-91 270v643h94 v-613q0 -150 69 -230.5t201 -80.5q136 0 216 85t80 234v605h94v-999h-94v188q-42 -97 -126.5 -149.5t-192.5 -52.5z" glyph-name="uring" horiz-adv-x="1111" unicode="ů"/><glyph d="M491 1528l216 298h89l-229 -298h-76zM817 1528l216 298h103l-243 -298h-76zM702 -14q-242 0 -367 140.5t-125 397.5v889h98v-880q0 -221 98 -336t296 -115q200 0 299 117t99 341v873h98v-879q0 -263 -126 -405.5t-370 -142.5z" glyph-name="Uhungarumlaut" horiz-adv-x="1408" unicode="Ű"/><glyph d="M338 1115l216 298h89l-229 -298h-76zM664 1115l216 298h103l-243 -298h-76zM507 -14q-163 0 -250 100t-91 270v643h94v-613q0 -150 69 -230.5t201 -80.5q136 0 216 85t80 234v605h94v-999h-94v188q-42 -97 -126.5 -149.5t-192.5 -52.5z" glyph-name="uhungarumlaut" horiz-adv-x="1111" unicode="ű"/><glyph d="M1100 1413h98v-879q0 -222 -90.5 -359t-267.5 -175q-79 -39 -128 -98.5t-49 -128.5q0 -66 36 -99t102 -33q100 0 163 90l52 -36q-79 -117 -213 -117q-93 0 -147.5 49t-54.5 135q0 67 37.5 125.5t98.5 99.5q-12 -1 -35 -1q-242 0 -367 140.5t-125 397.5v889h98v-880 q0 -221 98 -336t296 -115q200 0 299 117t99 341v873z" glyph-name="Uogonek" horiz-adv-x="1408" unicode="Ų"/><glyph d="M951 -304l52 -36q-79 -117 -213 -117q-93 0 -147.5 49t-54.5 135q0 96 72.5 171.5t165.5 102.5v187q-42 -97 -126.5 -149.5t-192.5 -52.5q-163 0 -250 100t-91 270v643h94v-613q0 -150 69 -230.5t201 -80.5q136 0 216 85t80 234v605h94v-999q-112 -31 -191 -102t-79 -160 q0 -66 36 -99t102 -33q100 0 163 90z" glyph-name="uogonek" horiz-adv-x="1111" unicode="ų"/><glyph d="M695 1511l297 307l297 -307h-85l-212 219l-212 -219h-85zM499 0l-402 1413h103l357 -1276l387 1202h83l387 -1202l358 1276h103l-402 -1413h-104l-383 1185l-383 -1185h-104z" glyph-name="Wcircumflex" horiz-adv-x="1972" unicode="Ŵ"/><glyph d="M452 1118l297 307l297 -307h-85l-212 219l-212 -219h-85zM354 0l-285 999h102l235 -858l295 858h92l293 -858l236 858h102l-286 -999h-94l-297 871l-299 -871h-94z" glyph-name="wcircumflex" horiz-adv-x="1492" unicode="ŵ"/><glyph d="M367 1532l297 307l297 -307h-85l-212 219l-212 -219h-85zM614 0v536l-540 877h119l471 -779l473 779h120l-541 -877v-536h-102z" glyph-name="Ycircumflex" horiz-adv-x="1331" unicode="Ŷ"/><glyph d="M205 1118l297 307l297 -307h-85l-212 219l-212 -219h-85zM319 -427l166 435l-437 991h105l383 -878l324 878h103l-540 -1426h-104z" glyph-name="ycircumflex" horiz-adv-x="1016" unicode="ŷ"/><glyph d="M445 1629v198h82v-198h-82zM798 1629v198h82v-198h-82zM614 0v536l-540 877h119l471 -779l473 779h120l-541 -877v-536h-102z" glyph-name="Ydieresis" horiz-adv-x="1331" unicode="Ÿ"/><glyph d="M931 1826l-243 -285h-76l216 285h103zM1206 1413v-82l-975 -1241h971v-90h-1100v81l975 1241h-927v91h1056z" glyph-name="Zacute" horiz-adv-x="1317" unicode="Ź"/><glyph d="M750 1413l-243 -285h-76l216 285h103zM887 999v-84l-692 -833h686v-82h-809v76l703 842h-667v81h779z" glyph-name="zacute" horiz-adv-x="971" unicode="ź"/><glyph d="M709 1826v-198h-99v198h99zM1206 1413v-82l-975 -1241h971v-90h-1100v81l975 1241h-927v91h1056z" glyph-name="Zdotaccent" horiz-adv-x="1317" unicode="Ż"/><glyph d="M528 1413v-198h-99v198h99zM887 999v-84l-692 -833h686v-82h-809v76l703 842h-667v81h779z" glyph-name="zdotaccent" horiz-adv-x="971" unicode="ż"/><glyph d="M956 1826l-297 -300l-296 300h85l211 -216l213 216h84zM1206 1413v-82l-975 -1241h971v-90h-1100v81l975 1241h-927v91h1056z" glyph-name="Zcaron" horiz-adv-x="1317" unicode="Ž"/><glyph d="M775 1413l-297 -300l-296 300h85l211 -216l213 216h84zM887 999v-84l-692 -833h686v-82h-809v76l703 842h-667v81h779z" glyph-name="zcaron" horiz-adv-x="971" unicode="ž"/><glyph d="M145 -461v75q161 0 232.5 71t71.5 234v1006h-172v74h172v131q0 137 69.5 219.5t181.5 82.5q115 0 210 -82l-53 -63q-72 63 -157 63q-77 0 -123.5 -58t-46.5 -162v-131h287v-74h-287v-1013q0 -190 -96 -281.5t-289 -91.5z" glyph-name="florin" horiz-adv-x="1054" unicode="ƒ"/><glyph d="M247 387l-9 1026h91l-10 -1026h-72zM232 0v204h103v-204h-103z" glyph-name="uni01C3" horiz-adv-x="567" unicode="ǃ"/><glyph d="M2408 1826l-297 -300l-296 300h85l211 -216l213 216h84zM610 1413q347 0 531.5 -185.5t184.5 -531.5q0 -333 -187 -514.5t-531 -181.5h-370v1413h372zM2658 1413v-82l-975 -1241h971v-90h-1100v81l975 1241h-927v91h1056zM599 91q302 0 465 154t163 455q0 622 -619 622 h-271v-1231h262z" glyph-name="uni01C4" horiz-adv-x="2769" unicode="Ǆ"/><glyph d="M610 1413q347 0 531.5 -185.5t184.5 -531.5q0 -333 -187 -514.5t-531 -181.5h-370v1413h372zM2249 1413l-297 -300l-296 300h85l211 -216l213 216h84zM599 91q302 0 465 154t163 455q0 622 -619 622h-271v-1231h262zM2361 999v-84l-692 -833h686v-82h-809v76l703 842 h-667v81h779z" glyph-name="uni01C5" horiz-adv-x="2445" unicode="ǅ"/><glyph d="M940 739v674h96v-1413h-89l-4 266q-45 -129 -148.5 -204.5t-236.5 -75.5q-197 0 -323 148t-126 367q0 142 56 258.5t159 185t233 68.5q132 0 235 -74t148 -200zM2004 1413l-297 -300l-296 300h85l211 -216l213 216h84zM2116 999v-84l-692 -833h686v-82h-809v76l703 842 h-667v81h779zM578 74q164 0 266.5 121t102.5 306q0 184 -102.5 304.5t-266.5 120.5q-165 0 -269 -121.5t-104 -303.5q0 -184 104 -305.5t269 -121.5z" glyph-name="uni01C6" horiz-adv-x="2200" unicode="ǆ"/><glyph d="M238 0v1413h99v-1319h660v-94h-759zM1653 -14q-191 0 -309.5 115t-132.5 302l97 10q11 -153 101.5 -243.5t243.5 -90.5q173 0 254 108.5t81 327.5v807h-589v91h687v-896q0 -256 -107.5 -393.5t-325.5 -137.5z" glyph-name="uni01C7" horiz-adv-x="2298" unicode="Ǉ"/><glyph d="M238 0v1413h99v-1319h660v-94h-759zM1271 1215v198h99v-198h-99zM1113 -431q-73 0 -158 31l26 84q69 -28 124 -28q86 0 127 50t41 155v1138h95v-1132q0 -144 -63 -221t-192 -77z" glyph-name="uni01C8" horiz-adv-x="1560" unicode="ǈ"/><glyph d="M362 -14q-44 0 -76.5 12t-51.5 31t-30 49.5t-14.5 62t-3.5 74.5v1198h95v-1175q0 -33 1 -51.5t7.5 -43.5t18.5 -38t35 -22.5t57 -9.5q42 0 85 10l3 -82q-70 -15 -126 -15zM732 1215v198h99v-198h-99zM574 -431q-73 0 -158 31l26 84q69 -28 124 -28q86 0 127 50t41 155 v1138h95v-1132q0 -144 -63 -221t-192 -77z" glyph-name="uni01C9" horiz-adv-x="1021" unicode="ǉ"/><glyph d="M1087 151v1262h95v-1413h-110l-739 1263v-1263h-95v1413h109zM1703 1413h687v-896q0 -256 -107.5 -393.5t-325.5 -137.5q-191 0 -309.5 115t-132.5 302l97 10q11 -153 101.5 -243.5t243.5 -90.5q173 0 254 108.5t81 327.5v807h-589v91z" glyph-name="uni01CA" horiz-adv-x="2602" unicode="Ǌ"/><glyph d="M1087 151v1262h95v-1413h-110l-739 1263v-1263h-95v1413h109zM1610 1413h99v-198h-99v198zM1612 -139v1138h95v-1132q0 -144 -63 -221t-192 -77q-73 0 -158 31l26 84q69 -28 124 -28q86 0 127 50t41 155z" glyph-name="uni01CB" horiz-adv-x="1899" unicode="ǋ"/><glyph d="M1301 1215v198h99v-198h-99zM190 0v999h95v-187q42 96 126.5 148.5t192.5 52.5q163 0 250 -100t91 -269v-644h-94v613q0 150 -69 230.5t-201 80.5q-136 0 -216 -84.5t-80 -233.5v-606h-95zM1143 -431q-73 0 -158 31l26 84q69 -28 124 -28q86 0 127 50t41 155v1138h95 v-1132q0 -144 -63 -221t-192 -77z" glyph-name="uni01CC" horiz-adv-x="1590" unicode="ǌ"/><glyph d="M641 1526l-296 300h85l211 -216l213 216h84zM87 0l512 1413h90l511 -1413h-106l-124 352h-650l-124 -352h-109zM351 438h588l-294 843z" glyph-name="uni01CD" horiz-adv-x="1288" unicode="Ǎ"/><glyph d="M816 1413l-297 -300l-296 300h85l211 -216l213 216h84zM517 1013q186 0 286.5 -105t100.5 -296v-612h-81l-6 225q-59 -117 -158.5 -178t-221.5 -61q-153 0 -246 80t-93 218q0 285 426 285h292v27q0 169 -72 250.5t-227 81.5q-102 0 -175 -42t-132 -128l-73 54 q74 103 164 152t216 49zM453 69q131 0 223 74t140 209v144h-288q-333 0 -333 -215q0 -98 68.5 -155t189.5 -57z" glyph-name="uni01CE" horiz-adv-x="1068" unicode="ǎ"/><glyph d="M285 1526l-296 300h85l211 -216l213 216h84zM238 0v1413h99v-1413h-99z" glyph-name="uni01CF" horiz-adv-x="575" unicode="Ǐ"/><glyph d="M236 1113l-296 300h85l211 -216l213 216h84zM190 0v999h95v-999h-95z" glyph-name="uni01D0" horiz-adv-x="476" unicode="ǐ"/><glyph d="M782 1526l-296 300h85l211 -216l213 216h84zM783 -14q-126 0 -231 38t-179 105t-125.5 158t-76 197t-24.5 223t24.5 223t76 197t125.5 157.5t179 104.5t231 38q158 0 282 -58t200.5 -158t116 -228.5t39.5 -275.5q0 -117 -24.5 -223t-75.5 -197t-125.5 -158t-180 -105 t-232.5 -38zM783 75q109 0 198 33t151 90.5t104.5 138t62 173t19.5 197.5q0 131 -32 243t-95.5 200t-168 138t-239.5 50q-134 0 -238 -50t-167 -138t-95 -200t-32 -243q0 -132 32 -244t95 -200t167 -138t238 -50z" glyph-name="uni01D1" horiz-adv-x="1569" unicode="Ǒ"/><glyph d="M577 1113l-296 300h85l211 -216l213 216h84zM577 -14q-136 0 -244.5 68.5t-168.5 186t-60 261.5q0 142 60 258.5t168.5 184.5t244.5 68q205 0 340.5 -147.5t135.5 -363.5q0 -218 -135.5 -367t-340.5 -149zM577 70q168 0 273 124t105 308q0 183 -105 305t-273 122 q-167 0 -270.5 -122t-103.5 -305q0 -185 103.5 -308.5t270.5 -123.5z" glyph-name="uni01D2" horiz-adv-x="1158" unicode="ǒ"/><glyph d="M704 1526l-296 300h85l211 -216l213 216h84zM702 -14q-242 0 -367 140.5t-125 397.5v889h98v-880q0 -221 98 -336t296 -115q200 0 299 117t99 341v873h98v-879q0 -263 -126 -405.5t-370 -142.5z" glyph-name="uni01D3" horiz-adv-x="1408" unicode="Ǔ"/><glyph d="M551 1113l-296 300h85l211 -216l213 216h84zM507 -14q-163 0 -250 100t-91 270v643h94v-613q0 -150 69 -230.5t201 -80.5q136 0 216 85t80 234v605h94v-999h-94v188q-42 -97 -126.5 -149.5t-192.5 -52.5z" glyph-name="uni01D4" horiz-adv-x="1111" unicode="ǔ"/><glyph d="M434 2071v61h544v-61h-544zM486 1628v198h82v-198h-82zM839 1628v198h82v-198h-82zM702 -14q-242 0 -367 140.5t-125 397.5v889h98v-880q0 -221 98 -336t296 -115q200 0 299 117t99 341v873h98v-879q0 -263 -126 -405.5t-370 -142.5z" glyph-name="uni01D5" horiz-adv-x="1408" unicode="Ǖ"/><glyph d="M281 1658v61h544v-61h-544zM333 1215v198h82v-198h-82zM686 1215v198h82v-198h-82zM507 -14q-163 0 -250 100t-91 270v643h94v-613q0 -150 69 -230.5t201 -80.5q136 0 216 85t80 234v605h94v-999h-94v188q-42 -97 -126.5 -149.5t-192.5 -52.5z" glyph-name="uni01D6" horiz-adv-x="1111" unicode="ǖ"/><glyph d="M657 1955l216 285h103l-243 -285h-76zM486 1628v198h82v-198h-82zM839 1628v198h82v-198h-82zM702 -14q-242 0 -367 140.5t-125 397.5v889h98v-880q0 -221 98 -336t296 -115q200 0 299 117t99 341v873h98v-879q0 -263 -126 -405.5t-370 -142.5z" glyph-name="uni01D7" horiz-adv-x="1408" unicode="Ǘ"/><glyph d="M504 1542l216 285h103l-243 -285h-76zM333 1215v198h82v-198h-82zM686 1215v198h82v-198h-82zM507 -14q-163 0 -250 100t-91 270v643h94v-613q0 -150 69 -230.5t201 -80.5q136 0 216 85t80 234v605h94v-999h-94v188q-42 -97 -126.5 -149.5t-192.5 -52.5z" glyph-name="uni01D8" horiz-adv-x="1111" unicode="ǘ"/><glyph d="M704 1940l-296 300h85l211 -216l213 216h84zM486 1628v198h82v-198h-82zM839 1628v198h82v-198h-82zM702 -14q-242 0 -367 140.5t-125 397.5v889h98v-880q0 -221 98 -336t296 -115q200 0 299 117t99 341v873h98v-879q0 -263 -126 -405.5t-370 -142.5z" glyph-name="uni01D9" horiz-adv-x="1408" unicode="Ǚ"/><glyph d="M551 1527l-296 300h85l211 -216l213 216h84zM333 1215v198h82v-198h-82zM686 1215v198h82v-198h-82zM507 -14q-163 0 -250 100t-91 270v643h94v-613q0 -150 69 -230.5t201 -80.5q136 0 216 85t80 234v605h94v-999h-94v188q-42 -97 -126.5 -149.5t-192.5 -52.5z" glyph-name="uni01DA" horiz-adv-x="1111" unicode="ǚ"/><glyph d="M675 1949l-243 291h103l215 -291h-75zM486 1628v198h82v-198h-82zM839 1628v198h82v-198h-82zM702 -14q-242 0 -367 140.5t-125 397.5v889h98v-880q0 -221 98 -336t296 -115q200 0 299 117t99 341v873h98v-879q0 -263 -126 -405.5t-370 -142.5z" glyph-name="uni01DB" horiz-adv-x="1408" unicode="Ǜ"/><glyph d="M522 1536l-243 291h103l215 -291h-75zM333 1215v198h82v-198h-82zM686 1215v198h82v-198h-82zM507 -14q-163 0 -250 100t-91 270v643h94v-613q0 -150 69 -230.5t201 -80.5q136 0 216 85t80 234v605h94v-999h-94v188q-42 -97 -126.5 -149.5t-192.5 -52.5z" glyph-name="uni01DC" horiz-adv-x="1111" unicode="ǜ"/><glyph d="M511 1013q211 0 332 -141.5t121 -366.5q0 -146 -51 -263t-151 -186.5t-234 -69.5q-92 0 -166 28.5t-121 74.5t-78.5 106t-44.5 119.5t-13 119.5q0 64 6 86h753q-5 191 -98 298t-255 107q-99 0 -169 -30t-142 -104l-67 61q86 87 173 124t205 37zM864 448h-663 q-3 -32 0 -62q3 -46 15 -89.5t38 -85.5t62.5 -73.5t91.5 -50.5t121 -19q144 0 234 104.5t101 275.5z" glyph-name="uni01DD" horiz-adv-x="1076" unicode="ǝ"/><glyph d="M667 -6q-106 -33 -178.5 -102t-72.5 -154q0 -66 36 -99t102 -33q100 0 163 90l52 -36q-79 -117 -213 -117q-93 0 -147.5 49t-54.5 135q0 85 58.5 155t140.5 105q-197 9 -323 155.5t-126 359.5q0 142 60 258.5t168.5 184.5t244.5 68q205 0 340.5 -147.5t135.5 -363.5 q0 -192 -107 -333.5t-279 -174.5zM203 502q0 -185 103.5 -308.5t270.5 -123.5q168 0 273 124t105 308q0 183 -105 305t-273 122q-167 0 -270.5 -122t-103.5 -305z" glyph-name="uni01EB" horiz-adv-x="1158" unicode="ǫ"/><glyph d="M610 1413q347 0 531.5 -185.5t184.5 -531.5q0 -333 -187 -514.5t-531 -181.5h-370v1413h372zM2658 1413v-82l-975 -1241h971v-90h-1100v81l975 1241h-927v91h1056zM599 91q302 0 465 154t163 455q0 622 -619 622h-271v-1231h262z" glyph-name="uni01F1" horiz-adv-x="2769" unicode="Ǳ"/><glyph d="M610 1413q347 0 531.5 -185.5t184.5 -531.5q0 -333 -187 -514.5t-531 -181.5h-370v1413h372zM599 91q302 0 465 154t163 455q0 622 -619 622h-271v-1231h262zM2361 999v-84l-692 -833h686v-82h-809v76l703 842h-667v81h779z" glyph-name="uni01F2" horiz-adv-x="2445" unicode="ǲ"/><glyph d="M940 739v674h96v-1413h-89l-4 266q-45 -129 -148.5 -204.5t-236.5 -75.5q-197 0 -323 148t-126 367q0 142 56 258.5t159 185t233 68.5q132 0 235 -74t148 -200zM2116 999v-84l-692 -833h686v-82h-809v76l703 842h-667v81h779zM578 74q164 0 266.5 121t102.5 306 q0 184 -102.5 304.5t-266.5 120.5q-165 0 -269 -121.5t-104 -303.5q0 -184 104 -305.5t269 -121.5z" glyph-name="uni01F3" horiz-adv-x="2200" unicode="ǳ"/><glyph d="M1054 1826l-243 -285h-76l216 285h103zM1187 1292q116 -97 175 -250.5t59 -334.5q0 -117 -24.5 -223t-75.5 -197t-125.5 -158t-180 -105t-232.5 -38q-205 0 -353 99l-53 -85h-76l78 124q-114 97 -173 250t-59 333q0 117 24.5 223t76 197t125.5 157.5t179 104.5t231 38 q204 0 352 -97l52 83h76zM251 707q0 -156 45 -286t134 -216l656 1046q-127 87 -303 87q-134 0 -238 -50t-167 -138t-95 -200t-32 -243zM783 75q109 0 198 33t151 90.5t104.5 138t62 173t19.5 197.5q0 157 -45.5 287.5t-136.5 215.5l-656 -1046q126 -89 303 -89z" glyph-name="Oslashacute" horiz-adv-x="1569" unicode="Ǿ"/><glyph d="M849 1413l-243 -285h-76l216 285h103zM865 915q88 -71 138 -178.5t50 -234.5q0 -218 -135.5 -367t-340.5 -149q-139 0 -250 72l-36 -58h-53l53 84q-88 71 -137.5 180t-49.5 238q0 142 60 258.5t168.5 184.5t244.5 68q140 0 251 -72l36 57h53zM203 502q0 -104 35.5 -193 t99.5 -149l444 708q-89 61 -205 61q-167 0 -270.5 -122t-103.5 -305zM577 70q168 0 273 124t105 308q0 104 -35.5 191.5t-101.5 146.5l-444 -708q89 -62 203 -62z" glyph-name="oslashacute" horiz-adv-x="1158" unicode="ǿ"/><glyph d="M588 -12q-185 0 -315.5 100.5t-160.5 278.5l98 23q22 -149 124 -231.5t256 -82.5q152 0 247.5 84t95.5 213q0 80 -41 140t-106 97t-144 68t-158 64t-144 73t-106 106.5t-41 154.5q0 155 110 253t275 98q264 0 391 -221l-82 -51q-53 94 -129 138.5t-183 44.5 q-122 0 -203 -73t-81 -185q0 -57 25.5 -103t68 -77t98 -57.5t117 -49.5t123 -47.5t117 -57.5t98 -73.5t68 -100.5t25.5 -134q0 -173 -126 -282.5t-317 -109.5zM326 -444l198 329h102l-234 -329h-66z" glyph-name="Scommaaccent" horiz-adv-x="1153" unicode="Ș"/><glyph d="M486 -14q-143 0 -252 71.5t-149 186.5l79 34q32 -92 116.5 -151t201.5 -59q120 0 187.5 56t67.5 148q0 62 -33.5 103.5t-87 62t-118 36t-129.5 33t-118.5 43t-87 76.5t-33.5 125q0 122 93 192t239 70q114 0 203 -53.5t139 -152.5l-74 -40q-41 78 -110 123t-161 45 q-108 0 -173 -47.5t-65 -125.5q0 -56 33.5 -94t87.5 -57.5t119 -34.5t129.5 -34t118.5 -48t87.5 -84t33.5 -134q0 -138 -95.5 -214t-248.5 -76zM255 -444l198 329h102l-234 -329h-66z" glyph-name="scommaaccent" horiz-adv-x="934" unicode="ș"/><glyph d="M590 0v1324h-511v89h1118v-89h-509v-1324h-98zM400 -444l198 329h102l-234 -329h-66z" glyph-name="uni021A" horiz-adv-x="1277" unicode="Ț"/><glyph d="M479 -14q-129 0 -194.5 74.5t-65.5 220.5v637h-167v81h169v303l93 72v-375h289v-81h-289v-623q0 -116 44 -169.5t135 -53.5q60 0 109 19l3 -88q-62 -17 -126 -17zM235 -444l198 329h102l-234 -329h-66z" glyph-name="uni021B" horiz-adv-x="685" unicode="ț"/><glyph d="M32 -431q-73 0 -158 31l26 84q69 -28 124 -28q86 0 127 50t41 155v1138h95v-1132q0 -144 -63 -221t-192 -77z" glyph-name="uni0237" horiz-adv-x="479" unicode="ȷ"/><glyph d="M551 71q102 0 175 42t132 128l73 -54q-74 -103 -164 -152t-216 -49q-186 0 -286.5 105t-100.5 296v612h81l6 -225q59 117 158.5 178t221.5 61q153 0 246 -80t93 -218q0 -285 -426 -285h-292v-27q0 -169 72 -250.5t227 -81.5zM615 930q-131 0 -223 -74t-140 -209v-144h288 q333 0 333 215q0 98 -68.5 155t-189.5 57z" glyph-name="uni0250" horiz-adv-x="1068" unicode="ɐ"/><glyph d="M471 -14q-134 0 -234.5 71t-145.5 198l87 33q34 -101 111.5 -157.5t182.5 -56.5q84 0 150.5 34.5t107 94t62 134.5t21.5 161q0 115 -35.5 209.5t-114.5 156.5t-190 62q-102 0 -181.5 -57.5t-120.5 -158.5l-90 35q55 129 157 198.5t235 69.5q106 0 191 -43.5t137.5 -116.5 t80 -164t27.5 -191q0 -222 -118.5 -367t-319.5 -145z" glyph-name="uni0254" horiz-adv-x="1020" unicode="ɔ"/><glyph d="M511 -14q-118 0 -205 37t-173 124l67 61q72 -74 142 -104t169 -30q162 0 255 107t98 298h-753q-6 23 -6 86q0 60 13 119.5t44.5 119.5t78.5 106t121 74.5t166 28.5q134 0 234 -69.5t151 -186.5t51 -263q0 -225 -121 -366.5t-332 -141.5zM864 551q-11 171 -101 275.5 t-234 104.5q-66 0 -121 -19t-91.5 -50.5t-62.5 -73.5t-38 -85.5t-15 -89.5q-3 -30 0 -62h663z" glyph-name="uni0258" horiz-adv-x="1076" unicode="ɘ"/><glyph d="M511 1013q211 0 332 -141.5t121 -366.5q0 -146 -51 -263t-151 -186.5t-234 -69.5q-92 0 -166 28.5t-121 74.5t-78.5 106t-44.5 119.5t-13 119.5q0 64 6 86h753q-5 191 -98 298t-255 107q-99 0 -169 -30t-142 -104l-67 61q86 87 173 124t205 37zM864 448h-663 q-3 -32 0 -62q3 -46 15 -89.5t38 -85.5t62.5 -73.5t91.5 -50.5t121 -19q144 0 234 104.5t101 275.5z" glyph-name="uni0259" horiz-adv-x="1076" unicode="ə"/><glyph d="M569 -460q-145 0 -255 71t-170 193l73 53q45 -104 138.5 -168t215.5 -64q161 0 263 114.5t102 301.5v227q-45 -126 -147.5 -200.5t-234.5 -74.5q-131 0 -234.5 68.5t-159.5 185t-56 257.5q0 140 56 256t159.5 184.5t233.5 68.5q131 0 234.5 -74t148.5 -200v260h96v-958 q0 -223 -129 -362t-334 -139zM574 82q164 0 266.5 120t102.5 302t-102.5 302t-266.5 120t-268.5 -121t-104.5 -301q0 -181 104.5 -301.5t268.5 -120.5z" glyph-name="uni0261" horiz-adv-x="1222" unicode="ɡ"/><glyph d="M70 1118l297 307l297 -307h-85l-212 219l-212 -219h-85z" glyph-name="circumflex" horiz-adv-x="734" unicode="ˆ"/><glyph d="M374 1113l-296 300h85l211 -216l213 216h84z" glyph-name="caron" horiz-adv-x="739" unicode="ˇ"/><glyph d="M309 618l-234 381l419 32zM91 -31l185 413l235 -382z" glyph-name="uni02D0" horiz-adv-x="586" unicode="ː"/><glyph d="M320 256l-234 382l419 32z" glyph-name="uni02D1" horiz-adv-x="606" unicode="ˑ"/><glyph d="M442 1150q-149 0 -225.5 67.5t-76.5 195.5h71q0 -99 60 -150.5t171 -51.5t170 51.5t59 150.5h71q0 -129 -76.5 -196t-223.5 -67z" glyph-name="breve" horiz-adv-x="872" unicode="˘"/><glyph d="M194 1215v198h99v-198h-99z" glyph-name="dotaccent" horiz-adv-x="469" unicode="˙"/><glyph d="M326 1103q-76 0 -129 53.5t-53 128.5q0 76 53 129t129 53q75 0 128.5 -53.5t53.5 -128.5q0 -76 -53 -129t-129 -53zM326 1161q52 0 88.5 36.5t36.5 88.5t-35.5 88t-89.5 36q-52 0 -88 -36t-36 -88q0 -54 35.5 -89.5t88.5 -35.5z" glyph-name="ring" horiz-adv-x="642" unicode="˚"/><glyph d="M328 -457q-93 0 -147.5 49t-54.5 135q0 101 79 178t176 100l77 -5q-112 -31 -191 -102t-79 -160q0 -66 36 -99t102 -33q100 0 163 90l52 -36q-79 -117 -213 -117z" glyph-name="ogonek" horiz-adv-x="631" unicode="˛"/><glyph d="M618 1169q-40 0 -71.5 14t-50.5 35.5t-38 46t-34 45.5t-38.5 35t-52.5 14q-53 1 -84 -44.5t-31 -124.5h-60q0 109 47.5 171t130.5 61q44 0 77.5 -19t54.5 -47t41 -56t47 -47.5t62 -19.5q47 0 77 49.5t30 130.5h62q0 -111 -46.5 -177.5t-122.5 -66.5z" glyph-name="tilde" horiz-adv-x="924" unicode="˜"/><glyph d="M95 1115l216 298h89l-229 -298h-76zM421 1115l216 298h103l-243 -298h-76z" glyph-name="hungarumlaut" horiz-adv-x="802" unicode="˝"/><glyph d="M424 705l-249 294h104l222 -294h-77zM849 705l-257 294h104l230 -294h-77z" glyph-name="uni02F5" horiz-adv-x="1106" unicode="˵"/><glyph d="M257 705h-77l230 294h104zM682 705h-77l222 294h104z" glyph-name="uni02F6" horiz-adv-x="1106" unicode="˶"/><glyph d="M-163 1122l-243 291h103l215 -291h-75z" glyph-name="gravecomb" horiz-adv-x="0" unicode="̀"/><glyph d="M-403 1128l216 285h103l-243 -285h-76z" glyph-name="acutecomb" horiz-adv-x="0" unicode="́"/><glyph d="M-664 1118l297 307l297 -307h-85l-212 219l-212 -219h-85z" glyph-name="uni0302" horiz-adv-x="0" unicode="̂"/><glyph d="M-318 1169q-40 0 -71.5 14t-50.5 35.5t-38 46t-34 45.5t-38.5 35t-52.5 14q-53 1 -84 -44.5t-31 -124.5h-60q0 109 47.5 171t130.5 61q44 0 77.5 -19t54.5 -47t41 -56t47 -47.5t62 -19.5q47 0 77 49.5t30 130.5h62q0 -111 -46.5 -177.5t-122.5 -66.5z" glyph-name="tildecomb" horiz-adv-x="0" unicode="̃"/><glyph d="M-723 1244v61h544v-61h-544z" glyph-name="uni0304" horiz-adv-x="0" unicode="̄"/><glyph d="M-435 1150q-149 0 -225.5 67.5t-76.5 195.5h71q0 -99 60 -150.5t171 -51.5t170 51.5t59 150.5h71q0 -129 -76.5 -196t-223.5 -67z" glyph-name="uni0306" horiz-adv-x="0" unicode="̆"/><glyph d="M-284 1215v198h99v-198h-99z" glyph-name="uni0307" horiz-adv-x="0" unicode="̇"/><glyph d="M-620 1215v198h82v-198h-82zM-267 1215v198h82v-198h-82z" glyph-name="uni0308" horiz-adv-x="0" unicode="̈"/><glyph d="M-321 1103q-76 0 -129 53.5t-53 128.5q0 76 53 129t129 53q75 0 128.5 -53.5t53.5 -128.5q0 -76 -53 -129t-129 -53zM-321 1161q53 0 89 36.5t36 88.5t-35.5 88t-89.5 36q-52 0 -88 -36t-36 -88q0 -54 35.5 -89.5t88.5 -35.5z" glyph-name="uni030A" horiz-adv-x="0" unicode="̊"/><glyph d="M-728 1115l216 298h89l-229 -298h-76zM-402 1115l216 298h103l-243 -298h-76z" glyph-name="uni030B" horiz-adv-x="0" unicode="̋"/><glyph d="M-370 1113l-296 300h85l211 -216l213 216h84z" glyph-name="uni030C" horiz-adv-x="0" unicode="̌"/><glyph d="M-414 1115h-76l-243 298h103zM-88 1115h-76l-229 298h89z" glyph-name="uni030F" horiz-adv-x="0" unicode="̏"/><glyph d="M-107 1421l-198 -294h-102l234 294h66z" glyph-name="uni0312" horiz-adv-x="0" unicode="̒"/><glyph d="M-413 1010v67q188 0 188 226v110h75v-104q0 -299 -263 -299z" glyph-name="uni031B" horiz-adv-x="0" unicode="̛"/><glyph d="M-384 -444l198 329h102l-234 -329h-66z" glyph-name="uni0326" horiz-adv-x="0" unicode="̦"/><glyph d="M-312 -514q-62 0 -116 36t-76 93l59 25q15 -42 52 -68t83 -26q65 0 101 32.5t36 91.5q0 58 -48 94t-138 44q-42 3 -93 3l107 188h63l-84 -143q40 -2 67 -7q91 -15 139 -60t48 -116q0 -85 -54.5 -136t-145.5 -51z" glyph-name="uni0327" horiz-adv-x="0" unicode="̧"/><glyph d="M-303 -457q-93 0 -147.5 49t-54.5 135q0 101 79 178t176 100l77 -5q-112 -31 -191 -102t-79 -160q0 -66 36 -99t102 -33q100 0 163 90l52 -36q-79 -117 -213 -117z" glyph-name="uni0328" horiz-adv-x="0" unicode="̨"/><glyph d="M-791 319v111l613 696v-110z" glyph-name="uni0337" horiz-adv-x="0" unicode="̷"/><glyph d="M143 1128l88 285h82l-116 -285h-54z" glyph-name="tonos" horiz-adv-x="444" unicode="΄"/><glyph d="M279 1542l88 285h82l-116 -285h-54zM98 1215v198h82v-198h-82zM451 1215v198h82v-198h-82z" glyph-name="dieresistonos" horiz-adv-x="664" unicode="΅"/><glyph d="M286 -355v1354h94v-613q0 -150 69 -230.5t201 -80.5q136 0 216 85t80 234v605h94v-999h-94v188q-42 -97 -126.5 -149.5t-192.5 -52.5q-194 0 -262 154v-495h-79z" glyph-name="mu" horiz-adv-x="1288" unicode="μ"/><glyph d="M932 -14q-225 0 -225 521v411h-418v-918h-81v918h-112v81h810v-81h-118v-401q0 -235 37 -346t112 -111q38 0 82 17l25 -67q-59 -24 -112 -24z" glyph-name="pi" horiz-adv-x="1099" unicode="π"/><glyph d="M-968 1552v258h727v153h97v-244h-729v-167h-95z" glyph-name="uni0483" horiz-adv-x="0" unicode="҃"/><glyph d="M962 1515l-243 291h103l215 -291h-75zM499 0l-402 1413h103l357 -1276l387 1202h83l387 -1202l358 1276h103l-402 -1413h-104l-383 1185l-383 -1185h-104z" glyph-name="Wgrave" horiz-adv-x="1972" unicode="Ẁ"/><glyph d="M719 1122l-243 291h103l215 -291h-75zM354 0l-285 999h102l235 -858l295 858h92l293 -858l236 858h102l-286 -999h-94l-297 871l-299 -871h-94z" glyph-name="wgrave" horiz-adv-x="1492" unicode="ẁ"/><glyph d="M944 1521l216 285h103l-243 -285h-76zM499 0l-402 1413h103l357 -1276l387 1202h83l387 -1202l358 1276h103l-402 -1413h-104l-383 1185l-383 -1185h-104z" glyph-name="Wacute" horiz-adv-x="1972" unicode="Ẃ"/><glyph d="M701 1128l216 285h103l-243 -285h-76zM354 0l-285 999h102l235 -858l295 858h92l293 -858l236 858h102l-286 -999h-94l-297 871l-299 -871h-94z" glyph-name="wacute" horiz-adv-x="1492" unicode="ẃ"/><glyph d="M773 1608v198h82v-198h-82zM1126 1608v198h82v-198h-82zM499 0l-402 1413h103l357 -1276l387 1202h83l387 -1202l358 1276h103l-402 -1413h-104l-383 1185l-383 -1185h-104z" glyph-name="Wdieresis" horiz-adv-x="1972" unicode="Ẅ"/><glyph d="M530 1215v198h82v-198h-82zM883 1215v198h82v-198h-82zM354 0l-285 999h102l235 -858l295 858h92l293 -858l236 858h102l-286 -999h-94l-297 871l-299 -871h-94z" glyph-name="wdieresis" horiz-adv-x="1492" unicode="ẅ"/><glyph d="M594 1954l216 285h103l-243 -285h-76zM345 1531l297 307l297 -307h-85l-212 219l-212 -219h-85zM87 0l512 1413h90l511 -1413h-106l-124 352h-650l-124 -352h-109zM351 438h588l-294 843z" glyph-name="uni1EA4" horiz-adv-x="1288" unicode="Ấ"/><glyph d="M791 1826l-243 -285h-76l216 285h103zM520 1337l-212 -219h-85l297 307l297 -307h-85zM517 1013q186 0 286.5 -105t100.5 -296v-612h-81l-6 225q-59 -117 -158.5 -178t-221.5 -61q-153 0 -246 80t-93 218q0 285 426 285h292v27q0 169 -72 250.5t-227 81.5 q-102 0 -175 -42t-132 -128l-73 54q74 103 164 152t216 49zM453 69q131 0 223 74t140 209v144h-288q-333 0 -333 -215q0 -98 68.5 -155t189.5 -57z" glyph-name="uni1EA5" horiz-adv-x="1068" unicode="ấ"/><glyph d="M612 1948l-243 291h103l215 -291h-75zM345 1531l297 307l297 -307h-85l-212 219l-212 -219h-85zM87 0l512 1413h90l511 -1413h-106l-124 352h-650l-124 -352h-109zM351 438h588l-294 843z" glyph-name="uni1EA6" horiz-adv-x="1288" unicode="Ầ"/><glyph d="M565 1535h-75l-243 291h103zM520 1337l-212 -219h-85l297 307l297 -307h-85zM517 1013q186 0 286.5 -105t100.5 -296v-612h-81l-6 225q-59 -117 -158.5 -178t-221.5 -61q-153 0 -246 80t-93 218q0 285 426 285h292v27q0 169 -72 250.5t-227 81.5q-102 0 -175 -42 t-132 -128l-73 54q74 103 164 152t216 49zM453 69q131 0 223 74t140 209v144h-288q-333 0 -333 -215q0 -98 68.5 -155t189.5 -57z" glyph-name="uni1EA7" horiz-adv-x="1068" unicode="ầ"/><glyph d="M787 1988q-40 0 -71.5 14t-50.5 35.5t-38 46t-34 45.5t-38.5 35t-52.5 14q-53 1 -84 -44.5t-31 -124.5h-60q0 109 47.5 171t130.5 61q44 0 77.5 -19t54.5 -47t41 -56t47 -47.5t62 -19.5q47 0 77 49.5t30 130.5h62q0 -111 -46.5 -177.5t-122.5 -66.5zM345 1531l297 307 l297 -307h-85l-212 219l-212 -219h-85zM87 0l512 1413h90l511 -1413h-106l-124 352h-650l-124 -352h-109zM351 438h588l-294 843z" glyph-name="uni1EAA" horiz-adv-x="1288" unicode="Ẫ"/><glyph d="M380 1765q-53 1 -84 -44.5t-31 -124.5h-60q0 109 47.5 171t130.5 61q44 0 77.5 -19t54.5 -47t41 -56t47 -47.5t62 -19.5q47 0 77 49.5t30 130.5h62q0 -111 -46.5 -177.5t-122.5 -66.5q-40 0 -71.5 14t-50.5 35.5t-38 46t-34 45.5t-38.5 35t-52.5 14zM223 1118l297 307 l297 -307h-85l-212 219l-212 -219h-85zM517 1013q186 0 286.5 -105t100.5 -296v-612h-81l-6 225q-59 -117 -158.5 -178t-221.5 -61q-153 0 -246 80t-93 218q0 285 426 285h292v27q0 169 -72 250.5t-227 81.5q-102 0 -175 -42t-132 -128l-73 54q74 103 164 152t216 49z M453 69q131 0 223 74t140 209v144h-288q-333 0 -333 -215q0 -98 68.5 -155t189.5 -57z" glyph-name="uni1EAB" horiz-adv-x="1068" unicode="ẫ"/><glyph d="M594 1955l216 285h103l-243 -285h-76zM642 1563q-149 0 -225.5 67.5t-76.5 195.5h71q0 -99 60 -150.5t171 -51.5t170 51.5t59 150.5h71q0 -129 -76.5 -196t-223.5 -67zM87 0l512 1413h90l511 -1413h-106l-124 352h-650l-124 -352h-109zM351 438h588l-294 843z" glyph-name="uni1EAE" horiz-adv-x="1288" unicode="Ắ"/><glyph d="M791 1827l-243 -285h-76l216 285h103zM520 1150q-149 0 -225.5 67.5t-76.5 195.5h71q0 -99 60 -150.5t171 -51.5t170 51.5t59 150.5h71q0 -129 -76.5 -196t-223.5 -67zM517 1013q186 0 286.5 -105t100.5 -296v-612h-81l-6 225q-59 -117 -158.5 -178t-221.5 -61 q-153 0 -246 80t-93 218q0 285 426 285h292v27q0 169 -72 250.5t-227 81.5q-102 0 -175 -42t-132 -128l-73 54q74 103 164 152t216 49zM453 69q131 0 223 74t140 209v144h-288q-333 0 -333 -215q0 -98 68.5 -155t189.5 -57z" glyph-name="uni1EAF" horiz-adv-x="1068" unicode="ắ"/><glyph d="M612 1949l-243 291h103l215 -291h-75zM642 1563q-149 0 -225.5 67.5t-76.5 195.5h71q0 -99 60 -150.5t171 -51.5t170 51.5t59 150.5h71q0 -129 -76.5 -196t-223.5 -67zM87 0l512 1413h90l511 -1413h-106l-124 352h-650l-124 -352h-109zM351 438h588l-294 843z" glyph-name="uni1EB0" horiz-adv-x="1288" unicode="Ằ"/><glyph d="M565 1536h-75l-243 291h103zM520 1150q-149 0 -225.5 67.5t-76.5 195.5h71q0 -99 60 -150.5t171 -51.5t170 51.5t59 150.5h71q0 -129 -76.5 -196t-223.5 -67zM517 1013q186 0 286.5 -105t100.5 -296v-612h-81l-6 225q-59 -117 -158.5 -178t-221.5 -61q-153 0 -246 80 t-93 218q0 285 426 285h292v27q0 169 -72 250.5t-227 81.5q-102 0 -175 -42t-132 -128l-73 54q74 103 164 152t216 49zM453 69q131 0 223 74t140 209v144h-288q-333 0 -333 -215q0 -98 68.5 -155t189.5 -57z" glyph-name="uni1EB1" horiz-adv-x="1068" unicode="ằ"/><glyph d="M787 1989q-40 0 -71.5 14t-50.5 35.5t-38 46t-34 45.5t-38.5 35t-52.5 14q-53 1 -84 -44.5t-31 -124.5h-60q0 109 47.5 171t130.5 61q44 0 77.5 -19t54.5 -47t41 -56t47 -47.5t62 -19.5q47 0 77 49.5t30 130.5h62q0 -111 -46.5 -177.5t-122.5 -66.5zM642 1563 q-149 0 -225.5 67.5t-76.5 195.5h71q0 -99 60 -150.5t171 -51.5t170 51.5t59 150.5h71q0 -129 -76.5 -196t-223.5 -67zM87 0l512 1413h90l511 -1413h-106l-124 352h-650l-124 -352h-109zM351 438h588l-294 843z" glyph-name="uni1EB4" horiz-adv-x="1288" unicode="Ẵ"/><glyph d="M380 1766q-53 1 -84 -44.5t-31 -124.5h-60q0 109 47.5 171t130.5 61q44 0 77.5 -19t54.5 -47t41 -56t47 -47.5t62 -19.5q47 0 77 49.5t30 130.5h62q0 -111 -46.5 -177.5t-122.5 -66.5q-40 0 -71.5 14t-50.5 35.5t-38 46t-34 45.5t-38.5 35t-52.5 14zM520 1211 q111 0 170 51.5t59 150.5h71q0 -129 -76.5 -196t-223.5 -67q-149 0 -225.5 67.5t-76.5 195.5h71q0 -99 60 -150.5t171 -51.5zM517 1013q186 0 286.5 -105t100.5 -296v-612h-81l-6 225q-59 -117 -158.5 -178t-221.5 -61q-153 0 -246 80t-93 218q0 285 426 285h292v27 q0 169 -72 250.5t-227 81.5q-102 0 -175 -42t-132 -128l-73 54q74 103 164 152t216 49zM453 69q131 0 223 74t140 209v144h-288q-333 0 -333 -215q0 -98 68.5 -155t189.5 -57z" glyph-name="uni1EB5" horiz-adv-x="1068" unicode="ẵ"/><glyph d="M843 1575q-40 0 -71.5 14t-50.5 35.5t-38 46t-34 45.5t-38.5 35t-52.5 14q-53 1 -84 -44.5t-31 -124.5h-60q0 109 47.5 171t130.5 61q44 0 77.5 -19t54.5 -47t41 -56t47 -47.5t62 -19.5q47 0 77 49.5t30 130.5h62q0 -111 -46.5 -177.5t-122.5 -66.5zM238 0v1413h918v-91 h-819v-566h730v-91h-730v-571h819v-94h-918z" glyph-name="uni1EBC" horiz-adv-x="1283" unicode="Ẽ"/><glyph d="M682 1162q-40 0 -71.5 14t-50.5 35.5t-38 46t-34 45.5t-38.5 35t-52.5 14q-53 1 -84 -44.5t-31 -124.5h-60q0 109 47.5 171t130.5 61q44 0 77.5 -19t54.5 -47t41 -56t47 -47.5t62 -19.5q47 0 77 49.5t30 130.5h62q0 -111 -46.5 -177.5t-122.5 -66.5zM565 -14 q-211 0 -332 141.5t-121 366.5q0 146 51 263t151 186.5t234 69.5q92 0 166 -28.5t121 -74.5t78.5 -106t44.5 -119.5t13 -119.5q0 -63 -6 -86h-753q5 -191 98 -298t255 -107q99 0 169 30t142 104l67 -61q-86 -87 -173 -124t-205 -37zM212 551h663q3 32 0 62q-3 46 -15 89.5 t-38 85.5t-62.5 73.5t-91.5 50.5t-121 19q-144 0 -234 -104.5t-101 -275.5z" glyph-name="uni1EBD" horiz-adv-x="1076" unicode="ẽ"/><glyph d="M650 1954l216 285h103l-243 -285h-76zM401 1531l297 307l297 -307h-85l-212 219l-212 -219h-85zM238 0v1413h918v-91h-819v-566h730v-91h-730v-571h819v-94h-918z" glyph-name="uni1EBE" horiz-adv-x="1283" unicode="Ế"/><glyph d="M489 1541l216 285h103l-243 -285h-76zM240 1118l297 307l297 -307h-85l-212 219l-212 -219h-85zM565 -14q-211 0 -332 141.5t-121 366.5q0 146 51 263t151 186.5t234 69.5q92 0 166 -28.5t121 -74.5t78.5 -106t44.5 -119.5t13 -119.5q0 -63 -6 -86h-753q5 -191 98 -298 t255 -107q99 0 169 30t142 104l67 -61q-86 -87 -173 -124t-205 -37zM212 551h663q3 32 0 62q-3 46 -15 89.5t-38 85.5t-62.5 73.5t-91.5 50.5t-121 19q-144 0 -234 -104.5t-101 -275.5z" glyph-name="uni1EBF" horiz-adv-x="1076" unicode="ế"/><glyph d="M668 1948l-243 291h103l215 -291h-75zM401 1531l297 307l297 -307h-85l-212 219l-212 -219h-85zM238 0v1413h918v-91h-819v-566h730v-91h-730v-571h819v-94h-918z" glyph-name="uni1EC0" horiz-adv-x="1283" unicode="Ề"/><glyph d="M507 1535l-243 291h103l215 -291h-75zM240 1118l297 307l297 -307h-85l-212 219l-212 -219h-85zM565 -14q-211 0 -332 141.5t-121 366.5q0 146 51 263t151 186.5t234 69.5q92 0 166 -28.5t121 -74.5t78.5 -106t44.5 -119.5t13 -119.5q0 -63 -6 -86h-753q5 -191 98 -298 t255 -107q99 0 169 30t142 104l67 -61q-86 -87 -173 -124t-205 -37zM212 551h663q3 32 0 62q-3 46 -15 89.5t-38 85.5t-62.5 73.5t-91.5 50.5t-121 19q-144 0 -234 -104.5t-101 -275.5z" glyph-name="uni1EC1" horiz-adv-x="1076" unicode="ề"/><glyph d="M843 1988q-40 0 -71.5 14t-50.5 35.5t-38 46t-34 45.5t-38.5 35t-52.5 14q-53 1 -84 -44.5t-31 -124.5h-60q0 109 47.5 171t130.5 61q44 0 77.5 -19t54.5 -47t41 -56t47 -47.5t62 -19.5q47 0 77 49.5t30 130.5h62q0 -111 -46.5 -177.5t-122.5 -66.5zM401 1531l297 307 l297 -307h-85l-212 219l-212 -219h-85zM238 0v1413h918v-91h-819v-566h730v-91h-730v-571h819v-94h-918z" glyph-name="uni1EC4" horiz-adv-x="1283" unicode="Ễ"/><glyph d="M682 1575q-40 0 -71.5 14t-50.5 35.5t-38 46t-34 45.5t-38.5 35t-52.5 14q-53 1 -84 -44.5t-31 -124.5h-60q0 109 47.5 171t130.5 61q44 0 77.5 -19t54.5 -47t41 -56t47 -47.5t62 -19.5q47 0 77 49.5t30 130.5h62q0 -111 -46.5 -177.5t-122.5 -66.5zM240 1118l297 307 l297 -307h-85l-212 219l-212 -219h-85zM565 -14q-211 0 -332 141.5t-121 366.5q0 146 51 263t151 186.5t234 69.5q92 0 166 -28.5t121 -74.5t78.5 -106t44.5 -119.5t13 -119.5q0 -63 -6 -86h-753q5 -191 98 -298t255 -107q99 0 169 30t142 104l67 -61q-86 -87 -173 -124 t-205 -37zM212 551h663q3 32 0 62q-3 46 -15 89.5t-38 85.5t-62.5 73.5t-91.5 50.5t-121 19q-144 0 -234 -104.5t-101 -275.5z" glyph-name="uni1EC5" horiz-adv-x="1076" unicode="ễ"/><glyph d="M735 1954l216 285h103l-243 -285h-76zM486 1531l297 307l297 -307h-85l-212 219l-212 -219h-85zM783 -14q-126 0 -231 38t-179 105t-125.5 158t-76 197t-24.5 223t24.5 223t76 197t125.5 157.5t179 104.5t231 38q158 0 282 -58t200.5 -158t116 -228.5t39.5 -275.5 q0 -117 -24.5 -223t-75.5 -197t-125.5 -158t-180 -105t-232.5 -38zM783 75q109 0 198 33t151 90.5t104.5 138t62 173t19.5 197.5q0 131 -32 243t-95.5 200t-168 138t-239.5 50q-134 0 -238 -50t-167 -138t-95 -200t-32 -243q0 -132 32 -244t95 -200t167 -138t238 -50z" glyph-name="uni1ED0" horiz-adv-x="1569" unicode="Ố"/><glyph d="M530 1541l216 285h103l-243 -285h-76zM281 1118l297 307l297 -307h-85l-212 219l-212 -219h-85zM577 -14q-136 0 -244.5 68.5t-168.5 186t-60 261.5q0 142 60 258.5t168.5 184.5t244.5 68q205 0 340.5 -147.5t135.5 -363.5q0 -218 -135.5 -367t-340.5 -149zM577 70 q168 0 273 124t105 308q0 183 -105 305t-273 122q-167 0 -270.5 -122t-103.5 -305q0 -185 103.5 -308.5t270.5 -123.5z" glyph-name="uni1ED1" horiz-adv-x="1158" unicode="ố"/><glyph d="M753 1948l-243 291h103l215 -291h-75zM486 1531l297 307l297 -307h-85l-212 219l-212 -219h-85zM783 -14q-126 0 -231 38t-179 105t-125.5 158t-76 197t-24.5 223t24.5 223t76 197t125.5 157.5t179 104.5t231 38q158 0 282 -58t200.5 -158t116 -228.5t39.5 -275.5 q0 -117 -24.5 -223t-75.5 -197t-125.5 -158t-180 -105t-232.5 -38zM783 75q109 0 198 33t151 90.5t104.5 138t62 173t19.5 197.5q0 131 -32 243t-95.5 200t-168 138t-239.5 50q-134 0 -238 -50t-167 -138t-95 -200t-32 -243q0 -132 32 -244t95 -200t167 -138t238 -50z" glyph-name="uni1ED2" horiz-adv-x="1569" unicode="Ồ"/><glyph d="M548 1535l-243 291h103l215 -291h-75zM281 1118l297 307l297 -307h-85l-212 219l-212 -219h-85zM577 -14q-136 0 -244.5 68.5t-168.5 186t-60 261.5q0 142 60 258.5t168.5 184.5t244.5 68q205 0 340.5 -147.5t135.5 -363.5q0 -218 -135.5 -367t-340.5 -149zM577 70 q168 0 273 124t105 308q0 183 -105 305t-273 122q-167 0 -270.5 -122t-103.5 -305q0 -185 103.5 -308.5t270.5 -123.5z" glyph-name="uni1ED3" horiz-adv-x="1158" unicode="ồ"/><glyph d="M928 1988q-40 0 -71.5 14t-50.5 35.5t-38 46t-34 45.5t-38.5 35t-52.5 14q-53 1 -84 -44.5t-31 -124.5h-60q0 109 47.5 171t130.5 61q44 0 77.5 -19t54.5 -47t41 -56t47 -47.5t62 -19.5q47 0 77 49.5t30 130.5h62q0 -111 -46.5 -177.5t-122.5 -66.5zM486 1531l297 307 l297 -307h-85l-212 219l-212 -219h-85zM783 -14q-126 0 -231 38t-179 105t-125.5 158t-76 197t-24.5 223t24.5 223t76 197t125.5 157.5t179 104.5t231 38q158 0 282 -58t200.5 -158t116 -228.5t39.5 -275.5q0 -117 -24.5 -223t-75.5 -197t-125.5 -158t-180 -105t-232.5 -38z M783 75q109 0 198 33t151 90.5t104.5 138t62 173t19.5 197.5q0 131 -32 243t-95.5 200t-168 138t-239.5 50q-134 0 -238 -50t-167 -138t-95 -200t-32 -243q0 -132 32 -244t95 -200t167 -138t238 -50z" glyph-name="uni1ED6" horiz-adv-x="1569" unicode="Ỗ"/><glyph d="M723 1575q-40 0 -71.5 14t-50.5 35.5t-38 46t-34 45.5t-38.5 35t-52.5 14q-53 1 -84 -44.5t-31 -124.5h-60q0 109 47.5 171t130.5 61q44 0 77.5 -19t54.5 -47t41 -56t47 -47.5t62 -19.5q47 0 77 49.5t30 130.5h62q0 -111 -46.5 -177.5t-122.5 -66.5zM281 1118l297 307 l297 -307h-85l-212 219l-212 -219h-85zM577 -14q-136 0 -244.5 68.5t-168.5 186t-60 261.5q0 142 60 258.5t168.5 184.5t244.5 68q205 0 340.5 -147.5t135.5 -363.5q0 -218 -135.5 -367t-340.5 -149zM577 70q168 0 273 124t105 308q0 183 -105 305t-273 122 q-167 0 -270.5 -122t-103.5 -305q0 -185 103.5 -308.5t270.5 -123.5z" glyph-name="uni1ED7" horiz-adv-x="1158" unicode="ỗ"/><glyph d="M634 1536l-243 291h103l215 -291h-75zM614 0v536l-540 877h119l471 -779l473 779h120l-541 -877v-536h-102z" glyph-name="Ygrave" horiz-adv-x="1331" unicode="Ỳ"/><glyph d="M472 1122l-243 291h103l215 -291h-75zM319 -427l166 435l-437 991h105l383 -878l324 878h103l-540 -1426h-104z" glyph-name="ygrave" horiz-adv-x="1016" unicode="ỳ"/><glyph d="M809 1576q-40 0 -71.5 14t-50.5 35.5t-38 46t-34 45.5t-38.5 35t-52.5 14q-53 1 -84 -44.5t-31 -124.5h-60q0 109 47.5 171t130.5 61q44 0 77.5 -19t54.5 -47t41 -56t47 -47.5t62 -19.5q47 0 77 49.5t30 130.5h62q0 -111 -46.5 -177.5t-122.5 -66.5zM614 0v536l-540 877 h119l471 -779l473 779h120l-541 -877v-536h-102z" glyph-name="uni1EF8" horiz-adv-x="1331" unicode="Ỹ"/><glyph d="M647 1162q-40 0 -71.5 14t-50.5 35.5t-38 46t-34 45.5t-38.5 35t-52.5 14q-53 1 -84 -44.5t-31 -124.5h-60q0 109 47.5 171t130.5 61q44 0 77.5 -19t54.5 -47t41 -56t47 -47.5t62 -19.5q47 0 77 49.5t30 130.5h62q0 -111 -46.5 -177.5t-122.5 -66.5zM319 -427l166 435 l-437 991h105l383 -878l324 878h103l-540 -1426h-104z" glyph-name="uni1EF9" horiz-adv-x="1016" unicode="ỹ"/><glyph d="M180 593v75h709v-75h-709z" glyph-name="endash" horiz-adv-x="1068" unicode="–"/><glyph d="M132 593v75h2048v-75h-2048z" glyph-name="emdash" horiz-adv-x="2313" unicode="—"/><glyph d="M180 593v75h1200v-75h-1200z" glyph-name="afii00208" horiz-adv-x="1560" unicode="―"/><glyph d="M453 833h-69l-273 580h109z" glyph-name="quoteleft" horiz-adv-x="582" unicode="‘"/><glyph d="M129 833l233 580h109l-273 -580h-69z" glyph-name="quoteright" horiz-adv-x="582" unicode="’"/><glyph d="M147 -319l233 580h109l-273 -580h-69z" glyph-name="quotesinglbase" horiz-adv-x="573" unicode="‚"/><glyph d="M452 833h-69l-273 580h109zM773 833h-69l-273 580h109z" glyph-name="quotedblleft" horiz-adv-x="902" unicode="“"/><glyph d="M129 833l233 580h109l-273 -580h-69zM450 833l233 580h109l-273 -580h-69z" glyph-name="quotedblright" horiz-adv-x="902" unicode="”"/><glyph d="M137 -319l233 580h109l-273 -580h-69zM465 -319l233 580h109l-273 -580h-69z" glyph-name="quotedblbase" horiz-adv-x="909" unicode="„"/><glyph d="M388 -205v1118h-260v87h260v413h87v-413h258v-87h-258v-1118h-87z" glyph-name="dagger" horiz-adv-x="862" unicode="†"/><glyph d="M419 -205v412h-259v87h259v619h-259v87h259v413h88v-413h258v-87h-258v-619h258v-87h-258v-412h-88z" glyph-name="daggerdbl" horiz-adv-x="924" unicode="‡"/><glyph d="M442 244q-98 0 -168 69.5t-70 167.5t70 168t168 70t167.5 -70t69.5 -168t-69.5 -167.5t-167.5 -69.5z" glyph-name="bullet" horiz-adv-x="883" unicode="•"/><glyph d="M266 221v550l483 -274z" glyph-name="uni2023" horiz-adv-x="888" unicode="‣"/><glyph d="M262 0v205h96v-205h-96zM676 0v205h95v-205h-95z" glyph-name="twodotenleader" horiz-adv-x="1034" unicode="‥"/><glyph d="M262 0v205h96v-205h-96zM676 0v205h95v-205h-95zM1090 0v205h95v-205h-95z" glyph-name="ellipsis" horiz-adv-x="1447" unicode="…"/><glyph d="M418 795q-52 0 -95.5 18.5t-73 50t-50 72.5t-30 85t-9.5 90q0 79 25.5 148.5t84.5 118.5t142 49q114 0 186 -89.5t72 -227.5t-70.5 -226.5t-181.5 -88.5zM357 0l776 1413h71l-776 -1413h-71zM418 864q81 0 132.5 68.5t51.5 177.5q0 104 -49.5 176.5t-140.5 72.5 q-63 0 -106 -39t-60.5 -93t-17.5 -116q0 -63 18 -116.5t62.5 -92t109.5 -38.5zM1152 -14q-86 0 -146.5 49.5t-86 118.5t-25.5 148t25.5 148.5t84.5 118.5t142 49q114 0 186 -89.5t72 -227.5t-70.5 -226.5t-181.5 -88.5zM1768 -14q-52 0 -96 18.5t-73.5 50t-50 72.5t-30 85 t-9.5 90q0 58 15.5 112.5t45 101t79.5 74.5t113 28q114 0 186 -89.5t72 -227.5t-70.5 -226.5t-181.5 -88.5zM1152 55q81 0 132.5 68.5t51.5 177.5q0 104 -50 176.5t-140 72.5q-63 0 -106 -39t-60.5 -93t-17.5 -116q0 -63 18 -116.5t62.5 -92t109.5 -38.5zM1768 55 q81 0 132.5 68.5t51.5 177.5q0 104 -50 176.5t-140 72.5q-63 0 -106 -39t-60.5 -93t-17.5 -116q0 -63 18 -116.5t62.5 -92t109.5 -38.5z" glyph-name="perthousand" horiz-adv-x="2180" unicode="‰"/><glyph d="M418 795q-52 0 -95.5 18.5t-73 50t-50 72.5t-30 85t-9.5 90q0 79 25.5 148.5t84.5 118.5t142 49q114 0 186 -89.5t72 -227.5t-70.5 -226.5t-181.5 -88.5zM357 0l776 1413h71l-776 -1413h-71zM418 864q81 0 132.5 68.5t51.5 177.5q0 104 -49.5 176.5t-140.5 72.5 q-63 0 -106 -39t-60.5 -93t-17.5 -116q0 -63 18 -116.5t62.5 -92t109.5 -38.5zM1152 -14q-86 0 -146.5 49.5t-86 118.5t-25.5 148t25.5 148.5t84.5 118.5t142 49q114 0 186 -89.5t72 -227.5t-70.5 -226.5t-181.5 -88.5zM1768 -14q-52 0 -96 18.5t-73.5 50t-50 72.5t-30 85 t-9.5 90q0 58 15.5 112.5t45 101t79.5 74.5t113 28q114 0 186 -89.5t72 -227.5t-70.5 -226.5t-181.5 -88.5zM2384 -14q-52 0 -96 18.5t-73.5 50t-50 72.5t-30 85t-9.5 90q0 58 15 112.5t45 101t80 74.5t113 28q113 0 185.5 -89.5t72.5 -227.5q0 -137 -71 -226t-181 -89z M1152 55q81 0 132.5 68.5t51.5 177.5q0 104 -50 176.5t-140 72.5q-63 0 -106 -39t-60.5 -93t-17.5 -116q0 -63 18 -116.5t62.5 -92t109.5 -38.5zM1768 55q81 0 132.5 68.5t51.5 177.5q0 104 -50 176.5t-140 72.5q-63 0 -106 -39t-60.5 -93t-17.5 -116q0 -63 18 -116.5 t62.5 -92t109.5 -38.5zM2384 55q81 0 132.5 68.5t51.5 177.5q0 104 -50 176.5t-140 72.5q-63 0 -106.5 -39t-61 -93t-17.5 -116q0 -63 18 -116.5t62.5 -92t110.5 -38.5z" glyph-name="uni2031" horiz-adv-x="2796" unicode="‱"/><glyph d="M473 175l-384 336l384 336v-88l-282 -248l282 -248v-88z" glyph-name="guilsinglleft" horiz-adv-x="623" unicode="‹"/><glyph d="M150 175v88l282 248l-282 248v88l384 -336z" glyph-name="guilsinglright" horiz-adv-x="623" unicode="›"/><glyph d="M-287 0l776 1413h71l-776 -1413h-71z" glyph-name="fraction" horiz-adv-x="273" unicode="⁄"/><glyph d="M840 -14q-107 0 -194.5 40t-148 111.5t-100 164t-57.5 204.5h-170l40 74h119q-6 49 -6 127q0 59 7 136h-160l40 76h131q20 110 60 201t100.5 160.5t146.5 108t190 38.5q235 0 372 -192l-62 -49q-114 155 -310 155q-169 0 -274 -115.5t-137 -306.5h536l-40 -75h-508 q-8 -69 -8 -132q0 -73 7 -130h549l-40 -73h-496q31 -199 135 -317.5t278 -118.5q188 0 298 147l60 -57q-65 -86 -157.5 -131.5t-200.5 -45.5z" glyph-name="Euro" horiz-adv-x="1376" unicode="€"/><glyph d="M1266 1049v-48h-105q-7 -178 -130.5 -275t-336.5 -97h-272v-629h-98v1001h-140v48h140v364h370q206 0 331 -96.5t135 -267.5h106zM422 1320v-271h641q-11 129 -106 200t-263 71h-272zM694 722q175 0 269.5 71.5t100.5 207.5h-642v-279h272z" glyph-name="uni20B1" horiz-adv-x="1414" unicode="₱"/><glyph d="M241 0l119 332h-161v86h194l80 227h-274v86h309l245 682h89l245 -682h309v-86h-274l80 -227h194v-86h-161l119 -332h-107l-116 332h-665l-116 -332h-109zM608 731h381l-190 550zM497 418h603l-79 227h-445z" glyph-name="uni20B3" horiz-adv-x="1595" unicode="₳"/><glyph d="M1068 883h225v-71h-1103v71h744q117 79 117 197q0 112 -81 185t-203 73q-107 0 -183 -44.5t-129 -138.5l-82 51q127 221 391 221q165 0 275.5 -98t110.5 -253q0 -113 -82 -193zM190 559v70h1103v-70h-789q-94 -77 -94 -190q0 -129 97 -211t249 -82q148 0 246.5 77.5 t126.5 217.5l97 -22q-35 -171 -164 -266t-311 -95q-189 0 -314.5 104t-125.5 267q0 115 78 200h-199z" glyph-name="uni20B4" horiz-adv-x="1492" unicode="₴"/><glyph d="M183 1329v83h1118v-83h-1118zM694 0v1026h-511v83h1118v-83h-509v-1026h-98z" glyph-name="uni20B8" horiz-adv-x="1484" unicode="₸"/><glyph d="M369 0v332h-183v79h183v225h-183v86h183v691h370q215 0 341 -105t126 -289q0 -185 -124 -284t-343 -99h-272v-225h320v-79h-320v-332h-98zM467 722h272q181 0 275.5 76.5t94.5 220.5q0 143 -96.5 222t-273.5 79h-272v-598z" glyph-name="uni20BD" horiz-adv-x="1385" unicode="₽"/><glyph d="M1087 151v1262h95v-1413h-110l-739 1264v-1264h-95v1413h109zM1819 310q-175 0 -288 125.5t-113 312.5q0 184 113.5 309t287.5 125t289 -125t115 -309q0 -186 -115 -312t-289 -126zM1819 1112q-143 0 -232 -104t-89 -260q0 -158 89 -263.5t232 -105.5t232.5 106t89.5 263 q0 155 -89.5 259.5t-232.5 104.5zM1444 0v75h721v-75h-721z" glyph-name="afii61352" horiz-adv-x="2370" unicode="№"/><glyph d="M265 877v476h-161v60h384v-60h-159v-476h-64zM610 877v536h104l150 -394l150 394h101v-536h-64v464l-166 -417h-42l-169 424v-471h-64z" glyph-name="trademark" horiz-adv-x="1220" unicode="™"/><glyph d="M167 0v81h430l2 55q-161 89 -256.5 255.5t-95.5 358.5q0 107 39.5 213t106.5 180q82 91 200.5 145.5t236.5 54.5q119 0 238 -54.5t200 -145.5q66 -75 105.5 -181.5t39.5 -213.5q0 -209 -93.5 -376t-251.5 -240v-53h424v-79h-527v156q166 45 264.5 205t98.5 386 q0 94 -32.5 186t-86.5 153q-71 80 -174 127.5t-205 47.5t-204 -47.5t-173 -127.5q-56 -63 -88.5 -154.5t-32.5 -184.5q0 -210 98 -370.5t264 -222.5v-154h-527z" glyph-name="uni2126" horiz-adv-x="1661" unicode="Ω"/><glyph d="M1081 108l-952 531l952 527l33 -65l-764 -424l1810 -3v-75l-1810 2l764 -428z" glyph-name="arrowleft" horiz-adv-x="2301" unicode="←"/><glyph d="M1220 108l-33 65l764 428l-1810 -2v75l1810 3l-764 424l33 65l952 -527z" glyph-name="arrowright" horiz-adv-x="2301" unicode="→"/><glyph d="M603 -11q-194 0 -310 123t-116 322q0 172 73 307.5t199 209.5t281 74q76 0 138.5 -28.5t103 -77.5t66.5 -103.5t40 -117.5q6 69 -1 142q-19 512 -375 512q-115 0 -202.5 -52.5t-128.5 -159.5l-73 24q49 125 156 193t255 68q236 0 352.5 -176.5t116.5 -507.5 q0 -120 -21.5 -230t-67.5 -205.5t-113 -165.5t-162.5 -110.5t-210.5 -40.5zM608 72q98 0 179 34.5t136.5 94t91 134t51.5 161.5q8 72 -5.5 148t-49 144.5t-106 112.5t-164.5 44q-215 0 -345 -144.5t-130 -365.5q0 -166 95.5 -264.5t246.5 -98.5z" glyph-name="partialdiff" horiz-adv-x="1382" unicode="∂"/><glyph d="M132 0l567 1451l566 -1451h-1133zM251 82h895l-447 1165z" glyph-name="uni2206" horiz-adv-x="1397" unicode="∆"/><glyph d="M301 0v1331h-115v82h978v-82h-113v-1331h-82v1331h-586v-1331h-82z" glyph-name="product" horiz-adv-x="1350" unicode="∏"/><glyph d="M1184 1413v-91h-906l576 -615l-576 -616h906v-91h-1034v83l575 624l-575 624v82h1034z" glyph-name="summation" horiz-adv-x="1335" unicode="∑"/><glyph d="M275 591v75h677v-75h-677z" glyph-name="minus" horiz-adv-x="1227" unicode="−"/><glyph d="M539 -98l-264 662h-147v82h204l211 -533l539 1300h89z" glyph-name="radical" horiz-adv-x="1300" unicode="√"/><glyph d="M582 357q-163 0 -270 106.5t-107 264.5t107 264t270 106q126 0 242 -81.5t212 -220.5q230 302 467 302q163 0 269.5 -106t106.5 -264t-107 -264.5t-269 -106.5q-237 0 -467 304q-96 -140 -212 -222t-242 -82zM593 436q103 0 205.5 74t192.5 218q-90 144 -193 217.5 t-205 73.5q-128 0 -215 -83.5t-87 -207.5t87 -208t215 -84zM1492 436q128 0 214.5 84t86.5 208t-86.5 207.5t-214.5 83.5q-207 0 -412 -291q206 -292 412 -292z" glyph-name="infinity" horiz-adv-x="2086" unicode="∞"/><glyph d="M117 -481v82q178 0 254.5 70.5t76.5 234.5v1224q0 129 80 215.5t198 86.5q111 0 209 -81l-52 -63q-77 62 -157 62q-84 0 -140 -62t-56 -161v-1223q0 -385 -413 -385z" glyph-name="integral" horiz-adv-x="1051" unicode="∫"/><glyph d="M810 716q-47 0 -85 19t-61 47.5t-47 62t-44 62t-51 47.5t-68 19q-69 0 -107 -56.5t-38 -156.5h-75q0 129 59.5 205t160.5 76q58 0 102 -26.5t71 -64.5t51.5 -75.5t57 -64t74.5 -26.5q67 0 108 65t41 171h75q0 -136 -61.5 -220t-162.5 -84zM810 291q-41 0 -74.5 14 t-56.5 36.5t-43 50t-38.5 55t-38 50t-46 36.5t-59.5 14q-69 0 -107 -56.5t-38 -155.5h-75q0 128 59.5 204.5t160.5 76.5q58 0 102 -26.5t71 -64t51.5 -75.5t57 -64.5t74.5 -26.5q67 0 108 64.5t41 171.5h75q0 -137 -61.5 -220.5t-162.5 -83.5z" glyph-name="approxequal" horiz-adv-x="1271" unicode="≈"/><glyph d="M169 0l241 444h-205v82h253l158 291h-411v83h461l278 513h71l-278 -513h239v-83h-289l-158 -291h447v-82h-495l-241 -444h-71z" glyph-name="notequal" horiz-adv-x="1183" unicode="≠"/><glyph d="M1099 258l-957 545l957 546l37 -65l-843 -481l843 -481zM210 0h973v-75h-973v75z" glyph-name="lessequal" horiz-adv-x="1350" unicode="≤"/><glyph d="M251 258l-37 64l843 481l-843 481l37 65l957 -546zM1140 0v-75h-973v75h973z" glyph-name="greaterequal" horiz-adv-x="1350" unicode="≥"/><glyph d="M516 0l-373 707l373 706h149l373 -706l-373 -707h-149zM574 56h33l334 651l-334 650h-33l-334 -650z" glyph-name="lozenge" horiz-adv-x="1181" unicode="◊"/><glyph d="M922 -61q-158 0 -301.5 61t-247 165t-165 247t-61.5 301t61.5 301t165 247t247 165t301.5 61t301 -61t247 -165t165 -247t61 -301t-61 -301t-165 -247t-247 -165t-301 -61zM922 10q143 0 273 55.5t224 149.5t149.5 224.5t55.5 273.5t-55.5 273t-149.5 224t-224 149.5 t-273 55.5q-144 0 -274 -55.5t-224 -149.5t-149.5 -224t-55.5 -273t55.5 -273.5t149.5 -224.5t224 -149.5t274 -55.5zM518 410q-14 0 -24.5 9.5t-10.5 24.5v537q0 15 10.5 26t24.5 11q16 0 26.5 -11t10.5 -26v-537q0 -15 -10.5 -24.5t-26.5 -9.5zM922 410q-16 0 -25.5 9.5 t-9.5 24.5v537q0 15 10 26t25 11t24.5 -11t9.5 -26v-537q0 -15 -9.5 -24.5t-24.5 -9.5zM1323 410q-14 0 -23 10l-270 268q-8 11 -8 25q0 16 8 24l272 269q8 12 21 12t25 -12t12 -25q0 -14 -10 -25l-244 -243l244 -244q10 -10 10 -25q0 -13 -11.5 -23.5t-25.5 -10.5zM653 678 q-15 0 -25 9.5t-10 25.5q0 15 10 25t25 10h133q16 0 26.5 -10t10.5 -25q0 -16 -10.5 -25.5t-26.5 -9.5h-133z" glyph-name="uniF8FF" horiz-adv-x="1843" unicode=""/><glyph d="M569 -460q-145 0 -255 71t-170 193l73 53q45 -104 138.5 -168t215.5 -64q161 0 263 114.5t102 301.5v227q-45 -126 -147.5 -200.5t-234.5 -74.5q-131 0 -234.5 68.5t-159.5 185t-56 257.5q0 140 56 256t159.5 184.5t233.5 68.5q131 0 234.5 -74t148.5 -200v260h96v-958 q0 -223 -129 -362t-334 -139zM574 82q164 0 266.5 120t102.5 302t-102.5 302t-266.5 120t-268.5 -121t-104.5 -301q0 -181 104.5 -301.5t268.5 -120.5z" glyph-name="g.salt" horiz-adv-x="1222"/><glyph d="M677 119q146 0 224.5 -70t78.5 -195q0 -143 -108 -226.5t-302 -83.5q-214 0 -340 88.5t-126 243.5q0 31 7 58l161 129q-125 53 -129 190q-5 113 90 185q-81 92 -81 224q0 154 106.5 252.5t270.5 98.5q160 0 264 -96l150 134l50 -62l-149 -132q58 -88 58 -200 q0 -152 -105.5 -247.5t-268.5 -95.5q-140 0 -239 72q-62 -48 -57 -125q2 -72 54.5 -107t162.5 -35h228zM530 935q-127 0 -205.5 -77t-78.5 -198q0 -118 78 -192.5t205 -74.5q126 0 203.5 74t77.5 192q0 122 -77.5 199t-202.5 77zM569 -377q142 0 231 55.5t89 169.5 q0 190 -247 190h-238q-36 0 -71 6l-139 -137v-29q0 -121 96 -188t279 -67z" glyph-name="g.ss02" horiz-adv-x="1064"/><glyph d="M609 1150q-149 0 -225.5 67.5t-76.5 195.5h71q0 -99 60 -150.5t171 -51.5t170 51.5t59 150.5h71q0 -129 -76.5 -196t-223.5 -67zM569 -460q-145 0 -255 71t-170 193l73 53q45 -104 138.5 -168t215.5 -64q161 0 263 114.5t102 301.5v227q-45 -126 -147.5 -200.5 t-234.5 -74.5q-131 0 -234.5 68.5t-159.5 185t-56 257.5q0 140 56 256t159.5 184.5t233.5 68.5q131 0 234.5 -74t148.5 -200v260h96v-958q0 -223 -129 -362t-334 -139zM574 82q164 0 266.5 120t102.5 302t-102.5 302t-266.5 120t-268.5 -121t-104.5 -301 q0 -181 104.5 -301.5t268.5 -120.5z" glyph-name="gbreve.salt" horiz-adv-x="1222"/><glyph d="M532 1150q-149 0 -225.5 67.5t-76.5 195.5h71q0 -99 60 -150.5t171 -51.5t170 51.5t59 150.5h71q0 -129 -76.5 -196t-223.5 -67zM677 119q146 0 224.5 -70t78.5 -195q0 -143 -108 -226.5t-302 -83.5q-214 0 -340 88.5t-126 243.5q0 31 7 58l161 129q-125 53 -129 190 q-5 113 90 185q-81 92 -81 224q0 154 106.5 252.5t270.5 98.5q160 0 264 -96l150 134l50 -62l-149 -132q58 -88 58 -200q0 -152 -105.5 -247.5t-268.5 -95.5q-140 0 -239 72q-62 -48 -57 -125q2 -72 54.5 -107t162.5 -35h228zM530 935q-127 0 -205.5 -77t-78.5 -198 q0 -118 78 -192.5t205 -74.5q126 0 203.5 74t77.5 192q0 122 -77.5 199t-202.5 77zM569 -377q142 0 231 55.5t89 169.5q0 190 -247 190h-238q-36 0 -71 6l-139 -137v-29q0 -121 96 -188t279 -67z" glyph-name="gbreve.ss02" horiz-adv-x="1064"/><glyph d="M851 1396l-198 -294h-102l234 294h66zM569 -460q-145 0 -255 71t-170 193l73 53q45 -104 138.5 -168t215.5 -64q161 0 263 114.5t102 301.5v227q-45 -126 -147.5 -200.5t-234.5 -74.5q-131 0 -234.5 68.5t-159.5 185t-56 257.5q0 140 56 256t159.5 184.5t233.5 68.5 q131 0 234.5 -74t148.5 -200v260h96v-958q0 -223 -129 -362t-334 -139zM574 82q164 0 266.5 120t102.5 302t-102.5 302t-266.5 120t-268.5 -121t-104.5 -301q0 -181 104.5 -301.5t268.5 -120.5z" glyph-name="gcommaaccent.salt" horiz-adv-x="1222"/><glyph d="M779 1421l-198 -294h-102l234 294h66zM677 119q146 0 224.5 -70t78.5 -195q0 -143 -108 -226.5t-302 -83.5q-214 0 -340 88.5t-126 243.5q0 31 7 58l161 129q-125 53 -129 190q-5 113 90 185q-81 92 -81 224q0 154 106.5 252.5t270.5 98.5q160 0 264 -96l150 134l50 -62 l-149 -132q58 -88 58 -200q0 -152 -105.5 -247.5t-268.5 -95.5q-140 0 -239 72q-62 -48 -57 -125q2 -72 54.5 -107t162.5 -35h228zM530 935q-127 0 -205.5 -77t-78.5 -198q0 -118 78 -192.5t205 -74.5q126 0 203.5 74t77.5 192q0 122 -77.5 199t-202.5 77zM569 -377 q142 0 231 55.5t89 169.5q0 190 -247 190h-238q-36 0 -71 6l-139 -137v-29q0 -121 96 -188t279 -67z" glyph-name="gcommaaccent.ss02" horiz-adv-x="1064"/><glyph d="M559 1215v198h99v-198h-99zM569 -460q-145 0 -255 71t-170 193l73 53q45 -104 138.5 -168t215.5 -64q161 0 263 114.5t102 301.5v227q-45 -126 -147.5 -200.5t-234.5 -74.5q-131 0 -234.5 68.5t-159.5 185t-56 257.5q0 140 56 256t159.5 184.5t233.5 68.5 q131 0 234.5 -74t148.5 -200v260h96v-958q0 -223 -129 -362t-334 -139zM574 82q164 0 266.5 120t102.5 302t-102.5 302t-266.5 120t-268.5 -121t-104.5 -301q0 -181 104.5 -301.5t268.5 -120.5z" glyph-name="gdotaccent.salt" horiz-adv-x="1222"/><glyph d="M581 1413v-198h-99v198h99zM677 119q146 0 224.5 -70t78.5 -195q0 -143 -108 -226.5t-302 -83.5q-214 0 -340 88.5t-126 243.5q0 31 7 58l161 129q-125 53 -129 190q-5 113 90 185q-81 92 -81 224q0 154 106.5 252.5t270.5 98.5q160 0 264 -96l150 134l50 -62l-149 -132 q58 -88 58 -200q0 -152 -105.5 -247.5t-268.5 -95.5q-140 0 -239 72q-62 -48 -57 -125q2 -72 54.5 -107t162.5 -35h228zM530 935q-127 0 -205.5 -77t-78.5 -198q0 -118 78 -192.5t205 -74.5q126 0 203.5 74t77.5 192q0 122 -77.5 199t-202.5 77zM569 -377q142 0 231 55.5 t89 169.5q0 190 -247 190h-238q-36 0 -71 6l-139 -137v-29q0 -121 96 -188t279 -67z" glyph-name="gdotaccent.ss02" horiz-adv-x="1064"/><glyph d="M187 1215v198h99v-198h-99zM190 0v999h95v-999h-95z" glyph-name="i.locl" horiz-adv-x="476"/><glyph d="M590 0v1324h-511v89h1189v-601q42 96 125.5 148.5t191.5 52.5q163 0 250.5 -100t92.5 -269v-644h-96v613q0 313 -267 313q-137 0 -217 -91.5t-80 -242.5v-592h-97v1324h-483v-1324h-98z" glyph-name="T_h.dlig" horiz-adv-x="2094"/><glyph d="M954 -14q-129 0 -194.5 74.5t-65.5 220.5v637h-386v-918h-95v918h-167v81h167v87q0 172 85.5 256.5t225.5 84.5q151 0 264 -84v-344h290v-81h-290v-623q0 -116 44.5 -169.5t134.5 -53.5q61 0 110 19l2 -88q-59 -17 -125 -17zM308 999h387v293q-68 56 -167 56 q-108 0 -164 -62.5t-56 -200.5v-86z" glyph-name="f_t.dlig" horiz-adv-x="1160"/><glyph d="M534 -14q-145 0 -218.5 74.5t-73.5 220.5v637h-190v81h192v303l93 72v-375h473v303l90 72v-375h337v-81h-337v-623q0 -116 52.5 -169.5t160.5 -53.5q68 0 123 19l2 -88q-66 -17 -138 -17q-144 0 -217.5 74.5t-73.5 220.5v637h-472v-623q0 -116 51.5 -169.5t158.5 -53.5 q67 0 122 19l3 -88q-68 -17 -138 -17z" glyph-name="t_t.dlig" horiz-adv-x="1319"/><glyph d="M666 -14q-97 0 -177 31.5t-135.5 87t-96.5 125.5t-64 153t-34 163t-11 161q0 82 10.5 162t33 163t62.5 153t93.5 125.5t131.5 87t172 31.5q103 0 189 -41t145.5 -110.5t101 -163t61 -197.5t19.5 -214q0 -109 -19 -211.5t-59.5 -195t-98 -161t-141.5 -109t-183 -40.5z M664 80q81 0 148.5 35t114 95t78.5 140.5t46.5 169.5t14.5 185q0 122 -24.5 232t-73.5 200.5t-130.5 143.5t-186.5 53q-89 0 -160.5 -38.5t-116.5 -100t-75 -145.5t-42 -168.5t-12 -174.5t12.5 -174t43 -168t77 -146t120 -100.5t166.5 -38.5z" glyph-name="zero.pnum" horiz-adv-x="1312"/><glyph d="M442 1413h93v-1413h-97v1105h-364v77h258q110 0 110 97v134z" glyph-name="one.pnum" horiz-adv-x="765"/><glyph d="M95 0v100q69 44 112.5 72t112.5 74t114.5 80.5t107 83t103 90t88.5 92.5t77.5 100t57 103t39 111t12.5 115q0 146 -83 231t-233 85q-166 0 -253.5 -104t-89.5 -282l-96 5q0 212 116.5 341t321.5 129q190 0 302.5 -108.5t112.5 -298.5q0 -96 -31 -189.5t-90.5 -177.5 t-130 -159t-165 -148t-179 -130.5t-187.5 -120.5l-23 -4h883v-90h-999z" glyph-name="two.pnum" horiz-adv-x="1198"/><glyph d="M589 -14q-216 0 -349.5 114t-133.5 312l94 5q0 -157 106.5 -248t284.5 -91q171 0 278.5 88t107.5 236q0 63 -20 112.5t-56 81.5t-79.5 54t-98 33t-102.5 15t-102 4v94q383 -2 383 265q0 122 -89 198t-227 76q-144 0 -232 -80.5t-88 -212.5l-94 6q0 171 116 275t297 104 q175 0 293.5 -99.5t118.5 -256.5q0 -72 -25.5 -128.5t-71 -93t-98.5 -59t-117 -34.5q78 -11 144.5 -36.5t122 -67.5t87.5 -108t32 -149q0 -187 -135.5 -298t-346.5 -111z" glyph-name="three.pnum" horiz-adv-x="1199"/><glyph d="M899 429h232v-90h-232v-339h-97v339h-726v68l727 1006h96v-984zM199 429h603v844z" glyph-name="four.pnum" horiz-adv-x="1207"/><glyph d="M623 934q190 0 318.5 -134t128.5 -331q0 -201 -139.5 -342t-339.5 -141q-173 0 -300.5 110t-166.5 288l92 24q32 -148 131 -240t244 -92q161 0 270 115t109 279q0 161 -101 267.5t-259 106.5q-98 0 -186.5 -48t-149.5 -136l-105 32l126 721h706v-91h-628l-93 -540 q152 152 343 152z" glyph-name="five.pnum" horiz-adv-x="1195"/><glyph d="M575 -14q-127 0 -234.5 61.5t-169.5 167t-62 230.5q0 124 68 238l430 730h110l-351 -590q92 77 209 77q192 0 329.5 -132t137.5 -320q0 -124 -61.5 -230t-169.5 -169t-236 -63zM575 79q152 0 261 108t109 260q0 151 -109 259t-261 108t-261 -108t-109 -259 q0 -153 108.5 -260.5t261.5 -107.5z" glyph-name="six.pnum" horiz-adv-x="1148"/><glyph d="M72 1413h980v-67l-659 -1346h-109l656 1322h-868v91z" glyph-name="seven.pnum" horiz-adv-x="1131"/><glyph d="M586 -14q-88 0 -169 26t-146 75t-104 128t-39 177q0 139 78.5 239t210.5 136q-95 38 -149.5 121.5t-54.5 195.5q0 80 32.5 146t86 108.5t120 65.5t136.5 23q161 0 268.5 -98t107.5 -255q0 -107 -56.5 -189t-150.5 -118q131 -39 207.5 -138.5t76.5 -235.5 q0 -99 -38.5 -178.5t-103 -128t-145 -74.5t-168.5 -26zM591 803q121 0 200 75t79 192q0 123 -78.5 198t-201.5 75q-114 0 -197 -69.5t-83 -190.5q0 -126 77.5 -203t203.5 -77zM585 72q151 0 254.5 84.5t103.5 239.5q0 145 -100 233.5t-258 88.5q-160 0 -260.5 -88 t-100.5 -233q0 -79 30 -142.5t81 -102.5t115 -59.5t135 -20.5z" glyph-name="eight.pnum" horiz-adv-x="1171"/><glyph d="M1040 966q0 -137 -77 -252l-422 -714h-110l317 541q-83 -34 -175 -34q-126 0 -233.5 61.5t-170.5 167.5t-63 230q0 191 137 326t330 135t330 -135t137 -326zM203 966q0 -151 108.5 -259t261.5 -108t261.5 108t108.5 259q0 153 -108 261t-262 108q-153 0 -261.5 -108.5 t-108.5 -260.5z" glyph-name="nine.pnum" horiz-adv-x="1149"/><glyph d="M372 -8q-87 0 -150.5 40.5t-97 107.5t-49 138t-15.5 146q0 60 8.5 117t30.5 115.5t55 102.5t87 71.5t122 27.5q78 0 139 -37.5t97.5 -100.5t55 -139t18.5 -159q0 -82 -18 -157.5t-53.5 -137t-95 -98.5t-134.5 -37zM371 61q77 0 130 54.5t75.5 133.5t22.5 174 q0 70 -14 133.5t-41 116.5t-74 84t-107 31q-51 0 -92 -22t-66.5 -58t-42.5 -84.5t-23.5 -97.5t-6.5 -102q0 -66 12 -126.5t37.5 -115.5t74.5 -88t115 -33z" glyph-name="zero.dnom"/><glyph d="M376 848h69v-848h-72v653h-215v57h149q69 0 69 62v76z" glyph-name="one.dnom"/><glyph d="M167 67h498v-67h-606v68q46 29 72 46t72.5 48.5t75 53.5t68.5 55.5t65 61t53.5 63t44 68t26 70.5t10.5 76q0 83 -47 132t-132 49q-96 0 -145.5 -61.5t-50.5 -163.5l-71 4q0 127 71 206.5t196 79.5q114 0 182.5 -65.5t68.5 -181.5q0 -270 -451 -542z" glyph-name="two.dnom"/><glyph d="M357 -8q-130 0 -212 68.5t-82 189.5l69 5q0 -91 62 -143.5t164 -52.5q97 0 159 50t62 135q0 173 -264 171v68q103 0 161.5 33t58.5 116q0 69 -51 112.5t-128 43.5q-83 0 -133.5 -45.5t-51.5 -120.5l-69 3q0 105 71.5 168t180.5 63q106 0 178.5 -60t72.5 -156 q0 -143 -176 -186q97 -15 159 -68.5t62 -145.5q0 -114 -83 -181t-210 -67z" glyph-name="three.dnom"/><glyph d="M541 270h138v-67h-138v-203h-72v203h-429v48l433 597h68v-578zM132 270h337v472z" glyph-name="four.dnom"/><glyph d="M388 564q115 0 192.5 -81.5t77.5 -200.5q0 -120 -84.5 -205t-205.5 -85q-105 0 -183 67t-102 174l69 18q18 -86 74.5 -140t141.5 -54q92 0 154 66.5t62 159.5q0 92 -58 153t-149 61q-56 0 -107 -27.5t-86 -77.5l-73 21l76 435h430v-68h-373l-51 -296q89 80 195 80z" glyph-name="five.dnom"/><glyph d="M369 -8q-118 0 -201 81t-83 196q0 72 41 144l258 435h83l-207 -343q50 40 109 40q117 0 200.5 -80t83.5 -193q0 -116 -82.5 -198t-201.5 -82zM369 61q87 0 150 61t63 148t-63 149t-150 62t-150 -62t-63 -149t62 -148t151 -61z" glyph-name="six.dnom"/><glyph d="M68 848h591v-47l-391 -801h-82l389 780h-507v68z" glyph-name="seven.dnom"/><glyph d="M367 -8q-114 0 -197 64t-83 180q0 81 44.5 140.5t121.5 83.5q-55 24 -86 73t-31 114q0 96 70 152.5t163 56.5q98 0 165 -59.5t67 -154.5q0 -62 -31.5 -110t-85.5 -72q75 -25 119 -84t44 -138q0 -118 -82.5 -182t-197.5 -64zM371 487q70 0 114.5 42t44.5 111t-45 112 t-115 43q-67 0 -114 -39.5t-47 -109.5q0 -71 44.5 -115t117.5 -44zM367 55q88 0 147 48t59 137q0 83 -57.5 134t-148.5 51q-93 0 -151 -51t-58 -134q0 -89 61 -137t148 -48z" glyph-name="eight.dnom"/><glyph d="M649 578q0 -85 -50 -158l-249 -420h-84l185 311q-45 -13 -87 -13q-116 0 -200 82.5t-84 197.5t83.5 196.5t200.5 81.5q118 0 201.5 -81.5t83.5 -196.5zM151 578q0 -87 62.5 -149t150.5 -62t151 62t63 149t-62.5 148.5t-151.5 61.5q-88 0 -150.5 -61.5t-62.5 -148.5z" glyph-name="nine.dnom"/><glyph d="M372 565q-70 0 -125.5 27.5t-89.5 71.5t-56.5 102.5t-31.5 115t-9 115.5q0 60 8.5 117t30.5 116t55 103t87 71.5t122 27.5q78 0 139 -37.5t97.5 -100.5t55 -139.5t18.5 -159.5q0 -82 -18 -157.5t-53.5 -137t-95 -98.5t-134.5 -37zM371 634q77 0 130 55t75.5 134t22.5 174 q0 96 -23 175.5t-78.5 134t-134.5 54.5q-51 0 -92 -22t-66.5 -58t-42.5 -84.5t-23.5 -97.5t-6.5 -102q0 -52 7 -100.5t24 -97.5t43.5 -84.5t69 -58t95.5 -22.5z" glyph-name="zero.numr"/><glyph d="M376 1421h69v-848h-72v654h-215v56h149q69 0 69 63v75z" glyph-name="one.numr"/><glyph d="M165 640h500v-67h-606v69q58 37 93.5 60t93 63.5t93.5 72t79.5 76.5t68.5 85t42 88.5t17 96.5q0 83 -47 131.5t-132 48.5q-95 0 -145 -61.5t-51 -162.5l-71 3q0 128 71 207.5t196 79.5q114 0 182.5 -66t68.5 -182q0 -272 -453 -542z" glyph-name="two.numr"/><glyph d="M357 565q-130 0 -212 69t-82 189l69 5q0 -91 62 -143t164 -52q97 0 159 49.5t62 134.5q0 174 -264 172v67q103 0 161.5 33t58.5 117q0 69 -51 112t-128 43q-83 0 -133.5 -45.5t-51.5 -120.5l-69 4q0 104 71.5 167.5t180.5 63.5q106 0 178.5 -60.5t72.5 -155.5 q0 -144 -176 -187q97 -15 159 -68.5t62 -145.5q0 -114 -83 -181t-210 -67z" glyph-name="three.numr"/><glyph d="M541 844h138v-68h-138v-203h-72v203h-429v48l433 597h68v-577zM132 844h337v472z" glyph-name="four.numr"/><glyph d="M388 1137q115 0 192.5 -81.5t77.5 -200.5q0 -120 -84.5 -205t-205.5 -85q-105 0 -183 67t-102 174l69 19q18 -86 74.5 -140t141.5 -54q92 0 154 66t62 159q0 92 -58 153t-149 61q-56 0 -107 -27.5t-86 -77.5l-73 21l76 435h430v-68h-373l-51 -295q88 79 195 79z" glyph-name="five.numr"/><glyph d="M369 565q-118 0 -201 81t-83 196q0 73 41 144l258 435h83l-207 -342q49 39 109 39q117 0 200.5 -80t83.5 -193q0 -115 -82.5 -197.5t-201.5 -82.5zM369 634q88 0 150.5 61.5t62.5 148.5q0 86 -62.5 148.5t-150.5 62.5q-87 0 -150 -62.5t-63 -148.5q0 -87 62.5 -148.5 t150.5 -61.5z" glyph-name="six.numr"/><glyph d="M68 1421h591v-46l-391 -802h-82l389 781h-507v67z" glyph-name="seven.numr"/><glyph d="M367 565q-114 0 -197 64t-83 180q0 82 44.5 141t121.5 84q-55 23 -85.5 72.5t-30.5 114.5q0 96 69.5 152.5t162.5 56.5q98 0 165 -59.5t67 -154.5q0 -62 -32 -110.5t-85 -71.5q76 -25 119.5 -84t43.5 -139q0 -118 -82.5 -182t-197.5 -64zM371 1060q70 0 114.5 42.5 t44.5 111.5t-45 111.5t-115 42.5q-67 0 -114 -39t-47 -109q0 -71 44.5 -115.5t117.5 -44.5zM367 628q88 0 147 48t59 137q0 84 -57.5 134.5t-148.5 50.5q-93 0 -151 -50.5t-58 -133.5q0 -89 61 -137.5t148 -48.5z" glyph-name="eight.numr"/><glyph d="M649 1151q0 -85 -49 -156l-250 -422h-84l185 312q-45 -13 -87 -13q-116 0 -200 82t-84 197t83.5 197t200.5 82q118 0 201.5 -81.5t83.5 -197.5zM151 1151q0 -86 62.5 -148.5t150.5 -62.5t151 62.5t63 148.5q0 87 -62.5 148.5t-151.5 61.5q-88 0 -150.5 -61.5 t-62.5 -148.5z" glyph-name="nine.numr"/><glyph d="M-333 1005l119 408h100l-156 -408h-63z" glyph-name="glyph507" horiz-adv-x="0"/></font>
</defs>
</svg>
