<?xml version="1.0" standalone="no"?>
<!DOCTYPE svg PUBLIC "-//W3C//DTD SVG 1.1//EN" "http://www.w3.org/Graphics/SVG/1.1/DTD/svg11.dtd">
<svg xmlns="http://www.w3.org/2000/svg"><metadata>This SVG WebFont was generated by YouWorkForThem.
Copyright (c)2015, HK Grotesk Pro Latin by Alfredo Marco Pradil (ammpradil@gmail.com) and HK Grotesk Pro Cyrillic by Stefan Peev (http://www.contextbg.net/). HK Grotesk is a trademark of Alfredo Marco Pradil.</metadata><defs><font horiz-adv-x="732" id="ywftsvg"><font-face ascent="1434" bbox="-971 -518 2642 2240" cap-height="1413" descent="-614" font-family="" font-stretch="normal" font-weight="500" panose-1="0 0 6 0 0 0 0 0 0 0" underline-position="0" underline-thickness="0" unicode-range="U+0020-FB02" units-per-em="2048" x-height="999"/><missing-glyph d="M168 0v958h826v-958h-826zM243 75h676v808h-676v-808z" horiz-adv-x="1162"/><glyph d="M909 999v-999h-157v856h-379v-856h-169v856h-171v143h171v80q0 168 106 259.5t268 91.5q189 0 332 -98l-80 -119q-104 79 -244 79q-213 0 -213 -216v-77h536z" glyph-name="uniFB01" horiz-adv-x="1075" unicode="fi"/><glyph d="M950 -17q-100 0 -146.5 54.5t-46.5 169.5v1037q-81 48 -184 48q-205 0 -205 -216v-77h216l-1 -143h-215v-856h-169v856h-166v143h166v80q0 168 104 259.5t262 91.5q105 0 180.5 -21t180.5 -79v-1078q0 -57 21 -86.5t79 -29.5q31 0 77 8l1 -143q-85 -18 -154 -18z" glyph-name="uniFB02" horiz-adv-x="1152" unicode="fl"/><glyph d="M204 0v856h-171v143h171v86q0 157 112.5 251t279.5 94q143 0 250 -67q82 67 209 67q82 0 163 -39l-56 -139q-51 27 -92 27q-145 0 -145 -149v-131h285v-143h-285v-856h-175v856h-377v-856h-169zM373 999h379v148q0 63 22 104q-76 41 -170 41q-110 0 -170.5 -56.5 t-60.5 -152.5v-84z" glyph-name="f_f.liga" horiz-adv-x="1230" unicode="ff"/><glyph d="M1467 999v-999h-169v856h-378v-856h-170v856h-377v-856h-169v856h-171v143h171v86q0 157 112.5 251t279.5 94q159 0 273 -81q101 81 256 81q189 0 331 -98l-80 -119q-104 79 -243 79q-213 0 -213 -216v-77h547zM750 999v80q0 92 35 165q-81 48 -181 48 q-110 0 -170.5 -56.5t-60.5 -152.5v-84h377z" glyph-name="f_f_i.liga" horiz-adv-x="1630" unicode="ffi"/><glyph d="M1496 -17q-104 0 -151 54t-47 170v1046q-76 39 -165 39q-213 0 -213 -216v-77h215v-143h-215v-856h-170v856h-377v-856h-169v856h-171v143h171v86q0 157 112.5 251t279.5 94q158 0 274 -80q100 80 255 80q102 0 182.5 -25t159.5 -77v-1076q0 -57 21.5 -86.5t82.5 -29.5 q34 0 80 8l2 -143q-85 -18 -157 -18zM373 999h377v80q0 95 38 163q-79 50 -184 50q-110 0 -170.5 -56.5t-60.5 -152.5v-84z" glyph-name="f_f_l.liga" horiz-adv-x="1701" unicode="ffl"/><glyph d="M889 -61q-158 0 -301 61t-247 165t-165 247t-61 301t61 301t165 247t247 165t301 61t301 -61t247 -165t165 -247t61 -301t-61 -301t-165 -247t-247 -165t-301 -61zM889 10q143 0 273 55.5t224 149.5t149.5 224.5t55.5 273.5t-55.5 273t-149.5 224t-224 149.5t-273 55.5 t-273.5 -55.5t-224.5 -149.5t-149.5 -224t-55.5 -273q0 -191 94 -353t256 -256t353 -94zM485 410q-14 0 -24 9.5t-10 24.5v537q0 15 10 26t24 11q16 0 26.5 -11t10.5 -26v-537q0 -15 -10.5 -24.5t-26.5 -9.5zM889 410q-16 0 -25.5 9.5t-9.5 24.5v537q0 15 10 26t25 11 t25 -11t10 -26v-537q0 -15 -10 -24.5t-25 -9.5zM1290 410q-14 0 -22 10l-271 268q-8 11 -8 25q0 16 8 24l268 265q11 14 27 14q14 0 24.5 -10.5t10.5 -24.5t-10 -25l-244 -243l244 -244q10 -10 10 -25q0 -13 -11.5 -23.5t-25.5 -10.5zM621 678q-16 0 -25.5 9.5t-9.5 25.5 q0 15 9.5 25t25.5 10h133q15 0 26 -10t11 -25t-11 -25t-26 -10h-133z" glyph-name="h_d_c_o.liga" horiz-adv-x="1778" unicode="hdco"/><glyph d="M168 0v958h826v-958h-826zM243 75h676v808h-676v-808z" glyph-name=".notdef" horiz-adv-x="1162"/><glyph glyph-name="glyph1" horiz-adv-x="0"/><glyph glyph-name="glyph2" horiz-adv-x="682"/><glyph glyph-name="space" horiz-adv-x="513" unicode=" "/><glyph d="M250 408l-19 1005h168l-19 -1005h-130zM223 0v235h184v-235h-184z" glyph-name="exclam" horiz-adv-x="629" unicode="!"/><glyph d="M234 915v498h144v-498h-144zM563 915v498h143v-498h-143z" glyph-name="quotedbl" horiz-adv-x="940" unicode="&quot;"/><glyph d="M257 0l90 424h-243v121h269l71 347h-256v127h282l89 394h135l-86 -400h319l85 400h135l-88 -400h247v-121h-273l-74 -347h263v-121h-289l-89 -424h-134l89 424h-320l-87 -424h-135zM508 545h320l70 347h-319z" glyph-name="numbersign" horiz-adv-x="1408" unicode="#"/><glyph d="M1054 396q0 -175 -122 -286.5t-308 -122.5v-247l-75 -2v249q-180 11 -310 114t-160 282l174 44q17 -127 96 -199t200 -83v526q-51 20 -81 32.5t-76 35t-73.5 42.5t-60 50t-50 62t-30 75t-12.5 92q0 160 109 260t274 109v230h75v-231q244 -18 365 -232l-146 -90 q-76 142 -219 163v-450q165 -64 228 -100q167 -96 195 -249q7 -35 7 -74zM342 1068q0 -77 53.5 -126.5t153.5 -92.5v423q-90 -8 -148.5 -64t-58.5 -140zM624 144q117 10 185.5 75.5t68.5 161.5q0 50 -19 90.5t-57.5 71.5t-78.5 52.5t-99 45.5v-497z" glyph-name="dollar" horiz-adv-x="1145" unicode="$"/><glyph d="M397 788q-128 0 -202 93.5t-74 227.5q0 133 72.5 227t196.5 94q120 0 197.5 -91.5t77.5 -230.5q0 -138 -76 -229t-192 -91zM280 0l814 1413h121l-814 -1413h-121zM397 904q66 0 109 57.5t43 146.5t-42.5 147.5t-116.5 58.5t-113.5 -59t-39.5 -146t41 -146t119 -59z M1107 -17q-128 0 -202 93.5t-74 227.5q0 133 72.5 227t196.5 94q120 0 197.5 -91.5t77.5 -230.5q0 -138 -76 -229t-192 -91zM1107 99q66 0 109 57.5t43 146.5t-42.5 147.5t-116.5 58.5t-113.5 -59t-39.5 -146t41 -146t119 -59z" glyph-name="percent" horiz-adv-x="1496" unicode="%"/><glyph d="M1301 38l-120 -107l-189 219q-179 -168 -432 -168q-196 0 -319 91.5t-123 251.5q0 63 19.5 119.5t49.5 98.5t78.5 82.5t92 68t103.5 60.5q-37 40 -56 63.5t-55 75t-54 104.5t-18 106q0 96 53 171t138 114t183 39q148 0 251 -93t103 -230q0 -53 -17 -101.5t-43 -86 t-67.5 -74.5t-81.5 -63.5t-93 -57.5l282 -323q67 133 73 292l165 -16q-15 -229 -128 -401zM442 1100q0 -33 13.5 -69t42 -78t42.5 -60.5t46 -55.5q6 -8 9 -11q60 32 99.5 58t78 60t57.5 73t19 84q0 82 -54 137.5t-142 55.5q-91 0 -151 -53.5t-60 -140.5zM556 126 q200 0 337 140l-326 378q-66 -37 -110 -66.5t-88 -69.5t-65.5 -86.5t-21.5 -99.5q0 -93 74 -144.5t200 -51.5z" glyph-name="ampersand" horiz-adv-x="1404" unicode="&amp;"/><glyph d="M233 944v469h144v-469h-144z" glyph-name="quotesingle" horiz-adv-x="610" unicode="'"/><glyph d="M367 -83q-109 119 -174 346.5t-65 442.5q0 247 61.5 451.5t175.5 336.5h155q-257 -316 -257 -791q0 -464 254 -786h-150z" glyph-name="parenleft" horiz-adv-x="569" unicode="("/><glyph d="M202 -83h-150q254 322 254 786q0 475 -257 791h155q114 -132 175.5 -336.5t61.5 -451.5q0 -215 -65 -442.5t-174 -346.5z" glyph-name="parenright" horiz-adv-x="569" unicode=")"/><glyph d="M345 840l-129 88l168 178l-241 33l51 145l220 -94l-31 223h160l-32 -223l221 94l50 -145l-242 -33l169 -178l-131 -88l-116 226z" glyph-name="asterisk" horiz-adv-x="924" unicode="*"/><glyph d="M559 111v449h-449v130h449v449h130v-449h448v-130h-448v-449h-130z" glyph-name="plus" horiz-adv-x="1247" unicode="+"/><glyph d="M151 -311l184 574h195l-264 -574h-115z" glyph-name="comma" horiz-adv-x="646" unicode=","/><glyph d="M160 550v130h555v-130h-555z" glyph-name="hyphen" horiz-adv-x="875" unicode="-"/><glyph d="M231 0v235h171v-235h-171z" glyph-name="period" horiz-adv-x="634" unicode="."/><glyph d="M-3 -428l729 1841h159l-728 -1841h-160z" glyph-name="slash" horiz-adv-x="883" unicode="/"/><glyph d="M600 -17q-87 0 -159.5 24.5t-123 65.5t-89.5 99.5t-62.5 121.5t-38 137t-20 140t-5.5 136q0 71 5 137t19.5 140.5t37 137t60.5 121t87 99.5t119.5 65.5t155.5 24.5q108 0 194 -42t141 -111.5t92 -165t52.5 -197t15.5 -212.5t-15 -211.5t-51 -195t-89.5 -163t-137 -110 t-188.5 -41.5zM596 150q71 0 126 33t88 85.5t54 127.5t28.5 150t7.5 161q0 87 -8 162.5t-29.5 150t-55.5 126.5t-90.5 84.5t-130.5 32.5q-77 0 -134 -34t-90 -87t-53 -130t-26.5 -148t-6.5 -157q0 -557 320 -557z" glyph-name="zero" horiz-adv-x="1181" unicode="0"/><glyph d="M614 1413h166v-1413h-173v1052h-347v135h223q131 0 131 116v110z" glyph-name="one" horiz-adv-x="1181" unicode="1"/><glyph d="M384 160h719v-160h-994v150q76 47 138.5 88.5t142.5 100.5t142 114t125 124t104 135.5t67 144t26 153.5q0 118 -66.5 189t-190.5 71q-146 0 -218.5 -96t-76.5 -249l-172 11q0 102 31.5 191t90 156.5t147 106.5t196.5 39q196 0 315.5 -112.5t119.5 -310.5q0 -102 -41 -208 t-106 -196t-152 -175.5t-173 -150t-174 -116.5z" glyph-name="two" horiz-adv-x="1181" unicode="2"/><glyph d="M580 -17q-143 0 -255.5 50t-180.5 152.5t-68 243.5l168 10q0 -136 93.5 -215t245.5 -79q144 0 238 73t94 201q0 56 -17 98.5t-48.5 69.5t-68 45t-85.5 26t-90.5 11t-92.5 3v154q168 -1 247 46.5t79 165.5q0 106 -73 167t-187 61q-121 0 -194.5 -66.5t-74.5 -179.5 l-167 11q0 182 124 290.5t309 108.5q180 0 306 -102.5t126 -268.5q0 -218 -248 -297q149 -31 236 -123.5t87 -232.5q0 -131 -68.5 -228.5t-181.5 -146t-253 -48.5z" glyph-name="three" horiz-adv-x="1181" unicode="3"/><glyph d="M907 496h228v-161h-228v-335h-174v335h-689v108l708 970h155v-917zM268 496h465v653z" glyph-name="four" horiz-adv-x="1181" unicode="4"/><glyph d="M616 952q194 0 329 -139t135 -338q0 -132 -66.5 -245t-181.5 -180t-250 -67q-180 0 -314.5 116.5t-174.5 297.5l164 45q28 -130 111 -214.5t214 -84.5q136 0 227.5 99t91.5 235q0 135 -85.5 226t-224.5 91q-84 0 -161 -41.5t-127 -116.5l-167 45l132 732h746v-162h-607 l-71 -396q133 97 280 97z" glyph-name="five" horiz-adv-x="1181" unicode="5"/><glyph d="M592 937q132 0 245 -64t179 -174t66 -239t-65.5 -239t-178.5 -174t-246 -64q-203 0 -347.5 140t-144.5 337q0 146 84 266l415 687h201l-293 -483q39 7 85 7zM592 147q131 0 224.5 92t93.5 221q0 128 -93.5 220.5t-224.5 92.5q-132 0 -226 -92t-94 -221 q0 -130 93.5 -221.5t226.5 -91.5z" glyph-name="six" horiz-adv-x="1181" unicode="6"/><glyph d="M89 1413h1014v-98l-670 -1315h-195l654 1252h-803v161z" glyph-name="seven" horiz-adv-x="1181" unicode="7"/><glyph d="M591 -17q-96 0 -182.5 26.5t-156 76.5t-111 131t-41.5 182q0 128 66.5 224t180.5 142q-80 47 -124 125.5t-44 175.5q0 112 60 196.5t153 126t200 41.5q112 0 205.5 -43.5t150.5 -128.5t57 -196q0 -96 -45.5 -174t-124.5 -123q116 -48 180 -143.5t64 -221.5 q0 -102 -41 -183t-110 -131.5t-155.5 -76.5t-181.5 -26zM595 831q106 0 174 61.5t68 162.5q0 104 -67.5 166t-174.5 62q-102 0 -172.5 -57.5t-70.5 -161.5q0 -105 66.5 -169t176.5 -64zM589 134q87 0 157 29t114.5 92t44.5 152q0 125 -88.5 199.5t-227.5 74.5 q-141 0 -229 -74t-88 -199q0 -89 45.5 -152.5t115.5 -92.5t156 -29z" glyph-name="eight" horiz-adv-x="1181" unicode="8"/><glyph d="M1067 953q0 -128 -66 -238l-433 -715h-201l294 484q-49 -7 -86 -7q-201 0 -345.5 140t-144.5 336q0 130 66 240t179 173.5t245 63.5q134 0 247 -63.5t179 -173.5t66 -240zM257 953q0 -128 93.5 -220.5t224.5 -92.5q132 0 226 92t94 221q0 130 -93.5 221.5t-226.5 91.5 q-131 0 -224.5 -92t-93.5 -221z" glyph-name="nine" horiz-adv-x="1181" unicode="9"/><glyph d="M236 720v234h185v-234h-185zM236 0v235h185v-235h-185z" glyph-name="colon" horiz-adv-x="657" unicode=":"/><glyph d="M293 720v234h184v-234h-184zM117 -311l185 574h194l-263 -574h-116z" glyph-name="semicolon" horiz-adv-x="668" unicode=";"/><glyph d="M1106 23l-1023 583l1023 583l64 -112l-825 -471l825 -472z" glyph-name="less" horiz-adv-x="1292" unicode="&lt;"/><glyph d="M252 805v145h800v-145h-800zM252 394v145h800v-145h-800z" glyph-name="equal" horiz-adv-x="1304" unicode="="/><glyph d="M186 23l-64 111l825 472l-825 471l64 112l1023 -583z" glyph-name="greater" horiz-adv-x="1292" unicode=">"/><glyph d="M438 404v159q0 63 19 111t50 76.5t68 51.5t74 44.5t68 46.5t50 65t19 94q0 116 -73.5 176t-205.5 60q-134 0 -204 -69.5t-70 -197.5h-150q0 190 114 299.5t304 109.5q191 0 312.5 -100.5t121.5 -280.5q0 -73 -19.5 -130t-50.5 -92.5t-69 -63.5t-75.5 -48.5t-68.5 -40.5 t-50.5 -48t-19.5 -64v-158h-144zM420 0v235h184v-235h-184z" glyph-name="question" horiz-adv-x="1036" unicode="?"/><glyph d="M1032 -352q-183 0 -345.5 61t-284 171t-192.5 275.5t-71 362.5q0 154 42.5 294t123 253t190.5 196t252.5 128.5t302.5 45.5q199 0 368 -70t283.5 -190t179 -281.5t64.5 -342.5q0 -94 -17.5 -183t-54.5 -169t-90 -139.5t-130 -94.5t-169 -35q-100 0 -159.5 50.5 t-73.5 144.5q-10 54 -7 115q-64 -87 -152 -138t-190 -51q-154 0 -237 105.5t-83 270.5q0 82 20 168.5t62 168.5t99.5 146.5t138.5 103.5t173 39q106 0 174.5 -51.5t93.5 -142.5l31 144l137 -2q-14 -72 -52 -236.5t-65.5 -302.5t-31.5 -224q-6 -85 20 -126.5t98 -41.5 q86 0 151.5 42.5t103.5 113.5t57 154t19 174q0 154 -54 290.5t-151 238.5t-241 161.5t-314 59.5q-171 0 -317.5 -60.5t-247 -165t-157 -249t-56.5 -308.5q0 -170 60.5 -310.5t165 -232.5t242 -142t293.5 -50q131 0 260 43l47 -128q-150 -53 -309 -53zM913 187q89 0 164 47.5 t120.5 122t70.5 160t25 168.5q0 232 -199 232q-90 0 -165 -47t-121 -121t-71 -159t-25 -168q0 -114 50.5 -174.5t150.5 -60.5z" glyph-name="at" horiz-adv-x="2080" unicode="@"/><glyph d="M50 0l538 1413h140l538 -1413h-191l-118 330h-595l-120 -330h-192zM417 481h485l-243 680z" glyph-name="A" horiz-adv-x="1315" unicode="A"/><glyph d="M210 0v1413h449q89 0 165 -21t137 -64t96 -115.5t35 -168.5q0 -100 -52 -180t-129 -114q111 -31 180.5 -130t69.5 -223q0 -186 -127.5 -291.5t-326.5 -105.5h-497zM386 810h310q101 0 167 57t66 167q0 107 -71 163t-196 56h-276v-443zM386 168h323q136 0 207 62.5 t71 185.5q0 107 -69.5 174t-187.5 67h-344v-489z" glyph-name="B" horiz-adv-x="1272" unicode="B"/><glyph d="M771 -17q-128 0 -235 36t-184 101.5t-130.5 156t-79.5 199.5t-26 232q0 155 41.5 286t122 229t207.5 153.5t289 55.5q209 0 359 -99t230 -291l-165 -66q-92 288 -426 288q-159 0 -269.5 -71t-162 -192.5t-51.5 -285.5q0 -122 28 -222.5t84.5 -178t150.5 -120.5t217 -43 q159 0 264.5 70t168.5 221l163 -67q-83 -192 -235.5 -292t-360.5 -100z" glyph-name="C" horiz-adv-x="1447" unicode="C"/><glyph d="M210 0v1413h391q353 0 539 -185.5t186 -531.5q0 -332 -189 -514t-538 -182h-389zM386 162h196q275 0 421.5 132t146.5 409q0 281 -134 414.5t-418 133.5h-212v-1089z" glyph-name="D" horiz-adv-x="1440" unicode="D"/><glyph d="M210 0v1413h929v-162h-753v-461h685v-163h-685v-460h753v-167h-929z" glyph-name="E" horiz-adv-x="1264" unicode="E"/><glyph d="M210 0v1413h970v-162h-794v-461h699v-163h-699v-627h-176z" glyph-name="F" horiz-adv-x="1251" unicode="F"/><glyph d="M771 -17q-128 0 -235 36t-184 101.5t-130.5 156t-79.5 199.5t-26 232q0 155 41.5 286t121.5 229t207.5 153.5t289.5 55.5q209 0 358.5 -99t229.5 -291l-157 -66q-106 301 -433 301q-120 0 -213 -42.5t-151.5 -118.5t-88.5 -177.5t-30 -223.5t28 -224t84.5 -181.5 t150.5 -124t217 -44.5q181 0 295 93.5t139 270.5l4 92h-336v143h509v-740h-140l-15 236q-66 -121 -183 -187t-273 -66z" glyph-name="G" horiz-adv-x="1539" unicode="G"/><glyph d="M210 0v1413h176v-622h701v622h176v-1413h-176v628h-701v-628h-176z" glyph-name="H" horiz-adv-x="1473" unicode="H"/><glyph d="M210 0v1413h176v-1413h-176z" glyph-name="I" horiz-adv-x="597" unicode="I"/><glyph d="M522 -17q-200 0 -322.5 123.5t-136.5 315.5l173 19q9 -133 82.5 -213.5t203.5 -80.5q152 0 215.5 89.5t63.5 274.5v740h-560v162h737v-900q0 -121 -26.5 -217t-80.5 -166.5t-142.5 -108.5t-206.5 -38z" glyph-name="J" horiz-adv-x="1161" unicode="J"/><glyph d="M210 0v1413h176v-812l768 812h237l-549 -564l571 -849h-218l-475 730l-334 -344v-386h-176z" glyph-name="K" horiz-adv-x="1464" unicode="K"/><glyph d="M210 0v1413h176v-1246h633v-167h-809z" glyph-name="L" horiz-adv-x="1070" unicode="L"/><glyph d="M1333 1413h241v-1413h-170v1175l-426 -1057h-172l-426 1057v-1175h-170v1413h241l441 -1098z" glyph-name="M" horiz-adv-x="1784" unicode="M"/><glyph d="M1057 1413h170v-1413h-182l-665 1127v-1127h-170v1413h180l667 -1124v1124z" glyph-name="N" horiz-adv-x="1437" unicode="N"/><glyph d="M773 -17q-131 0 -240.5 38.5t-185.5 105.5t-129 159t-78 198t-25 223t25 223t78 197.5t129 158.5t185.5 105.5t240.5 38.5q164 0 292.5 -58.5t208 -159.5t120 -229.5t40.5 -275.5t-40.5 -276t-120 -230t-208 -159.5t-292.5 -58.5zM773 140q99 0 179 30t134.5 81.5 t91.5 124t53.5 155t16.5 176.5q0 93 -16.5 175.5t-53.5 155t-91.5 124t-134.5 81.5t-179 30q-122 0 -214.5 -45t-148 -124.5t-83 -179.5t-27.5 -217q0 -118 27.5 -218t83 -179.5t148 -124.5t214.5 -45z" glyph-name="O" horiz-adv-x="1548" unicode="O"/><glyph d="M210 0v1413h406q218 0 351 -108t133 -298q0 -189 -131.5 -294t-352.5 -105h-231v-608h-175zM385 773h231q309 0 309 234q0 115 -78.5 178t-230.5 63h-231v-475z" glyph-name="P" horiz-adv-x="1177" unicode="P"/><glyph d="M1365 -98l-202 202q-160 -121 -390 -121q-131 0 -240.5 38.5t-186 105.5t-129.5 159t-78 198t-25 223q0 147 40.5 275.5t119.5 229.5t207.5 159.5t291.5 58.5q132 0 241.5 -38.5t186 -106t129.5 -159.5t78 -198t25 -223q0 -146 -40 -275.5t-116 -224.5l202 -195zM773 150 q157 0 265 76l-222 210l115 105l219 -209q107 150 107 375q0 117 -29 216t-86 176t-151.5 121t-217.5 44q-122 0 -216.5 -44t-151.5 -121t-86 -176t-29 -216t29 -216t86 -176.5t151.5 -121t216.5 -43.5z" glyph-name="Q" horiz-adv-x="1584" unicode="Q"/><glyph d="M210 0v1413h416q209 0 343 -107t134 -294q0 -137 -79 -233t-213 -133l392 -646h-201l-362 629q-28 -2 -90 -2h-164v-627h-176zM388 771h253q137 4 212 66t75 172q0 115 -80 180.5t-221 65.5h-239v-484z" glyph-name="R" horiz-adv-x="1265" unicode="R"/><glyph d="M587 -14q-125 0 -231 44t-181 135.5t-96 217.5l174 44q18 -138 109.5 -211t227.5 -73q131 0 209.5 67.5t78.5 170.5q0 55 -24.5 99t-65.5 74.5t-94.5 56t-112.5 48.5t-118 47t-112.5 56t-94.5 71t-65.5 97t-24.5 130q0 168 118.5 269t294.5 101q278 0 410 -234l-146 -90 q-90 167 -270 167q-99 0 -165 -58t-66 -147q0 -50 24.5 -89.5t65.5 -67.5t94.5 -52t112.5 -46.5t118 -46.5t112.5 -57.5t94.5 -75t65.5 -102t24.5 -135.5q0 -184 -133.5 -297t-333.5 -113z" glyph-name="S" horiz-adv-x="1145" unicode="S"/><glyph d="M526 0v1255h-476v158h1128v-158h-476v-1255h-176z" glyph-name="T" horiz-adv-x="1228" unicode="T"/><glyph d="M696 -17q-259 0 -387.5 145t-128.5 409v876h176v-857q0 -200 80 -301t260 -101q181 0 261.5 101.5t80.5 304.5v853h176v-866q0 -269 -129 -416.5t-389 -147.5z" glyph-name="U" horiz-adv-x="1394" unicode="U"/><glyph d="M1115 1413h193l-560 -1413h-138l-562 1413h195l437 -1135z" glyph-name="V" horiz-adv-x="1356" unicode="V"/><glyph d="M474 0l-413 1413h183l329 -1158l351 1080h140l350 -1080l329 1158h183l-413 -1413h-174l-345 1057l-345 -1057h-175z" glyph-name="W" horiz-adv-x="1987" unicode="W"/><glyph d="M59 0l486 711l-479 702h210l390 -589l389 589h211l-480 -702l486 -711h-210l-398 591l-395 -591h-210z" glyph-name="X" horiz-adv-x="1331" unicode="X"/><glyph d="M571 0v543l-535 870h213l412 -699l414 699h214l-535 -870v-543h-183z" glyph-name="Y" horiz-adv-x="1325" unicode="Y"/><glyph d="M1202 1413v-133l-879 -1120h877v-160h-1119v128l882 1123h-836v162h1075z" glyph-name="Z" horiz-adv-x="1294" unicode="Z"/><glyph d="M203 -138v1686h392v-115h-254v-1455h254v-116h-392z" glyph-name="bracketleft" horiz-adv-x="654" unicode="["/><glyph d="M763 -429l-768 1943h160l767 -1943h-159z" glyph-name="backslash" horiz-adv-x="918" unicode="\"/><glyph d="M451 -138h-392v116h254v1455h-254v115h392v-1686z" glyph-name="bracketright" horiz-adv-x="654" unicode="]"/><glyph d="M96 444l495 1031l498 -1031h-180l-318 707l-315 -707h-180z" glyph-name="asciicircum" horiz-adv-x="1185" unicode="^"/><glyph d="M227 -130v130h821v-130h-821z" glyph-name="underscore" horiz-adv-x="1275" unicode="_"/><glyph d="M327 1113l-276 300h182l221 -300h-127z" glyph-name="grave" horiz-adv-x="511" unicode="`"/><glyph d="M515 1016q194 0 302 -109.5t108 -297.5v-609h-141l-11 178q-51 -94 -145 -144.5t-201 -50.5q-156 0 -253.5 83.5t-97.5 229.5q0 286 412 286h283q-1 150 -58 218t-196 68q-171 0 -272 -156l-130 94q76 104 172 157t228 53zM460 128q122 0 203.5 73.5t107.5 191.5v65h-273 q-123 0 -185.5 -45t-62.5 -123q0 -74 55 -118t155 -44z" glyph-name="a" horiz-adv-x="1064" unicode="a"/><glyph d="M679 -17q-107 0 -196.5 52t-137.5 146v-181h-175v1413h175v-594q48 94 136 145.5t195 51.5q133 0 231.5 -71t147 -186.5t48.5 -258.5t-48.5 -259t-146.5 -187t-229 -71zM638 140q141 0 218 100.5t77 259.5t-77 260.5t-218 101.5q-143 0 -225.5 -102t-82.5 -260t82.5 -259 t225.5 -101z" glyph-name="b" horiz-adv-x="1191" unicode="b"/><glyph d="M545 -17q-109 0 -198 41.5t-145.5 112.5t-87 163.5t-30.5 197.5q0 80 17.5 154.5t55 141t91 116t129.5 78t166 28.5q142 0 249.5 -71.5t162.5 -209.5l-161 -63q-30 88 -96.5 139t-154.5 51q-72 0 -128.5 -30.5t-90.5 -82.5t-51 -116t-17 -135q0 -153 73 -257t214 -104 q89 0 155 50.5t93 136.5l154 -58q-47 -134 -152.5 -208.5t-247.5 -74.5z" glyph-name="c" horiz-adv-x="1012" unicode="c"/><glyph d="M527 -17q-133 0 -235 71t-154 187.5t-52 258.5q0 141 52 258t153 187.5t233 70.5q107 0 196.5 -52t137.5 -145v594h172v-1413h-158l-7 189q-48 -98 -138.5 -152t-199.5 -54zM567 137q142 0 223.5 102t81.5 261q0 158 -81.5 260t-223.5 102q-143 0 -226 -102.5t-83 -259.5 q0 -158 83 -260.5t226 -102.5z" glyph-name="d" horiz-adv-x="1200" unicode="d"/><glyph d="M564 -17q-115 0 -207.5 40.5t-151 110.5t-89.5 162t-31 199q0 105 29.5 198t86 165.5t146 115t200.5 42.5q97 0 174.5 -30t127 -77.5t82.5 -111.5t46.5 -127.5t13.5 -128.5q0 -62 -8 -92h-719q10 -147 86.5 -229.5t214.5 -82.5q84 0 149 27.5t126 92.5l118 -103 q-83 -89 -177.5 -130t-216.5 -41zM264 573h559q0 43 -4 63q-14 101 -84 169t-189 68q-123 0 -195 -81.5t-87 -218.5z" glyph-name="e" horiz-adv-x="1072" unicode="e"/><glyph d="M233 0v856h-200v143h201v148q0 134 82.5 208.5t213.5 74.5q79 0 159 -39l-56 -139q-49 27 -88 27q-137 0 -137 -149v-131h273v-143h-273v-856h-175z" glyph-name="f" horiz-adv-x="700" unicode="f"/><glyph d="M578 134q51 -7 84 -12.5t79.5 -16.5t76.5 -23.5t63.5 -33.5t53 -47t32.5 -63.5t13 -82.5q0 -154 -117.5 -238t-306.5 -84q-207 0 -327 97t-120 253q0 18 4 42l125 122q-117 61 -120 192q0 110 88 187q-86 97 -86 231q0 157 114 258t280 101q147 0 252 -79l150 132 l89 -109l-146 -124q50 -83 50 -187q0 -158 -112 -256.5t-278 -98.5q-115 0 -209 50q-46 -28 -46 -75q1 -27 15.5 -47t40 -33t61.5 -22.5t79 -16t93 -13.5q16 -2 25 -3zM520 884q-102 0 -163.5 -63.5t-61.5 -164.5q0 -99 60.5 -161t163.5 -62t162.5 61.5t59.5 160.5 q0 102 -60 165.5t-161 63.5zM555 -335q119 0 191.5 43t72.5 126q0 16 -3 29.5t-11.5 25t-16.5 20.5t-24 17t-28 13.5t-35.5 11t-38.5 9t-45 8t-47 6.5t-52 7q-118 14 -179 30l-91 -122q0 -1 3 -28q14 -95 96.5 -145.5t207.5 -50.5z" glyph-name="g" horiz-adv-x="1049" unicode="g"/><glyph d="M170 0v1413h172v-566q50 83 129.5 126t173.5 43q88 0 157 -31t111.5 -86t64.5 -125t23 -152v-622h-172v591q0 271 -223 271q-125 0 -194.5 -86.5t-69.5 -226.5v-549h-172z" glyph-name="h" horiz-adv-x="1142" unicode="h"/><glyph d="M164 1201v212h177v-212h-177zM168 0v999h169v-999h-169z" glyph-name="i" horiz-adv-x="504" unicode="i"/><glyph d="M167 1201v212h178v-212h-178zM68 -435q-80 0 -166 32l44 148q62 -26 106 -26q119 0 119 150v1130h170v-1118q0 -145 -68.5 -230.5t-204.5 -85.5z" glyph-name="j" horiz-adv-x="511" unicode="j"/><glyph d="M170 0v1413h169v-915l469 501h221l-367 -378l419 -621h-200l-334 516l-208 -221v-295h-169z" glyph-name="k" horiz-adv-x="1100" unicode="k"/><glyph d="M355 -17q-100 0 -146.5 54.5t-46.5 169.5v1206h170v-1161q0 -56 21 -86t78 -30q31 0 77 8l1 -143q-83 -18 -154 -18z" glyph-name="l" horiz-adv-x="558" unicode="l"/><glyph d="M169 0l-1 999h164v-157q42 88 118 131t173 43q108 0 188 -50.5t115 -155.5q48 103 133.5 154.5t193.5 51.5q118 0 198 -57.5t115.5 -151t35.5 -218.5v-589h-170v569q0 141 -49.5 215t-162.5 74q-114 0 -182 -79t-68 -201v-578h-169v594q0 264 -211 264q-115 0 -183 -78.5 t-68 -201.5v-578h-170z" glyph-name="m" horiz-adv-x="1742" unicode="m"/><glyph d="M168 0v999h169v-152q50 83 131 126t175 43q88 0 156.5 -31t110.5 -86t63.5 -125t22.5 -152v-622h-169v591q0 126 -59 197t-171 71q-122 0 -191 -72.5t-69 -210.5v-576h-169z" glyph-name="n" horiz-adv-x="1137" unicode="n"/><glyph d="M570 -17q-143 0 -256.5 70t-174.5 188t-61 261q0 106 36 200t99.5 163.5t156 110t200.5 40.5q143 0 257 -69t175.5 -186.5t61.5 -258.5q0 -143 -61.5 -261t-175.5 -188t-257 -70zM570 130q100 0 173.5 51.5t109 134.5t35.5 186q0 158 -84.5 262.5t-233.5 104.5 q-148 0 -232 -104.5t-84 -262.5q0 -159 84 -265.5t232 -106.5z" glyph-name="o" horiz-adv-x="1143" unicode="o"/><glyph d="M170 -414v1413h175v-180q48 93 137.5 145t196.5 52q131 0 229 -71t146.5 -187t48.5 -259t-48.5 -258.5t-147 -186.5t-231.5 -71q-107 0 -195 51.5t-136 145.5v-594h-175zM638 137q141 0 218 101.5t77 260.5t-77 259.5t-218 100.5q-143 0 -225.5 -100.5t-82.5 -259.5 q0 -158 82.5 -260t225.5 -102z" glyph-name="p" horiz-adv-x="1191" unicode="p"/><glyph d="M1021 -414h-175v594q-48 -94 -136 -145.5t-195 -51.5q-133 0 -231.5 71t-147 186.5t-48.5 258.5t48.5 259t146.5 187t229 71q107 0 196.5 -52t137.5 -145v180h175v-1413zM553 137q143 0 225.5 102t82.5 260q0 159 -82.5 259.5t-225.5 100.5q-141 0 -218 -100.5 t-77 -259.5t77 -260.5t218 -101.5z" glyph-name="q" horiz-adv-x="1191" unicode="q"/><glyph d="M168 0v999h165v-196q34 102 117.5 157.5t177.5 55.5q100 0 165 -55l-78 -140q-54 30 -112 30q-49 0 -95.5 -21.5t-86.5 -63.5t-64.5 -116t-24.5 -169v-481h-164z" glyph-name="r" horiz-adv-x="800" unicode="r"/><glyph d="M466 -17q-148 0 -259.5 76t-150.5 193l137 60q29 -80 96 -133.5t169 -53.5q99 0 153.5 46t54.5 116q0 48 -30.5 80t-79.5 49t-108 31t-118 33t-108 46.5t-79.5 79t-30.5 124.5q0 136 100.5 211t251.5 75q120 0 212.5 -55t147.5 -156l-131 -71q-81 147 -235 147 q-84 0 -134 -36t-50 -93q0 -38 24 -66t63.5 -43.5t89.5 -31t102.5 -27.5t102.5 -35.5t89.5 -53.5t63.5 -81t24 -119q0 -101 -52.5 -173.5t-133.5 -105.5t-181 -33z" glyph-name="s" horiz-adv-x="922" unicode="s"/><glyph d="M488 -17q-137 0 -211 77.5t-74 218.5v577h-165v143h167v276l167 122v-398h270v-143h-270v-549q0 -92 36.5 -133t108.5 -41q62 0 124 28l1 -154q-64 -24 -154 -24z" glyph-name="t" horiz-adv-x="720" unicode="t"/><glyph d="M493 -17q-88 0 -156.5 31.5t-110 86.5t-63 125t-22.5 152v621h168v-591q0 -126 59 -197t171 -71q122 0 191.5 72.5t69.5 210.5v576h168v-999h-168v152q-49 -83 -131 -126t-176 -43z" glyph-name="u" horiz-adv-x="1136" unicode="u"/><glyph d="M429 0l-408 999h185l294 -782l295 782h185l-409 -999h-142z" glyph-name="v" horiz-adv-x="1001" unicode="v"/><glyph d="M336 0l-296 999h181l202 -742l242 742h150l241 -741l204 741h181l-298 -999h-156l-247 763l-248 -763h-156z" glyph-name="w" horiz-adv-x="1479" unicode="w"/><glyph d="M35 0l359 502l-359 497h207l264 -381l263 381h209l-360 -497l360 -502h-208l-264 385l-264 -385h-207z" glyph-name="x" horiz-adv-x="1014" unicode="x"/><glyph d="M260 -429l175 446l-414 982h187l317 -786l290 786h186l-556 -1428h-185z" glyph-name="y" horiz-adv-x="1024" unicode="y"/><glyph d="M911 999v-129l-619 -727h615v-143h-844v119l635 737h-603v143h816z" glyph-name="z" horiz-adv-x="987" unicode="z"/><glyph d="M421 -144q-103 0 -158 70t-55 192v336q0 36 -9.5 62t-29.5 43t-38 26t-47 20v119q61 19 92.5 52t31.5 109v356q0 125 56 192.5t163 67.5h123v-112h-67q-130 0 -130 -151v-355q0 -88 -33 -138t-98 -75v-11q64 -27 97.5 -75t33.5 -127v-336q0 -71 30.5 -112t93.5 -41h73 v-112h-129z" glyph-name="braceleft" horiz-adv-x="623" unicode="{"/><glyph d="M255 -512v2046h127v-2046h-127z" glyph-name="bar" horiz-adv-x="636" unicode="|"/><glyph d="M202 -144h-129v112h73q63 0 93.5 41t30.5 112v336q0 79 33.5 127t97.5 75v11q-65 25 -98 75t-33 138v355q0 151 -130 151h-67v112h123q107 0 163 -67.5t56 -192.5v-356q0 -76 31.5 -109t92.5 -52v-119q-29 -11 -47 -20t-38 -26t-29.5 -43t-9.5 -62v-336q0 -122 -55 -192 t-158 -70z" glyph-name="braceright" horiz-adv-x="623" unicode="}"/><glyph d="M799 359q-52 0 -93 18t-65 45t-47.5 58.5t-41.5 58.5t-46.5 45t-62.5 18q-55 0 -86 -51.5t-31 -140.5h-130q0 139 67.5 223.5t179.5 84.5q63 0 110.5 -25t75 -61t50.5 -71.5t53 -60.5t67 -25q55 0 88.5 59.5t33.5 155.5h130q0 -148 -69 -239.5t-183 -91.5z" glyph-name="asciitilde" horiz-adv-x="1245" unicode="~"/><glyph glyph-name="uni00A0" horiz-adv-x="563" unicode=" "/><glyph d="M223 1413h184v-235h-184v235zM250 1005h130l19 -1005h-168z" glyph-name="exclamdown" horiz-adv-x="629" unicode="¡"/><glyph d="M558 -213v200q-190 20 -297.5 164t-107.5 347q0 94 25.5 181t74 158.5t127.5 119t178 57.5v186h88v-185q131 -8 228.5 -79.5t149.5 -200.5l-161 -63q-28 79 -84.5 128t-132.5 58v-717q77 9 133 57.5t80 125.5l155 -58q-45 -126 -141.5 -199.5t-226.5 -82.5v-195zM558 145 v709q-114 -20 -173.5 -120t-59.5 -236t59.5 -235t173.5 -118z" glyph-name="cent" horiz-adv-x="1158" unicode="¢"/><glyph d="M392 143h804v-143h-1034v156q113 36 189 116t76 171q0 17 -2.5 36.5t-5.5 33t-10 37.5t-10 33t-12.5 37t-11.5 33h-206v143h170q-38 106 -38 228q0 177 113 294t303 117q140 0 244.5 -83.5t153.5 -218.5l-134 -50q-37 99 -105.5 154t-158.5 55q-125 0 -199 -72.5 t-74 -198.5q0 -115 43 -225h472v-143h-437q2 -6 10 -31t11 -34.5t9 -32.5t8.5 -37t5 -34t2.5 -38q0 -198 -176 -303z" glyph-name="sterling" horiz-adv-x="1247" unicode="£"/><glyph d="M314 160l-91 95l103 101q-95 121 -95 277t95 277l-101 100l90 95l103 -104q122 95 277.5 95.5t276.5 -94.5l103 101l92 -91l-103 -101q95 -122 95 -278.5t-95 -278.5l103 -99l-91 -95l-104 104q-121 -95 -277.5 -95t-278.5 95zM456 397q99 -100 238 -100t237 100 q98 98 98.5 236t-98.5 236q-98 98 -237 97.5t-237 -98.5q-97 -98 -97.5 -236.5t96.5 -234.5z" glyph-name="currency" horiz-adv-x="1390" unicode="¤"/><glyph d="M633 0v220h-347v138h347v177h-347v137h268l-456 741h213l411 -699l414 699h214l-455 -741h265v-137h-344v-177h344v-138h-344v-220h-183z" glyph-name="yen" horiz-adv-x="1448" unicode="¥"/><glyph d="M255 731v744h140v-744h-140zM255 -307v727h140v-727h-140z" glyph-name="brokenbar" horiz-adv-x="650" unicode="¦"/><glyph d="M589 -16q-102 0 -187 28.5t-150.5 93.5t-94.5 161l161 49q36 -103 103.5 -148.5t178.5 -45.5q112 0 183.5 41.5t71.5 112.5q0 48 -36 82t-94 54t-127.5 37t-139.5 39t-128 53t-94 86t-36 130q0 116 87 203q-86 71 -86 179q0 89 53 156.5t137.5 101t185.5 33.5 q128 0 225.5 -49t147.5 -131l-135 -79q-67 127 -244 127q-103 0 -165.5 -47.5t-62.5 -114.5q0 -36 22.5 -63.5t60.5 -45.5t87 -32t103 -27.5t108.5 -29t103.5 -39t87 -54.5t60.5 -79t22.5 -109q0 -118 -83 -201q83 -69 83 -180q0 -95 -60 -163t-150.5 -98.5t-198.5 -30.5z M770 519q85 43 85 134q0 47 -25.5 82.5t-74.5 59t-97 39t-118.5 35.5t-112.5 36q-42 -24 -63 -63t-21 -79q0 -38 20 -69t51 -50.5t77.5 -37.5t89 -29t97.5 -27.5t92 -30.5z" glyph-name="section" horiz-adv-x="1166" unicode="§"/><glyph d="M163 1201v212h144v-212h-144zM537 1201v212h144v-212h-144z" glyph-name="dieresis" horiz-adv-x="816" unicode="¨"/><glyph d="M857 -23q-151 0 -288.5 57.5t-237 155.5t-158 233t-58.5 284t58.5 283.5t158 232.5t237 155.5t288.5 57.5t288 -57.5t236 -155.5t157.5 -233t58.5 -283q0 -149 -58.5 -284t-157.5 -233t-236 -155.5t-288 -57.5zM857 87q172 0 317.5 83t230.5 226t85 311t-85 310.5 t-230.5 225.5t-317.5 83q-173 0 -319 -83t-230.5 -225.5t-84.5 -310.5q0 -126 50 -241t135 -198t202.5 -132t246.5 -49zM878 251q-127 0 -220 63t-138.5 164.5t-45.5 226.5q0 70 15.5 136t48.5 124t79.5 101.5t113 69t145.5 25.5q124 0 218 -63t144 -183l-134 -52 q-29 79 -89.5 125t-138.5 46q-85 0 -146 -48.5t-87.5 -121t-26.5 -159.5q0 -138 66.5 -231.5t194.5 -93.5q81 0 140 44.5t83 122.5l127 -49q-40 -117 -132 -182t-217 -65z" glyph-name="copyright" horiz-adv-x="1712" unicode="©"/><glyph d="M428 706q-103 0 -172.5 58.5t-69.5 154.5q0 107 77 160t212 53h202q0 25 -5 48q-15 155 -180 155q-119 0 -201 -114l-83 56q59 82 125.5 117.5t160.5 35.5q135 0 209 -75t74 -207v-430h-94l-2 118q-95 -130 -253 -130zM446 803q71 0 127.5 37.5t89.5 104.5q11 47 14 93 h-195q-90 0 -137.5 -30.5t-47.5 -88.5q0 -50 43.5 -83t105.5 -33z" glyph-name="ordfeminine" horiz-adv-x="1012" unicode="ª"/><glyph d="M461 165l-406 346l406 346v-150l-231 -196l231 -196v-150zM857 165l-407 346l407 346v-150l-232 -196l232 -196v-150z" glyph-name="guillemotleft" horiz-adv-x="1004" unicode="«"/><glyph d="M909 291v354h-757v152h919v-506h-162z" glyph-name="logicalnot" horiz-adv-x="1322" unicode="¬"/><glyph d="M160 550v130h698v-130h-698z" glyph-name="uni00AD" horiz-adv-x="1019" unicode="­"/><glyph d="M857 -23q-151 0 -288.5 57.5t-237 155.5t-158 233t-58.5 284t58.5 283.5t158 232.5t237 155.5t288.5 57.5t288 -57.5t236 -155.5t157.5 -233t58.5 -283q0 -149 -58.5 -284t-157.5 -233t-236 -155.5t-288 -57.5zM857 87q172 0 317.5 83t230.5 226t85 311t-85 310.5 t-230.5 225.5t-317.5 83q-173 0 -319 -83t-230.5 -225.5t-84.5 -310.5q0 -126 50 -241t135 -198t202.5 -132t246.5 -49zM620 276v861h253q132 0 212 -67t80 -179q0 -81 -45.5 -139.5t-126.5 -82.5l236 -393h-131l-218 381q-32 -2 -51 -2h-95v-379h-114zM734 750h149 q81 1 125 38t44 102q0 68 -47 106t-131 38h-140v-284z" glyph-name="registered" horiz-adv-x="1712" unicode="®"/><glyph d="M162 1195v103h552v-103h-552z" glyph-name="macron" horiz-adv-x="870" unicode="¯"/><glyph d="M470 851q-119 0 -204.5 85t-85.5 205q0 119 85.5 204t204.5 85t203.5 -85t84.5 -204q0 -120 -84.5 -205t-203.5 -85zM470 967q73 0 123.5 50.5t50.5 123.5q0 72 -50.5 122.5t-123.5 50.5t-123.5 -50.5t-50.5 -122.5q0 -73 50.5 -123.5t123.5 -50.5z" glyph-name="degree" horiz-adv-x="939" unicode="°"/><glyph d="M607 188v454h-470v130h470v453h130v-453h469v-130h-469v-454h-130zM137 -130v130h1061v-130h-1061z" glyph-name="plusminus" horiz-adv-x="1341" unicode="±"/><glyph d="M235 1107h437v-108h-626v99q49 30 82 51t86 58t89.5 67.5t79 72.5t68 81t43 85t17.5 91q0 66 -37 106.5t-108 40.5q-84 0 -124.5 -56.5t-43.5 -143.5l-115 7q0 126 76 213t207 87q117 0 190 -68.5t73 -188.5q0 -74 -35 -148.5t-94 -137.5t-125.5 -114.5t-139.5 -93.5z " glyph-name="uni00B2" unicode="²"/><glyph d="M356 985q-133 0 -219.5 71t-86.5 200l112 7q0 -79 54 -124t141 -45q82 0 136 41t54 114q0 39 -15 66.5t-36.5 42.5t-54.5 23.5t-60.5 10t-64.5 1.5v103q101 0 143.5 26.5t42.5 92.5q0 60 -41.5 94.5t-105.5 34.5q-69 0 -111 -38t-43 -102l-111 7q0 111 75.5 177t187.5 66 q109 0 186 -62t77 -163q0 -124 -138 -176q86 -19 134.5 -74.5t48.5 -137.5q0 -120 -87.5 -188t-217.5 -68z" glyph-name="uni00B3" unicode="³"/><glyph d="M60 1126l221 287h181l-275 -287h-127z" glyph-name="acute" horiz-adv-x="513" unicode="´"/><glyph d="M253 -341v1340h168v-591q0 -126 59 -197t171 -71q121 0 190.5 72.5t69.5 210.5v576h168v-999h-168v152q-49 -83 -131 -126t-176 -43q-145 0 -214 94v-418h-137z" glyph-name="uni00B5" horiz-adv-x="1293" unicode="µ"/><glyph d="M560 -246v869q-119 0 -221 45.5t-167 137.5t-65 212t65 212t167 137.5t221 45.5h120v-1659h-120zM901 -246v1659h122v-1659h-122z" glyph-name="paragraph" horiz-adv-x="1277" unicode="¶"/><glyph d="M330 596q-57 0 -97 41t-40 98q0 58 39.5 98t97.5 40q59 0 99.5 -39.5t40.5 -98.5q0 -57 -41 -98t-99 -41z" glyph-name="periodcentered" horiz-adv-x="662" unicode="·"/><glyph d="M276 -518q-62 0 -116.5 36t-77.5 93l97 41q11 -31 39 -50.5t62 -19.5q50 0 79 27t29 74q0 53 -47 86.5t-129 37.5q-11 0 -38 0.5t-44 0.5l115 191h103l-80 -121q36 -3 62 -10q78 -18 119.5 -64.5t41.5 -115.5q0 -90 -60 -148t-155 -58z" glyph-name="cedilla" horiz-adv-x="584" unicode="¸"/><glyph d="M353 1847h111v-848h-117v623h-204v91h128q82 0 82 73v61z" glyph-name="uni00B9" unicode="¹"/><glyph d="M504 714q-151 0 -249.5 104t-98.5 255q0 150 98.5 253.5t249.5 103.5q150 0 248 -103.5t98 -253.5q0 -151 -98 -255t-248 -104zM504 818q108 0 167.5 71.5t59.5 183.5t-59.5 183.5t-167.5 71.5q-109 0 -169.5 -71.5t-60.5 -183.5t60.5 -183.5t169.5 -71.5z" glyph-name="ordmasculine" horiz-adv-x="1008" unicode="º"/><glyph d="M147 165v150l232 196l-232 196v150l407 -346zM543 165v150l231 196l-231 196v150l406 -346z" glyph-name="guillemotright" horiz-adv-x="1004" unicode="»"/><glyph d="M464 573h-117v623h-204v91h128q82 0 82 73v61h111v-848zM1228 1413h122l-814 -1413h-121zM1583 309h136v-108h-136v-201h-117v201h-408v71l423 576h102v-539zM1209 309h257v361z" glyph-name="onequarter" horiz-adv-x="1764" unicode="¼"/><glyph d="M464 573h-117v623h-204v91h128q82 0 82 73v61h111v-848zM1228 1413h122l-814 -1413h-121zM1266 107h438v-107h-626v98q57 35 96.5 60.5t100.5 69t102.5 83.5t82.5 88.5t62 100.5t21 104q0 67 -37 107.5t-108 40.5q-84 0 -125 -57t-43 -145l-115 8q0 126 76 213t207 87 q117 0 190 -68.5t73 -188.5q0 -74 -35 -148.5t-94.5 -138t-126 -115t-139.5 -92.5z" glyph-name="onehalf" horiz-adv-x="1764" unicode="½"/><glyph d="M661 819q0 -120 -87.5 -188t-217.5 -68q-133 0 -219.5 71t-86.5 200l112 7q0 -79 54 -124t141 -45q82 0 136 41t54 114q0 39 -15 66.5t-36.5 42.5t-54.5 23.5t-60.5 10t-64.5 1.5v103q101 0 143.5 26.5t42.5 92.5q0 60 -41.5 94.5t-105.5 34.5q-69 0 -111 -38t-43 -102 l-111 7q0 111 75.5 177t187.5 66q109 0 186 -62t77 -163q0 -124 -138 -176q86 -19 134.5 -74.5t48.5 -137.5zM1228 1413h122l-814 -1413h-121zM1583 309h136v-108h-136v-201h-117v201h-408v71l423 576h102v-539zM1209 309h257v361z" glyph-name="threequarters" horiz-adv-x="1764" unicode="¾"/><glyph d="M616 1413v-235h-184v235h184zM598 1009v-159q0 -63 -19 -111t-50 -76.5t-68 -51.5t-74 -44.5t-68 -46.5t-50 -65t-19 -94q0 -116 73.5 -176t205.5 -60q134 0 204 69.5t70 197.5h150q0 -190 -114 -299.5t-304 -109.5q-191 0 -312.5 100.5t-121.5 280.5q0 73 19.5 130 t50.5 92.5t69 63.5t75.5 48.5t68.5 40.5t50.5 48t19.5 64v158h144z" glyph-name="questiondown" horiz-adv-x="1036" unicode="¿"/><glyph d="M610 1526l-276 300h182l221 -300h-127zM50 0l538 1413h140l538 -1413h-191l-118 330h-595l-120 -330h-192zM417 481h485l-243 680z" glyph-name="Agrave" horiz-adv-x="1315" unicode="À"/><glyph d="M574 1539l221 287h181l-275 -287h-127zM50 0l538 1413h140l538 -1413h-191l-118 330h-595l-120 -330h-192zM417 481h485l-243 680z" glyph-name="Aacute" horiz-adv-x="1315" unicode="Á"/><glyph d="M350 1521l306 330l307 -330h-136l-171 182l-169 -182h-137zM50 0l538 1413h140l538 -1413h-191l-118 330h-595l-120 -330h-192zM417 481h485l-243 680z" glyph-name="Acircumflex" horiz-adv-x="1315" unicode="Â"/><glyph d="M792 1547q-45 0 -80.5 17t-58 41.5t-41.5 49t-42 41.5t-50 17q-42 1 -66 -39.5t-24 -113.5h-100q0 123 52 191.5t143 68.5q42 0 76 -17t56 -41.5t42 -49t44 -41.5t51 -17q37 0 60.5 42.5t23.5 115.5h103q0 -124 -51 -194.5t-138 -70.5zM50 0l538 1413h140l538 -1413h-191 l-118 330h-595l-120 -330h-192zM417 481h485l-243 680z" glyph-name="Atilde" horiz-adv-x="1315" unicode="Ã"/><glyph d="M397 1614v212h144v-212h-144zM771 1614v212h144v-212h-144zM50 0l538 1413h140l538 -1413h-191l-118 330h-595l-120 -330h-192zM417 481h485l-243 680z" glyph-name="Adieresis" horiz-adv-x="1315" unicode="Ä"/><glyph d="M655 1499q-86 0 -145.5 61t-59.5 146q0 86 60 145.5t145 59.5t146 -59.5t61 -145.5t-60.5 -146.5t-146.5 -60.5zM655 1593q49 0 81 32.5t32 81.5q0 47 -31.5 78.5t-81.5 31.5q-48 0 -79.5 -31.5t-31.5 -78.5q0 -49 32 -81.5t79 -32.5zM50 0l538 1413h140l538 -1413h-191 l-118 330h-595l-120 -330h-192zM417 481h485l-243 680z" glyph-name="Aring" horiz-adv-x="1315" unicode="Å"/><glyph d="M50 0l534 1413h1241v-156h-746v-474h650v-149h-650v-474h746v-160h-923v330h-543l-117 -330h-192zM414 468h488v796h-206z" glyph-name="AE" horiz-adv-x="1950" unicode="Æ"/><glyph d="M1367 375q-76 -175 -210.5 -274t-316.5 -115l-71 -108q36 -3 62 -10q78 -18 119.5 -64.5t41.5 -115.5q0 -90 -60 -148t-155 -58q-62 0 -116.5 36t-77.5 93l97 41q11 -31 39 -50.5t62 -19.5q50 0 79 27t29 74q0 53 -47 86.5t-129 37.5q-11 0 -38 0.5t-44 0.5l106 176 q-151 6 -270.5 64t-195.5 155.5t-115.5 226t-39.5 278.5q0 155 41.5 286t122 229t207.5 153.5t289 55.5q209 0 359 -99t230 -291l-165 -66q-92 288 -426 288q-159 0 -269.5 -71t-162 -192.5t-51.5 -285.5q0 -122 28 -222.5t84.5 -178t150.5 -120.5t217 -43q159 0 264.5 70 t168.5 221z" glyph-name="Ccedilla" horiz-adv-x="1447" unicode="Ç"/><glyph d="M629 1526l-276 300h182l221 -300h-127zM210 0v1413h929v-162h-753v-461h685v-163h-685v-460h753v-167h-929z" glyph-name="Egrave" horiz-adv-x="1264" unicode="È"/><glyph d="M593 1539l221 287h181l-275 -287h-127zM210 0v1413h929v-162h-753v-461h685v-163h-685v-460h753v-167h-929z" glyph-name="Eacute" horiz-adv-x="1264" unicode="É"/><glyph d="M369 1521l306 330l307 -330h-136l-171 182l-169 -182h-137zM210 0v1413h929v-162h-753v-461h685v-163h-685v-460h753v-167h-929z" glyph-name="Ecircumflex" horiz-adv-x="1264" unicode="Ê"/><glyph d="M416 1614v212h144v-212h-144zM790 1614v212h144v-212h-144zM210 0v1413h929v-162h-753v-461h685v-163h-685v-460h753v-167h-929z" glyph-name="Edieresis" horiz-adv-x="1264" unicode="Ë"/><glyph d="M251 1526l-276 300h182l221 -300h-127zM210 0v1413h176v-1413h-176z" glyph-name="Igrave" horiz-adv-x="597" unicode="Ì"/><glyph d="M215 1539l221 287h181l-275 -287h-127zM210 0v1413h176v-1413h-176z" glyph-name="Iacute" horiz-adv-x="597" unicode="Í"/><glyph d="M-9 1521l306 330l307 -330h-136l-171 182l-169 -182h-137zM210 0v1413h176v-1413h-176z" glyph-name="Icircumflex" horiz-adv-x="597" unicode="Î"/><glyph d="M38 1614v212h144v-212h-144zM412 1614v212h144v-212h-144zM210 0v1413h176v-1413h-176z" glyph-name="Idieresis" horiz-adv-x="597" unicode="Ï"/><glyph d="M601 1413q353 0 539 -185.5t186 -531.5q0 -332 -189 -514t-538 -182h-389v649h-150v116h150v648h391zM582 162q275 0 421.5 132t146.5 409q0 281 -134 414.5t-418 133.5h-212v-486h309v-116h-309v-487h196z" glyph-name="Eth" horiz-adv-x="1440" unicode="Ð"/><glyph d="M581 1713q-42 1 -66 -39.5t-24 -113.5h-100q0 123 52 191.5t143 68.5q42 0 76 -17t56 -41.5t42 -49t44 -41.5t51 -17q37 0 60.5 42.5t23.5 115.5h103q0 -124 -51 -194.5t-138 -70.5q-45 0 -80.5 17t-58 41.5t-41.5 49t-42 41.5t-50 17zM1057 1413h170v-1413h-182 l-665 1127v-1127h-170v1413h180l667 -1124v1124z" glyph-name="Ntilde" horiz-adv-x="1437" unicode="Ñ"/><glyph d="M726 1526l-276 300h182l221 -300h-127zM773 -17q-131 0 -240.5 38.5t-185.5 105.5t-129 159t-78 198t-25 223t25 223t78 197.5t129 158.5t185.5 105.5t240.5 38.5q164 0 292.5 -58.5t208 -159.5t120 -229.5t40.5 -275.5t-40.5 -276t-120 -230t-208 -159.5t-292.5 -58.5z M773 140q99 0 179 30t134.5 81.5t91.5 124t53.5 155t16.5 176.5q0 93 -16.5 175.5t-53.5 155t-91.5 124t-134.5 81.5t-179 30q-122 0 -214.5 -45t-148 -124.5t-83 -179.5t-27.5 -217q0 -118 27.5 -218t83 -179.5t148 -124.5t214.5 -45z" glyph-name="Ograve" horiz-adv-x="1548" unicode="Ò"/><glyph d="M690 1539l221 287h181l-275 -287h-127zM773 -17q-131 0 -240.5 38.5t-185.5 105.5t-129 159t-78 198t-25 223t25 223t78 197.5t129 158.5t185.5 105.5t240.5 38.5q164 0 292.5 -58.5t208 -159.5t120 -229.5t40.5 -275.5t-40.5 -276t-120 -230t-208 -159.5t-292.5 -58.5z M773 140q99 0 179 30t134.5 81.5t91.5 124t53.5 155t16.5 176.5q0 93 -16.5 175.5t-53.5 155t-91.5 124t-134.5 81.5t-179 30q-122 0 -214.5 -45t-148 -124.5t-83 -179.5t-27.5 -217q0 -118 27.5 -218t83 -179.5t148 -124.5t214.5 -45z" glyph-name="Oacute" horiz-adv-x="1548" unicode="Ó"/><glyph d="M466 1521l306 330l307 -330h-136l-171 182l-169 -182h-137zM773 -17q-131 0 -240.5 38.5t-185.5 105.5t-129 159t-78 198t-25 223t25 223t78 197.5t129 158.5t185.5 105.5t240.5 38.5q164 0 292.5 -58.5t208 -159.5t120 -229.5t40.5 -275.5t-40.5 -276t-120 -230 t-208 -159.5t-292.5 -58.5zM773 140q99 0 179 30t134.5 81.5t91.5 124t53.5 155t16.5 176.5q0 93 -16.5 175.5t-53.5 155t-91.5 124t-134.5 81.5t-179 30q-122 0 -214.5 -45t-148 -124.5t-83 -179.5t-27.5 -217q0 -118 27.5 -218t83 -179.5t148 -124.5t214.5 -45z" glyph-name="Ocircumflex" horiz-adv-x="1548" unicode="Ô"/><glyph d="M908 1547q-45 0 -80.5 17t-58 41.5t-41.5 49t-42 41.5t-50 17q-42 1 -66 -39.5t-24 -113.5h-100q0 123 52 191.5t143 68.5q42 0 76 -17t56 -41.5t42 -49t44 -41.5t51 -17q37 0 60.5 42.5t23.5 115.5h103q0 -124 -51 -194.5t-138 -70.5zM773 -17q-131 0 -240.5 38.5 t-185.5 105.5t-129 159t-78 198t-25 223t25 223t78 197.5t129 158.5t185.5 105.5t240.5 38.5q164 0 292.5 -58.5t208 -159.5t120 -229.5t40.5 -275.5t-40.5 -276t-120 -230t-208 -159.5t-292.5 -58.5zM773 140q99 0 179 30t134.5 81.5t91.5 124t53.5 155t16.5 176.5 q0 93 -16.5 175.5t-53.5 155t-91.5 124t-134.5 81.5t-179 30q-122 0 -214.5 -45t-148 -124.5t-83 -179.5t-27.5 -217q0 -118 27.5 -218t83 -179.5t148 -124.5t214.5 -45z" glyph-name="Otilde" horiz-adv-x="1548" unicode="Õ"/><glyph d="M513 1614v212h144v-212h-144zM887 1614v212h144v-212h-144zM773 -17q-131 0 -240.5 38.5t-185.5 105.5t-129 159t-78 198t-25 223t25 223t78 197.5t129 158.5t185.5 105.5t240.5 38.5q164 0 292.5 -58.5t208 -159.5t120 -229.5t40.5 -275.5t-40.5 -276t-120 -230 t-208 -159.5t-292.5 -58.5zM773 140q99 0 179 30t134.5 81.5t91.5 124t53.5 155t16.5 176.5q0 93 -16.5 175.5t-53.5 155t-91.5 124t-134.5 81.5t-179 30q-122 0 -214.5 -45t-148 -124.5t-83 -179.5t-27.5 -217q0 -118 27.5 -218t83 -179.5t148 -124.5t214.5 -45z" glyph-name="Odieresis" horiz-adv-x="1548" unicode="Ö"/><glyph d="M866 216l-318 317l-317 -317l-92 92l317 317l-317 318l92 92l317 -318l317 317l92 -92l-317 -317l318 -317z" glyph-name="multiply" horiz-adv-x="1096" unicode="×"/><glyph d="M1196 1290q118 -98 178 -250.5t60 -332.5q0 -147 -40.5 -276t-120 -230t-208 -159.5t-292.5 -58.5q-190 0 -333 80l-39 -63h-129l77 125q-116 99 -175 251t-59 331q0 117 25 223t78 197.5t129 158.5t185.5 105.5t240.5 38.5q190 0 332 -78l38 61h129zM300 707 q0 -281 140 -434l579 939q-103 61 -246 61q-122 0 -214.5 -45t-148 -124.5t-83 -179.5t-27.5 -217zM773 140q99 0 179 30t134.5 81.5t91.5 124t53.5 155t16.5 176.5q0 283 -143 435l-579 -939q104 -63 247 -63z" glyph-name="Oslash" horiz-adv-x="1548" unicode="Ø"/><glyph d="M649 1526l-276 300h182l221 -300h-127zM696 -17q-259 0 -387.5 145t-128.5 409v876h176v-857q0 -200 80 -301t260 -101q181 0 261.5 101.5t80.5 304.5v853h176v-866q0 -269 -129 -416.5t-389 -147.5z" glyph-name="Ugrave" horiz-adv-x="1394" unicode="Ù"/><glyph d="M613 1539l221 287h181l-275 -287h-127zM696 -17q-259 0 -387.5 145t-128.5 409v876h176v-857q0 -200 80 -301t260 -101q181 0 261.5 101.5t80.5 304.5v853h176v-866q0 -269 -129 -416.5t-389 -147.5z" glyph-name="Uacute" horiz-adv-x="1394" unicode="Ú"/><glyph d="M389 1521l306 330l307 -330h-136l-171 182l-169 -182h-137zM696 -17q-259 0 -387.5 145t-128.5 409v876h176v-857q0 -200 80 -301t260 -101q181 0 261.5 101.5t80.5 304.5v853h176v-866q0 -269 -129 -416.5t-389 -147.5z" glyph-name="Ucircumflex" horiz-adv-x="1394" unicode="Û"/><glyph d="M436 1614v212h144v-212h-144zM810 1614v212h144v-212h-144zM696 -17q-259 0 -387.5 145t-128.5 409v876h176v-857q0 -200 80 -301t260 -101q181 0 261.5 101.5t80.5 304.5v853h176v-866q0 -269 -129 -416.5t-389 -147.5z" glyph-name="Udieresis" horiz-adv-x="1394" unicode="Ü"/><glyph d="M578 1540l221 287h181l-275 -287h-127zM571 0v543l-535 870h213l412 -699l414 699h214l-535 -870v-543h-183z" glyph-name="Yacute" horiz-adv-x="1325" unicode="Ý"/><glyph d="M210 0v1413h161v-201h275q211 0 325.5 -105t114.5 -288q0 -198 -128 -303t-348 -105h-239v-411h-161zM371 558h239q156 0 235.5 65t79.5 190t-80.5 192.5t-234.5 67.5h-239v-515z" glyph-name="Thorn" horiz-adv-x="1166" unicode="Þ"/><glyph d="M727 -16q-107 0 -230 49l59 145q90 -39 167 -39q88 0 140 48t52 127q0 45 -22.5 86t-56 70.5t-72.5 63t-72.5 64.5t-56 74.5t-22.5 92.5q0 51 23 88.5t55.5 61t64.5 45t55 54t23 74.5q0 85 -66.5 140.5t-176.5 55.5q-254 0 -254 -331v-953h-168v953q0 228 114.5 352.5 t298.5 124.5q110 0 205 -43t155 -125t60 -185q0 -62 -24 -108.5t-58 -72.5t-68 -46t-58 -42.5t-24 -49.5q0 -26 23.5 -53.5t58.5 -50.5t75.5 -56.5t75.5 -69.5t58.5 -92t23.5 -121q0 -147 -100.5 -239t-257.5 -92z" glyph-name="germandbls" horiz-adv-x="1197" unicode="ß"/><glyph d="M592 1113h-127l-276 300h182zM515 1016q194 0 302 -109.5t108 -297.5v-609h-141l-11 178q-51 -94 -145 -144.5t-201 -50.5q-156 0 -253.5 83.5t-97.5 229.5q0 286 412 286h283q-1 150 -58 218t-196 68q-171 0 -272 -156l-130 94q76 104 172 157t228 53zM460 128 q122 0 203.5 73.5t107.5 191.5v65h-273q-123 0 -185.5 -45t-62.5 -123q0 -74 55 -118t155 -44z" glyph-name="agrave" horiz-adv-x="1064" unicode="à"/><glyph d="M831 1413l-275 -287h-127l221 287h181zM515 1016q194 0 302 -109.5t108 -297.5v-609h-141l-11 178q-51 -94 -145 -144.5t-201 -50.5q-156 0 -253.5 83.5t-97.5 229.5q0 286 412 286h283q-1 150 -58 218t-196 68q-171 0 -272 -156l-130 94q76 104 172 157t228 53zM460 128 q122 0 203.5 73.5t107.5 191.5v65h-273q-123 0 -185.5 -45t-62.5 -123q0 -74 55 -118t155 -44z" glyph-name="aacute" horiz-adv-x="1064" unicode="á"/><glyph d="M511 1290l-169 -182h-137l306 330l307 -330h-136zM515 1016q194 0 302 -109.5t108 -297.5v-609h-141l-11 178q-51 -94 -145 -144.5t-201 -50.5q-156 0 -253.5 83.5t-97.5 229.5q0 286 412 286h283q-1 150 -58 218t-196 68q-171 0 -272 -156l-130 94q76 104 172 157 t228 53zM460 128q122 0 203.5 73.5t107.5 191.5v65h-273q-123 0 -185.5 -45t-62.5 -123q0 -74 55 -118t155 -44z" glyph-name="acircumflex" horiz-adv-x="1064" unicode="â"/><glyph d="M375 1300q-42 1 -66 -39.5t-24 -113.5h-100q0 123 52 191.5t143 68.5q42 0 76 -17t56 -41.5t42 -49t44 -41.5t51 -17q37 0 60.5 42.5t23.5 115.5h103q0 -124 -51 -194.5t-138 -70.5q-45 0 -80.5 17t-58 41.5t-41.5 49t-42 41.5t-50 17zM515 1016q194 0 302 -109.5 t108 -297.5v-609h-141l-11 178q-51 -94 -145 -144.5t-201 -50.5q-156 0 -253.5 83.5t-97.5 229.5q0 286 412 286h283q-1 150 -58 218t-196 68q-171 0 -272 -156l-130 94q76 104 172 157t228 53zM460 128q122 0 203.5 73.5t107.5 191.5v65h-273q-123 0 -185.5 -45t-62.5 -123 q0 -74 55 -118t155 -44z" glyph-name="atilde" horiz-adv-x="1064" unicode="ã"/><glyph d="M396 1413v-212h-144v212h144zM770 1413v-212h-144v212h144zM515 1016q194 0 302 -109.5t108 -297.5v-609h-141l-11 178q-51 -94 -145 -144.5t-201 -50.5q-156 0 -253.5 83.5t-97.5 229.5q0 286 412 286h283q-1 150 -58 218t-196 68q-171 0 -272 -156l-130 94 q76 104 172 157t228 53zM460 128q122 0 203.5 73.5t107.5 191.5v65h-273q-123 0 -185.5 -45t-62.5 -123q0 -74 55 -118t155 -44z" glyph-name="adieresis" horiz-adv-x="1064" unicode="ä"/><glyph d="M510 1086q-86 0 -145.5 61t-59.5 146t59.5 145t145.5 60q85 0 146 -59.5t61 -145.5t-60.5 -146.5t-146.5 -60.5zM510 1404q-48 0 -79.5 -31.5t-31.5 -78.5q0 -49 32 -81.5t79 -32.5q49 0 81 32.5t32 81.5q0 47 -31.5 78.5t-81.5 31.5zM515 1016q194 0 302 -109.5 t108 -297.5v-609h-141l-11 178q-51 -94 -145 -144.5t-201 -50.5q-156 0 -253.5 83.5t-97.5 229.5q0 286 412 286h283q-1 150 -58 218t-196 68q-171 0 -272 -156l-130 94q76 104 172 157t228 53zM460 128q122 0 203.5 73.5t107.5 191.5v65h-273q-123 0 -185.5 -45t-62.5 -123 q0 -74 55 -118t155 -44z" glyph-name="aring" horiz-adv-x="1064" unicode="å"/><glyph d="M415 -17q-148 0 -246.5 83.5t-98.5 219.5q0 287 413 287h281q0 38 -7 80q-11 110 -73 163t-180 53q-169 0 -271 -146l-120 87q75 105 170.5 154.5t226.5 49.5t220.5 -59t127.5 -169q52 106 139 165.5t205 59.5q95 0 171 -28.5t124.5 -75.5t80.5 -111t45.5 -130.5 t13.5 -138.5q0 -51 -9 -78h-703q6 -144 77.5 -226.5t202.5 -82.5q91 0 154.5 26.5t125.5 90.5l119 -103q-87 -89 -181 -127.5t-217 -38.5q-134 0 -229.5 57t-143.5 159q-71 -107 -168.5 -164t-249.5 -57zM924 573h545q1 35 -5 69q-14 96 -83.5 161t-191.5 65 q-120 0 -191 -84t-74 -211zM441 110q115 0 197 52t143 157q-15 60 -17 130h-272q-128 0 -195.5 -41t-67.5 -121q0 -79 58 -128t154 -49z" glyph-name="ae" horiz-adv-x="1719" unicode="æ"/><glyph d="M543 137q89 0 155 50.5t93 136.5l154 -58q-43 -124 -137.5 -197.5t-221.5 -83.5l-71 -107q36 -3 62 -10q78 -18 119.5 -64.5t41.5 -115.5q0 -90 -60 -148t-155 -58q-62 0 -116.5 36t-77.5 93l97 41q11 -31 39 -50.5t62 -19.5q50 0 79 27t29 74q0 53 -47 86.5t-129 37.5 q-11 0 -38 0.5t-44 0.5l107 178q-189 22 -294.5 166t-105.5 346q0 80 17.5 154.5t55 141t91 116t129.5 78t166 28.5q142 0 249.5 -71.5t162.5 -209.5l-161 -63q-30 88 -96.5 139t-154.5 51q-72 0 -128.5 -30.5t-90.5 -82.5t-51 -116t-17 -135q0 -153 73 -257t214 -104z" glyph-name="ccedilla" horiz-adv-x="1012" unicode="ç"/><glyph d="M485 1113l-276 300h182l221 -300h-127zM564 -17q-115 0 -207.5 40.5t-151 110.5t-89.5 162t-31 199q0 105 29.5 198t86 165.5t146 115t200.5 42.5q97 0 174.5 -30t127 -77.5t82.5 -111.5t46.5 -127.5t13.5 -128.5q0 -62 -8 -92h-719q10 -147 86.5 -229.5t214.5 -82.5 q84 0 149 27.5t126 92.5l118 -103q-83 -89 -177.5 -130t-216.5 -41zM264 573h559q0 43 -4 63q-14 101 -84 169t-189 68q-123 0 -195 -81.5t-87 -218.5z" glyph-name="egrave" horiz-adv-x="1072" unicode="è"/><glyph d="M449 1126l221 287h181l-275 -287h-127zM564 -17q-115 0 -207.5 40.5t-151 110.5t-89.5 162t-31 199q0 105 29.5 198t86 165.5t146 115t200.5 42.5q97 0 174.5 -30t127 -77.5t82.5 -111.5t46.5 -127.5t13.5 -128.5q0 -62 -8 -92h-719q10 -147 86.5 -229.5t214.5 -82.5 q84 0 149 27.5t126 92.5l118 -103q-83 -89 -177.5 -130t-216.5 -41zM264 573h559q0 43 -4 63q-14 101 -84 169t-189 68q-123 0 -195 -81.5t-87 -218.5z" glyph-name="eacute" horiz-adv-x="1072" unicode="é"/><glyph d="M225 1108l306 330l307 -330h-136l-171 182l-169 -182h-137zM564 -17q-115 0 -207.5 40.5t-151 110.5t-89.5 162t-31 199q0 105 29.5 198t86 165.5t146 115t200.5 42.5q97 0 174.5 -30t127 -77.5t82.5 -111.5t46.5 -127.5t13.5 -128.5q0 -62 -8 -92h-719 q10 -147 86.5 -229.5t214.5 -82.5q84 0 149 27.5t126 92.5l118 -103q-83 -89 -177.5 -130t-216.5 -41zM264 573h559q0 43 -4 63q-14 101 -84 169t-189 68q-123 0 -195 -81.5t-87 -218.5z" glyph-name="ecircumflex" horiz-adv-x="1072" unicode="ê"/><glyph d="M272 1201v212h144v-212h-144zM646 1201v212h144v-212h-144zM564 -17q-115 0 -207.5 40.5t-151 110.5t-89.5 162t-31 199q0 105 29.5 198t86 165.5t146 115t200.5 42.5q97 0 174.5 -30t127 -77.5t82.5 -111.5t46.5 -127.5t13.5 -128.5q0 -62 -8 -92h-719 q10 -147 86.5 -229.5t214.5 -82.5q84 0 149 27.5t126 92.5l118 -103q-83 -89 -177.5 -130t-216.5 -41zM264 573h559q0 43 -4 63q-14 101 -84 169t-189 68q-123 0 -195 -81.5t-87 -218.5z" glyph-name="edieresis" horiz-adv-x="1072" unicode="ë"/><glyph d="M206 1113l-276 300h182l221 -300h-127zM168 0v999h169v-999h-169z" glyph-name="igrave" horiz-adv-x="505" unicode="ì"/><glyph d="M170 1126l221 287h181l-275 -287h-127zM168 0v999h169v-999h-169z" glyph-name="iacute" horiz-adv-x="505" unicode="í"/><glyph d="M-54 1108l306 330l307 -330h-136l-171 182l-169 -182h-137zM168 0v999h169v-999h-169z" glyph-name="icircumflex" horiz-adv-x="505" unicode="î"/><glyph d="M-7 1201v212h144v-212h-144zM367 1201v212h144v-212h-144zM168 0v999h169v-999h-169z" glyph-name="idieresis" horiz-adv-x="505" unicode="ï"/><glyph d="M563 -17q-103 0 -195 39t-156.5 104t-102.5 152.5t-38 182.5q0 129 66.5 236t179 167t244.5 60q68 0 120 -39l-151 249l-90 -102h-96l146 165l-137 216h187l61 -95l80 95h96l-133 -150l336 -563q73 -118 73 -244q0 -196 -143.5 -334.5t-346.5 -138.5zM561 148 q132 0 226 91t94 221q0 128 -94 219.5t-226 91.5q-131 0 -224.5 -91.5t-93.5 -219.5q0 -129 93.5 -220.5t224.5 -91.5z" glyph-name="eth" horiz-adv-x="1160" unicode="ð"/><glyph d="M710 1134q-45 0 -80.5 17t-58 41.5t-41.5 49t-42 41.5t-50 17q-42 1 -66 -39.5t-24 -113.5h-100q0 123 52 191.5t143 68.5q42 0 76 -17t56 -41.5t42 -49t44 -41.5t51 -17q37 0 60.5 42.5t23.5 115.5h103q0 -124 -51 -194.5t-138 -70.5zM168 0v999h169v-152q50 83 131 126 t175 43q88 0 156.5 -31t110.5 -86t63.5 -125t22.5 -152v-622h-169v591q0 126 -59 197t-171 71q-122 0 -191 -72.5t-69 -210.5v-576h-169z" glyph-name="ntilde" horiz-adv-x="1137" unicode="ñ"/><glyph d="M524 1113l-276 300h182l221 -300h-127zM570 -17q-143 0 -256.5 70t-174.5 188t-61 261q0 106 36 200t99.5 163.5t156 110t200.5 40.5q143 0 257 -69t175.5 -186.5t61.5 -258.5q0 -143 -61.5 -261t-175.5 -188t-257 -70zM570 130q100 0 173.5 51.5t109 134.5t35.5 186 q0 158 -84.5 262.5t-233.5 104.5q-148 0 -232 -104.5t-84 -262.5q0 -159 84 -265.5t232 -106.5z" glyph-name="ograve" horiz-adv-x="1143" unicode="ò"/><glyph d="M488 1126l221 287h181l-275 -287h-127zM570 -17q-143 0 -256.5 70t-174.5 188t-61 261q0 106 36 200t99.5 163.5t156 110t200.5 40.5q143 0 257 -69t175.5 -186.5t61.5 -258.5q0 -143 -61.5 -261t-175.5 -188t-257 -70zM570 130q100 0 173.5 51.5t109 134.5t35.5 186 q0 158 -84.5 262.5t-233.5 104.5q-148 0 -232 -104.5t-84 -262.5q0 -159 84 -265.5t232 -106.5z" glyph-name="oacute" horiz-adv-x="1143" unicode="ó"/><glyph d="M264 1108l306 330l307 -330h-136l-171 182l-169 -182h-137zM570 -17q-143 0 -256.5 70t-174.5 188t-61 261q0 106 36 200t99.5 163.5t156 110t200.5 40.5q143 0 257 -69t175.5 -186.5t61.5 -258.5q0 -143 -61.5 -261t-175.5 -188t-257 -70zM570 130q100 0 173.5 51.5 t109 134.5t35.5 186q0 158 -84.5 262.5t-233.5 104.5q-148 0 -232 -104.5t-84 -262.5q0 -159 84 -265.5t232 -106.5z" glyph-name="ocircumflex" horiz-adv-x="1143" unicode="ô"/><glyph d="M706 1134q-45 0 -80.5 17t-58 41.5t-41.5 49t-42 41.5t-50 17q-42 1 -66 -39.5t-24 -113.5h-100q0 123 52 191.5t143 68.5q42 0 76 -17t56 -41.5t42 -49t44 -41.5t51 -17q37 0 60.5 42.5t23.5 115.5h103q0 -124 -51 -194.5t-138 -70.5zM570 -17q-143 0 -256.5 70 t-174.5 188t-61 261q0 106 36 200t99.5 163.5t156 110t200.5 40.5q143 0 257 -69t175.5 -186.5t61.5 -258.5q0 -143 -61.5 -261t-175.5 -188t-257 -70zM570 130q100 0 173.5 51.5t109 134.5t35.5 186q0 158 -84.5 262.5t-233.5 104.5q-148 0 -232 -104.5t-84 -262.5 q0 -159 84 -265.5t232 -106.5z" glyph-name="otilde" horiz-adv-x="1143" unicode="õ"/><glyph d="M311 1201v212h144v-212h-144zM685 1201v212h144v-212h-144zM570 -17q-143 0 -256.5 70t-174.5 188t-61 261q0 106 36 200t99.5 163.5t156 110t200.5 40.5q143 0 257 -69t175.5 -186.5t61.5 -258.5q0 -143 -61.5 -261t-175.5 -188t-257 -70zM570 130q100 0 173.5 51.5 t109 134.5t35.5 186q0 158 -84.5 262.5t-233.5 104.5q-148 0 -232 -104.5t-84 -262.5q0 -159 84 -265.5t232 -106.5z" glyph-name="odieresis" horiz-adv-x="1143" unicode="ö"/><glyph d="M407 862v235h184v-235h-184zM115 564v130h768v-130h-768zM407 143v235h184v-235h-184z" glyph-name="divide" horiz-adv-x="1004" unicode="÷"/><glyph d="M872 915q91 -70 141.5 -178.5t50.5 -234.5q0 -143 -61.5 -261t-175.5 -188t-257 -70q-130 0 -236 59l-26 -42h-91l52 84q-90 72 -140.5 181t-50.5 237q0 106 36 200t99.5 163.5t156 110t200.5 40.5q130 0 238 -58l25 41h91zM254 502q0 -178 98 -282l376 609 q-70 40 -158 40q-148 0 -232 -104.5t-84 -262.5zM570 130q100 0 173.5 51.5t109 134.5t35.5 186q0 176 -99 278l-376 -609q69 -41 157 -41z" glyph-name="oslash" horiz-adv-x="1143" unicode="ø"/><glyph d="M520 1113l-276 300h182l221 -300h-127zM493 -17q-88 0 -156.5 31.5t-110 86.5t-63 125t-22.5 152v621h168v-591q0 -126 59 -197t171 -71q122 0 191.5 72.5t69.5 210.5v576h168v-999h-168v152q-49 -83 -131 -126t-176 -43z" glyph-name="ugrave" horiz-adv-x="1136" unicode="ù"/><glyph d="M484 1126l221 287h181l-275 -287h-127zM493 -17q-88 0 -156.5 31.5t-110 86.5t-63 125t-22.5 152v621h168v-591q0 -126 59 -197t171 -71q122 0 191.5 72.5t69.5 210.5v576h168v-999h-168v152q-49 -83 -131 -126t-176 -43z" glyph-name="uacute" horiz-adv-x="1136" unicode="ú"/><glyph d="M260 1108l306 330l307 -330h-136l-171 182l-169 -182h-137zM493 -17q-88 0 -156.5 31.5t-110 86.5t-63 125t-22.5 152v621h168v-591q0 -126 59 -197t171 -71q122 0 191.5 72.5t69.5 210.5v576h168v-999h-168v152q-49 -83 -131 -126t-176 -43z" glyph-name="ucircumflex" horiz-adv-x="1136" unicode="û"/><glyph d="M307 1201v212h144v-212h-144zM681 1201v212h144v-212h-144zM493 -17q-88 0 -156.5 31.5t-110 86.5t-63 125t-22.5 152v621h168v-591q0 -126 59 -197t171 -71q122 0 191.5 72.5t69.5 210.5v576h168v-999h-168v152q-49 -83 -131 -126t-176 -43z" glyph-name="udieresis" horiz-adv-x="1136" unicode="ü"/><glyph d="M426 1126l221 287h181l-275 -287h-127zM260 -429l175 446l-414 982h187l317 -786l290 786h186l-556 -1428h-185z" glyph-name="yacute" horiz-adv-x="1024" unicode="ý"/><glyph d="M679 1016q131 0 229 -71t146.5 -187t48.5 -259t-48.5 -258.5t-147 -186.5t-231.5 -71q-107 0 -195 51.5t-136 145.5v-594h-175v1827h175v-594q48 93 137.5 145t196.5 52zM638 859q-143 0 -225.5 -100.5t-82.5 -259.5q0 -158 82.5 -260t225.5 -102q141 0 218 101.5 t77 260.5t-77 259.5t-218 100.5z" glyph-name="thorn" horiz-adv-x="1191" unicode="þ"/><glyph d="M249 1201v212h144v-212h-144zM623 1201v212h144v-212h-144zM260 -429l175 446l-414 982h187l317 -786l290 786h186l-556 -1428h-185z" glyph-name="ydieresis" horiz-adv-x="1024" unicode="ÿ"/><glyph d="M381 1608v103h552v-103h-552zM50 0l538 1413h140l538 -1413h-191l-118 330h-595l-120 -330h-192zM417 481h485l-243 680z" glyph-name="Amacron" horiz-adv-x="1315" unicode="Ā"/><glyph d="M788 1298v-103h-552v103h552zM515 1016q194 0 302 -109.5t108 -297.5v-609h-141l-11 178q-51 -94 -145 -144.5t-201 -50.5q-156 0 -253.5 83.5t-97.5 229.5q0 286 412 286h283q-1 150 -58 218t-196 68q-171 0 -272 -156l-130 94q76 104 172 157t228 53zM460 128 q122 0 203.5 73.5t107.5 191.5v65h-273q-123 0 -185.5 -45t-62.5 -123q0 -74 55 -118t155 -44z" glyph-name="amacron" horiz-adv-x="1064" unicode="ā"/><glyph d="M657 1559q-308 0 -308 267h121q0 -80 50 -122t137 -42q88 0 137.5 42t49.5 122h121q0 -132 -78 -199.5t-230 -67.5zM50 0l538 1413h140l538 -1413h-191l-118 330h-595l-120 -330h-192zM417 481h485l-243 680z" glyph-name="Abreve" horiz-adv-x="1315" unicode="Ă"/><glyph d="M512 1146q-308 0 -308 267h121q0 -80 50 -122t137 -42q88 0 137.5 42t49.5 122h121q0 -132 -78 -199.5t-230 -67.5zM515 1016q194 0 302 -109.5t108 -297.5v-609h-141l-11 178q-51 -94 -145 -144.5t-201 -50.5q-156 0 -253.5 83.5t-97.5 229.5q0 286 412 286h283 q-1 150 -58 218t-196 68q-171 0 -272 -156l-130 94q76 104 172 157t228 53zM460 128q122 0 203.5 73.5t107.5 191.5v65h-273q-123 0 -185.5 -45t-62.5 -123q0 -74 55 -118t155 -44z" glyph-name="abreve" horiz-adv-x="1064" unicode="ă"/><glyph d="M1266 -274l87 -60q-81 -120 -217 -120q-95 0 -154 53t-59 142q0 51 21.5 98t54.5 78.5t64.5 52.5t58.5 30h-47l-118 330h-595l-120 -330h-192l538 1413h140l538 -1413q-26 -7 -55.5 -20.5t-62.5 -36t-59.5 -48.5t-44 -61t-17.5 -72q0 -109 105 -109q82 0 134 73zM417 481 h485l-243 680z" glyph-name="Aogonek" horiz-adv-x="1315" unicode="Ą"/><glyph d="M925 -274l87 -60q-81 -120 -217 -120q-95 0 -154 53t-59 142q0 52 22.5 99.5t56 79.5t65.5 52.5t58 28.5l-11 177q-51 -94 -145 -144.5t-201 -50.5q-156 0 -253.5 83.5t-97.5 229.5q0 286 412 286h283q-1 150 -58 218t-196 68q-171 0 -272 -156l-130 94q76 104 172 157 t228 53q194 0 302 -109.5t108 -297.5v-609q-26 -7 -55.5 -20.5t-62.5 -36t-59.5 -48.5t-44 -61t-17.5 -72q0 -109 105 -109q82 0 134 73zM460 128q122 0 203.5 73.5t107.5 191.5v65h-273q-123 0 -185.5 -45t-62.5 -123q0 -74 55 -118t155 -44z" glyph-name="aogonek" horiz-adv-x="1064" unicode="ą"/><glyph d="M642 1539l221 287h181l-275 -287h-127zM771 -17q-128 0 -235 36t-184 101.5t-130.5 156t-79.5 199.5t-26 232q0 155 41.5 286t122 229t207.5 153.5t289 55.5q209 0 359 -99t230 -291l-165 -66q-92 288 -426 288q-159 0 -269.5 -71t-162 -192.5t-51.5 -285.5 q0 -122 28 -222.5t84.5 -178t150.5 -120.5t217 -43q159 0 264.5 70t168.5 221l163 -67q-83 -192 -235.5 -292t-360.5 -100z" glyph-name="Cacute" horiz-adv-x="1447" unicode="Ć"/><glyph d="M460 1126l221 287h181l-275 -287h-127zM545 -17q-109 0 -198 41.5t-145.5 112.5t-87 163.5t-30.5 197.5q0 80 17.5 154.5t55 141t91 116t129.5 78t166 28.5q142 0 249.5 -71.5t162.5 -209.5l-161 -63q-30 88 -96.5 139t-154.5 51q-72 0 -128.5 -30.5t-90.5 -82.5 t-51 -116t-17 -135q0 -153 73 -257t214 -104q89 0 155 50.5t93 136.5l154 -58q-47 -134 -152.5 -208.5t-247.5 -74.5z" glyph-name="cacute" horiz-adv-x="1012" unicode="ć"/><glyph d="M635 1614v212h178v-212h-178zM771 -17q-128 0 -235 36t-184 101.5t-130.5 156t-79.5 199.5t-26 232q0 155 41.5 286t122 229t207.5 153.5t289 55.5q209 0 359 -99t230 -291l-165 -66q-92 288 -426 288q-159 0 -269.5 -71t-162 -192.5t-51.5 -285.5q0 -122 28 -222.5 t84.5 -178t150.5 -120.5t217 -43q159 0 264.5 70t168.5 221l163 -67q-83 -192 -235.5 -292t-360.5 -100z" glyph-name="Cdotaccent" horiz-adv-x="1447" unicode="Ċ"/><glyph d="M453 1201v212h178v-212h-178zM545 -17q-109 0 -198 41.5t-145.5 112.5t-87 163.5t-30.5 197.5q0 80 17.5 154.5t55 141t91 116t129.5 78t166 28.5q142 0 249.5 -71.5t162.5 -209.5l-161 -63q-30 88 -96.5 139t-154.5 51q-72 0 -128.5 -30.5t-90.5 -82.5t-51 -116 t-17 -135q0 -153 73 -257t214 -104q89 0 155 50.5t93 136.5l154 -58q-47 -134 -152.5 -208.5t-247.5 -74.5z" glyph-name="cdotaccent" horiz-adv-x="1012" unicode="ċ"/><glyph d="M724 1510l-306 316h136l170 -175l170 175h137zM771 -17q-128 0 -235 36t-184 101.5t-130.5 156t-79.5 199.5t-26 232q0 155 41.5 286t122 229t207.5 153.5t289 55.5q209 0 359 -99t230 -291l-165 -66q-92 288 -426 288q-159 0 -269.5 -71t-162 -192.5t-51.5 -285.5 q0 -122 28 -222.5t84.5 -178t150.5 -120.5t217 -43q159 0 264.5 70t168.5 221l163 -67q-83 -192 -235.5 -292t-360.5 -100z" glyph-name="Ccaron" horiz-adv-x="1447" unicode="Č"/><glyph d="M542 1097l-306 316h136l170 -175l170 175h137zM545 -17q-109 0 -198 41.5t-145.5 112.5t-87 163.5t-30.5 197.5q0 80 17.5 154.5t55 141t91 116t129.5 78t166 28.5q142 0 249.5 -71.5t162.5 -209.5l-161 -63q-30 88 -96.5 139t-154.5 51q-72 0 -128.5 -30.5t-90.5 -82.5 t-51 -116t-17 -135q0 -153 73 -257t214 -104q89 0 155 50.5t93 136.5l154 -58q-47 -134 -152.5 -208.5t-247.5 -74.5z" glyph-name="ccaron" horiz-adv-x="1012" unicode="č"/><glyph d="M736 1510l-306 316h136l170 -175l170 175h137zM210 0v1413h391q353 0 539 -185.5t186 -531.5q0 -332 -189 -514t-538 -182h-389zM386 162h196q275 0 421.5 132t146.5 409q0 281 -134 414.5t-418 133.5h-212v-1089z" glyph-name="Dcaron" horiz-adv-x="1440" unicode="Ď"/><glyph d="M527 -17q-133 0 -235 71t-154 187.5t-52 258.5q0 141 52 258t153 187.5t233 70.5q107 0 196.5 -52t137.5 -145v594h172v-1413h-158l-7 189q-48 -98 -138.5 -152t-199.5 -54zM1135 982l117 431h178l-192 -431h-103zM567 137q142 0 223.5 102t81.5 261q0 158 -81.5 260 t-223.5 102q-143 0 -226 -102.5t-83 -259.5q0 -158 83 -260.5t226 -102.5z" glyph-name="dcaron" horiz-adv-x="1200" unicode="ď"/><glyph d="M601 1413q353 0 539 -185.5t186 -531.5q0 -332 -189 -514t-538 -182h-389v649h-150v116h150v648h391zM582 162q275 0 421.5 132t146.5 409q0 281 -134 414.5t-418 133.5h-212v-486h309v-116h-309v-487h196z" glyph-name="Dcroat" horiz-adv-x="1440" unicode="Đ"/><glyph d="M1164 1277v-116h-134v-1161h-158l-7 189q-48 -98 -138.5 -152t-199.5 -54q-133 0 -235 71t-154 187.5t-52 258.5q0 141 52 258t153 187.5t233 70.5q107 0 196.5 -52t137.5 -145v342h-329v116h329v136h172v-136h134zM567 137q142 0 223.5 102t81.5 261q0 158 -81.5 260 t-223.5 102q-143 0 -226 -102.5t-83 -259.5q0 -158 83 -260.5t226 -102.5z" glyph-name="dcroat" horiz-adv-x="1200" unicode="đ"/><glyph d="M400 1608v103h552v-103h-552zM210 0v1413h929v-162h-753v-461h685v-163h-685v-460h753v-167h-929z" glyph-name="Emacron" horiz-adv-x="1264" unicode="Ē"/><glyph d="M256 1195v103h552v-103h-552zM564 -17q-115 0 -207.5 40.5t-151 110.5t-89.5 162t-31 199q0 105 29.5 198t86 165.5t146 115t200.5 42.5q97 0 174.5 -30t127 -77.5t82.5 -111.5t46.5 -127.5t13.5 -128.5q0 -62 -8 -92h-719q10 -147 86.5 -229.5t214.5 -82.5 q84 0 149 27.5t126 92.5l118 -103q-83 -89 -177.5 -130t-216.5 -41zM264 573h559q0 43 -4 63q-14 101 -84 169t-189 68q-123 0 -195 -81.5t-87 -218.5z" glyph-name="emacron" horiz-adv-x="1072" unicode="ē"/><glyph d="M586 1614v212h178v-212h-178zM210 0v1413h929v-162h-753v-461h685v-163h-685v-460h753v-167h-929z" glyph-name="Edotaccent" horiz-adv-x="1264" unicode="Ė"/><glyph d="M442 1201v212h178v-212h-178zM564 -17q-115 0 -207.5 40.5t-151 110.5t-89.5 162t-31 199q0 105 29.5 198t86 165.5t146 115t200.5 42.5q97 0 174.5 -30t127 -77.5t82.5 -111.5t46.5 -127.5t13.5 -128.5q0 -62 -8 -92h-719q10 -147 86.5 -229.5t214.5 -82.5 q84 0 149 27.5t126 92.5l118 -103q-83 -89 -177.5 -130t-216.5 -41zM264 573h559q0 43 -4 63q-14 101 -84 169t-189 68q-123 0 -195 -81.5t-87 -218.5z" glyph-name="edotaccent" horiz-adv-x="1072" unicode="ė"/><glyph d="M1139 -274l87 -60q-81 -120 -217 -120q-95 0 -154 53t-59 142q0 51 21.5 98t54.5 78.5t64.5 52.5t58.5 30h-785v1413h929v-162h-753v-461h685v-163h-685v-460h753v-167q-26 -7 -55.5 -20.5t-62.5 -36t-59.5 -48.5t-44 -61t-17.5 -72q0 -109 105 -109q82 0 134 73z" glyph-name="Eogonek" horiz-adv-x="1264" unicode="Ę"/><glyph d="M991 541q0 -62 -8 -92h-719q10 -147 86.5 -229.5t214.5 -82.5q84 0 149 27.5t126 92.5l118 -103q-107 -115 -236 -151q-61 -36 -101.5 -86t-40.5 -109q0 -109 105 -109q82 0 134 73l87 -60q-81 -120 -217 -120q-95 0 -154 53t-59 142q0 110 97 196h-9q-115 0 -207.5 40.5 t-151 110.5t-89.5 162t-31 199q0 105 29.5 198t86 165.5t146 115t200.5 42.5q97 0 174.5 -30t127 -77.5t82.5 -111.5t46.5 -127.5t13.5 -128.5zM264 573h559q0 43 -4 63q-14 101 -84 169t-189 68q-123 0 -195 -81.5t-87 -218.5z" glyph-name="eogonek" horiz-adv-x="1072" unicode="ę"/><glyph d="M675 1510l-306 316h136l170 -175l170 175h137zM210 0v1413h929v-162h-753v-461h685v-163h-685v-460h753v-167h-929z" glyph-name="Ecaron" horiz-adv-x="1264" unicode="Ě"/><glyph d="M531 1097l-306 316h136l170 -175l170 175h137zM564 -17q-115 0 -207.5 40.5t-151 110.5t-89.5 162t-31 199q0 105 29.5 198t86 165.5t146 115t200.5 42.5q97 0 174.5 -30t127 -77.5t82.5 -111.5t46.5 -127.5t13.5 -128.5q0 -62 -8 -92h-719q10 -147 86.5 -229.5 t214.5 -82.5q84 0 149 27.5t126 92.5l118 -103q-83 -89 -177.5 -130t-216.5 -41zM264 573h559q0 43 -4 63q-14 101 -84 169t-189 68q-123 0 -195 -81.5t-87 -218.5z" glyph-name="ecaron" horiz-adv-x="1072" unicode="ě"/><glyph d="M771 1559q-308 0 -308 267h121q0 -80 50 -122t137 -42q88 0 137.5 42t49.5 122h121q0 -132 -78 -199.5t-230 -67.5zM771 -17q-128 0 -235 36t-184 101.5t-130.5 156t-79.5 199.5t-26 232q0 155 41.5 286t121.5 229t207.5 153.5t289.5 55.5q209 0 358.5 -99t229.5 -291 l-157 -66q-106 301 -433 301q-120 0 -213 -42.5t-151.5 -118.5t-88.5 -177.5t-30 -223.5t28 -224t84.5 -181.5t150.5 -124t217 -44.5q181 0 295 93.5t139 270.5l4 92h-336v143h509v-740h-140l-15 236q-66 -121 -183 -187t-273 -66z" glyph-name="Gbreve" horiz-adv-x="1539" unicode="Ğ"/><glyph d="M526 1146q-308 0 -308 267h121q0 -80 50 -122t137 -42q88 0 137.5 42t49.5 122h121q0 -132 -78 -199.5t-230 -67.5zM578 134q51 -7 84 -12.5t79.5 -16.5t76.5 -23.5t63.5 -33.5t53 -47t32.5 -63.5t13 -82.5q0 -154 -117.5 -238t-306.5 -84q-207 0 -327 97t-120 253 q0 18 4 42l125 122q-117 61 -120 192q0 110 88 187q-86 97 -86 231q0 157 114 258t280 101q147 0 252 -79l150 132l89 -109l-146 -124q50 -83 50 -187q0 -158 -112 -256.5t-278 -98.5q-115 0 -209 50q-46 -28 -46 -75q1 -27 15.5 -47t40 -33t61.5 -22.5t79 -16t93 -13.5 q16 -2 25 -3zM520 884q-102 0 -163.5 -63.5t-61.5 -164.5q0 -99 60.5 -161t163.5 -62t162.5 61.5t59.5 160.5q0 102 -60 165.5t-161 63.5zM555 -335q119 0 191.5 43t72.5 126q0 16 -3 29.5t-11.5 25t-16.5 20.5t-24 17t-28 13.5t-35.5 11t-38.5 9t-45 8t-47 6.5t-52 7 q-118 14 -179 30l-91 -122q0 -1 3 -28q14 -95 96.5 -145.5t207.5 -50.5z" glyph-name="gbreve" horiz-adv-x="1049" unicode="ğ"/><glyph d="M681 1614v212h178v-212h-178zM771 -17q-128 0 -235 36t-184 101.5t-130.5 156t-79.5 199.5t-26 232q0 155 41.5 286t121.5 229t207.5 153.5t289.5 55.5q209 0 358.5 -99t229.5 -291l-157 -66q-106 301 -433 301q-120 0 -213 -42.5t-151.5 -118.5t-88.5 -177.5t-30 -223.5 t28 -224t84.5 -181.5t150.5 -124t217 -44.5q181 0 295 93.5t139 270.5l4 92h-336v143h509v-740h-140l-15 236q-66 -121 -183 -187t-273 -66z" glyph-name="Gdotaccent" horiz-adv-x="1539" unicode="Ġ"/><glyph d="M615 1413v-212h-178v212h178zM578 134q51 -7 84 -12.5t79.5 -16.5t76.5 -23.5t63.5 -33.5t53 -47t32.5 -63.5t13 -82.5q0 -154 -117.5 -238t-306.5 -84q-207 0 -327 97t-120 253q0 18 4 42l125 122q-117 61 -120 192q0 110 88 187q-86 97 -86 231q0 157 114 258t280 101 q147 0 252 -79l150 132l89 -109l-146 -124q50 -83 50 -187q0 -158 -112 -256.5t-278 -98.5q-115 0 -209 50q-46 -28 -46 -75q1 -27 15.5 -47t40 -33t61.5 -22.5t79 -16t93 -13.5q16 -2 25 -3zM520 884q-102 0 -163.5 -63.5t-61.5 -164.5q0 -99 60.5 -161t163.5 -62 t162.5 61.5t59.5 160.5q0 102 -60 165.5t-161 63.5zM555 -335q119 0 191.5 43t72.5 126q0 16 -3 29.5t-11.5 25t-16.5 20.5t-24 17t-28 13.5t-35.5 11t-38.5 9t-45 8t-47 6.5t-52 7q-118 14 -179 30l-91 -122q0 -1 3 -28q14 -95 96.5 -145.5t207.5 -50.5z" glyph-name="gdotaccent" horiz-adv-x="1049" unicode="ġ"/><glyph d="M771 -17q-128 0 -235 36t-184 101.5t-130.5 156t-79.5 199.5t-26 232q0 155 41.5 286t121.5 229t207.5 153.5t289.5 55.5q209 0 358.5 -99t229.5 -291l-157 -66q-106 301 -433 301q-120 0 -213 -42.5t-151.5 -118.5t-88.5 -177.5t-30 -223.5t28 -224t84.5 -181.5 t150.5 -124t217 -44.5q181 0 295 93.5t139 270.5l4 92h-336v143h509v-740h-140l-15 236q-66 -121 -183 -187t-273 -66zM538 -451l167 340h178l-241 -340h-104z" glyph-name="Gcommaaccent" horiz-adv-x="1539" unicode="Ģ"/><glyph d="M749 1427l-167 -304h-178l241 304h104zM578 134q51 -7 84 -12.5t79.5 -16.5t76.5 -23.5t63.5 -33.5t53 -47t32.5 -63.5t13 -82.5q0 -154 -117.5 -238t-306.5 -84q-207 0 -327 97t-120 253q0 18 4 42l125 122q-117 61 -120 192q0 110 88 187q-86 97 -86 231q0 157 114 258 t280 101q147 0 252 -79l150 132l89 -109l-146 -124q50 -83 50 -187q0 -158 -112 -256.5t-278 -98.5q-115 0 -209 50q-46 -28 -46 -75q1 -27 15.5 -47t40 -33t61.5 -22.5t79 -16t93 -13.5q16 -2 25 -3zM520 884q-102 0 -163.5 -63.5t-61.5 -164.5q0 -99 60.5 -161t163.5 -62 t162.5 61.5t59.5 160.5q0 102 -60 165.5t-161 63.5zM555 -335q119 0 191.5 43t72.5 126q0 16 -3 29.5t-11.5 25t-16.5 20.5t-24 17t-28 13.5t-35.5 11t-38.5 9t-45 8t-47 6.5t-52 7q-118 14 -179 30l-91 -122q0 -1 3 -28q14 -95 96.5 -145.5t207.5 -50.5z" glyph-name="gcommaaccent" horiz-adv-x="1049" unicode="ģ"/><glyph d="M1387 1166v-102h-124v-1064h-176v628h-701v-628h-176v1064h-124v102h124v247h176v-247h701v247h176v-247h124zM1087 791v273h-701v-273h701z" glyph-name="Hbar" horiz-adv-x="1473" unicode="Ħ"/><glyph d="M645 1016q88 0 157 -31t111.5 -86t64.5 -125t23 -152v-622h-172v591q0 271 -223 271q-125 0 -194.5 -86.5t-69.5 -226.5v-549h-172v1131h-171v116h171v166h172v-166h292v-116h-292v-284q50 83 129.5 126t173.5 43z" glyph-name="hbar" horiz-adv-x="1142" unicode="ħ"/><glyph d="M433 1547q-45 0 -80.5 17t-58 41.5t-41.5 49t-42 41.5t-50 17q-42 1 -66 -39.5t-24 -113.5h-100q0 123 52 191.5t143 68.5q42 0 76 -17t56 -41.5t42 -49t44 -41.5t51 -17q37 0 60.5 42.5t23.5 115.5h103q0 -124 -51 -194.5t-138 -70.5zM210 0v1413h176v-1413h-176z" glyph-name="Itilde" horiz-adv-x="597" unicode="Ĩ"/><glyph d="M388 1134q-45 0 -80.5 17t-58 41.5t-41.5 49t-42 41.5t-50 17q-42 1 -66 -39.5t-24 -113.5h-100q0 123 52 191.5t143 68.5q42 0 76 -17t56 -41.5t42 -49t44 -41.5t51 -17q37 0 60.5 42.5t23.5 115.5h103q0 -124 -51 -194.5t-138 -70.5zM168 0v999h169v-999h-169z" glyph-name="itilde" horiz-adv-x="505" unicode="ĩ"/><glyph d="M22 1608v103h552v-103h-552zM210 0v1413h176v-1413h-176z" glyph-name="Imacron" horiz-adv-x="597" unicode="Ī"/><glyph d="M-23 1195v103h552v-103h-552zM168 0v999h169v-999h-169z" glyph-name="imacron" horiz-adv-x="505" unicode="ī"/><glyph d="M386 -274l87 -60q-81 -120 -217 -120q-95 0 -154 53t-59 142q0 51 21.5 98t54.5 78.5t64.5 52.5t58.5 30h-32v1413h176v-1413q-26 -7 -55.5 -20.5t-62.5 -36t-59.5 -48.5t-44 -61t-17.5 -72q0 -109 105 -109q82 0 134 73z" glyph-name="Iogonek" horiz-adv-x="597" unicode="Į"/><glyph d="M341 1413v-212h-178v212h178zM337 -274l87 -60q-81 -120 -217 -120q-95 0 -154 53t-59 142q0 51 21.5 98t54.5 78.5t64.5 52.5t58.5 30h-25v999h169v-999q-26 -7 -55.5 -20.5t-62.5 -36t-59.5 -48.5t-44 -61t-17.5 -72q0 -109 105 -109q82 0 134 73z" glyph-name="iogonek" horiz-adv-x="505" unicode="į"/><glyph d="M208 1614v212h178v-212h-178zM210 0v1413h176v-1413h-176z" glyph-name="Idotaccent" horiz-adv-x="597" unicode="İ"/><glyph d="M168 0v999h169v-999h-169z" glyph-name="dotlessi" horiz-adv-x="505" unicode="ı"/><glyph d="M210 0v1413h176v-1413h-176zM1119 -17q-200 0 -322.5 123.5t-136.5 315.5l173 19q9 -133 82.5 -213.5t203.5 -80.5q152 0 215.5 89.5t63.5 274.5v740h-560v162h737v-900q0 -121 -26.5 -217t-80.5 -166.5t-142.5 -108.5t-206.5 -38z" glyph-name="IJ" horiz-adv-x="1758" unicode="Ĳ"/><glyph d="M210 0v1413h176v-812l768 812h237l-549 -564l571 -849h-218l-475 730l-334 -344v-386h-176zM478 -451l167 340h178l-241 -340h-104z" glyph-name="Kcommaaccent" horiz-adv-x="1464" unicode="Ķ"/><glyph d="M170 0v1413h169v-915l469 501h221l-367 -378l419 -621h-200l-334 516l-208 -221v-295h-169zM369 -451l167 340h178l-241 -340h-104z" glyph-name="kcommaaccent" horiz-adv-x="1100" unicode="ķ"/><glyph d="M169 0v999h170v-501l468 501h221l-366 -378l419 -621h-201l-334 516l-207 -221v-295h-170z" glyph-name="kgreenlandic" horiz-adv-x="1100" unicode="ĸ"/><glyph d="M234 1539l221 287h181l-275 -287h-127zM210 0v1413h176v-1246h633v-167h-809z" glyph-name="Lacute" horiz-adv-x="1070" unicode="Ĺ"/><glyph d="M187 1539l221 287h181l-275 -287h-127zM355 -17q-100 0 -146.5 54.5t-46.5 169.5v1206h170v-1161q0 -56 21 -86t78 -30q31 0 77 8l1 -143q-83 -18 -154 -18z" glyph-name="lacute" horiz-adv-x="558" unicode="ĺ"/><glyph d="M210 0v1413h176v-1246h633v-167h-809zM373 -451l167 340h178l-241 -340h-104z" glyph-name="Lcommaaccent" horiz-adv-x="1070" unicode="Ļ"/><glyph d="M355 -17q-100 0 -146.5 54.5t-46.5 169.5v1206h170v-1161q0 -56 21 -86t78 -30q31 0 77 8l1 -143q-83 -18 -154 -18zM121 -451l167 340h178l-241 -340h-104z" glyph-name="lcommaaccent" horiz-adv-x="558" unicode="ļ"/><glyph d="M210 0v1413h176v-1246h633v-167h-809zM713 982l117 431h178l-192 -431h-103z" glyph-name="Lcaron" horiz-adv-x="1070" unicode="Ľ"/><glyph d="M355 -17q-100 0 -146.5 54.5t-46.5 169.5v1206h170v-1161q0 -56 21 -86t78 -30q31 0 77 8l1 -143q-83 -18 -154 -18zM433 982l117 431h178l-192 -431h-103z" glyph-name="lcaron" horiz-adv-x="558" unicode="ľ"/><glyph d="M386 167h633v-167h-809v361l-138 -156v190l138 156v862h176v-663l292 330v-189l-292 -331v-393z" glyph-name="Lslash" horiz-adv-x="1070" unicode="Ł"/><glyph d="M512 144l1 -143q-83 -18 -154 -18q-99 0 -145.5 54.5t-46.5 169.5v260l-91 -93v163l91 93v783h169v-612l161 164l1 -162l-162 -165v-386q0 -57 21 -86.5t79 -29.5q30 0 76 8z" glyph-name="lslash" horiz-adv-x="569" unicode="ł"/><glyph d="M1037 1826l-275 -287h-127l221 287h181zM1057 1413h170v-1413h-182l-665 1127v-1127h-170v1413h180l667 -1124v1124z" glyph-name="Nacute" horiz-adv-x="1437" unicode="Ń"/><glyph d="M492 1126l221 287h181l-275 -287h-127zM168 0v999h169v-152q50 83 131 126t175 43q88 0 156.5 -31t110.5 -86t63.5 -125t22.5 -152v-622h-169v591q0 126 -59 197t-171 71q-122 0 -191 -72.5t-69 -210.5v-576h-169z" glyph-name="nacute" horiz-adv-x="1137" unicode="ń"/><glyph d="M1057 1413h170v-1413h-182l-665 1127v-1127h-170v1413h180l667 -1124v1124zM476 -451l167 340h178l-241 -340h-104z" glyph-name="Ncommaaccent" horiz-adv-x="1437" unicode="Ņ"/><glyph d="M168 0v999h169v-152q50 83 131 126t175 43q88 0 156.5 -31t110.5 -86t63.5 -125t22.5 -152v-622h-169v591q0 126 -59 197t-171 71q-122 0 -191 -72.5t-69 -210.5v-576h-169zM333 -451l167 340h178l-241 -340h-104z" glyph-name="ncommaaccent" horiz-adv-x="1137" unicode="ņ"/><glyph d="M1024 1826l-307 -316l-306 316h136l170 -175l170 175h137zM1057 1413h170v-1413h-182l-665 1127v-1127h-170v1413h180l667 -1124v1124z" glyph-name="Ncaron" horiz-adv-x="1437" unicode="Ň"/><glyph d="M574 1097l-306 316h136l170 -175l170 175h137zM168 0v999h169v-152q50 83 131 126t175 43q88 0 156.5 -31t110.5 -86t63.5 -125t22.5 -152v-622h-169v591q0 126 -59 197t-171 71q-122 0 -191 -72.5t-69 -210.5v-576h-169z" glyph-name="ncaron" horiz-adv-x="1137" unicode="ň"/><glyph d="M1057 1413h168v-1432q0 -71 -15 -128.5t-48 -105t-92 -73.5t-141 -26q-67 0 -144 18l3 113q58 -14 97 -14q89 0 138 40.5t49 109.5q0 34 -12 54l-680 1162v-1131h-170v1413h180l667 -1131v1131z" glyph-name="Eng" horiz-adv-x="1438" unicode="Ŋ"/><glyph d="M711 -435q-66 0 -153 29l40 127q61 -17 109 -17q65 0 92.5 38t27.5 116v733q0 126 -59 197t-171 71q-122 0 -191.5 -72.5t-69.5 -210.5v-576h-168v999h168v-152q49 83 131 126t176 43q88 0 156.5 -31t110 -86t63 -125t22.5 -152v-745q0 -141 -72.5 -226.5t-211.5 -85.5z " glyph-name="eng" horiz-adv-x="1181" unicode="ŋ"/><glyph d="M497 1608v103h552v-103h-552zM773 -17q-131 0 -240.5 38.5t-185.5 105.5t-129 159t-78 198t-25 223t25 223t78 197.5t129 158.5t185.5 105.5t240.5 38.5q164 0 292.5 -58.5t208 -159.5t120 -229.5t40.5 -275.5t-40.5 -276t-120 -230t-208 -159.5t-292.5 -58.5zM773 140 q99 0 179 30t134.5 81.5t91.5 124t53.5 155t16.5 176.5q0 93 -16.5 175.5t-53.5 155t-91.5 124t-134.5 81.5t-179 30q-122 0 -214.5 -45t-148 -124.5t-83 -179.5t-27.5 -217q0 -118 27.5 -218t83 -179.5t148 -124.5t214.5 -45z" glyph-name="Omacron" horiz-adv-x="1548" unicode="Ō"/><glyph d="M295 1195v103h552v-103h-552zM570 -17q-143 0 -256.5 70t-174.5 188t-61 261q0 106 36 200t99.5 163.5t156 110t200.5 40.5q143 0 257 -69t175.5 -186.5t61.5 -258.5q0 -143 -61.5 -261t-175.5 -188t-257 -70zM570 130q100 0 173.5 51.5t109 134.5t35.5 186 q0 158 -84.5 262.5t-233.5 104.5q-148 0 -232 -104.5t-84 -262.5q0 -159 84 -265.5t232 -106.5z" glyph-name="omacron" horiz-adv-x="1143" unicode="ō"/><glyph d="M505 1512l221 314h154l-248 -314h-127zM863 1512l221 314h181l-275 -314h-127zM773 -17q-131 0 -240.5 38.5t-185.5 105.5t-129 159t-78 198t-25 223t25 223t78 197.5t129 158.5t185.5 105.5t240.5 38.5q164 0 292.5 -58.5t208 -159.5t120 -229.5t40.5 -275.5t-40.5 -276 t-120 -230t-208 -159.5t-292.5 -58.5zM773 140q99 0 179 30t134.5 81.5t91.5 124t53.5 155t16.5 176.5q0 93 -16.5 175.5t-53.5 155t-91.5 124t-134.5 81.5t-179 30q-122 0 -214.5 -45t-148 -124.5t-83 -179.5t-27.5 -217q0 -118 27.5 -218t83 -179.5t148 -124.5t214.5 -45z " glyph-name="Ohungarumlaut" horiz-adv-x="1548" unicode="Ő"/><glyph d="M303 1099l221 314h154l-248 -314h-127zM661 1099l221 314h181l-275 -314h-127zM570 -17q-143 0 -256.5 70t-174.5 188t-61 261q0 106 36 200t99.5 163.5t156 110t200.5 40.5q143 0 257 -69t175.5 -186.5t61.5 -258.5q0 -143 -61.5 -261t-175.5 -188t-257 -70zM570 130 q100 0 173.5 51.5t109 134.5t35.5 186q0 158 -84.5 262.5t-233.5 104.5q-148 0 -232 -104.5t-84 -262.5q0 -159 84 -265.5t232 -106.5z" glyph-name="ohungarumlaut" horiz-adv-x="1143" unicode="ő"/><glyph d="M2186 1251h-753v-461h685v-163h-685v-460h753v-167h-929v182q-178 -199 -484 -199q-131 0 -240.5 38.5t-185.5 105.5t-129 159t-78 198t-25 223t25 223t78 197.5t129 158.5t185.5 105.5t240.5 38.5q306 0 484 -199v182h929v-162zM773 140q99 0 179 30t134.5 81.5 t91.5 124t53.5 155t16.5 176.5q0 93 -16.5 175.5t-53.5 155t-91.5 124t-134.5 81.5t-179 30q-122 0 -214.5 -45t-148 -124.5t-83 -179.5t-27.5 -217q0 -118 27.5 -218t83 -179.5t148 -124.5t214.5 -45z" glyph-name="OE" horiz-adv-x="2311" unicode="Œ"/><glyph d="M1796 541q0 -62 -8 -92h-719q10 -147 86.5 -229.5t214.5 -82.5q84 0 149 27.5t126 92.5l118 -103q-83 -89 -177.5 -130t-216.5 -41q-270 0 -399 206q-66 -96 -169.5 -151t-230.5 -55q-143 0 -256.5 70t-174.5 188t-61 261q0 106 36 200t99.5 163.5t156 110t200.5 40.5 q128 0 232 -55t170 -151q59 96 155 151t225 55q97 0 174.5 -30t127 -77.5t82.5 -111.5t46.5 -127.5t13.5 -128.5zM1069 573h559q0 43 -4 63q-14 101 -84 169t-189 68q-123 0 -195 -81.5t-87 -218.5zM570 130q100 0 173.5 51.5t109 134.5t35.5 186q0 158 -84.5 262.5 t-233.5 104.5q-148 0 -232 -104.5t-84 -262.5q0 -159 84 -265.5t232 -106.5z" glyph-name="oe" horiz-adv-x="1877" unicode="œ"/><glyph d="M540 1539l221 287h181l-275 -287h-127zM210 0v1413h416q209 0 343 -107t134 -294q0 -137 -79 -233t-213 -133l392 -646h-201l-362 629q-28 -2 -90 -2h-164v-627h-176zM388 771h253q137 4 212 66t75 172q0 115 -80 180.5t-221 65.5h-239v-484z" glyph-name="Racute" horiz-adv-x="1265" unicode="Ŕ"/><glyph d="M362 1126l221 287h181l-275 -287h-127zM168 0v999h165v-196q34 102 117.5 157.5t177.5 55.5q100 0 165 -55l-78 -140q-54 30 -112 30q-49 0 -95.5 -21.5t-86.5 -63.5t-64.5 -116t-24.5 -169v-481h-164z" glyph-name="racute" horiz-adv-x="800" unicode="ŕ"/><glyph d="M210 0v1413h416q209 0 343 -107t134 -294q0 -137 -79 -233t-213 -133l392 -646h-201l-362 629q-28 -2 -90 -2h-164v-627h-176zM388 771h253q137 4 212 66t75 172q0 115 -80 180.5t-221 65.5h-239v-484zM452 -451l167 340h178l-241 -340h-104z" glyph-name="Rcommaaccent" horiz-adv-x="1265" unicode="Ŗ"/><glyph d="M168 0v999h165v-196q34 102 117.5 157.5t177.5 55.5q100 0 165 -55l-78 -140q-54 30 -112 30q-49 0 -95.5 -21.5t-86.5 -63.5t-64.5 -116t-24.5 -169v-481h-164zM158 -451l167 340h178l-241 -340h-104z" glyph-name="rcommaaccent" horiz-adv-x="800" unicode="ŗ"/><glyph d="M622 1510l-306 316h136l170 -175l170 175h137zM210 0v1413h416q209 0 343 -107t134 -294q0 -137 -79 -233t-213 -133l392 -646h-201l-362 629q-28 -2 -90 -2h-164v-627h-176zM388 771h253q137 4 212 66t75 172q0 115 -80 180.5t-221 65.5h-239v-484z" glyph-name="Rcaron" horiz-adv-x="1265" unicode="Ř"/><glyph d="M444 1097l-306 316h136l170 -175l170 175h137zM168 0v999h165v-196q34 102 117.5 157.5t177.5 55.5q100 0 165 -55l-78 -140q-54 30 -112 30q-49 0 -95.5 -21.5t-86.5 -63.5t-64.5 -116t-24.5 -169v-481h-164z" glyph-name="rcaron" horiz-adv-x="800" unicode="ř"/><glyph d="M484 1539l221 287h181l-275 -287h-127zM587 -14q-125 0 -231 44t-181 135.5t-96 217.5l174 44q18 -138 109.5 -211t227.5 -73q131 0 209.5 67.5t78.5 170.5q0 55 -24.5 99t-65.5 74.5t-94.5 56t-112.5 48.5t-118 47t-112.5 56t-94.5 71t-65.5 97t-24.5 130 q0 168 118.5 269t294.5 101q278 0 410 -234l-146 -90q-90 167 -270 167q-99 0 -165 -58t-66 -147q0 -50 24.5 -89.5t65.5 -67.5t94.5 -52t112.5 -46.5t118 -46.5t112.5 -57.5t94.5 -75t65.5 -102t24.5 -135.5q0 -184 -133.5 -297t-333.5 -113z" glyph-name="Sacute" horiz-adv-x="1145" unicode="Ś"/><glyph d="M360 1126l221 287h181l-275 -287h-127zM466 -17q-148 0 -259.5 76t-150.5 193l137 60q29 -80 96 -133.5t169 -53.5q99 0 153.5 46t54.5 116q0 48 -30.5 80t-79.5 49t-108 31t-118 33t-108 46.5t-79.5 79t-30.5 124.5q0 136 100.5 211t251.5 75q120 0 212.5 -55 t147.5 -156l-131 -71q-81 147 -235 147q-84 0 -134 -36t-50 -93q0 -38 24 -66t63.5 -43.5t89.5 -31t102.5 -27.5t102.5 -35.5t89.5 -53.5t63.5 -81t24 -119q0 -101 -52.5 -173.5t-133.5 -105.5t-181 -33z" glyph-name="sacute" horiz-adv-x="922" unicode="ś"/><glyph d="M1054 396q0 -178 -126 -290t-317 -120l-72 -108q36 -3 62 -10q78 -18 119.5 -64.5t41.5 -115.5q0 -90 -60 -148t-155 -58q-62 0 -116.5 36t-77.5 93l97 41q11 -31 39 -50.5t62 -19.5q50 0 79 27t29 74q0 53 -47 86.5t-129 37.5q-11 0 -38 0.5t-44 0.5l110 182 q-167 20 -285.5 122t-146.5 271l174 44q18 -138 109.5 -211t227.5 -73q131 0 209.5 67.5t78.5 170.5q0 55 -24.5 99t-65.5 74.5t-94.5 56t-112.5 48.5t-118 47t-112.5 56t-94.5 71t-65.5 97t-24.5 130q0 168 118.5 269t294.5 101q278 0 410 -234l-146 -90q-90 167 -270 167 q-99 0 -165 -58t-66 -147q0 -50 24.5 -89.5t65.5 -67.5t94.5 -52t112.5 -46.5t118 -46.5t112.5 -57.5t94.5 -75t65.5 -102t24.5 -135.5z" glyph-name="Scedilla" horiz-adv-x="1145" unicode="Ş"/><glyph d="M833 295q0 -131 -82.5 -210t-211.5 -97l-73 -110q36 -3 62 -10q78 -18 119.5 -64.5t41.5 -115.5q0 -90 -60 -148t-155 -58q-62 0 -116.5 36t-77.5 93l97 41q11 -31 39 -50.5t62 -19.5q50 0 79 27t29 74q0 53 -47 86.5t-129 37.5q-11 0 -38 0.5t-44 0.5l106 176 q-138 9 -240 83.5t-138 184.5l137 60q29 -80 96 -133.5t169 -53.5q99 0 153.5 46t54.5 116q0 48 -30.5 80t-79.5 49t-108 31t-118 33t-108 46.5t-79.5 79t-30.5 124.5q0 136 100.5 211t251.5 75q120 0 212.5 -55t147.5 -156l-131 -71q-81 147 -235 147q-84 0 -134 -36 t-50 -93q0 -38 24 -66t63.5 -43.5t89.5 -31t102.5 -27.5t102.5 -35.5t89.5 -53.5t63.5 -81t24 -119z" glyph-name="scedilla" horiz-adv-x="922" unicode="ş"/><glyph d="M566 1510l-306 316h136l170 -175l170 175h137zM587 -14q-125 0 -231 44t-181 135.5t-96 217.5l174 44q18 -138 109.5 -211t227.5 -73q131 0 209.5 67.5t78.5 170.5q0 55 -24.5 99t-65.5 74.5t-94.5 56t-112.5 48.5t-118 47t-112.5 56t-94.5 71t-65.5 97t-24.5 130 q0 168 118.5 269t294.5 101q278 0 410 -234l-146 -90q-90 167 -270 167q-99 0 -165 -58t-66 -147q0 -50 24.5 -89.5t65.5 -67.5t94.5 -52t112.5 -46.5t118 -46.5t112.5 -57.5t94.5 -75t65.5 -102t24.5 -135.5q0 -184 -133.5 -297t-333.5 -113z" glyph-name="Scaron" horiz-adv-x="1145" unicode="Š"/><glyph d="M442 1097l-306 316h136l170 -175l170 175h137zM466 -17q-148 0 -259.5 76t-150.5 193l137 60q29 -80 96 -133.5t169 -53.5q99 0 153.5 46t54.5 116q0 48 -30.5 80t-79.5 49t-108 31t-118 33t-108 46.5t-79.5 79t-30.5 124.5q0 136 100.5 211t251.5 75q120 0 212.5 -55 t147.5 -156l-131 -71q-81 147 -235 147q-84 0 -134 -36t-50 -93q0 -38 24 -66t63.5 -43.5t89.5 -31t102.5 -27.5t102.5 -35.5t89.5 -53.5t63.5 -81t24 -119q0 -101 -52.5 -173.5t-133.5 -105.5t-181 -33z" glyph-name="scaron" horiz-adv-x="922" unicode="š"/><glyph d="M526 0v1255h-476v158h1128v-158h-476v-1255h-176zM596 -518q-62 0 -116.5 36t-77.5 93l97 41q11 -31 39 -50.5t62 -19.5q50 0 79 27t29 74q0 53 -47 86.5t-129 37.5q-11 0 -38 0.5t-44 0.5l115 191h103l-80 -121q36 -3 62 -10q78 -18 119.5 -64.5t41.5 -115.5 q0 -90 -60 -148t-155 -58z" glyph-name="Tcommaaccent" horiz-adv-x="1228" unicode="Ţ"/><glyph d="M519 -132q78 -18 119.5 -64.5t41.5 -115.5q0 -90 -60 -148t-155 -58q-62 0 -116.5 36t-77.5 93l97 41q11 -31 39 -50.5t62 -19.5q50 0 79 27t29 74q0 53 -47 86.5t-129 37.5q-11 0 -38 0.5t-44 0.5l108 179q-109 16 -166.5 91.5t-57.5 200.5v577h-165v143h167v276 l167 122v-398h270v-143h-270v-549q0 -92 36.5 -133t108.5 -41q62 0 124 28l1 -154q-49 -18 -115 -22l-70 -107q36 -3 62 -10z" glyph-name="tcommaaccent" horiz-adv-x="720" unicode="ţ"/><glyph d="M615 1510l-306 316h136l170 -175l170 175h137zM526 0v1255h-476v158h1128v-158h-476v-1255h-176z" glyph-name="Tcaron" horiz-adv-x="1228" unicode="Ť"/><glyph d="M504 1133l117 431h178l-192 -431h-103zM488 -17q-137 0 -211 77.5t-74 218.5v577h-165v143h167v276l167 122v-398h270v-143h-270v-549q0 -92 36.5 -133t108.5 -41q62 0 124 28l1 -154q-64 -24 -154 -24z" glyph-name="tcaron" horiz-adv-x="720" unicode="ť"/><glyph d="M1178 1255h-476v-490h231v-116h-231v-649h-176v649h-228v116h228v490h-476v158h1128v-158z" glyph-name="Tbar" horiz-adv-x="1228" unicode="Ŧ"/><glyph d="M664 442h-292v-135q0 -92 36.5 -133t108.5 -41q62 0 124 28l1 -154q-64 -24 -154 -24q-137 0 -211 77.5t-74 218.5v163h-174v116h174v298h-165v143h167v276l167 122v-398h270v-143h-270v-298h292v-116z" glyph-name="tbar" horiz-adv-x="720" unicode="ŧ"/><glyph d="M831 1547q-45 0 -80.5 17t-58 41.5t-41.5 49t-42 41.5t-50 17q-42 1 -66 -39.5t-24 -113.5h-100q0 123 52 191.5t143 68.5q42 0 76 -17t56 -41.5t42 -49t44 -41.5t51 -17q37 0 60.5 42.5t23.5 115.5h103q0 -124 -51 -194.5t-138 -70.5zM696 -17q-259 0 -387.5 145 t-128.5 409v876h176v-857q0 -200 80 -301t260 -101q181 0 261.5 101.5t80.5 304.5v853h176v-866q0 -269 -129 -416.5t-389 -147.5z" glyph-name="Utilde" horiz-adv-x="1394" unicode="Ũ"/><glyph d="M702 1134q-45 0 -80.5 17t-58 41.5t-41.5 49t-42 41.5t-50 17q-42 1 -66 -39.5t-24 -113.5h-100q0 123 52 191.5t143 68.5q42 0 76 -17t56 -41.5t42 -49t44 -41.5t51 -17q37 0 60.5 42.5t23.5 115.5h103q0 -124 -51 -194.5t-138 -70.5zM493 -17q-88 0 -156.5 31.5 t-110 86.5t-63 125t-22.5 152v621h168v-591q0 -126 59 -197t171 -71q122 0 191.5 72.5t69.5 210.5v576h168v-999h-168v152q-49 -83 -131 -126t-176 -43z" glyph-name="utilde" horiz-adv-x="1136" unicode="ũ"/><glyph d="M420 1608v103h552v-103h-552zM696 -17q-259 0 -387.5 145t-128.5 409v876h176v-857q0 -200 80 -301t260 -101q181 0 261.5 101.5t80.5 304.5v853h176v-866q0 -269 -129 -416.5t-389 -147.5z" glyph-name="Umacron" horiz-adv-x="1394" unicode="Ū"/><glyph d="M291 1195v103h552v-103h-552zM493 -17q-88 0 -156.5 31.5t-110 86.5t-63 125t-22.5 152v621h168v-591q0 -126 59 -197t171 -71q122 0 191.5 72.5t69.5 210.5v576h168v-999h-168v152q-49 -83 -131 -126t-176 -43z" glyph-name="umacron" horiz-adv-x="1136" unicode="ū"/><glyph d="M694 1499q-86 0 -145.5 61t-59.5 146q0 86 59.5 145.5t145.5 59.5q85 0 146 -59.5t61 -145.5t-60.5 -146.5t-146.5 -60.5zM694 1593q49 0 81 32.5t32 81.5q0 47 -31.5 78.5t-81.5 31.5q-48 0 -79.5 -31.5t-31.5 -78.5q0 -49 32 -81.5t79 -32.5zM696 -17 q-259 0 -387.5 145t-128.5 409v876h176v-857q0 -200 80 -301t260 -101q181 0 261.5 101.5t80.5 304.5v853h176v-866q0 -269 -129 -416.5t-389 -147.5z" glyph-name="Uring" horiz-adv-x="1394" unicode="Ů"/><glyph d="M565 1086q-86 0 -145.5 61t-59.5 146t60 145t145 60t146 -59.5t61 -145.5t-60.5 -146.5t-146.5 -60.5zM565 1180q49 0 81 32.5t32 81.5q0 47 -31.5 78.5t-81.5 31.5q-48 0 -79.5 -31.5t-31.5 -78.5q0 -49 32 -81.5t79 -32.5zM493 -17q-88 0 -156.5 31.5t-110 86.5 t-63 125t-22.5 152v621h168v-591q0 -126 59 -197t171 -71q122 0 191.5 72.5t69.5 210.5v576h168v-999h-168v152q-49 -83 -131 -126t-176 -43z" glyph-name="uring" horiz-adv-x="1136" unicode="ů"/><glyph d="M428 1512l221 314h154l-248 -314h-127zM786 1512l221 314h181l-275 -314h-127zM696 -17q-259 0 -387.5 145t-128.5 409v876h176v-857q0 -200 80 -301t260 -101q181 0 261.5 101.5t80.5 304.5v853h176v-866q0 -269 -129 -416.5t-389 -147.5z" glyph-name="Uhungarumlaut" horiz-adv-x="1394" unicode="Ű"/><glyph d="M299 1099l221 314h154l-248 -314h-127zM657 1099l221 314h181l-275 -314h-127zM493 -17q-88 0 -156.5 31.5t-110 86.5t-63 125t-22.5 152v621h168v-591q0 -126 59 -197t171 -71q122 0 191.5 72.5t69.5 210.5v576h168v-999h-168v152q-49 -83 -131 -126t-176 -43z" glyph-name="uhungarumlaut" horiz-adv-x="1136" unicode="ű"/><glyph d="M1038 1413h176v-866q0 -216 -83.5 -355t-252.5 -186q-64 -37 -108 -88.5t-44 -112.5q0 -109 105 -109q82 0 134 73l87 -60q-81 -120 -217 -120q-95 0 -154 53t-59 142q0 112 100 199h-26q-259 0 -387.5 145t-128.5 409v876h176v-857q0 -200 80 -301t260 -101 q181 0 261.5 101.5t80.5 304.5v853z" glyph-name="Uogonek" horiz-adv-x="1394" unicode="Ų"/><glyph d="M968 -274l87 -60q-81 -120 -217 -120q-95 0 -154 53t-59 142q0 51 21.5 98t54.5 78.5t64.5 52.5t58.5 30h-24v152q-49 -83 -131 -126t-176 -43q-88 0 -156.5 31.5t-110 86.5t-63 125t-22.5 152v621h168v-591q0 -126 59 -197t171 -71q122 0 191.5 72.5t69.5 210.5v576h168 v-999q-26 -7 -55.5 -20.5t-62.5 -36t-59.5 -48.5t-44 -61t-17.5 -72q0 -109 105 -109q82 0 134 73z" glyph-name="uogonek" horiz-adv-x="1136" unicode="ų"/><glyph d="M690 1511l306 330l307 -330h-136l-171 182l-169 -182h-137zM474 0l-413 1413h183l329 -1158l351 1080h140l350 -1080l329 1158h183l-413 -1413h-174l-345 1057l-345 -1057h-175z" glyph-name="Wcircumflex" horiz-adv-x="1987" unicode="Ŵ"/><glyph d="M435 1108l306 330l307 -330h-136l-171 182l-169 -182h-137zM336 0l-296 999h181l202 -742l242 742h150l241 -741l204 741h181l-298 -999h-156l-247 763l-248 -763h-156z" glyph-name="wcircumflex" horiz-adv-x="1479" unicode="ŵ"/><glyph d="M354 1522l306 330l307 -330h-136l-171 182l-169 -182h-137zM571 0v543l-535 870h213l412 -699l414 699h214l-535 -870v-543h-183z" glyph-name="Ycircumflex" horiz-adv-x="1325" unicode="Ŷ"/><glyph d="M202 1108l306 330l307 -330h-136l-171 182l-169 -182h-137zM260 -429l175 446l-414 982h187l317 -786l290 786h186l-556 -1428h-185z" glyph-name="ycircumflex" horiz-adv-x="1024" unicode="ŷ"/><glyph d="M401 1615v212h144v-212h-144zM775 1615v212h144v-212h-144zM571 0v543l-535 870h213l412 -699l414 699h214l-535 -870v-543h-183z" glyph-name="Ydieresis" horiz-adv-x="1325" unicode="Ÿ"/><glyph d="M963 1826l-275 -287h-127l221 287h181zM1202 1413v-133l-879 -1120h877v-160h-1119v128l882 1123h-836v162h1075z" glyph-name="Zacute" horiz-adv-x="1294" unicode="Ź"/><glyph d="M805 1413l-275 -287h-127l221 287h181zM911 999v-129l-619 -727h615v-143h-844v119l635 737h-603v143h816z" glyph-name="zacute" horiz-adv-x="987" unicode="ź"/><glyph d="M732 1826v-212h-178v212h178zM1202 1413v-133l-879 -1120h877v-160h-1119v128l882 1123h-836v162h1075z" glyph-name="Zdotaccent" horiz-adv-x="1294" unicode="Ż"/><glyph d="M574 1413v-212h-178v212h178zM911 999v-129l-619 -727h615v-143h-844v119l635 737h-603v143h816z" glyph-name="zdotaccent" horiz-adv-x="987" unicode="ż"/><glyph d="M950 1826l-307 -316l-306 316h136l170 -175l170 175h137zM1202 1413v-133l-879 -1120h877v-160h-1119v128l882 1123h-836v162h1075z" glyph-name="Zcaron" horiz-adv-x="1294" unicode="Ž"/><glyph d="M792 1413l-307 -316l-306 316h136l170 -175l170 175h137zM911 999v-129l-619 -727h615v-143h-844v119l635 737h-603v143h816z" glyph-name="zcaron" horiz-adv-x="987" unicode="ž"/><glyph d="M111 -449v130q154 0 217 65t63 229v896h-175v128h175v128q0 138 78.5 225.5t198.5 87.5q117 0 228 -94l-93 -110q-36 33 -66.5 46.5t-68.5 13.5q-59 0 -96 -43t-37 -126v-128h258v-128h-258v-910q0 -210 -107 -310t-317 -100z" glyph-name="florin" horiz-adv-x="998" unicode="ƒ"/><glyph d="M226 408l-19 1005h166l-19 -1005h-128zM198 0v234h184v-234h-184z" glyph-name="uni01C3" horiz-adv-x="580" unicode="ǃ"/><glyph d="M2370 1826l-307 -316l-306 316h136l170 -175l170 175h137zM601 1413q353 0 539 -185.5t186 -531.5q0 -332 -189 -514t-538 -182h-389v1413h391zM2622 1413v-133l-879 -1120h877v-160h-1119v128l882 1123h-836v162h1075zM582 162q275 0 421.5 132t146.5 409 q0 281 -134 414.5t-418 133.5h-212v-1089h196z" glyph-name="uni01C4" horiz-adv-x="2714" unicode="Ǆ"/><glyph d="M601 1413q353 0 539 -185.5t186 -531.5q0 -332 -189 -514t-538 -182h-389v1413h391zM2236 1413l-307 -316l-306 316h136l170 -175l170 175h137zM582 162q275 0 421.5 132t146.5 409q0 281 -134 414.5t-418 133.5h-212v-1089h196zM2355 999v-129l-619 -727h615v-143h-844 v119l635 737h-603v143h816z" glyph-name="uni01C5" horiz-adv-x="2431" unicode="ǅ"/><glyph d="M858 819v594h172v-1413h-158l-7 189q-48 -98 -138.5 -152t-199.5 -54q-133 0 -235 71t-154 187.5t-52 258.5q0 141 52 258t153 187.5t233 70.5q107 0 196.5 -52t137.5 -145zM1992 1413l-307 -316l-306 316h136l170 -175l170 175h137zM2111 999v-129l-619 -727h615v-143 h-844v119l635 737h-603v143h816zM567 137q142 0 223.5 102t81.5 261q0 158 -81.5 260t-223.5 102q-143 0 -226 -102.5t-83 -259.5q0 -158 83 -260.5t226 -102.5z" glyph-name="uni01C6" horiz-adv-x="2187" unicode="ǆ"/><glyph d="M210 0v1413h176v-1246h633v-167h-809zM1629 -17q-200 0 -322.5 123.5t-136.5 315.5l173 19q9 -133 82.5 -213.5t203.5 -80.5q152 0 215.5 89.5t63.5 274.5v740h-560v162h737v-900q0 -121 -26.5 -217t-80.5 -166.5t-142.5 -108.5t-206.5 -38z" glyph-name="uni01C7" horiz-adv-x="2268" unicode="Ǉ"/><glyph d="M210 0v1413h176v-1246h633v-167h-809zM1245 1201v212h178v-212h-178zM1146 -435q-80 0 -166 32l44 148q62 -26 106 -26q119 0 119 150v1130h170v-1118q0 -145 -68.5 -230.5t-204.5 -85.5z" glyph-name="uni01C8" horiz-adv-x="1589" unicode="ǈ"/><glyph d="M355 -17q-100 0 -146.5 54.5t-46.5 169.5v1206h170v-1161q0 -56 21 -86t78 -30q31 0 77 8l1 -143q-83 -18 -154 -18zM725 1201v212h178v-212h-178zM626 -435q-80 0 -166 32l44 148q62 -26 106 -26q119 0 119 150v1130h170v-1118q0 -145 -68.5 -230.5t-204.5 -85.5z" glyph-name="uni01C9" horiz-adv-x="1069" unicode="ǉ"/><glyph d="M1057 289v1124h170v-1413h-182l-665 1127v-1127h-170v1413h180zM1678 1413h737v-900q0 -121 -26.5 -217t-80.5 -166.5t-142.5 -108.5t-206.5 -38q-200 0 -322.5 123.5t-136.5 315.5l173 19q9 -133 82.5 -213.5t203.5 -80.5q152 0 215.5 89.5t63.5 274.5v740h-560v162z " glyph-name="uni01CA" horiz-adv-x="2598" unicode="Ǌ"/><glyph d="M1057 289v1124h170v-1413h-182l-665 1127v-1127h-170v1413h180zM1604 1413h178v-212h-178v212zM1608 -131v1130h170v-1118q0 -145 -68.5 -230.5t-204.5 -85.5q-80 0 -166 32l44 148q62 -26 106 -26q119 0 119 150z" glyph-name="uni01CB" horiz-adv-x="1948" unicode="ǋ"/><glyph d="M1304 1201v212h178v-212h-178zM168 0v999h169v-152q50 83 131 126t175 43q88 0 156.5 -31t110.5 -86t63.5 -125t22.5 -152v-622h-169v591q0 126 -59 197t-171 71q-122 0 -191 -72.5t-69 -210.5v-576h-169zM1205 -435q-80 0 -166 32l44 148q62 -26 106 -26q119 0 119 150 v1130h170v-1118q0 -145 -68.5 -230.5t-204.5 -85.5z" glyph-name="uni01CC" horiz-adv-x="1648" unicode="ǌ"/><glyph d="M656 1510l-306 316h136l170 -175l170 175h137zM50 0l538 1413h140l538 -1413h-191l-118 330h-595l-120 -330h-192zM417 481h485l-243 680z" glyph-name="uni01CD" horiz-adv-x="1315" unicode="Ǎ"/><glyph d="M818 1413l-307 -316l-306 316h136l170 -175l170 175h137zM515 1016q194 0 302 -109.5t108 -297.5v-609h-141l-11 178q-51 -94 -145 -144.5t-201 -50.5q-156 0 -253.5 83.5t-97.5 229.5q0 286 412 286h283q-1 150 -58 218t-196 68q-171 0 -272 -156l-130 94 q76 104 172 157t228 53zM460 128q122 0 203.5 73.5t107.5 191.5v65h-273q-123 0 -185.5 -45t-62.5 -123q0 -74 55 -118t155 -44z" glyph-name="uni01CE" horiz-adv-x="1064" unicode="ǎ"/><glyph d="M297 1510l-306 316h136l170 -175l170 175h137zM210 0v1413h176v-1413h-176z" glyph-name="uni01CF" horiz-adv-x="597" unicode="Ǐ"/><glyph d="M252 1097l-306 316h136l170 -175l170 175h137zM168 0v999h169v-999h-169z" glyph-name="uni01D0" horiz-adv-x="505" unicode="ǐ"/><glyph d="M772 1510l-306 316h136l170 -175l170 175h137zM773 -17q-131 0 -240.5 38.5t-185.5 105.5t-129 159t-78 198t-25 223t25 223t78 197.5t129 158.5t185.5 105.5t240.5 38.5q164 0 292.5 -58.5t208 -159.5t120 -229.5t40.5 -275.5t-40.5 -276t-120 -230t-208 -159.5 t-292.5 -58.5zM773 140q99 0 179 30t134.5 81.5t91.5 124t53.5 155t16.5 176.5q0 93 -16.5 175.5t-53.5 155t-91.5 124t-134.5 81.5t-179 30q-122 0 -214.5 -45t-148 -124.5t-83 -179.5t-27.5 -217q0 -118 27.5 -218t83 -179.5t148 -124.5t214.5 -45z" glyph-name="uni01D1" horiz-adv-x="1548" unicode="Ǒ"/><glyph d="M570 1097l-306 316h136l170 -175l170 175h137zM570 -17q-143 0 -256.5 70t-174.5 188t-61 261q0 106 36 200t99.5 163.5t156 110t200.5 40.5q143 0 257 -69t175.5 -186.5t61.5 -258.5q0 -143 -61.5 -261t-175.5 -188t-257 -70zM570 130q100 0 173.5 51.5t109 134.5 t35.5 186q0 158 -84.5 262.5t-233.5 104.5q-148 0 -232 -104.5t-84 -262.5q0 -159 84 -265.5t232 -106.5z" glyph-name="uni01D2" horiz-adv-x="1143" unicode="ǒ"/><glyph d="M695 1510l-306 316h136l170 -175l170 175h137zM696 -17q-259 0 -387.5 145t-128.5 409v876h176v-857q0 -200 80 -301t260 -101q181 0 261.5 101.5t80.5 304.5v853h176v-866q0 -269 -129 -416.5t-389 -147.5z" glyph-name="uni01D3" horiz-adv-x="1394" unicode="Ǔ"/><glyph d="M566 1097l-306 316h136l170 -175l170 175h137zM493 -17q-88 0 -156.5 31.5t-110 86.5t-63 125t-22.5 152v621h168v-591q0 -126 59 -197t171 -71q122 0 191.5 72.5t69.5 210.5v576h168v-999h-168v152q-49 -83 -131 -126t-176 -43z" glyph-name="uni01D4" horiz-adv-x="1136" unicode="ǔ"/><glyph d="M420 2022v103h552v-103h-552zM436 1614v212h144v-212h-144zM810 1614v212h144v-212h-144zM696 -17q-259 0 -387.5 145t-128.5 409v876h176v-857q0 -200 80 -301t260 -101q181 0 261.5 101.5t80.5 304.5v853h176v-866q0 -269 -129 -416.5t-389 -147.5z" glyph-name="uni01D5" horiz-adv-x="1394" unicode="Ǖ"/><glyph d="M291 1609v103h552v-103h-552zM307 1201v212h144v-212h-144zM681 1201v212h144v-212h-144zM493 -17q-88 0 -156.5 31.5t-110 86.5t-63 125t-22.5 152v621h168v-591q0 -126 59 -197t171 -71q122 0 191.5 72.5t69.5 210.5v576h168v-999h-168v152q-49 -83 -131 -126t-176 -43 z" glyph-name="uni01D6" horiz-adv-x="1136" unicode="ǖ"/><glyph d="M613 1953l221 287h181l-275 -287h-127zM436 1614v212h144v-212h-144zM810 1614v212h144v-212h-144zM696 -17q-259 0 -387.5 145t-128.5 409v876h176v-857q0 -200 80 -301t260 -101q181 0 261.5 101.5t80.5 304.5v853h176v-866q0 -269 -129 -416.5t-389 -147.5z" glyph-name="uni01D7" horiz-adv-x="1394" unicode="Ǘ"/><glyph d="M484 1540l221 287h181l-275 -287h-127zM307 1201v212h144v-212h-144zM681 1201v212h144v-212h-144zM493 -17q-88 0 -156.5 31.5t-110 86.5t-63 125t-22.5 152v621h168v-591q0 -126 59 -197t171 -71q122 0 191.5 72.5t69.5 210.5v576h168v-999h-168v152q-49 -83 -131 -126 t-176 -43z" glyph-name="uni01D8" horiz-adv-x="1136" unicode="ǘ"/><glyph d="M695 1924l-306 316h136l170 -175l170 175h137zM436 1614v212h144v-212h-144zM810 1614v212h144v-212h-144zM696 -17q-259 0 -387.5 145t-128.5 409v876h176v-857q0 -200 80 -301t260 -101q181 0 261.5 101.5t80.5 304.5v853h176v-866q0 -269 -129 -416.5t-389 -147.5z " glyph-name="uni01D9" horiz-adv-x="1394" unicode="Ǚ"/><glyph d="M566 1511l-306 316h136l170 -175l170 175h137zM307 1201v212h144v-212h-144zM681 1201v212h144v-212h-144zM493 -17q-88 0 -156.5 31.5t-110 86.5t-63 125t-22.5 152v621h168v-591q0 -126 59 -197t171 -71q122 0 191.5 72.5t69.5 210.5v576h168v-999h-168v152 q-49 -83 -131 -126t-176 -43z" glyph-name="uni01DA" horiz-adv-x="1136" unicode="ǚ"/><glyph d="M649 1940l-276 300h182l221 -300h-127zM436 1614v212h144v-212h-144zM810 1614v212h144v-212h-144zM696 -17q-259 0 -387.5 145t-128.5 409v876h176v-857q0 -200 80 -301t260 -101q181 0 261.5 101.5t80.5 304.5v853h176v-866q0 -269 -129 -416.5t-389 -147.5z" glyph-name="uni01DB" horiz-adv-x="1394" unicode="Ǜ"/><glyph d="M520 1527l-276 300h182l221 -300h-127zM307 1201v212h144v-212h-144zM681 1201v212h144v-212h-144zM493 -17q-88 0 -156.5 31.5t-110 86.5t-63 125t-22.5 152v621h168v-591q0 -126 59 -197t171 -71q122 0 191.5 72.5t69.5 210.5v576h168v-999h-168v152q-49 -83 -131 -126 t-176 -43z" glyph-name="uni01DC" horiz-adv-x="1136" unicode="ǜ"/><glyph d="M508 1016q115 0 207.5 -40.5t151 -110.5t89.5 -162t31 -199q0 -105 -29.5 -198t-86 -165.5t-146 -115t-200.5 -42.5q-97 0 -174.5 30t-127 77.5t-82.5 111.5t-46.5 127.5t-13.5 128.5q0 62 8 92h719q-10 147 -86.5 229.5t-214.5 82.5q-84 0 -149 -27.5t-126 -92.5 l-118 103q83 89 177.5 130t216.5 41zM808 426h-559q0 -43 4 -63q14 -101 84 -169t189 -68q123 0 195 81.5t87 218.5z" glyph-name="uni01DD" horiz-adv-x="1072" unicode="ǝ"/><glyph d="M677 -6q-34 -12 -69.5 -32.5t-71 -49.5t-57.5 -68.5t-22 -81.5q0 -109 105 -109q82 0 134 73l87 -60q-81 -120 -217 -120q-95 0 -154 53t-59 142q0 83 51 146.5t115 97.5q-196 19 -318.5 165.5t-122.5 351.5q0 106 36 200t99.5 163.5t156 110t200.5 40.5q143 0 257 -69 t175.5 -186.5t61.5 -258.5q0 -189 -106.5 -330.5t-280.5 -177.5zM254 502q0 -159 84 -265.5t232 -106.5q100 0 173.5 51.5t109 134.5t35.5 186q0 158 -84.5 262.5t-233.5 104.5q-148 0 -232 -104.5t-84 -262.5z" glyph-name="uni01EB" horiz-adv-x="1143" unicode="ǫ"/><glyph d="M601 1413q353 0 539 -185.5t186 -531.5q0 -332 -189 -514t-538 -182h-389v1413h391zM2622 1413v-133l-879 -1120h877v-160h-1119v128l882 1123h-836v162h1075zM582 162q275 0 421.5 132t146.5 409q0 281 -134 414.5t-418 133.5h-212v-1089h196z" glyph-name="uni01F1" horiz-adv-x="2714" unicode="Ǳ"/><glyph d="M601 1413q353 0 539 -185.5t186 -531.5q0 -332 -189 -514t-538 -182h-389v1413h391zM582 162q275 0 421.5 132t146.5 409q0 281 -134 414.5t-418 133.5h-212v-1089h196zM2355 999v-129l-619 -727h615v-143h-844v119l635 737h-603v143h816z" glyph-name="uni01F2" horiz-adv-x="2431" unicode="ǲ"/><glyph d="M858 819v594h172v-1413h-158l-7 189q-48 -98 -138.5 -152t-199.5 -54q-133 0 -235 71t-154 187.5t-52 258.5q0 141 52 258t153 187.5t233 70.5q107 0 196.5 -52t137.5 -145zM2111 999v-129l-619 -727h615v-143h-844v119l635 737h-603v143h816zM567 137q142 0 223.5 102 t81.5 261q0 158 -81.5 260t-223.5 102q-143 0 -226 -102.5t-83 -259.5q0 -158 83 -260.5t226 -102.5z" glyph-name="uni01F3" horiz-adv-x="2187" unicode="ǳ"/><glyph d="M1092 1826l-275 -287h-127l221 287h181zM1196 1290q118 -98 178 -250.5t60 -332.5q0 -147 -40.5 -276t-120 -230t-208 -159.5t-292.5 -58.5q-190 0 -333 80l-39 -63h-129l77 125q-116 99 -175 251t-59 331q0 117 25 223t78 197.5t129 158.5t185.5 105.5t240.5 38.5 q190 0 332 -78l38 61h129zM300 707q0 -281 140 -434l579 939q-103 61 -246 61q-122 0 -214.5 -45t-148 -124.5t-83 -179.5t-27.5 -217zM773 140q99 0 179 30t134.5 81.5t91.5 124t53.5 155t16.5 176.5q0 283 -143 435l-579 -939q104 -63 247 -63z" glyph-name="Oslashacute" horiz-adv-x="1548" unicode="Ǿ"/><glyph d="M890 1413l-275 -287h-127l221 287h181zM872 915q91 -70 141.5 -178.5t50.5 -234.5q0 -143 -61.5 -261t-175.5 -188t-257 -70q-130 0 -236 59l-26 -42h-91l52 84q-90 72 -140.5 181t-50.5 237q0 106 36 200t99.5 163.5t156 110t200.5 40.5q130 0 238 -58l25 41h91z M254 502q0 -178 98 -282l376 609q-70 40 -158 40q-148 0 -232 -104.5t-84 -262.5zM570 130q100 0 173.5 51.5t109 134.5t35.5 186q0 176 -99 278l-376 -609q69 -41 157 -41z" glyph-name="oslashacute" horiz-adv-x="1143" unicode="ǿ"/><glyph d="M587 -14q-125 0 -231 44t-181 135.5t-96 217.5l174 44q18 -138 109.5 -211t227.5 -73q131 0 209.5 67.5t78.5 170.5q0 55 -24.5 99t-65.5 74.5t-94.5 56t-112.5 48.5t-118 47t-112.5 56t-94.5 71t-65.5 97t-24.5 130q0 168 118.5 269t294.5 101q278 0 410 -234l-146 -90 q-90 167 -270 167q-99 0 -165 -58t-66 -147q0 -50 24.5 -89.5t65.5 -67.5t94.5 -52t112.5 -46.5t118 -46.5t112.5 -57.5t94.5 -75t65.5 -102t24.5 -135.5q0 -184 -133.5 -297t-333.5 -113zM325 -451l167 340h178l-241 -340h-104z" glyph-name="Scommaaccent" horiz-adv-x="1145" unicode="Ș"/><glyph d="M466 -17q-148 0 -259.5 76t-150.5 193l137 60q29 -80 96 -133.5t169 -53.5q99 0 153.5 46t54.5 116q0 48 -30.5 80t-79.5 49t-108 31t-118 33t-108 46.5t-79.5 79t-30.5 124.5q0 136 100.5 211t251.5 75q120 0 212.5 -55t147.5 -156l-131 -71q-81 147 -235 147 q-84 0 -134 -36t-50 -93q0 -38 24 -66t63.5 -43.5t89.5 -31t102.5 -27.5t102.5 -35.5t89.5 -53.5t63.5 -81t24 -119q0 -101 -52.5 -173.5t-133.5 -105.5t-181 -33zM252 -451l167 340h178l-241 -340h-104z" glyph-name="scommaaccent" horiz-adv-x="922" unicode="ș"/><glyph d="M526 0v1255h-476v158h1128v-158h-476v-1255h-176zM374 -451l167 340h178l-241 -340h-104z" glyph-name="uni021A" horiz-adv-x="1228" unicode="Ț"/><glyph d="M488 -17q-137 0 -211 77.5t-74 218.5v577h-165v143h167v276l167 122v-398h270v-143h-270v-549q0 -92 36.5 -133t108.5 -41q62 0 124 28l1 -154q-64 -24 -154 -24zM243 -451l167 340h178l-241 -340h-104z" glyph-name="uni021B" horiz-adv-x="720" unicode="ț"/><glyph d="M68 -435q-80 0 -166 32l44 148q62 -26 106 -26q119 0 119 150v1130h170v-1118q0 -145 -68.5 -230.5t-204.5 -85.5z" glyph-name="uni0237" horiz-adv-x="511" unicode="ȷ"/><glyph d="M547 131q171 0 272 156l130 -94q-76 -104 -172 -157t-228 -53q-194 0 -302 109.5t-108 297.5v609h141l11 -178q51 94 145 144.5t201 50.5q156 0 253.5 -83.5t97.5 -229.5q0 -286 -412 -286h-283q1 -150 58 -218t196 -68zM604 871q-122 0 -203.5 -73.5t-107.5 -191.5v-65 h273q123 0 185.5 45t62.5 123q0 74 -55 118t-155 44z" glyph-name="uni0250" horiz-adv-x="1064" unicode="ɐ"/><glyph d="M467 -17q-142 0 -247.5 74.5t-152.5 208.5l154 58q27 -86 93 -136.5t155 -50.5q141 0 214 104t73 257q0 71 -17 135t-51 116t-90.5 82.5t-128.5 30.5q-88 0 -154.5 -51t-96.5 -139l-161 63q55 138 162.5 209.5t249.5 71.5q90 0 166 -28.5t129.5 -78t91 -116t55 -141 t17.5 -154.5q0 -105 -30.5 -197.5t-87 -163.5t-145.5 -112.5t-198 -41.5z" glyph-name="uni0254" horiz-adv-x="1012" unicode="ɔ"/><glyph d="M508 -17q-122 0 -216.5 41t-177.5 130l118 103q61 -65 126 -92.5t149 -27.5q138 0 214.5 82.5t86.5 229.5h-719q-8 30 -8 92q0 65 13.5 128.5t46.5 127.5t82.5 111.5t127 77.5t174.5 30q111 0 200.5 -42.5t146 -115t86 -165.5t29.5 -198q0 -107 -31 -199t-89.5 -162 t-151 -110.5t-207.5 -40.5zM808 573q-15 137 -87 218.5t-195 81.5q-119 0 -189 -68t-84 -169q-4 -20 -4 -63h559z" glyph-name="uni0258" horiz-adv-x="1072" unicode="ɘ"/><glyph d="M508 1016q115 0 207.5 -40.5t151 -110.5t89.5 -162t31 -199q0 -105 -29.5 -198t-86 -165.5t-146 -115t-200.5 -42.5q-97 0 -174.5 30t-127 77.5t-82.5 111.5t-46.5 127.5t-13.5 128.5q0 62 8 92h719q-10 147 -86.5 229.5t-214.5 82.5q-84 0 -149 -27.5t-126 -92.5 l-118 103q83 89 177.5 130t216.5 41zM808 426h-559q0 -43 4 -63q14 -101 84 -169t189 -68q123 0 195 81.5t87 218.5z" glyph-name="uni0259" horiz-adv-x="1072" unicode="ə"/><glyph d="M555 -470q-151 0 -260 64.5t-175 175.5l130 94q38 -81 119 -133t189 -52q135 0 213.5 88.5t78.5 252.5v175q-48 -94 -136 -146t-195 -52q-133 0 -235 70.5t-154 185.5t-52 254q0 138 52 253t153.5 185.5t232.5 70.5q107 0 196.5 -52t137.5 -145v180h171v-979 q0 -228 -125.5 -359t-340.5 -131zM558 154q142 0 224 99t82 254q0 154 -82 254.5t-224 100.5t-225 -101.5t-83 -253.5q0 -153 83 -253t225 -100z" glyph-name="uni0261" horiz-adv-x="1189" unicode="ɡ"/><glyph d="M40 1108l306 330l307 -330h-136l-171 182l-169 -182h-137z" glyph-name="circumflex" horiz-adv-x="694" unicode="ˆ"/><glyph d="M353 1097l-306 316h136l170 -175l170 175h137z" glyph-name="caron" horiz-adv-x="699" unicode="ˇ"/><glyph d="M295 570l-243 429l461 16zM60 -16l219 445l243 -429z" glyph-name="uni02D0" horiz-adv-x="573" unicode="ː"/><glyph d="M300 233l-243 431l462 16z" glyph-name="uni02D1" horiz-adv-x="584" unicode="ˑ"/><glyph d="M424 1146q-308 0 -308 267h121q0 -80 50 -122t137 -42q88 0 137.5 42t49.5 122h121q0 -132 -78 -199.5t-230 -67.5z" glyph-name="breve" horiz-adv-x="842" unicode="˘"/><glyph d="M173 1201v212h178v-212h-178z" glyph-name="dotaccent" horiz-adv-x="504" unicode="˙"/><glyph d="M321 1086q-86 0 -145.5 61t-59.5 146t60 145t145 60t146 -59.5t61 -145.5t-60.5 -146.5t-146.5 -60.5zM321 1180q49 0 81 32.5t32 81.5q0 47 -31.5 78.5t-81.5 31.5q-48 0 -79.5 -31.5t-31.5 -78.5q0 -49 32 -81.5t79 -32.5z" glyph-name="ring" horiz-adv-x="638" unicode="˚"/><glyph d="M319 -454q-95 0 -154 53t-59 142q0 54 24 103t59 81t68.5 52t57.5 26l134 -3q-26 -7 -55.5 -20.5t-62.5 -36t-59.5 -48.5t-44 -61t-17.5 -72q0 -109 105 -109q82 0 134 73l87 -60q-81 -120 -217 -120z" glyph-name="ogonek" horiz-adv-x="602" unicode="˛"/><glyph d="M607 1148q-45 0 -80.5 17t-58 41.5t-41.5 49t-42 41.5t-50 17q-42 1 -66 -39.5t-24 -113.5h-100q0 123 52 191.5t143 68.5q42 0 76 -17t56 -41.5t42 -49t44 -41.5t51 -17q37 0 60.5 42.5t23.5 115.5h103q0 -124 -51 -194.5t-138 -70.5z" glyph-name="tilde" horiz-adv-x="898" unicode="˜"/><glyph d="M64 1099l221 314h154l-248 -314h-127zM422 1099l221 314h181l-275 -314h-127z" glyph-name="hungarumlaut" horiz-adv-x="842" unicode="˝"/><glyph d="M410 687l-278 312h181l224 -312h-127zM837 687l-282 312h182l228 -312h-128z" glyph-name="uni02F5" horiz-adv-x="1108" unicode="˵"/><glyph d="M271 687h-128l228 312h182zM698 687h-127l224 312h181z" glyph-name="uni02F6" horiz-adv-x="1108" unicode="˶"/><glyph d="M-187 1113l-276 300h182l221 -300h-127z" glyph-name="gravecomb" horiz-adv-x="0" unicode="̀"/><glyph d="M-453 1126l221 287h181l-275 -287h-127z" glyph-name="acutecomb" horiz-adv-x="0" unicode="́"/><glyph d="M-654 1108l306 330l307 -330h-136l-171 182l-169 -182h-137z" glyph-name="uni0302" horiz-adv-x="0" unicode="̂"/><glyph d="M-314 1148q-45 0 -80.5 17t-58 41.5t-41.5 49t-42 41.5t-50 17q-42 1 -66 -39.5t-24 -113.5h-100q0 123 52 191.5t143 68.5q42 0 76 -17t56 -41.5t42 -49t44 -41.5t51 -17q37 0 60.5 42.5t23.5 115.5h103q0 -124 -51 -194.5t-138 -70.5z" glyph-name="tildecomb" horiz-adv-x="0" unicode="̃"/><glyph d="M-711 1195v103h552v-103h-552z" glyph-name="uni0304" horiz-adv-x="0" unicode="̄"/><glyph d="M-421 1146q-308 0 -308 267h121q0 -80 50 -122t137 -42q88 0 137.5 42t49.5 122h121q0 -132 -78 -199.5t-230 -67.5z" glyph-name="uni0306" horiz-adv-x="0" unicode="̆"/><glyph d="M-341 1201v212h178v-212h-178z" glyph-name="uni0307" horiz-adv-x="0" unicode="̇"/><glyph d="M-681 1201v212h144v-212h-144zM-307 1201v212h144v-212h-144z" glyph-name="uni0308" horiz-adv-x="0" unicode="̈"/><glyph d="M-320 1086q-86 0 -145.5 61t-59.5 146t59.5 145t145.5 60q85 0 146 -59.5t61 -145.5t-60.5 -146.5t-146.5 -60.5zM-320 1180q49 0 81 32.5t32 81.5q0 47 -31.5 78.5t-81.5 31.5q-48 0 -79.5 -31.5t-31.5 -78.5q0 -49 32 -81.5t79 -32.5z" glyph-name="uni030A" horiz-adv-x="0" unicode="̊"/><glyph d="M-809 1099l221 314h154l-248 -314h-127zM-451 1099l221 314h181l-275 -314h-127z" glyph-name="uni030B" horiz-adv-x="0" unicode="̋"/><glyph d="M-349 1097l-306 316h136l170 -175l170 175h137z" glyph-name="uni030C" horiz-adv-x="0" unicode="̌"/><glyph d="M-419 1099h-127l-275 314h181zM-61 1099h-127l-248 314h154z" glyph-name="uni030F" horiz-adv-x="0" unicode="̏"/><glyph d="M-92 1427l-167 -304h-178l241 304h104z" glyph-name="uni0312" horiz-adv-x="0" unicode="̒"/><glyph d="M-412 1005v113q160 0 160 191v104h130v-92q0 -146 -71.5 -231t-218.5 -85z" glyph-name="uni031B" horiz-adv-x="0" unicode="̛"/><glyph d="M-401 -451l167 340h178l-241 -340h-104z" glyph-name="uni0326" horiz-adv-x="0" unicode="̦"/><glyph d="M-308 -518q-62 0 -116.5 36t-77.5 93l97 41q11 -31 39 -50.5t62 -19.5q50 0 79 27t29 74q0 53 -47 86.5t-129 37.5q-11 0 -38 0.5t-44 0.5l115 191h103l-80 -121q36 -3 62 -10q78 -18 119.5 -64.5t41.5 -115.5q0 -90 -60 -148t-155 -58z" glyph-name="uni0327" horiz-adv-x="0" unicode="̧"/><glyph d="M-283 -454q-95 0 -154 53t-59 142q0 54 24 103t59 81t68.5 52t57.5 26l134 -3q-26 -7 -55.5 -20.5t-62.5 -36t-59.5 -48.5t-44 -61t-17.5 -72q0 -109 105 -109q82 0 134 73l87 -60q-81 -120 -217 -120z" glyph-name="uni0328" horiz-adv-x="0" unicode="̨"/><glyph d="M-888 279v190l606 685v-189z" glyph-name="uni0337" horiz-adv-x="0" unicode="̷"/><glyph d="M132 1126l65 287h140l-120 -287h-85z" glyph-name="tonos" horiz-adv-x="443" unicode="΄"/><glyph d="M281 1540l65 287h140l-120 -287h-85zM69 1201v212h144v-212h-144zM443 1201v212h144v-212h-144z" glyph-name="dieresistonos" horiz-adv-x="711" unicode="΅"/><glyph d="M253 -341v1340h168v-591q0 -126 59 -197t171 -71q121 0 190.5 72.5t69.5 210.5v576h168v-999h-168v152q-49 -83 -131 -126t-176 -43q-145 0 -214 94v-418h-137z" glyph-name="mu" horiz-adv-x="1293" unicode="μ"/><glyph d="M883 -17q-112 0 -171 100.5t-59 288.5v484h-322v-856h-143v856h-97v143h805v-143h-99v-462q0 -284 97 -284q31 0 61 16l45 -114q-54 -29 -117 -29z" glyph-name="pi" horiz-adv-x="1051" unicode="π"/><glyph d="M-971 1565v306h665v139h174v-301h-670v-144h-169z" glyph-name="uni0483" horiz-adv-x="0" unicode="҃"/><glyph d="M950 1516l-276 300h182l221 -300h-127zM474 0l-413 1413h183l329 -1158l351 1080h140l350 -1080l329 1158h183l-413 -1413h-174l-345 1057l-345 -1057h-175z" glyph-name="Wgrave" horiz-adv-x="1987" unicode="Ẁ"/><glyph d="M695 1113l-276 300h182l221 -300h-127zM336 0l-296 999h181l202 -742l242 742h150l241 -741l204 741h181l-298 -999h-156l-247 763l-248 -763h-156z" glyph-name="wgrave" horiz-adv-x="1479" unicode="ẁ"/><glyph d="M914 1529l221 287h181l-275 -287h-127zM474 0l-413 1413h183l329 -1158l351 1080h140l350 -1080l329 1158h183l-413 -1413h-174l-345 1057l-345 -1057h-175z" glyph-name="Wacute" horiz-adv-x="1987" unicode="Ẃ"/><glyph d="M659 1126l221 287h181l-275 -287h-127zM336 0l-296 999h181l202 -742l242 742h150l241 -741l204 741h181l-298 -999h-156l-247 763l-248 -763h-156z" glyph-name="wacute" horiz-adv-x="1479" unicode="ẃ"/><glyph d="M737 1604v212h144v-212h-144zM1111 1604v212h144v-212h-144zM474 0l-413 1413h183l329 -1158l351 1080h140l350 -1080l329 1158h183l-413 -1413h-174l-345 1057l-345 -1057h-175z" glyph-name="Wdieresis" horiz-adv-x="1987" unicode="Ẅ"/><glyph d="M482 1201v212h144v-212h-144zM856 1201v212h144v-212h-144zM336 0l-296 999h181l202 -742l242 742h150l241 -741l204 741h181l-298 -999h-156l-247 763l-248 -763h-156z" glyph-name="wdieresis" horiz-adv-x="1479" unicode="ẅ"/><glyph d="M574 1952l221 287h181l-275 -287h-127zM350 1521l306 330l307 -330h-136l-171 182l-169 -182h-137zM50 0l538 1413h140l538 -1413h-191l-118 330h-595l-120 -330h-192zM417 481h485l-243 680z" glyph-name="uni1EA4" horiz-adv-x="1315" unicode="Ấ"/><glyph d="M831 1826l-275 -287h-127l221 287h181zM511 1290l-169 -182h-137l306 330l307 -330h-136zM515 1016q194 0 302 -109.5t108 -297.5v-609h-141l-11 178q-51 -94 -145 -144.5t-201 -50.5q-156 0 -253.5 83.5t-97.5 229.5q0 286 412 286h283q-1 150 -58 218t-196 68 q-171 0 -272 -156l-130 94q76 104 172 157t228 53zM460 128q122 0 203.5 73.5t107.5 191.5v65h-273q-123 0 -185.5 -45t-62.5 -123q0 -74 55 -118t155 -44z" glyph-name="uni1EA5" horiz-adv-x="1064" unicode="ấ"/><glyph d="M610 1939l-276 300h182l221 -300h-127zM350 1521l306 330l307 -330h-136l-171 182l-169 -182h-137zM50 0l538 1413h140l538 -1413h-191l-118 330h-595l-120 -330h-192zM417 481h485l-243 680z" glyph-name="uni1EA6" horiz-adv-x="1315" unicode="Ầ"/><glyph d="M592 1526h-127l-276 300h182zM205 1108l306 330l307 -330h-136l-171 182l-169 -182h-137zM515 1016q194 0 302 -109.5t108 -297.5v-609h-141l-11 178q-51 -94 -145 -144.5t-201 -50.5q-156 0 -253.5 83.5t-97.5 229.5q0 286 412 286h283q-1 150 -58 218t-196 68 q-171 0 -272 -156l-130 94q76 104 172 157t228 53zM460 128q122 0 203.5 73.5t107.5 191.5v65h-273q-123 0 -185.5 -45t-62.5 -123q0 -74 55 -118t155 -44z" glyph-name="uni1EA7" horiz-adv-x="1064" unicode="ầ"/><glyph d="M792 1960q-45 0 -80.5 17t-58 41.5t-41.5 49t-42 41.5t-50 17q-42 1 -66 -39.5t-24 -113.5h-100q0 123 52 191.5t143 68.5q42 0 76 -17t56 -41.5t42 -49t44 -41.5t51 -17q37 0 60.5 42.5t23.5 115.5h103q0 -124 -51 -194.5t-138 -70.5zM350 1521l306 330l307 -330h-136 l-171 182l-169 -182h-137zM50 0l538 1413h140l538 -1413h-191l-118 330h-595l-120 -330h-192zM417 481h485l-243 680z" glyph-name="uni1EAA" horiz-adv-x="1315" unicode="Ẫ"/><glyph d="M375 1713q-42 1 -66 -39.5t-24 -113.5h-100q0 123 52 191.5t143 68.5q42 0 76 -17t56 -41.5t42 -49t44 -41.5t51 -17q37 0 60.5 42.5t23.5 115.5h103q0 -124 -51 -194.5t-138 -70.5q-45 0 -80.5 17t-58 41.5t-41.5 49t-42 41.5t-50 17zM205 1108l306 330l307 -330h-136 l-171 182l-169 -182h-137zM515 1016q194 0 302 -109.5t108 -297.5v-609h-141l-11 178q-51 -94 -145 -144.5t-201 -50.5q-156 0 -253.5 83.5t-97.5 229.5q0 286 412 286h283q-1 150 -58 218t-196 68q-171 0 -272 -156l-130 94q76 104 172 157t228 53zM460 128 q122 0 203.5 73.5t107.5 191.5v65h-273q-123 0 -185.5 -45t-62.5 -123q0 -74 55 -118t155 -44z" glyph-name="uni1EAB" horiz-adv-x="1064" unicode="ẫ"/><glyph d="M574 1953l221 287h181l-275 -287h-127zM657 1559q-308 0 -308 267h121q0 -80 50 -122t137 -42q88 0 137.5 42t49.5 122h121q0 -132 -78 -199.5t-230 -67.5zM50 0l538 1413h140l538 -1413h-191l-118 330h-595l-120 -330h-192zM417 481h485l-243 680z" glyph-name="uni1EAE" horiz-adv-x="1315" unicode="Ắ"/><glyph d="M831 1827l-275 -287h-127l221 287h181zM512 1146q-308 0 -308 267h121q0 -80 50 -122t137 -42q88 0 137.5 42t49.5 122h121q0 -132 -78 -199.5t-230 -67.5zM515 1016q194 0 302 -109.5t108 -297.5v-609h-141l-11 178q-51 -94 -145 -144.5t-201 -50.5q-156 0 -253.5 83.5 t-97.5 229.5q0 286 412 286h283q-1 150 -58 218t-196 68q-171 0 -272 -156l-130 94q76 104 172 157t228 53zM460 128q122 0 203.5 73.5t107.5 191.5v65h-273q-123 0 -185.5 -45t-62.5 -123q0 -74 55 -118t155 -44z" glyph-name="uni1EAF" horiz-adv-x="1064" unicode="ắ"/><glyph d="M610 1940l-276 300h182l221 -300h-127zM657 1559q-308 0 -308 267h121q0 -80 50 -122t137 -42q88 0 137.5 42t49.5 122h121q0 -132 -78 -199.5t-230 -67.5zM50 0l538 1413h140l538 -1413h-191l-118 330h-595l-120 -330h-192zM417 481h485l-243 680z" glyph-name="uni1EB0" horiz-adv-x="1315" unicode="Ằ"/><glyph d="M592 1527h-127l-276 300h182zM325 1413q0 -80 50 -122t137 -42q88 0 137.5 42t49.5 122h121q0 -132 -78 -199.5t-230 -67.5q-308 0 -308 267h121zM515 1016q194 0 302 -109.5t108 -297.5v-609h-141l-11 178q-51 -94 -145 -144.5t-201 -50.5q-156 0 -253.5 83.5 t-97.5 229.5q0 286 412 286h283q-1 150 -58 218t-196 68q-171 0 -272 -156l-130 94q76 104 172 157t228 53zM460 128q122 0 203.5 73.5t107.5 191.5v65h-273q-123 0 -185.5 -45t-62.5 -123q0 -74 55 -118t155 -44z" glyph-name="uni1EB1" horiz-adv-x="1064" unicode="ằ"/><glyph d="M792 1961q-45 0 -80.5 17t-58 41.5t-41.5 49t-42 41.5t-50 17q-42 1 -66 -39.5t-24 -113.5h-100q0 123 52 191.5t143 68.5q42 0 76 -17t56 -41.5t42 -49t44 -41.5t51 -17q37 0 60.5 42.5t23.5 115.5h103q0 -124 -51 -194.5t-138 -70.5zM657 1559q-308 0 -308 267h121 q0 -80 50 -122t137 -42q88 0 137.5 42t49.5 122h121q0 -132 -78 -199.5t-230 -67.5zM50 0l538 1413h140l538 -1413h-191l-118 330h-595l-120 -330h-192zM417 481h485l-243 680z" glyph-name="uni1EB4" horiz-adv-x="1315" unicode="Ẵ"/><glyph d="M375 1714q-42 1 -66 -39.5t-24 -113.5h-100q0 123 52 191.5t143 68.5q42 0 76 -17t56 -41.5t42 -49t44 -41.5t51 -17q37 0 60.5 42.5t23.5 115.5h103q0 -124 -51 -194.5t-138 -70.5q-45 0 -80.5 17t-58 41.5t-41.5 49t-42 41.5t-50 17zM512 1249q88 0 137.5 42t49.5 122 h121q0 -132 -78 -199.5t-230 -67.5q-308 0 -308 267h121q0 -80 50 -122t137 -42zM515 1016q194 0 302 -109.5t108 -297.5v-609h-141l-11 178q-51 -94 -145 -144.5t-201 -50.5q-156 0 -253.5 83.5t-97.5 229.5q0 286 412 286h283q-1 150 -58 218t-196 68q-171 0 -272 -156 l-130 94q76 104 172 157t228 53zM460 128q122 0 203.5 73.5t107.5 191.5v65h-273q-123 0 -185.5 -45t-62.5 -123q0 -74 55 -118t155 -44z" glyph-name="uni1EB5" horiz-adv-x="1064" unicode="ẵ"/><glyph d="M811 1547q-45 0 -80.5 17t-58 41.5t-41.5 49t-42 41.5t-50 17q-42 1 -66 -39.5t-24 -113.5h-100q0 123 52 191.5t143 68.5q42 0 76 -17t56 -41.5t42 -49t44 -41.5t51 -17q37 0 60.5 42.5t23.5 115.5h103q0 -124 -51 -194.5t-138 -70.5zM210 0v1413h929v-162h-753v-461 h685v-163h-685v-460h753v-167h-929z" glyph-name="uni1EBC" horiz-adv-x="1264" unicode="Ẽ"/><glyph d="M667 1134q-45 0 -80.5 17t-58 41.5t-41.5 49t-42 41.5t-50 17q-42 1 -66 -39.5t-24 -113.5h-100q0 123 52 191.5t143 68.5q42 0 76 -17t56 -41.5t42 -49t44 -41.5t51 -17q37 0 60.5 42.5t23.5 115.5h103q0 -124 -51 -194.5t-138 -70.5zM564 -17q-115 0 -207.5 40.5 t-151 110.5t-89.5 162t-31 199q0 105 29.5 198t86 165.5t146 115t200.5 42.5q97 0 174.5 -30t127 -77.5t82.5 -111.5t46.5 -127.5t13.5 -128.5q0 -62 -8 -92h-719q10 -147 86.5 -229.5t214.5 -82.5q84 0 149 27.5t126 92.5l118 -103q-83 -89 -177.5 -130t-216.5 -41z M264 573h559q0 43 -4 63q-14 101 -84 169t-189 68q-123 0 -195 -81.5t-87 -218.5z" glyph-name="uni1EBD" horiz-adv-x="1072" unicode="ẽ"/><glyph d="M593 1952l221 287h181l-275 -287h-127zM369 1521l306 330l307 -330h-136l-171 182l-169 -182h-137zM210 0v1413h929v-162h-753v-461h685v-163h-685v-460h753v-167h-929z" glyph-name="uni1EBE" horiz-adv-x="1264" unicode="Ế"/><glyph d="M449 1539l221 287h181l-275 -287h-127zM225 1108l306 330l307 -330h-136l-171 182l-169 -182h-137zM564 -17q-115 0 -207.5 40.5t-151 110.5t-89.5 162t-31 199q0 105 29.5 198t86 165.5t146 115t200.5 42.5q97 0 174.5 -30t127 -77.5t82.5 -111.5t46.5 -127.5 t13.5 -128.5q0 -62 -8 -92h-719q10 -147 86.5 -229.5t214.5 -82.5q84 0 149 27.5t126 92.5l118 -103q-83 -89 -177.5 -130t-216.5 -41zM264 573h559q0 43 -4 63q-14 101 -84 169t-189 68q-123 0 -195 -81.5t-87 -218.5z" glyph-name="uni1EBF" horiz-adv-x="1072" unicode="ế"/><glyph d="M629 1939l-276 300h182l221 -300h-127zM369 1521l306 330l307 -330h-136l-171 182l-169 -182h-137zM210 0v1413h929v-162h-753v-461h685v-163h-685v-460h753v-167h-929z" glyph-name="uni1EC0" horiz-adv-x="1264" unicode="Ề"/><glyph d="M485 1526l-276 300h182l221 -300h-127zM225 1108l306 330l307 -330h-136l-171 182l-169 -182h-137zM564 -17q-115 0 -207.5 40.5t-151 110.5t-89.5 162t-31 199q0 105 29.5 198t86 165.5t146 115t200.5 42.5q97 0 174.5 -30t127 -77.5t82.5 -111.5t46.5 -127.5 t13.5 -128.5q0 -62 -8 -92h-719q10 -147 86.5 -229.5t214.5 -82.5q84 0 149 27.5t126 92.5l118 -103q-83 -89 -177.5 -130t-216.5 -41zM264 573h559q0 43 -4 63q-14 101 -84 169t-189 68q-123 0 -195 -81.5t-87 -218.5z" glyph-name="uni1EC1" horiz-adv-x="1072" unicode="ề"/><glyph d="M811 1960q-45 0 -80.5 17t-58 41.5t-41.5 49t-42 41.5t-50 17q-42 1 -66 -39.5t-24 -113.5h-100q0 123 52 191.5t143 68.5q42 0 76 -17t56 -41.5t42 -49t44 -41.5t51 -17q37 0 60.5 42.5t23.5 115.5h103q0 -124 -51 -194.5t-138 -70.5zM369 1521l306 330l307 -330h-136 l-171 182l-169 -182h-137zM210 0v1413h929v-162h-753v-461h685v-163h-685v-460h753v-167h-929z" glyph-name="uni1EC4" horiz-adv-x="1264" unicode="Ễ"/><glyph d="M667 1547q-45 0 -80.5 17t-58 41.5t-41.5 49t-42 41.5t-50 17q-42 1 -66 -39.5t-24 -113.5h-100q0 123 52 191.5t143 68.5q42 0 76 -17t56 -41.5t42 -49t44 -41.5t51 -17q37 0 60.5 42.5t23.5 115.5h103q0 -124 -51 -194.5t-138 -70.5zM225 1108l306 330l307 -330h-136 l-171 182l-169 -182h-137zM564 -17q-115 0 -207.5 40.5t-151 110.5t-89.5 162t-31 199q0 105 29.5 198t86 165.5t146 115t200.5 42.5q97 0 174.5 -30t127 -77.5t82.5 -111.5t46.5 -127.5t13.5 -128.5q0 -62 -8 -92h-719q10 -147 86.5 -229.5t214.5 -82.5q84 0 149 27.5 t126 92.5l118 -103q-83 -89 -177.5 -130t-216.5 -41zM264 573h559q0 43 -4 63q-14 101 -84 169t-189 68q-123 0 -195 -81.5t-87 -218.5z" glyph-name="uni1EC5" horiz-adv-x="1072" unicode="ễ"/><glyph d="M690 1952l221 287h181l-275 -287h-127zM466 1521l306 330l307 -330h-136l-171 182l-169 -182h-137zM773 -17q-131 0 -240.5 38.5t-185.5 105.5t-129 159t-78 198t-25 223t25 223t78 197.5t129 158.5t185.5 105.5t240.5 38.5q164 0 292.5 -58.5t208 -159.5t120 -229.5 t40.5 -275.5t-40.5 -276t-120 -230t-208 -159.5t-292.5 -58.5zM773 140q99 0 179 30t134.5 81.5t91.5 124t53.5 155t16.5 176.5q0 93 -16.5 175.5t-53.5 155t-91.5 124t-134.5 81.5t-179 30q-122 0 -214.5 -45t-148 -124.5t-83 -179.5t-27.5 -217q0 -118 27.5 -218 t83 -179.5t148 -124.5t214.5 -45z" glyph-name="uni1ED0" horiz-adv-x="1548" unicode="Ố"/><glyph d="M488 1539l221 287h181l-275 -287h-127zM264 1108l306 330l307 -330h-136l-171 182l-169 -182h-137zM570 -17q-143 0 -256.5 70t-174.5 188t-61 261q0 106 36 200t99.5 163.5t156 110t200.5 40.5q143 0 257 -69t175.5 -186.5t61.5 -258.5q0 -143 -61.5 -261t-175.5 -188 t-257 -70zM570 130q100 0 173.5 51.5t109 134.5t35.5 186q0 158 -84.5 262.5t-233.5 104.5q-148 0 -232 -104.5t-84 -262.5q0 -159 84 -265.5t232 -106.5z" glyph-name="uni1ED1" horiz-adv-x="1143" unicode="ố"/><glyph d="M726 1939l-276 300h182l221 -300h-127zM466 1521l306 330l307 -330h-136l-171 182l-169 -182h-137zM773 -17q-131 0 -240.5 38.5t-185.5 105.5t-129 159t-78 198t-25 223t25 223t78 197.5t129 158.5t185.5 105.5t240.5 38.5q164 0 292.5 -58.5t208 -159.5t120 -229.5 t40.5 -275.5t-40.5 -276t-120 -230t-208 -159.5t-292.5 -58.5zM773 140q99 0 179 30t134.5 81.5t91.5 124t53.5 155t16.5 176.5q0 93 -16.5 175.5t-53.5 155t-91.5 124t-134.5 81.5t-179 30q-122 0 -214.5 -45t-148 -124.5t-83 -179.5t-27.5 -217q0 -118 27.5 -218 t83 -179.5t148 -124.5t214.5 -45z" glyph-name="uni1ED2" horiz-adv-x="1548" unicode="Ồ"/><glyph d="M524 1526l-276 300h182l221 -300h-127zM264 1108l306 330l307 -330h-136l-171 182l-169 -182h-137zM570 -17q-143 0 -256.5 70t-174.5 188t-61 261q0 106 36 200t99.5 163.5t156 110t200.5 40.5q143 0 257 -69t175.5 -186.5t61.5 -258.5q0 -143 -61.5 -261t-175.5 -188 t-257 -70zM570 130q100 0 173.5 51.5t109 134.5t35.5 186q0 158 -84.5 262.5t-233.5 104.5q-148 0 -232 -104.5t-84 -262.5q0 -159 84 -265.5t232 -106.5z" glyph-name="uni1ED3" horiz-adv-x="1143" unicode="ồ"/><glyph d="M908 1960q-45 0 -80.5 17t-58 41.5t-41.5 49t-42 41.5t-50 17q-42 1 -66 -39.5t-24 -113.5h-100q0 123 52 191.5t143 68.5q42 0 76 -17t56 -41.5t42 -49t44 -41.5t51 -17q37 0 60.5 42.5t23.5 115.5h103q0 -124 -51 -194.5t-138 -70.5zM466 1521l306 330l307 -330h-136 l-171 182l-169 -182h-137zM773 -17q-131 0 -240.5 38.5t-185.5 105.5t-129 159t-78 198t-25 223t25 223t78 197.5t129 158.5t185.5 105.5t240.5 38.5q164 0 292.5 -58.5t208 -159.5t120 -229.5t40.5 -275.5t-40.5 -276t-120 -230t-208 -159.5t-292.5 -58.5zM773 140 q99 0 179 30t134.5 81.5t91.5 124t53.5 155t16.5 176.5q0 93 -16.5 175.5t-53.5 155t-91.5 124t-134.5 81.5t-179 30q-122 0 -214.5 -45t-148 -124.5t-83 -179.5t-27.5 -217q0 -118 27.5 -218t83 -179.5t148 -124.5t214.5 -45z" glyph-name="uni1ED6" horiz-adv-x="1548" unicode="Ỗ"/><glyph d="M706 1547q-45 0 -80.5 17t-58 41.5t-41.5 49t-42 41.5t-50 17q-42 1 -66 -39.5t-24 -113.5h-100q0 123 52 191.5t143 68.5q42 0 76 -17t56 -41.5t42 -49t44 -41.5t51 -17q37 0 60.5 42.5t23.5 115.5h103q0 -124 -51 -194.5t-138 -70.5zM264 1108l306 330l307 -330h-136 l-171 182l-169 -182h-137zM570 -17q-143 0 -256.5 70t-174.5 188t-61 261q0 106 36 200t99.5 163.5t156 110t200.5 40.5q143 0 257 -69t175.5 -186.5t61.5 -258.5q0 -143 -61.5 -261t-175.5 -188t-257 -70zM570 130q100 0 173.5 51.5t109 134.5t35.5 186q0 158 -84.5 262.5 t-233.5 104.5q-148 0 -232 -104.5t-84 -262.5q0 -159 84 -265.5t232 -106.5z" glyph-name="uni1ED7" horiz-adv-x="1143" unicode="ỗ"/><glyph d="M614 1527l-276 300h182l221 -300h-127zM571 0v543l-535 870h213l412 -699l414 699h214l-535 -870v-543h-183z" glyph-name="Ygrave" horiz-adv-x="1325" unicode="Ỳ"/><glyph d="M462 1113l-276 300h182l221 -300h-127zM260 -429l175 446l-414 982h187l317 -786l290 786h186l-556 -1428h-185z" glyph-name="ygrave" horiz-adv-x="1024" unicode="ỳ"/><glyph d="M796 1548q-45 0 -80.5 17t-58 41.5t-41.5 49t-42 41.5t-50 17q-42 1 -66 -39.5t-24 -113.5h-100q0 123 52 191.5t143 68.5q42 0 76 -17t56 -41.5t42 -49t44 -41.5t51 -17q37 0 60.5 42.5t23.5 115.5h103q0 -124 -51 -194.5t-138 -70.5zM571 0v543l-535 870h213l412 -699 l414 699h214l-535 -870v-543h-183z" glyph-name="uni1EF8" horiz-adv-x="1325" unicode="Ỹ"/><glyph d="M644 1134q-45 0 -80.5 17t-58 41.5t-41.5 49t-42 41.5t-50 17q-42 1 -66 -39.5t-24 -113.5h-100q0 123 52 191.5t143 68.5q42 0 76 -17t56 -41.5t42 -49t44 -41.5t51 -17q37 0 60.5 42.5t23.5 115.5h103q0 -124 -51 -194.5t-138 -70.5zM260 -429l175 446l-414 982h187 l317 -786l290 786h186l-556 -1428h-185z" glyph-name="uni1EF9" horiz-adv-x="1024" unicode="ỹ"/><glyph d="M160 550v130h739v-130h-739z" glyph-name="endash" horiz-adv-x="1059" unicode="–"/><glyph d="M66 550v130h2048v-130h-2048z" glyph-name="emdash" horiz-adv-x="2180" unicode="—"/><glyph d="M160 550v130h1231v-130h-1231z" glyph-name="afii00208" horiz-adv-x="1551" unicode="―"/><glyph d="M462 839h-115l-264 574h195z" glyph-name="quoteleft" horiz-adv-x="580" unicode="‘"/><glyph d="M118 839l184 574h195l-264 -574h-115z" glyph-name="quoteright" horiz-adv-x="580" unicode="’"/><glyph d="M141 -311l184 574h195l-264 -574h-115z" glyph-name="quotesinglbase" horiz-adv-x="563" unicode="‚"/><glyph d="M462 839h-115l-264 574h195zM817 839h-115l-264 574h195z" glyph-name="quotedblleft" horiz-adv-x="935" unicode="“"/><glyph d="M118 839l184 574h195l-264 -574h-115zM473 839l184 574h195l-264 -574h-115z" glyph-name="quotedblright" horiz-adv-x="935" unicode="”"/><glyph d="M122 -311l184 574h195l-264 -574h-115zM490 -311l184 574h195l-264 -574h-115z" glyph-name="quotedblbase" horiz-adv-x="948" unicode="„"/><glyph d="M333 -205v1066h-240v154h240v398h154v-398h240v-154h-240v-1066h-154z" glyph-name="dagger" horiz-adv-x="820" unicode="†"/><glyph d="M378 -205v398h-241v154h241v514h-241v154h241v398h154v-398h239v-154h-239v-514h239v-154h-239v-398h-154z" glyph-name="daggerdbl" horiz-adv-x="909" unicode="‡"/><glyph d="M410 244q-98 0 -167.5 69.5t-69.5 167.5t69.5 168t167.5 70t168 -70t70 -168t-70 -167.5t-168 -69.5z" glyph-name="bullet" horiz-adv-x="821" unicode="•"/><glyph d="M236 182v665l574 -332z" glyph-name="uni2023" horiz-adv-x="902" unicode="‣"/><glyph d="M231 0v235h171v-235h-171zM645 0v235h171v-235h-171z" glyph-name="twodotenleader" horiz-adv-x="1047" unicode="‥"/><glyph d="M231 0v235h171v-235h-171zM645 0v235h171v-235h-171zM1059 0v235h170v-235h-170z" glyph-name="ellipsis" horiz-adv-x="1461" unicode="…"/><glyph d="M397 788q-128 0 -202 93.5t-74 227.5q0 133 72.5 227t196.5 94q120 0 197.5 -91.5t77.5 -230.5q0 -138 -76 -229t-192 -91zM280 0l814 1413h121l-814 -1413h-121zM397 904q66 0 109 57.5t43 146.5t-42.5 147.5t-116.5 58.5t-113.5 -59t-39.5 -146t41 -146t119 -59z M1107 -17q-128 0 -202 93.5t-74 227.5q0 133 72.5 227t196.5 94q120 0 197.5 -91.5t77.5 -230.5q0 -138 -76 -229t-192 -91zM1740 -17q-127 0 -201.5 93.5t-74.5 227.5q0 133 72.5 227t197.5 94q120 0 197 -91.5t77 -230.5q0 -138 -75.5 -229t-192.5 -91zM1107 99 q66 0 109 57.5t43 146.5t-42.5 147.5t-116.5 58.5t-113.5 -59t-39.5 -146t41 -146t119 -59zM1740 99q67 0 109.5 57.5t42.5 146.5t-42.5 147.5t-115.5 58.5q-74 0 -114 -59t-40 -146q0 -86 41.5 -145.5t118.5 -59.5z" glyph-name="perthousand" horiz-adv-x="2129" unicode="‰"/><glyph d="M397 788q-128 0 -202 93.5t-74 227.5q0 133 72.5 227t196.5 94q120 0 197.5 -91.5t77.5 -230.5q0 -138 -76 -229t-192 -91zM280 0l814 1413h121l-814 -1413h-121zM397 904q66 0 109 57.5t43 146.5t-42.5 147.5t-116.5 58.5t-113.5 -59t-39.5 -146t41 -146t119 -59z M1107 -17q-128 0 -202 93.5t-74 227.5q0 133 72.5 227t196.5 94q120 0 197.5 -91.5t77.5 -230.5q0 -138 -76 -229t-192 -91zM1740 -17q-127 0 -201.5 93.5t-74.5 227.5q0 133 72.5 227t197.5 94q120 0 197 -91.5t77 -230.5q0 -138 -75.5 -229t-192.5 -91zM2374 -17 q-128 0 -202 93.5t-74 227.5q0 133 72.5 227t196.5 94q120 0 197.5 -91.5t77.5 -230.5q0 -138 -76 -229t-192 -91zM1107 99q66 0 109 57.5t43 146.5t-42.5 147.5t-116.5 58.5t-113.5 -59t-39.5 -146t41 -146t119 -59zM1740 99q67 0 109.5 57.5t42.5 146.5t-42.5 147.5 t-115.5 58.5q-74 0 -114 -59t-40 -146q0 -86 41.5 -145.5t118.5 -59.5zM2374 99q66 0 109 57.5t43 146.5t-42.5 147.5t-116.5 58.5t-113.5 -59t-39.5 -146t41 -146t119 -59z" glyph-name="uni2031" horiz-adv-x="2763" unicode="‱"/><glyph d="M461 165l-407 346l407 346v-150l-232 -196l232 -196v-150z" glyph-name="guilsinglleft" horiz-adv-x="608" unicode="‹"/><glyph d="M147 165v150l232 196l-232 196v150l407 -346z" glyph-name="guilsinglright" horiz-adv-x="608" unicode="›"/><glyph d="M-317 0l813 1413h122l-814 -1413h-121z" glyph-name="fraction" horiz-adv-x="300" unicode="⁄"/><glyph d="M814 -17q-208 0 -336.5 136.5t-172.5 359.5h-172l59 127h95q-4 45 -4 101q0 26 5 111h-155l59 131h115q22 106 64 192.5t103.5 152t147.5 102t190 36.5q241 0 384 -199l-109 -86q-98 132 -275 132q-143 0 -232.5 -90t-120.5 -240h526l-59 -128h-489q-6 -52 -6 -104 t5 -105h549l-59 -127h-467q30 -162 119.5 -255.5t235.5 -93.5q170 0 266 130l104 -101q-142 -182 -370 -182z" glyph-name="Euro" horiz-adv-x="1321" unicode="€"/><glyph d="M1275 1051v-75h-98q-11 -175 -141.5 -271.5t-341.5 -96.5h-231v-608h-175v976h-130v75h130v362h406q205 0 335.5 -96t146.5 -266h99zM463 1248v-197h537q-14 95 -92 146t-214 51h-231zM694 773q286 0 308 203h-539v-203h231z" glyph-name="uni20B1" horiz-adv-x="1382" unicode="₱"/><glyph d="M203 0l109 289h-140v151h199l67 181h-266v151h328l242 641h140l242 -641h327v-151h-267l67 -181h200v-151h-140l108 -289h-190l-103 289h-627l-103 -289h-193zM676 772h274l-137 389zM556 440h514l-64 181h-386z" glyph-name="uni20B3" horiz-adv-x="1623" unicode="₳"/><glyph d="M1129 933h181v-123h-1150v123h760q62 57 62 135q0 90 -65.5 147.5t-165.5 57.5q-180 0 -270 -167l-146 90q132 234 410 234q176 0 294.5 -101t118.5 -269q0 -69 -29 -127zM160 541v123h1150v-123h-777q-87 -67 -87 -167q0 -105 83 -168t214 -63q124 0 209 63.5t112 180.5 l174 -40q-28 -116 -103 -198.5t-178 -122.5t-225 -40q-128 0 -233 45t-167 130t-62 193t70 187h-180z" glyph-name="uni20B4" horiz-adv-x="1473" unicode="₴"/><glyph d="M151 1268v144h1128v-144h-1128zM627 0v940h-476v145h1128v-145h-476v-940h-176z" glyph-name="uni20B8" horiz-adv-x="1430" unicode="₸"/><glyph d="M343 0v297h-181v138h181v186h-181v152h181v640h407q218 0 350.5 -108t132.5 -298q0 -188 -130.5 -287t-352.5 -99h-232v-186h327v-138h-327v-297h-175zM518 773h232q308 0 308 234q0 115 -78.5 178t-229.5 63h-232v-475z" glyph-name="uni20BD" horiz-adv-x="1369" unicode="₽"/><glyph d="M1057 290v1123h170v-1413h-182l-665 1128v-1128h-170v1413h180zM1845 321q-180 0 -295 125.5t-115 308.5q0 181 115 305.5t295 124.5t296.5 -124.5t116.5 -305.5q0 -183 -116.5 -308.5t-296.5 -125.5zM1845 1063q-124 0 -194.5 -88t-70.5 -220q0 -134 70.5 -223.5 t194.5 -89.5q125 0 196.5 89.5t71.5 223.5q0 132 -71.5 220t-196.5 88zM1448 0v130h774v-130h-774z" glyph-name="afii61352" horiz-adv-x="2373" unicode="№"/><glyph d="M231 877v436h-153v100h413v-100h-152v-436h-108zM605 877v536h176l112 -356l112 356h172v-536h-108v422l-141 -399h-69l-146 403v-426h-108z" glyph-name="trademark" horiz-adv-x="1256" unicode="™"/><glyph d="M155 0v142h380l3 5q-155 92 -248 253t-93 335q0 118 44 234.5t119 197.5q89 95 217.5 151.5t255.5 56.5t255.5 -57t217.5 -153q74 -80 118 -197t44 -237q0 -186 -88.5 -346.5t-237.5 -242.5v-5h368v-137h-554v172q166 34 265 185.5t99 372.5q0 96 -31.5 186.5 t-84.5 147.5q-70 77 -171 122.5t-200 45.5t-199 -46t-171 -122q-54 -59 -85.5 -148.5t-31.5 -185.5q0 -214 98 -365t265 -194v-171h-554z" glyph-name="uni2126" horiz-adv-x="1667" unicode="Ω"/><glyph d="M1104 70l-1020 569l1020 565l57 -114l-694 -386l1731 -2v-130l-1732 2l695 -390z" glyph-name="arrowleft" horiz-adv-x="2303" unicode="←"/><glyph d="M1199 70l-57 114l695 390l-1732 -2v130l1731 2l-694 386l57 114l1020 -565z" glyph-name="arrowright" horiz-adv-x="2303" unicode="→"/><glyph d="M582 -12q-204 0 -324 126t-120 328q0 124 44 232t117.5 182.5t173 116.5t208.5 42q194 0 314 -207q3 77 -11 144q-19 175 -100.5 262.5t-215.5 87.5q-93 0 -169 -43.5t-115 -141.5l-125 39q51 129 162 200t262 71q243 0 363.5 -180.5t120.5 -494.5q0 -161 -38 -298.5 t-109.5 -242t-184 -164t-253.5 -59.5zM592 134q88 0 161.5 33t122 88.5t78 124.5t37.5 144q3 49 -5 97.5t-29.5 95t-55 81.5t-85 56.5t-115.5 21.5q-125 0 -219 -61t-140.5 -158t-46.5 -213q0 -145 84 -227.5t213 -82.5z" glyph-name="partialdiff" horiz-adv-x="1332" unicode="∂"/><glyph d="M89 0l582 1471l583 -1471h-1165zM298 143h747l-374 977z" glyph-name="uni2206" horiz-adv-x="1343" unicode="∆"/><glyph d="M268 0v1270h-98v143h1007v-143h-98v-1270h-143v1270h-524v-1270h-144z" glyph-name="product" horiz-adv-x="1347" unicode="∏"/><glyph d="M1171 1413v-161h-793l529 -545l-529 -546h793v-161h-1063v98l570 609l-570 608v98h1063z" glyph-name="summation" horiz-adv-x="1296" unicode="∑"/><glyph d="M245 564v130h754v-130h-754z" glyph-name="minus" horiz-adv-x="1245" unicode="−"/><glyph d="M515 -170l-272 722h-152v144h254l179 -497l487 1214h154z" glyph-name="radical" horiz-adv-x="1251" unicode="√"/><glyph d="M558 356q-174 0 -280.5 105.5t-106.5 270.5q0 164 106.5 269.5t280.5 105.5q116 0 228.5 -69t201.5 -189q95 122 208 190t228 68q174 0 280.5 -105.5t106.5 -269.5q0 -165 -106.5 -270.5t-280.5 -105.5q-116 0 -228.5 68.5t-207.5 190.5q-90 -122 -202 -190.5t-228 -68.5 zM579 494q83 0 171.5 61t160.5 177q-72 116 -160.5 176.5t-171.5 60.5q-113 0 -184.5 -65.5t-71.5 -171.5q0 -107 71.5 -172.5t184.5 -65.5zM1404 494q113 0 184.5 66t71.5 172t-71.5 171.5t-184.5 65.5q-86 0 -176 -63t-164 -174q74 -112 164 -175t176 -63z" glyph-name="infinity" horiz-adv-x="1983" unicode="∞"/><glyph d="M79 -469v143q173 0 246 66t73 223v1170q0 132 83.5 219.5t205.5 87.5q119 0 217 -84l-92 -109q-60 49 -125 49q-62 0 -104 -44.5t-42 -123.5v-1169q0 -210 -120.5 -319t-341.5 -109z" glyph-name="integral" horiz-adv-x="975" unicode="∫"/><glyph d="M799 709q-52 0 -93 18t-65 45t-47.5 58.5t-41.5 58.5t-46.5 45t-62.5 18q-55 0 -86 -51.5t-31 -140.5h-130q0 140 67.5 224t179.5 84q63 0 110.5 -25t75 -61t50.5 -71.5t53 -60.5t67 -25q55 0 88.5 59.5t33.5 155.5h130q0 -148 -69 -239.5t-183 -91.5zM799 250 q-61 0 -106.5 25t-72.5 61t-50.5 71.5t-55 60.5t-71.5 25q-55 0 -86 -52t-31 -141h-130q0 140 67.5 224.5t179.5 84.5q63 0 110.5 -25t75 -61t50.5 -71.5t53 -60.5t67 -25q55 0 88.5 59.5t33.5 155.5h130q0 -148 -69 -239.5t-183 -91.5z" glyph-name="approxequal" horiz-adv-x="1248" unicode="≈"/><glyph d="M128 0l224 394h-160v145h247l152 266h-399v145h486l264 463h122l-265 -463h193v-145h-280l-152 -266h432v-145h-518l-224 -394h-122z" glyph-name="notequal" horiz-adv-x="1189" unicode="≠"/><glyph d="M1125 207l-1023 583l1023 583l64 -112l-825 -471l825 -472zM159 0h1054v-130h-1054v130z" glyph-name="lessequal" horiz-adv-x="1353" unicode="≤"/><glyph d="M228 207l-64 111l825 472l-825 471l64 112l1023 -583zM1194 0v-130h-1054v130h1054z" glyph-name="greaterequal" horiz-adv-x="1353" unicode="≥"/><glyph d="M479 0l-377 707l377 706h236l377 -706l-377 -707h-236zM583 91h29l312 616l-312 615h-29l-313 -615z" glyph-name="lozenge" horiz-adv-x="1195" unicode="◊"/><glyph d="M889 -61q-158 0 -301 61t-247 165t-165 247t-61 301t61 301t165 247t247 165t301 61t301 -61t247 -165t165 -247t61 -301t-61 -301t-165 -247t-247 -165t-301 -61zM889 10q143 0 273 55.5t224 149.5t149.5 224.5t55.5 273.5t-55.5 273t-149.5 224t-224 149.5t-273 55.5 t-273.5 -55.5t-224.5 -149.5t-149.5 -224t-55.5 -273q0 -191 94 -353t256 -256t353 -94zM485 410q-14 0 -24 9.5t-10 24.5v537q0 15 10 26t24 11q16 0 26.5 -11t10.5 -26v-537q0 -15 -10.5 -24.5t-26.5 -9.5zM889 410q-16 0 -25.5 9.5t-9.5 24.5v537q0 15 10 26t25 11 t25 -11t10 -26v-537q0 -15 -10 -24.5t-25 -9.5zM1290 410q-14 0 -22 10l-271 268q-8 11 -8 25q0 16 8 24l271 269q9 12 22 12q14 0 25.5 -11.5t11.5 -25.5t-10 -25l-244 -243l244 -244q10 -10 10 -25q0 -13 -11.5 -23.5t-25.5 -10.5zM621 678q-16 0 -25.5 9.5t-9.5 25.5 q0 15 9.5 25t25.5 10h133q15 0 26 -10t11 -25t-11 -25t-26 -10h-133z" glyph-name="uniF8FF" horiz-adv-x="1778" unicode=""/><glyph d="M555 -470q-151 0 -260 64.5t-175 175.5l130 94q38 -81 119 -133t189 -52q135 0 213.5 88.5t78.5 252.5v175q-48 -94 -136 -146t-195 -52q-133 0 -235 70.5t-154 185.5t-52 254q0 138 52 253t153.5 185.5t232.5 70.5q107 0 196.5 -52t137.5 -145v180h171v-979 q0 -228 -125.5 -359t-340.5 -131zM558 154q142 0 224 99t82 254q0 154 -82 254.5t-224 100.5t-225 -101.5t-83 -253.5q0 -153 83 -253t225 -100z" glyph-name="g.salt" horiz-adv-x="1189"/><glyph d="M665 145q144 0 237.5 -69t93.5 -210q0 -150 -111.5 -236.5t-321.5 -86.5q-215 0 -351 85.5t-136 243.5q0 40 11 75l152 89q-58 29 -95.5 81.5t-38.5 126.5q-2 126 106 200q-70 90 -70 213q0 158 112 258.5t281 100.5q145 0 249 -77l150 131l88 -109l-147 -124 q49 -83 49 -186q0 -157 -111.5 -255t-278.5 -98q-127 0 -223 59q-49 -36 -46 -98q1 -114 182 -114h219zM537 881q-103 0 -164.5 -63.5t-61.5 -162.5q0 -97 61 -158.5t164 -61.5q102 0 162.5 61t60.5 158q0 99 -60.5 163t-161.5 64zM561 -319q273 0 273 172q0 77 -57 113.5 t-178 36.5h-237q-10 0 -16 1l-112 -104v-26q0 -96 83.5 -144.5t243.5 -48.5z" glyph-name="g.ss02" horiz-adv-x="1068"/><glyph d="M593 1146q-308 0 -308 267h121q0 -80 50 -122t137 -42q88 0 137.5 42t49.5 122h121q0 -132 -78 -199.5t-230 -67.5zM555 -470q-151 0 -260 64.5t-175 175.5l130 94q38 -81 119 -133t189 -52q135 0 213.5 88.5t78.5 252.5v175q-48 -94 -136 -146t-195 -52 q-133 0 -235 70.5t-154 185.5t-52 254q0 138 52 253t153.5 185.5t232.5 70.5q107 0 196.5 -52t137.5 -145v180h171v-979q0 -228 -125.5 -359t-340.5 -131zM558 154q142 0 224 99t82 254q0 154 -82 254.5t-224 100.5t-225 -101.5t-83 -253.5q0 -153 83 -253t225 -100z" glyph-name="gbreve.salt" horiz-adv-x="1189"/><glyph d="M535 1146q-308 0 -308 267h121q0 -80 50 -122t137 -42q88 0 137.5 42t49.5 122h121q0 -132 -78 -199.5t-230 -67.5zM665 145q144 0 237.5 -69t93.5 -210q0 -150 -111.5 -236.5t-321.5 -86.5q-215 0 -351 85.5t-136 243.5q0 40 11 75l152 89q-58 29 -95.5 81.5 t-38.5 126.5q-2 126 106 200q-70 90 -70 213q0 158 112 258.5t281 100.5q145 0 249 -77l150 131l88 -109l-147 -124q49 -83 49 -186q0 -157 -111.5 -255t-278.5 -98q-127 0 -223 59q-49 -36 -46 -98q1 -114 182 -114h219zM537 881q-103 0 -164.5 -63.5t-61.5 -162.5 q0 -97 61 -158.5t164 -61.5q102 0 162.5 61t60.5 158q0 99 -60.5 163t-161.5 64zM561 -319q273 0 273 172q0 77 -57 113.5t-178 36.5h-237q-10 0 -16 1l-112 -104v-26q0 -96 83.5 -144.5t243.5 -48.5z" glyph-name="gbreve.ss02" horiz-adv-x="1068"/><glyph d="M835 1402l-167 -304h-178l241 304h104zM555 -470q-151 0 -260 64.5t-175 175.5l130 94q38 -81 119 -133t189 -52q135 0 213.5 88.5t78.5 252.5v175q-48 -94 -136 -146t-195 -52q-133 0 -235 70.5t-154 185.5t-52 254q0 138 52 253t153.5 185.5t232.5 70.5 q107 0 196.5 -52t137.5 -145v180h171v-979q0 -228 -125.5 -359t-340.5 -131zM558 154q142 0 224 99t82 254q0 154 -82 254.5t-224 100.5t-225 -101.5t-83 -253.5q0 -153 83 -253t225 -100z" glyph-name="gcommaaccent.salt" horiz-adv-x="1189"/><glyph d="M765 1427l-167 -304h-178l241 304h104zM665 145q144 0 237.5 -69t93.5 -210q0 -150 -111.5 -236.5t-321.5 -86.5q-215 0 -351 85.5t-136 243.5q0 40 11 75l152 89q-58 29 -95.5 81.5t-38.5 126.5q-2 126 106 200q-70 90 -70 213q0 158 112 258.5t281 100.5q145 0 249 -77 l150 131l88 -109l-147 -124q49 -83 49 -186q0 -157 -111.5 -255t-278.5 -98q-127 0 -223 59q-49 -36 -46 -98q1 -114 182 -114h219zM537 881q-103 0 -164.5 -63.5t-61.5 -162.5q0 -97 61 -158.5t164 -61.5q102 0 162.5 61t60.5 158q0 99 -60.5 163t-161.5 64zM561 -319 q273 0 273 172q0 77 -57 113.5t-178 36.5h-237q-10 0 -16 1l-112 -104v-26q0 -96 83.5 -144.5t243.5 -48.5z" glyph-name="gcommaaccent.ss02" horiz-adv-x="1068"/><glyph d="M503 1201v212h178v-212h-178zM555 -470q-151 0 -260 64.5t-175 175.5l130 94q38 -81 119 -133t189 -52q135 0 213.5 88.5t78.5 252.5v175q-48 -94 -136 -146t-195 -52q-133 0 -235 70.5t-154 185.5t-52 254q0 138 52 253t153.5 185.5t232.5 70.5q107 0 196.5 -52 t137.5 -145v180h171v-979q0 -228 -125.5 -359t-340.5 -131zM558 154q142 0 224 99t82 254q0 154 -82 254.5t-224 100.5t-225 -101.5t-83 -253.5q0 -153 83 -253t225 -100z" glyph-name="gdotaccent.salt" horiz-adv-x="1189"/><glyph d="M623 1413v-212h-178v212h178zM665 145q144 0 237.5 -69t93.5 -210q0 -150 -111.5 -236.5t-321.5 -86.5q-215 0 -351 85.5t-136 243.5q0 40 11 75l152 89q-58 29 -95.5 81.5t-38.5 126.5q-2 126 106 200q-70 90 -70 213q0 158 112 258.5t281 100.5q145 0 249 -77l150 131 l88 -109l-147 -124q49 -83 49 -186q0 -157 -111.5 -255t-278.5 -98q-127 0 -223 59q-49 -36 -46 -98q1 -114 182 -114h219zM537 881q-103 0 -164.5 -63.5t-61.5 -162.5q0 -97 61 -158.5t164 -61.5q102 0 162.5 61t60.5 158q0 99 -60.5 163t-161.5 64zM561 -319 q273 0 273 172q0 77 -57 113.5t-178 36.5h-237q-10 0 -16 1l-112 -104v-26q0 -96 83.5 -144.5t243.5 -48.5z" glyph-name="gdotaccent.ss02" horiz-adv-x="1068"/><glyph d="M163 1201v212h178v-212h-178zM168 0v999h169v-999h-169z" glyph-name="i.locl" horiz-adv-x="505"/><glyph d="M526 0v1255h-476v158h1261v-566q50 83 129.5 126t173.5 43q88 0 157 -31t111.5 -86t64 -125t22.5 -152v-622h-172v591q0 271 -223 271q-124 0 -193.5 -86.5t-69.5 -226.5v-549h-172v1255h-437v-1255h-176z" glyph-name="T_h.dlig" horiz-adv-x="2111"/><glyph d="M1004 -17q-138 0 -212.5 77.5t-74.5 218.5v577h-349v-856h-169v856h-166v143h166v80q0 168 104 259.5t262 91.5q192 0 320 -78v-353h271v-143h-271v-549q0 -174 147 -174q59 0 124 28l1 -154q-66 -24 -153 -24zM368 999h352v257q-56 36 -147 36q-205 0 -205 -216v-77z " glyph-name="f_t.dlig" horiz-adv-x="1234"/><glyph d="M517 -17q-146 0 -224.5 77.5t-78.5 218.5v577h-176v143h179v276l165 122v-398h444v276l164 122v-398h294v-143h-294v-549q0 -91 41 -132.5t121 -41.5q66 0 131 28l2 -154q-68 -24 -159 -24q-146 0 -224.5 77t-78.5 219v577h-441v-549q0 -92 41 -133t121 -41q65 0 130 28 l2 -154q-68 -24 -159 -24z" glyph-name="t_t.dlig" horiz-adv-x="1362"/><glyph d="M645 -17q-87 0 -161 24.5t-127 65.5t-94.5 99t-68 122t-43.5 137t-24 140t-7 136t6.5 136.5t23.5 140.5t42.5 137t66 122t92.5 99t123.5 65.5t156.5 24.5q108 0 196.5 -41.5t148 -112t100.5 -165t59.5 -197t18.5 -212.5q0 -109 -18 -211t-57.5 -195.5t-98 -163 t-144.5 -110.5t-191 -41zM641 150q72 0 129 32.5t94.5 86.5t62 127t35 150t10.5 161q0 85 -10.5 162.5t-36 150t-64 126t-97.5 85.5t-133 32q-77 0 -137 -33.5t-97 -88t-61 -129t-33 -149t-9 -156.5t9.5 -156t34 -149t62.5 -129.5t100 -88.5t141 -34z" glyph-name="zero.pnum" horiz-adv-x="1270"/><glyph d="M400 1413h167v-1413h-174v1052h-347v135h224q130 0 130 116v110z" glyph-name="one.pnum" horiz-adv-x="769"/><glyph d="M347 160h759v-160h-1035v150q66 41 109 68t113.5 74.5t119 84t112 89t107 98t89.5 102.5t73.5 110t45 113.5t17.5 120.5q0 118 -66.5 189t-191.5 71q-99 0 -166 -48t-96.5 -123.5t-31.5 -173.5l-172 11q0 102 31.5 191t90 156.5t147 106.5t196.5 39q195 0 315 -112.5 t120 -310.5q0 -103 -41 -207t-107.5 -191.5t-158.5 -172.5t-184.5 -151t-194.5 -124z" glyph-name="two.pnum" horiz-adv-x="1190"/><glyph d="M580 -17q-143 0 -255.5 50t-180.5 152.5t-68 243.5l168 10q0 -136 93.5 -215t245.5 -79q144 0 238 73t94 201q0 56 -17 98.5t-48.5 69.5t-68 45t-85.5 26t-90.5 11t-92.5 3v154q168 -1 247 46.5t79 165.5q0 106 -73 167t-187 61q-121 0 -194.5 -66.5t-74.5 -179.5 l-167 11q0 182 124 290.5t309 108.5q180 0 306 -102.5t126 -268.5q0 -218 -248 -297q149 -31 236 -123.5t87 -232.5q0 -131 -68.5 -228.5t-181.5 -146t-253 -48.5z" glyph-name="three.pnum" horiz-adv-x="1184"/><glyph d="M909 496h229v-161h-229v-335h-173v335h-690v108l709 970h154v-917zM270 496h466v654z" glyph-name="four.pnum" horiz-adv-x="1187"/><glyph d="M618 952q194 0 329.5 -139t135.5 -338q0 -132 -67 -245t-182 -180t-250 -67q-180 0 -314.5 117t-173.5 297l163 45q28 -131 111 -215t214 -84q136 0 228 99t92 235q0 135 -85.5 226t-224.5 91q-84 0 -161 -41.5t-127 -116.5l-167 45l131 732h746v-162h-606l-72 -396 q131 97 280 97z" glyph-name="five.pnum" horiz-adv-x="1184"/><glyph d="M566 -17q-203 0 -346.5 138.5t-143.5 334.5q0 125 72 244l427 713h201l-329 -528q55 39 120 39q133 0 245 -60t178.5 -167t66.5 -236q0 -127 -63.5 -236.5t-177 -175.5t-250.5 -66zM567 148q131 0 224.5 91.5t93.5 220.5q0 128 -93.5 219.5t-224.5 91.5t-225 -91.5 t-94 -219.5q0 -130 93.5 -221t225.5 -91z" glyph-name="six.pnum" horiz-adv-x="1131"/><glyph d="M47 1413h1000v-98l-643 -1315h-194l627 1252h-790v161z" glyph-name="seven.pnum" horiz-adv-x="1095"/><glyph d="M592 -17q-76 0 -147 16.5t-133.5 50.5t-109 82.5t-73.5 117t-27 149.5q0 128 66.5 224t180.5 142q-80 47 -124.5 125.5t-44.5 175.5q0 112 60.5 196.5t153 126t199.5 41.5q112 0 205.5 -43.5t150.5 -128.5t57 -196q0 -96 -45.5 -174t-124.5 -123q116 -48 180.5 -143.5 t64.5 -221.5q0 -102 -41 -183t-110.5 -131.5t-156 -76.5t-181.5 -26zM597 831q106 0 173.5 61t67.5 163q0 104 -67.5 166t-174.5 62q-101 0 -171.5 -57.5t-70.5 -161.5q0 -105 66.5 -169t176.5 -64zM591 134q134 0 224.5 71t90.5 202q0 125 -88 199.5t-227 74.5 q-141 0 -229 -74t-88 -199q0 -132 91.5 -203t225.5 -71z" glyph-name="eight.pnum" horiz-adv-x="1184"/><glyph d="M1055 953q0 -128 -66 -238l-433 -715h-201l294 484q-49 -7 -86 -7q-201 0 -345.5 140t-144.5 336q0 130 66 240t179 173.5t245 63.5q134 0 247 -63.5t179 -173.5t66 -240zM245 953q0 -128 93.5 -220.5t224.5 -92.5q132 0 226 92t94 221q0 130 -93.5 221.5t-226.5 91.5 q-131 0 -224.5 -92t-93.5 -221z" glyph-name="nine.pnum" horiz-adv-x="1133"/><glyph d="M371 -10q-73 0 -130 28t-91 72t-56.5 103.5t-30.5 115.5t-8 115q0 60 8 116t29.5 116t54.5 104t88.5 72t126.5 28q81 0 144 -38t99 -102t54 -139.5t18 -158.5t-17.5 -157.5t-52.5 -137t-96 -100t-140 -37.5zM369 101q51 0 89 28.5t58.5 77t30 103t9.5 115.5q0 62 -10 116 t-31 102t-60.5 75.5t-92.5 27.5q-54 0 -93.5 -28.5t-59.5 -77.5t-29 -102t-9 -114t9 -114t30 -102t62 -78t97 -29z" glyph-name="zero.dnom"/><glyph d="M353 848h111v-848h-117v623h-204v90h128q82 0 82 73v62z" glyph-name="one.dnom"/><glyph d="M234 107h438v-107h-626v98q57 35 96.5 60.5t100.5 69t102.5 83.5t82.5 88.5t62 100.5t21 104q0 67 -37 107.5t-108 40.5q-84 0 -125 -57t-43 -145l-115 8q0 126 76 213t207 87q117 0 190 -68.5t73 -188.5q0 -74 -35 -148.5t-94.5 -138t-126 -115t-139.5 -92.5z" glyph-name="two.dnom"/><glyph d="M356 -10q-133 0 -219.5 71t-86.5 199l112 8q0 -79 54 -124.5t141 -45.5q82 0 136 41t54 115q0 39 -15 66.5t-36.5 42.5t-54.5 23.5t-60.5 10t-64.5 1.5v102q101 0 143.5 26.5t42.5 92.5q0 60 -41.5 94.5t-105.5 34.5q-68 0 -110.5 -37.5t-43.5 -101.5l-111 7 q0 111 75.5 176.5t187.5 65.5q109 0 186 -62t77 -162q0 -125 -138 -177q86 -18 134.5 -74t48.5 -137q0 -120 -87.5 -188t-217.5 -68z" glyph-name="three.dnom"/><glyph d="M551 309h136v-108h-136v-201h-117v201h-408v71l423 576h102v-539zM177 309h257v361z" glyph-name="four.dnom"/><glyph d="M384 575q118 0 199.5 -84.5t81.5 -205.5q0 -120 -89 -207.5t-213 -87.5q-108 0 -190.5 71t-106.5 179l110 31q16 -76 63 -125.5t124 -49.5q78 0 130 57.5t52 133.5q0 77 -49 129t-129 52q-48 0 -92 -24t-72 -66l-111 28l79 442h455v-110h-360l-39 -213q76 50 157 50z" glyph-name="five.dnom"/><glyph d="M367 -10q-124 0 -211 83.5t-87 202.5q0 73 44 147l256 425h135l-193 -307q28 18 57 18q123 0 210.5 -81t87.5 -199t-86.5 -203.5t-212.5 -85.5zM368 101q75 0 128.5 52t53.5 126q0 73 -54 124.5t-128 51.5q-75 0 -129.5 -51.5t-54.5 -124.5q0 -74 54 -126t130 -52z" glyph-name="six.dnom"/><glyph d="M67 848h603v-64l-383 -784h-131l372 739h-461v109z" glyph-name="seven.dnom"/><glyph d="M366 -10q-123 0 -211 65.5t-88 184.5q0 75 37.5 132t103.5 87q-96 61 -96 178q0 102 75.5 161.5t179.5 59.5q105 0 179.5 -61t74.5 -161q0 -56 -25.5 -102.5t-69.5 -74.5q66 -31 103 -87.5t37 -129.5q0 -81 -44 -140t-110.5 -85.5t-145.5 -26.5zM370 502q61 0 99.5 35 t38.5 94t-39 94t-100 35q-59 0 -99.5 -32.5t-40.5 -91.5q0 -60 38.5 -97t102.5 -37zM366 91q78 0 129.5 40t51.5 115q0 72 -50.5 114.5t-130.5 42.5q-82 0 -133 -42t-51 -114q0 -75 53 -115.5t131 -40.5z" glyph-name="eight.dnom"/><glyph d="M662 569q0 -89 -52 -163l-247 -406h-136l174 283q-24 -2 -38 -2q-122 0 -209.5 85t-87.5 203q0 120 87.5 204.5t209.5 84.5q124 0 211.5 -84.5t87.5 -204.5zM181 569q0 -73 53.5 -125.5t128.5 -52.5q76 0 130 52.5t54 125.5q0 74 -53.5 126.5t-130.5 52.5 q-75 0 -128.5 -52.5t-53.5 -126.5z" glyph-name="nine.dnom"/><glyph d="M371 563q-73 0 -130 28t-91 72t-56.5 103.5t-30.5 115.5t-8 115q0 60 8 116.5t29.5 116t54.5 103.5t88.5 72.5t126.5 28.5q66 0 119.5 -25.5t89.5 -67.5t60 -99.5t35 -119t11 -127.5q0 -83 -17.5 -157.5t-52.5 -137t-96 -100t-140 -37.5zM369 674q51 0 89 28.5t58.5 77 t30 103t9.5 115.5q0 62 -10 116.5t-31 102t-60.5 75.5t-92.5 28q-54 0 -93.5 -28.5t-59.5 -77.5t-29 -102.5t-9 -114.5q0 -60 9 -113t30 -102.5t62 -78.5t97 -29z" glyph-name="zero.numr"/><glyph d="M353 1421h111v-848h-117v623h-204v91h128q82 0 82 73v61z" glyph-name="one.numr"/><glyph d="M235 681h437v-108h-626v99q49 30 82 51t86 58t89.5 67.5t79 72.5t68 81t43 85t17.5 91q0 66 -37 106.5t-108 40.5q-84 0 -124.5 -56.5t-43.5 -143.5l-115 7q0 126 76 213t207 87q117 0 190 -68.5t73 -188.5q0 -74 -35 -148.5t-94 -137.5t-125.5 -114.5t-139.5 -93.5z" glyph-name="two.numr"/><glyph d="M356 563q-133 0 -219.5 71t-86.5 200l112 7q0 -79 54 -124t141 -45q82 0 136 41t54 114q0 39 -15 66.5t-36.5 42.5t-54.5 23.5t-60.5 10t-64.5 1.5v103q101 0 143.5 26.5t42.5 92.5q0 60 -41.5 94.5t-105.5 34.5q-69 0 -111 -38t-43 -102l-111 7q0 111 75.5 177t187.5 66 q109 0 186 -62t77 -163q0 -124 -138 -176q86 -19 134.5 -74.5t48.5 -137.5q0 -120 -87.5 -188t-217.5 -68z" glyph-name="three.numr"/><glyph d="M551 883h136v-109h-136v-201h-117v201h-408v71l423 576h102v-538zM177 883h257v361z" glyph-name="four.numr"/><glyph d="M384 1148q118 0 199.5 -84.5t81.5 -204.5t-89 -208t-213 -88q-109 0 -191 71t-106 180l110 30q16 -75 63 -124.5t124 -49.5q78 0 130 57t52 133q0 77 -49 129t-129 52q-48 0 -92.5 -23.5t-71.5 -65.5l-111 28l79 441h455v-110h-360l-39 -213q76 50 157 50z" glyph-name="five.numr"/><glyph d="M367 563q-124 0 -211 83.5t-87 202.5q0 75 44 147l256 425h135l-193 -306q28 18 57 18q123 0 210.5 -81t87.5 -199t-86.5 -204t-212.5 -86zM368 674q75 0 128.5 52t53.5 126q0 73 -53.5 125.5t-128.5 52.5t-129.5 -52.5t-54.5 -125.5q0 -74 54 -126t130 -52z" glyph-name="six.numr"/><glyph d="M67 1421h603v-64l-383 -784h-131l372 740h-461v108z" glyph-name="seven.numr"/><glyph d="M366 563q-123 0 -211 65.5t-88 184.5q0 75 37.5 132t103.5 88q-95 59 -95 177q0 102 75.5 162t178.5 60q105 0 179.5 -61t74.5 -162q0 -114 -95 -176q66 -31 103 -88t37 -130q0 -81 -44 -140t-110.5 -85.5t-145.5 -26.5zM370 1076q61 0 99.5 35t38.5 94q0 58 -39 93 t-100 35q-59 0 -99.5 -32.5t-40.5 -91.5t38.5 -96t102.5 -37zM366 664q78 0 129.5 40t51.5 115q0 73 -50.5 115t-130.5 42q-82 0 -133 -41.5t-51 -113.5q0 -76 53 -116.5t131 -40.5z" glyph-name="eight.numr"/><glyph d="M662 1143q0 -88 -50 -160l-249 -410h-136l174 284q-24 -2 -38 -2q-122 0 -209.5 84.5t-87.5 203.5q0 120 87.5 204.5t209.5 84.5q124 0 211.5 -84.5t87.5 -204.5zM181 1143q0 -73 53.5 -125.5t128.5 -52.5q76 0 130 52t54 126t-53.5 126.5t-130.5 52.5 q-75 0 -128.5 -52.5t-53.5 -126.5z" glyph-name="nine.numr"/><glyph d="M-370 982l117 431h178l-192 -431h-103z" glyph-name="glyph507" horiz-adv-x="0"/></font>
</defs>
</svg>
