<?xml version="1.0" encoding="utf-8"?>
<!-- Generator: Adobe Illustrator 24.3.0, SVG Export Plug-In . SVG Version: 6.00 Build 0)  -->
<svg version="1.1" id="Layer_1" xmlns="http://www.w3.org/2000/svg" xmlns:xlink="http://www.w3.org/1999/xlink" x="0px" y="0px"
	 viewBox="0 0 35 20" style="enable-background:new 0 0 35 20;" xml:space="preserve">
<style type="text/css">
	.st0{fill:#E17A26;}
</style>
<path class="st0" d="M24.3,0.3l-0.6,0.6c-0.4,0.4-0.4,1,0,1.3l6.6,6.5H0.9C0.4,8.7,0,9.1,0,9.6v0.8c0,0.5,0.4,0.9,0.9,0.9h29.4
	l-6.6,6.5c-0.4,0.4-0.4,1,0,1.3l0.6,0.6c0.4,0.4,1,0.4,1.3,0l9.1-9.1c0.4-0.4,0.4-1,0-1.3l-9.1-9.1C25.3-0.1,24.7-0.1,24.3,0.3z"/>
</svg>
