<?xml version="1.0" encoding="utf-8"?>
<!-- Generator: Adobe Illustrator 24.3.0, SVG Export Plug-In . SVG Version: 6.00 Build 0)  -->
<svg version="1.1" id="Layer_1" xmlns="http://www.w3.org/2000/svg" xmlns:xlink="http://www.w3.org/1999/xlink" x="0px" y="0px"
	 viewBox="0 0 80 31" style="enable-background:new 0 0 80 31;" xml:space="preserve">
<style type="text/css">
	.st0{fill:#581038;}
</style>
<g>
	<g id="Grupo_369" transform="translate(50 40)">
		<path id="Trazado_666" class="st0" d="M-37.8-12.5v-16.9l-3.2,11.2h-2.1l-3.2-11v16.8H-50v-27.2h3.3l4.5,14.3l4.5-14.3h3.4v27.2
			H-37.8z"/>
		<path id="Trazado_667" class="st0" d="M-19.2-12.5l-0.9-5.4h-5.5l-0.9,5.4h-3.9l5.8-27.2h3.6l5.7,27.2H-19.2z M-22.8-33.1l-2,11.4
			h4L-22.8-33.1z"/>
		<path id="Trazado_668" class="st0" d="M-12.1-12.5v-3.2l6.5-20.2h-6v-3.8h9.8v3.2l-6.4,20.2h6.4v3.8H-12.1z"/>
		<path id="Trazado_669" class="st0" d="M11.9-14.5c-1.9,2.5-5.5,3-8,1.2c-0.5-0.3-0.8-0.7-1.2-1.2C1-16.8,1.1-20.8,1.1-26.1
			s0-9.3,1.7-11.6c1.8-2.5,5.5-3,8-1.1c0.4,0.3,0.8,0.7,1.2,1.2c1.8,2.3,1.7,6.2,1.7,11.6S13.6-16.8,11.9-14.5z M9.1-35.1
			c-0.3-0.6-1-1-1.8-1c-0.8-0.1-1.5,0.4-1.8,1c-0.7,1.3-0.8,4.1-0.8,9s0.2,7.7,0.8,9c0.3,0.7,1,1.1,1.8,1c0.8,0.1,1.5-0.4,1.8-1
			c0.7-1.3,0.8-4,0.8-9S9.8-33.8,9.1-35.1L9.1-35.1z"/>
		<path id="Trazado_670" class="st0" d="M26.7-12.5l-5.5-16.2v16.2h-3.7v-27.2h3.3l5.5,16.2v-16.2H30v27.2H26.7z"/>
	</g>
</g>
</svg>
