<?xml version="1.0" encoding="utf-8"?>
<!-- Generator: Adobe Illustrator 25.1.0, SVG Export Plug-In . SVG Version: 6.00 Build 0)  -->
<svg version="1.1" id="Layer_1" xmlns="http://www.w3.org/2000/svg" xmlns:xlink="http://www.w3.org/1999/xlink" x="0px" y="0px"
	 viewBox="0 0 224 31" style="enable-background:new 0 0 224 31;" xml:space="preserve">
<style type="text/css">
	.st0{fill:#581038;}
	.st1{fill:#C4C4C4;}
	.st2{fill:#2B9CB7;}
</style>
<g id="Grupo_813" transform="translate(-50 -36)">
	<g id="Grupo_369_1_" transform="translate(50 36)">
		<path id="Trazado_666_1_" class="st0" d="M12.3,27.8V10.6L9,21.9H6.9L3.8,10.8v17H0V0.3h3.4L8,14.7l4.6-14.5H16v27.5H12.3z"/>
		<path id="Trazado_667_1_" class="st0" d="M31.3,27.8l-1-5.5h-5.5l-0.9,5.5h-4l5.9-27.5h3.7l5.8,27.5H31.3z M27.5,6.9l-2,11.5h4.1
			L27.5,6.9z"/>
		<path id="Trazado_668_1_" class="st0" d="M38.4,27.8v-3.2l6.5-20.4h-6.1V0.3h10v3.2l-6.5,20.4h6.5v3.9L38.4,27.8z"/>
		<path id="Trazado_669_1_" class="st0" d="M62.6,25.8c-1.9,2.6-5.5,3.1-8.1,1.2c-0.4-0.3-0.8-0.7-1.2-1.2
			c-1.8-2.3-1.7-6.3-1.7-11.7s0-9.4,1.7-11.7c1.9-2.6,5.5-3.1,8.1-1.2c0.4,0.3,0.8,0.7,1.2,1.2c1.8,2.3,1.7,6.3,1.7,11.7
			S64.4,23.4,62.6,25.8z M59.8,4.9c-0.3-0.7-1.1-1.1-1.8-1c-0.7,0-1.4,0.4-1.8,1C55.5,6.2,55.4,9,55.4,14s0.1,7.8,0.8,9.1
			c0.3,0.7,1,1.1,1.8,1c0.8,0,1.5-0.4,1.8-1c0.7-1.3,0.8-4.1,0.8-9.1S60.5,6.2,59.8,4.9L59.8,4.9z"/>
		<path id="Trazado_670_1_" class="st0" d="M77.7,27.8L72,11.4v16.4h-3.8V0.3h3.4l5.6,16.4V0.3H81v27.5H77.7z"/>
	</g>
	<path id="Trazado_671" class="st1" d="M148.1,64.1V36.3h1.2v27.8H148.1z"/>
	<g id="Grupo_811" transform="translate(193 36)">
		<path id="Trazado_1073" class="st2" d="M-25,10.7l-0.8-2.6h-3.8l-0.8,2.6h-1.3l3.3-9.9h1.4l3.2,9.9H-25z M-27.7,2.1L-27.7,2.1
			l-1.6,5h3.1L-27.7,2.1z"/>
		<path id="Trazado_1074" class="st2" d="M-18.4,10.8c-0.3,0-0.7,0-1-0.1V9.4c0.2,0.1,0.5,0.1,0.7,0.1c0.9,0,1.3-0.5,1.3-1.6V0.7
			h1.3v7.3C-16.2,9.7-16.9,10.8-18.4,10.8z"/>
		<path id="Trazado_1075" class="st2" d="M-12.9,7.4c0,1.7,0.7,2.5,2,2.5c0.6,0,1.2-0.2,1.7-0.6l0.1,1.1c-0.6,0.3-1.3,0.4-2,0.4
			c-1.9,0-2.9-1.4-2.9-3.7s1-3.7,2.8-3.7c1.6,0,2.5,1.3,2.5,3.4v0.6L-12.9,7.4z M-11.5,4.2c-0.8,0-1.5,0.6-1.5,2.3h2.9
			C-10,5-10.5,4.2-11.5,4.2L-11.5,4.2z"/>
		<path id="Trazado_1076" class="st2" d="M-0.4,10.7h-1.4l-1.5-6.1h0l-1.4,6.1h-1.4L-8,3.4h1.3l1.4,6.1h0l1.4-6.1h1.4l1.4,6.1h0
			l1.4-6.1h1.2L-0.4,10.7z"/>
		<path id="Trazado_1077" class="st2" d="M3.6,2C3.2,2,2.9,1.6,2.9,1.2c0,0,0,0,0,0c0-0.4,0.3-0.7,0.7-0.7c0.4,0,0.7,0.3,0.7,0.7
			c0,0,0,0,0,0C4.4,1.6,4.1,2,3.6,2C3.7,2,3.6,2,3.6,2z M3.1,10.7V3.4h1.2v7.3H3.1z"/>
		<path id="Trazado_1078" class="st2" d="M8.1,10.8c-0.7,0-1.4-0.1-2-0.4l0.1-1.1c0.5,0.3,1.1,0.5,1.7,0.5c0.9,0,1.4-0.5,1.4-1
			c0-1.7-3.1-1-3.1-3.3c0-1.2,1-2.1,2.2-2.1c0.1,0,0.1,0,0.2,0c0.5,0,1,0.1,1.5,0.3l-0.1,1C9.5,4.4,9,4.3,8.5,4.3
			c-0.8,0-1.2,0.4-1.2,1c0,1.5,3.1,1,3.1,3.3c0,1.2-1,2.2-2.2,2.2C8.2,10.8,8.1,10.8,8.1,10.8z"/>
		<path id="Trazado_1079" class="st2" d="M16.3,10.7V6c0-1.2-0.4-1.6-1.2-1.6c-0.9,0-1.5,0.7-1.5,2v4.4h-1.2V0h1.2v4.4h0
			c0.3-0.7,1-1.1,1.8-1.1c1.3,0,2.1,0.7,2.1,2.3v5H16.3z"/>
		<path id="Trazado_1080" class="st2" d="M27.8,10.7l-1.1-3.4c-0.1-0.7-0.8-1.2-1.6-1.1h-0.6v4.5h-1.3V0.7h2.5
			c0.8-0.1,1.5,0.2,2.1,0.7c0.5,0.5,0.8,1.2,0.7,1.9c0.1,1.2-0.8,2.2-2,2.4v0c0.5,0.1,1,0.5,1.1,1l1.4,4H27.8z M25.5,1.8h-1v3.4h1
			c0.9,0.1,1.7-0.6,1.8-1.5c0-0.1,0-0.2,0-0.3C27.4,2.3,26.6,1.8,25.5,1.8L25.5,1.8z"/>
		<path id="Trazado_1081" class="st2" d="M31.7,7.4c0,1.7,0.7,2.5,2,2.5c0.6,0,1.2-0.2,1.7-0.6l0.1,1.1c-0.6,0.3-1.3,0.4-2,0.4
			c-1.9,0-2.9-1.4-2.9-3.7s1-3.7,2.8-3.7c1.6,0,2.5,1.3,2.5,3.4v0.6L31.7,7.4z M33.1,4.2c-0.8,0-1.5,0.6-1.5,2.3h2.9
			C34.6,5,34.1,4.2,33.1,4.2L33.1,4.2z"/>
		<path id="Trazado_1082" class="st2" d="M39.2,10.8c-0.7,0-1.4-0.1-2-0.4l0.1-1.1c0.5,0.3,1.1,0.5,1.7,0.5c0.9,0,1.4-0.5,1.4-1
			c0-1.7-3.1-1-3.1-3.3c0-1.2,1-2.1,2.2-2.1c0.1,0,0.1,0,0.2,0c0.5,0,1,0.1,1.5,0.3l-0.1,1c-0.4-0.2-0.9-0.3-1.4-0.3
			c-0.8,0-1.2,0.4-1.2,1c0,1.5,3.1,1,3.1,3.3c0,1.2-1,2.2-2.2,2.2C39.3,10.8,39.3,10.8,39.2,10.8z"/>
		<path id="Trazado_1083" class="st2" d="M46.5,10.8c-0.8,0-1.5-0.4-1.9-1.1h0v4h-1.2v-9c0-0.4,0-0.9-0.1-1.3h1.2l0,1.1h0
			c0.3-0.7,1.1-1.2,1.9-1.2C48,3.3,49,4.5,49,7S48,10.8,46.5,10.8z M46.2,4.3c-1.1,0-1.6,0.9-1.6,2.8s0.5,2.8,1.6,2.8
			s1.6-0.9,1.6-2.8S47.3,4.3,46.2,4.3L46.2,4.3z"/>
		<path id="Trazado_1084_1_" class="st2" d="M53.5,10.8c-1.9,0-2.9-1.4-2.9-3.7s1-3.7,2.9-3.7c1.9,0,2.9,1.5,2.9,3.7
			S55.5,10.8,53.5,10.8z M53.5,4.3c-1.1,0-1.7,0.9-1.7,2.8s0.5,2.8,1.7,2.8s1.7-0.9,1.7-2.8S54.7,4.3,53.5,4.3L53.5,4.3z"/>
		<path id="Trazado_1085" class="st2" d="M62.3,10.7V6c0-1.2-0.4-1.6-1.2-1.6c-0.9,0-1.5,0.7-1.5,2v4.4h-1.2V5c0-0.5,0-1.1-0.1-1.6
			h1.2l0,1.1h0c0.3-0.7,1-1.2,1.8-1.2c1.3,0,2.1,0.7,2.1,2.3v5L62.3,10.7z"/>
		<path id="Trazado_1086" class="st2" d="M67.3,10.8c-0.7,0-1.4-0.1-2-0.4l0.1-1.1c0.5,0.3,1.1,0.5,1.7,0.5c0.9,0,1.4-0.5,1.4-1
			c0-1.7-3.1-1-3.1-3.3c0-1.2,1-2.1,2.2-2.1c0.1,0,0.1,0,0.2,0c0.5,0,1,0.1,1.5,0.3l-0.1,1c-0.4-0.2-0.9-0.3-1.4-0.3
			c-0.8,0-1.2,0.4-1.2,1c0,1.5,3.1,1,3.1,3.3c0,1.2-1,2.2-2.2,2.2C67.4,10.8,67.4,10.8,67.3,10.8z"/>
		<path id="Trazado_1087" class="st2" d="M72.5,7.4c0,1.7,0.7,2.5,2,2.5c0.6,0,1.2-0.2,1.7-0.6l0.1,1.1c-0.6,0.3-1.3,0.4-2,0.4
			c-1.9,0-2.9-1.4-2.9-3.7s1-3.7,2.8-3.7c1.6,0,2.5,1.3,2.5,3.4v0.6L72.5,7.4z M73.9,4.2c-0.8,0-1.5,0.6-1.5,2.3h2.9
			C75.4,5,74.9,4.2,73.9,4.2L73.9,4.2z"/>
	</g>
	<g id="Grupo_812" transform="translate(193 59)">
		<path id="Trazado_1088" class="st2" d="M-28.1-4v8.9h-1.3V-4h-2.3v-1.1h5.8V-4H-28.1z"/>
		<path id="Trazado_1089" class="st2" d="M-22.9,4.9c-1.9,0-2.9-1.4-2.9-3.7s1-3.7,2.9-3.7S-20-1.1-20,1.2S-21,4.9-22.9,4.9z
			 M-22.9-1.5c-1.1,0-1.7,0.9-1.7,2.8S-24,4-22.9,4s1.7-0.9,1.7-2.8S-21.7-1.5-22.9-1.5L-22.9-1.5z"/>
		<path id="Trazado_1090" class="st2" d="M-9.7,4.8V0.2h-3.5v4.6h-1.3v-9.9h1.3v4.2h3.5v-4.2h1.3v9.9H-9.7z"/>
		<path id="Trazado_1091" class="st2" d="M-1.9,4.8l0-1.1h0C-2.2,4.5-3,5-3.8,4.9c-1.3,0-2.1-0.7-2.1-2.3v-5h1.2v4.7
			c0,1.2,0.4,1.7,1.2,1.7C-2.6,3.9-2,3.3-2,2v-4.4h1.2v5.6c0,0.6,0,1.2,0.1,1.7L-1.9,4.8z"/>
		<path id="Trazado_1092" class="st2" d="M5.4,4.8V0.2C5.4-1,5-1.5,4.2-1.5c-0.9,0-1.5,0.7-1.5,2v4.4H1.5v-5.7c0-0.5,0-1.1-0.1-1.6
			h1.2l0,1.1h0c0.3-0.7,1-1.2,1.8-1.2c1.3,0,2.1,0.7,2.1,2.3v5L5.4,4.8z"/>
		<path id="Trazado_1093" class="st2" d="M14.1-0.9v6c0,2-1.5,2.8-3.1,2.8c-0.7,0-1.4-0.2-2.1-0.4l0.1-1.2c0.6,0.4,1.3,0.6,2,0.6
			c1.5,0,2-0.9,2-2.1V3.7h0c-0.3,0.7-1.1,1.2-1.9,1.2c-1.5,0-2.5-1.2-2.5-3.7s1-3.7,2.6-3.7c0.8,0,1.4,0.5,1.8,1.1h0l0-1h1.1
			C14.1-2,14.1-1.4,14.1-0.9z M11.3-1.5c-1.1,0-1.6,0.9-1.6,2.8S10.2,4,11.3,4s1.6-0.9,1.6-2.8S12.4-1.5,11.3-1.5L11.3-1.5z"/>
		<path id="Trazado_1094" class="st2" d="M17.2,1.6c0,1.7,0.7,2.5,2,2.5c0.6,0,1.2-0.2,1.7-0.6l0.1,1.1c-0.6,0.3-1.3,0.4-2,0.4
			C17,4.9,16,3.5,16,1.2s1-3.7,2.8-3.7c1.6,0,2.5,1.3,2.5,3.4v0.6H17.2z M18.7-1.6c-0.8,0-1.5,0.6-1.5,2.3h2.9
			C20.1-0.9,19.7-1.6,18.7-1.6L18.7-1.6z"/>
		<path id="Trazado_1095" class="st2" d="M26-1.4c-0.9,0-1.6,0.8-1.6,2.4v3.8h-1.2v-5.7c0-0.5,0-1.1-0.1-1.6h1.2l0,1.1h0
			c0.3-0.8,1.2-1.3,2.1-1.2v1.2C26.3-1.4,26.1-1.4,26-1.4z"/>
	</g>
</g>
</svg>
