<?xml version="1.0" encoding="utf-8"?>
<!-- Generator: Adobe Illustrator 25.1.0, SVG Export Plug-In . SVG Version: 6.00 Build 0)  -->
<svg version="1.1" id="Layer_1" xmlns="http://www.w3.org/2000/svg" xmlns:xlink="http://www.w3.org/1999/xlink" x="0px" y="0px"
	 viewBox="0 0 321.9 41.2" style="enable-background:new 0 0 321.9 41.2;" xml:space="preserve">
<style type="text/css">
	.st0{fill:#581038;}
	.st1{fill:#C4C4C4;}
	.st2{fill:#2B9CB7;}
</style>
<g id="Grupo_813" transform="translate(-50 -36)">
	<g id="Grupo_369_1_" transform="translate(50 36)">
		<path id="Trazado_666_1_" class="st0" d="M15.8,35.7V13.7l-4.2,14.5H8.9L4.8,13.9v21.8H0V0.3h4.3l5.9,18.6l5.9-18.6h4.4v35.4H15.8
			z"/>
		<path id="Trazado_667_1_" class="st0" d="M40.1,35.7l-1.2-7h-7.1l-1.2,7h-5.1L33,0.3h4.7l7.4,35.4H40.1z M35.4,8.9l-2.6,14.8H38
			L35.4,8.9z"/>
		<path id="Trazado_668_1_" class="st0" d="M49.3,35.7v-4.2l8.4-26.2h-7.8v-5h12.8v4.2l-8.3,26.2h8.3v5L49.3,35.7z"/>
		<path id="Trazado_669_1_" class="st0" d="M80.5,33.1c-2.5,3.3-7.1,3.9-10.4,1.5c-0.6-0.4-1.1-0.9-1.5-1.5c-2.3-3-2.2-8.1-2.2-15.1
			s0-12.1,2.2-15.1C71-0.3,75.7-1,79,1.5C79.5,1.9,80,2.4,80.5,3c2.3,3,2.2,8.1,2.2,15.1S82.7,30.1,80.5,33.1z M76.8,6.3
			C76.4,5.5,75.5,5,74.5,5c-1-0.1-1.9,0.5-2.3,1.3C71.3,8,71.1,11.6,71.1,18s0.2,10,1.1,11.7c0.4,0.9,1.3,1.4,2.3,1.3
			c1,0.1,1.9-0.5,2.3-1.3c0.9-1.7,1-5.2,1-11.7S77.7,8,76.8,6.3L76.8,6.3z"/>
		<path id="Trazado_670_1_" class="st0" d="M99.7,35.7l-7.2-21v21h-4.8V0.3H92l7.2,21v-21h4.8v35.4H99.7z"/>
	</g>
	<path id="Trazado_671_1_" class="st1" d="M176,72.1V36.3h1.6v35.7H176z"/>
	<g id="Grupo_811" transform="translate(193 36)">
		<path id="Trazado_1073" class="st2" d="M8.5,13.7l-1-3.3H2.6l-1,3.3H0L4.3,1H6l4.2,12.8H8.5z M5.1,2.6L5.1,2.6L3.1,9h4L5.1,2.6z"
			/>
		<path id="Trazado_1074" class="st2" d="M17.1,13.8c-0.4,0-0.9-0.1-1.3-0.1v-1.6c0.3,0.1,0.6,0.2,0.9,0.2c1.1,0,1.6-0.7,1.6-2V1
			h1.6v9.4C19.9,12.4,19,13.8,17.1,13.8z"/>
		<path id="Trazado_1075" class="st2" d="M24.1,9.5c0,2.2,0.8,3.2,2.5,3.2c0.8,0,1.5-0.3,2.1-0.8l0.1,1.4c-0.8,0.4-1.7,0.6-2.6,0.5
			c-2.5,0-3.7-1.9-3.7-4.8s1.3-4.8,3.6-4.8c2.1,0,3.3,1.7,3.3,4.4v0.8L24.1,9.5z M26,5.4c-1,0-1.9,0.7-1.9,2.9h3.7
			C27.8,6.4,27.2,5.4,26,5.4L26,5.4z"/>
		<path id="Trazado_1076" class="st2" d="M40.2,13.7h-1.8l-2-7.9h0l-1.8,7.9h-1.8l-2.5-9.3H32l1.8,7.8h0l1.8-7.8h1.8l1.8,7.8h0
			l1.8-7.8h1.5L40.2,13.7z"/>
		<path id="Trazado_1077" class="st2" d="M45.3,2.5c-0.5,0-0.9-0.4-0.9-0.9c0,0,0,0,0,0c0-0.5,0.4-0.9,0.9-0.9
			c0.5,0,0.9,0.4,0.9,0.9c0,0,0,0,0,0C46.3,2.1,45.9,2.5,45.3,2.5C45.4,2.5,45.3,2.5,45.3,2.5z M44.6,13.7V4.4h1.5v9.3H44.6z"/>
		<path id="Trazado_1078" class="st2" d="M51,13.8c-0.9,0-1.7-0.2-2.5-0.5l0.1-1.4c0.7,0.4,1.4,0.7,2.2,0.7c1.2,0,1.8-0.6,1.8-1.3
			c0-2.1-4-1.3-4-4.3c0-1.5,1.2-2.7,2.8-2.7c0.1,0,0.2,0,0.2,0c0.7,0,1.3,0.1,2,0.3l-0.1,1.3c-0.6-0.3-1.2-0.4-1.8-0.4
			c-1,0-1.5,0.5-1.5,1.3c0,1.9,4,1.3,4,4.2c0,1.5-1.2,2.8-2.8,2.8C51.2,13.8,51.1,13.8,51,13.8z"/>
		<path id="Trazado_1079" class="st2" d="M61.5,13.7v-6c0-1.5-0.5-2.1-1.5-2.1c-1.2,0-2,0.8-2,2.5v5.6h-1.5V0H58v5.7h0
			c0.4-0.9,1.3-1.4,2.3-1.4c1.6,0,2.7,0.9,2.7,3v6.5H61.5z"/>
		<path id="Trazado_1080" class="st2" d="M76.4,13.7l-1.5-4.3c-0.2-1-1.1-1.6-2-1.5h-0.7v5.8h-1.6V1h3.3c1-0.1,1.9,0.2,2.7,0.9
			c0.6,0.6,1,1.5,0.9,2.4c0.1,1.5-1,2.9-2.5,3.1v0c0.7,0.1,1.2,0.6,1.4,1.2l1.8,5.1H76.4z M73.5,2.3h-1.3v4.4h1.2
			c1.2,0.1,2.2-0.7,2.4-1.9c0-0.1,0-0.2,0-0.3C75.8,2.9,74.9,2.3,73.5,2.3L73.5,2.3z"/>
		<path id="Trazado_1081" class="st2" d="M81.3,9.5c0,2.2,0.8,3.2,2.5,3.2c0.8,0,1.5-0.3,2.1-0.8l0.1,1.4c-0.8,0.4-1.7,0.6-2.6,0.5
			c-2.5,0-3.7-1.9-3.7-4.8s1.3-4.8,3.6-4.8c2.1,0,3.3,1.7,3.3,4.4v0.8L81.3,9.5z M83.2,5.4c-1,0-1.9,0.7-1.9,2.9H85
			C85,6.4,84.4,5.4,83.2,5.4L83.2,5.4z"/>
		<path id="Trazado_1082" class="st2" d="M91,13.8c-0.9,0-1.7-0.2-2.5-0.5l0.1-1.4c0.7,0.4,1.4,0.7,2.2,0.7c1.2,0,1.8-0.6,1.8-1.3
			c0-2.1-4-1.3-4-4.3c0-1.5,1.2-2.7,2.8-2.7c0.1,0,0.2,0,0.2,0c0.7,0,1.3,0.1,2,0.3l-0.1,1.3c-0.6-0.3-1.2-0.4-1.8-0.4
			c-1,0-1.5,0.5-1.5,1.3c0,1.9,4,1.3,4,4.2c0,1.6-1.2,2.8-2.8,2.8C91.2,13.8,91.1,13.8,91,13.8z"/>
		<path id="Trazado_1083" class="st2" d="M100.4,13.8c-1,0-1.9-0.5-2.4-1.4h0v5.2h-1.5V6.1c0-0.6,0-1.2-0.1-1.7h1.5l0.1,1.4h0
			c0.4-0.9,1.4-1.5,2.4-1.5c1.9,0,3.2,1.6,3.2,4.8S102.3,13.8,100.4,13.8z M100.1,5.5c-1.4,0-2,1.2-2,3.5s0.6,3.5,2,3.5s2-1.2,2-3.5
			S101.5,5.5,100.1,5.5L100.1,5.5z"/>
		<path id="Trazado_1084_1_" class="st2" d="M109.4,13.8c-2.5,0-3.7-1.9-3.7-4.8s1.3-4.8,3.7-4.8s3.7,1.9,3.7,4.8
			S111.9,13.8,109.4,13.8z M109.4,5.5c-1.5,0-2.1,1.2-2.1,3.5s0.7,3.5,2.1,3.5s2.1-1.2,2.1-3.5S110.9,5.5,109.4,5.5L109.4,5.5z"/>
		<path id="Trazado_1085" class="st2" d="M120.7,13.7v-6c0-1.5-0.5-2.1-1.5-2.1c-1.2,0-2,0.8-2,2.5v5.6h-1.5V6.4c0-0.7,0-1.4-0.1-2
			h1.5l0.1,1.4h0c0.4-1,1.3-1.6,2.4-1.5c1.6,0,2.7,0.9,2.7,3v6.5L120.7,13.7z"/>
		<path id="Trazado_1086" class="st2" d="M127.1,13.8c-0.9,0-1.7-0.2-2.5-0.5l0.1-1.4c0.7,0.4,1.4,0.7,2.2,0.7
			c1.2,0,1.8-0.6,1.8-1.3c0-2.1-4-1.3-4-4.3c0-1.5,1.2-2.7,2.8-2.7c0.1,0,0.2,0,0.2,0c0.7,0,1.3,0.1,2,0.3l-0.1,1.3
			c-0.6-0.3-1.2-0.4-1.8-0.4c-1,0-1.5,0.5-1.5,1.3c0,1.9,4,1.3,4,4.2c0,1.6-1.2,2.8-2.8,2.8C127.3,13.8,127.2,13.8,127.1,13.8z"/>
		<path id="Trazado_1087" class="st2" d="M133.7,9.5c0,2.2,0.8,3.2,2.5,3.2c0.8,0,1.5-0.3,2.1-0.8l0.1,1.4c-0.8,0.4-1.7,0.6-2.6,0.5
			c-2.5,0-3.7-1.9-3.7-4.8s1.3-4.8,3.6-4.8c2.1,0,3.3,1.7,3.3,4.4v0.8L133.7,9.5z M135.6,5.4c-1,0-1.9,0.7-1.9,2.9h3.7
			C137.5,6.4,136.9,5.4,135.6,5.4L135.6,5.4z"/>
	</g>
	<g id="Grupo_812" transform="translate(193 59)">
		<path id="Trazado_1088" class="st2" d="M4.5,1.4v11.4H2.9V1.4H0V0h7.5v1.4H4.5z"/>
		<path id="Trazado_1089" class="st2" d="M11.3,12.9c-2.5,0-3.7-1.9-3.7-4.8s1.3-4.8,3.7-4.8S15,5.2,15,8.1S13.7,12.9,11.3,12.9z
			 M11.3,4.6c-1.5,0-2.1,1.2-2.1,3.5s0.7,3.5,2.1,3.5s2.1-1.2,2.1-3.5S12.7,4.6,11.3,4.6L11.3,4.6z"/>
		<path id="Trazado_1090" class="st2" d="M28.2,12.8V6.8h-4.5v5.9h-1.6V0h1.6v5.4h4.5V0h1.6v12.8H28.2z"/>
		<path id="Trazado_1091" class="st2" d="M38.3,12.8l-0.1-1.4h0c-0.4,1-1.3,1.6-2.4,1.5c-1.6,0-2.7-0.9-2.7-3V3.4h1.5v6
			c0,1.5,0.6,2.1,1.5,2.1c1.2,0,2-0.8,2-2.5V3.4h1.5v7.2c0,0.8,0,1.5,0.1,2.1L38.3,12.8z"/>
		<path id="Trazado_1092" class="st2" d="M47.6,12.8v-6c0-1.5-0.5-2.1-1.5-2.1c-1.2,0-2,0.8-2,2.5v5.6h-1.5V5.4c0-0.7,0-1.4-0.1-2
			H44L44,4.8h0c0.4-1,1.3-1.6,2.4-1.5c1.6,0,2.7,0.9,2.7,3v6.5L47.6,12.8z"/>
		<path id="Trazado_1093" class="st2" d="M58.7,5.4v7.7c0,2.6-1.9,3.7-4,3.7c-0.9,0-1.9-0.2-2.7-0.6l0.1-1.6
			c0.8,0.5,1.6,0.8,2.6,0.8c1.9,0,2.6-1.1,2.6-2.7v-1.5h0c-0.4,1-1.4,1.6-2.5,1.6c-1.9,0-3.2-1.6-3.2-4.8s1.3-4.8,3.4-4.8
			c1,0,1.8,0.6,2.3,1.4h0l0.1-1.3h1.5C58.8,4,58.7,4.8,58.7,5.4z M55.2,4.6c-1.4,0-2,1.2-2,3.5s0.6,3.5,2,3.5s2-1.2,2-3.5
			S56.6,4.6,55.2,4.6L55.2,4.6z"/>
		<path id="Trazado_1094" class="st2" d="M62.8,8.6c0,2.2,0.8,3.2,2.5,3.2c0.8,0,1.5-0.3,2.1-0.8l0.1,1.4c-0.8,0.4-1.7,0.6-2.6,0.5
			c-2.5,0-3.7-1.9-3.7-4.8s1.3-4.8,3.6-4.8C66.9,3.3,68,5,68,7.7v0.8H62.8z M64.7,4.5c-1,0-1.9,0.7-1.9,2.9h3.7
			C66.5,5.4,65.9,4.5,64.7,4.5L64.7,4.5z"/>
		<path id="Trazado_1095" class="st2" d="M74,4.8c-1.2,0-2,1-2,3.1v4.9h-1.5V5.4c0-0.7,0-1.5-0.1-2h1.5L72,4.9h0
			c0.4-1.1,1.5-1.7,2.7-1.6v1.5C74.4,4.8,74.2,4.8,74,4.8z"/>
	</g>
</g>
</svg>
