<?xml version="1.0" encoding="utf-8"?>
<!-- Generator: Adobe Illustrator 24.3.0, SVG Export Plug-In . SVG Version: 6.00 Build 0)  -->
<svg version="1.1" id="Layer_1" xmlns="http://www.w3.org/2000/svg" xmlns:xlink="http://www.w3.org/1999/xlink" x="0px" y="0px"
	 viewBox="0 0 224 31" style="enable-background:new 0 0 224 31;" xml:space="preserve">
<style type="text/css">
	.st0{fill:#2B9CB7;}
	.st1{fill:#581038;}
</style>
<g>
	<path id="Trazado_1084" class="st0" d="M98.5,11.5l-4.1-11H92l-4,11h2.3l0.9-2.6h4.1l0.9,2.6H98.5z M93.3,2.8L94.7,7h-2.8L93.3,2.8
		z M102.1,15.2c2.6,0,3.6-1.7,3.6-3.7v-11h-2.2v11c0,0.9-0.4,1.6-1.4,1.6c-0.5,0-0.9-0.1-1.4-0.2l-0.2,2
		C101.1,15.1,101.6,15.2,102.1,15.2L102.1,15.2z M115.3,7.6c0.1-2-1.6-3.7-3.6-3.8c-0.1,0-0.2,0-0.2,0c-2.1-0.1-3.9,1.6-3.9,3.7
		c0,0.1,0,0.2,0,0.2c-0.1,2.1,1.6,3.9,3.6,3.9c0.1,0,0.2,0,0.3,0c1.3,0,2.5-0.5,3.3-1.5l-1.2-1.2c-0.5,0.5-1.2,0.9-2,0.9
		c-0.9,0.1-1.7-0.5-1.9-1.4h5.6C115.3,8.1,115.3,7.9,115.3,7.6L115.3,7.6z M109.6,7.1c0.2-0.8,0.9-1.5,1.8-1.4
		c0.8-0.1,1.7,0.5,1.7,1.4H109.6z M124.1,8.6l-1.4-4.5H121l-1.4,4.5l-1.4-4.5h-2.3l2.7,7.4h1.8l1.5-4.8l1.5,4.8h1.8l2.6-7.4h-2.3
		L124.1,8.6z M130,2.8c0.7,0,1.3-0.5,1.3-1.3l0,0c-0.1-0.8-0.7-1.3-1.4-1.2c-0.7,0.1-1.2,0.6-1.2,1.2C128.8,2.2,129.4,2.8,130,2.8z
		 M131.1,11.5V4.1H129v7.4H131.1z M135.9,11.7c1.5,0,3.1-0.8,3.1-2.3c0-0.6-0.2-1.7-2-2.2l-1.2-0.3c-0.4-0.1-0.8-0.3-0.8-0.6
		c0-0.4,0.4-0.7,0.8-0.7c0.5-0.1,0.8,0.2,0.9,0.7v0.1h2c0-1.7-1.6-2.4-2.9-2.4c-1.7,0-2.9,1.1-2.9,2.2c0,0.8,0.2,1.8,2.2,2.3l1,0.2
		c0.5,0.2,0.8,0.3,0.8,0.6c0,0.5-0.5,0.8-1.1,0.8c-0.5,0.1-1-0.3-1.1-0.8c0,0,0,0,0-0.1h-2C132.8,10.8,134.3,11.7,135.9,11.7z
		 M145,3.9c-0.9,0-1.8,0.5-2.2,1.4V0h-2.1v11.5h2.1V7.6c-0.1-0.9,0.5-1.7,1.4-1.7c0.1,0,0.2,0,0.2,0c0.7,0,1.4,0.5,1.4,1.7v3.9h2.1
		V7.4C148,5.2,147,3.9,145,3.9z M162.3,11.5l-2.8-4c1.6-0.4,2.6-1.7,2.6-3.3c0.2-1.9-1.3-3.5-3.2-3.6c-0.2,0-0.3,0-0.5,0h-4.4v10.9
		h2.2V7.6h0.8l2.6,3.9H162.3z M158.3,2.5c0.8,0,1.6,0.7,1.6,1.5c0,0.1,0,0.1,0,0.2c0.1,0.8-0.6,1.6-1.5,1.7c-0.1,0-0.2,0-0.3,0h-1.7
		V2.6L158.3,2.5L158.3,2.5z M171,7.6c0.1-2-1.6-3.7-3.6-3.8c-0.1,0-0.2,0-0.2,0c-2.1-0.1-3.9,1.6-3.9,3.7c0,0.1,0,0.2,0,0.2
		c-0.1,2.1,1.6,3.9,3.6,3.9c0.1,0,0.2,0,0.3,0c1.3,0,2.5-0.5,3.3-1.5l-1.2-1.2c-0.5,0.5-1.2,0.9-2,0.9c-0.9,0.1-1.7-0.5-1.9-1.4h5.6
		C171,8.1,171,7.9,171,7.6L171,7.6z M165.4,7.1c0.2-0.8,0.9-1.5,1.8-1.4c0.8-0.1,1.7,0.5,1.7,1.4H165.4z M175.3,11.7
		c1.5,0,3.1-0.8,3.1-2.3c0-0.6-0.2-1.7-2-2.2l-1.2-0.3c-0.4-0.1-0.8-0.3-0.8-0.6c0-0.4,0.4-0.7,0.8-0.7c0.5-0.1,0.8,0.2,0.9,0.7v0.1
		h2c0-1.7-1.6-2.4-2.9-2.4c-1.7,0-2.9,1.1-2.9,2.2c0,0.8,0.2,1.8,2.2,2.3l1,0.2c0.5,0.2,0.8,0.3,0.8,0.6c0,0.5-0.5,0.8-1.1,0.8
		c-0.5,0.1-1-0.3-1.1-0.8c0,0,0,0,0-0.1h-2C172.3,10.8,173.8,11.7,175.3,11.7L175.3,11.7z M184.6,3.9c-0.9,0-1.8,0.4-2.4,1.1V4h-2.1
		v11h2.1v-4.5c0.6,0.8,1.4,1.1,2.4,1.1c2,0,3.7-1.7,3.6-3.8c0-0.1,0-0.1,0-0.2c0.1-2-1.4-3.8-3.5-3.9C184.7,3.9,184.7,3.9,184.6,3.9
		L184.6,3.9z M184.3,9.8c-1.1,0-2-0.9-1.9-2c0-1.1,0.8-1.9,1.9-1.9s2,0.9,1.9,2C186.1,8.8,185.3,9.7,184.3,9.8z M193.6,11.7
		c2.1-0.1,3.9-1.8,3.8-4c-0.1-2.1-1.8-3.9-4-3.8c-2.1,0.1-3.8,1.8-3.8,3.9s1.7,3.9,3.9,3.9C193.5,11.7,193.5,11.7,193.6,11.7
		L193.6,11.7z M193.6,9.8c-1.1,0-1.9-0.8-1.9-1.9V7.8c-0.1-1.1,0.8-1.9,1.8-2s1.9,0.8,2,1.8c0,0.1,0,0.2,0,0.2
		C195.4,8.8,194.6,9.7,193.6,9.8L193.6,9.8L193.6,9.8z M203.5,3.9c-1,0-1.8,0.5-2.2,1.4V4h-2.1v7.5h2.1V7.6
		c-0.1-0.8,0.5-1.7,1.4-1.7c0.1,0,0.2,0,0.3,0c0.7,0,1.4,0.5,1.4,1.7v3.9h2.1V7.4C206.5,5.2,205.5,3.9,203.5,3.9L203.5,3.9z
		 M211.2,11.7c1.5,0,3.1-0.8,3.1-2.3c0-0.6-0.2-1.7-2-2.2l-1.2-0.3c-0.4-0.1-0.8-0.3-0.8-0.6c0-0.4,0.4-0.7,0.8-0.7
		c0.5-0.1,0.8,0.2,0.9,0.7v0.1h2c0-1.7-1.6-2.4-2.9-2.4c-1.7,0-2.9,1.1-2.9,2.2c0,0.8,0.2,1.8,2.2,2.3l1,0.2
		c0.5,0.2,0.8,0.3,0.8,0.6c0,0.5-0.5,0.8-1.1,0.8c-0.5,0.1-1-0.3-1.1-0.8c0,0,0,0,0-0.1h-2C208.1,10.8,209.7,11.7,211.2,11.7
		L211.2,11.7z M223.3,7.6c0.1-2-1.6-3.7-3.6-3.8c-0.1,0-0.2,0-0.2,0c-2.1-0.1-3.9,1.6-3.9,3.7c0,0.1,0,0.2,0,0.2
		c-0.1,2.1,1.6,3.9,3.6,3.9c0.1,0,0.2,0,0.3,0c1.3,0,2.5-0.5,3.3-1.5l-1.2-1.2c-0.5,0.5-1.2,0.9-2,0.9c-0.9,0.1-1.7-0.5-1.9-1.4h5.6
		C223.3,8.1,223.3,7.9,223.3,7.6L223.3,7.6z M217.7,7.1c0.2-0.8,0.9-1.5,1.8-1.4c0.8-0.1,1.7,0.5,1.7,1.4H217.7z M88.4,16.2v2h3v9
		h2.2v-9h3v-2H88.4z M100.2,27.3c2.1,0.1,3.9-1.7,4-3.8s-1.7-3.9-3.8-4c-0.1,0-0.2,0-0.2,0c-2.1-0.1-3.9,1.7-4,3.8s1.7,3.9,3.8,4
		C100.2,27.3,100.2,27.3,100.2,27.3z M100.2,25.3c-1.1,0.1-2-0.8-2-1.9c-0.1-1.1,0.8-2,1.9-2c1.1-0.1,2,0.8,2,1.9v0.1
		C102.2,24.4,101.4,25.3,100.2,25.3C100.3,25.3,100.3,25.3,100.2,25.3z M116.4,20.6h-4.1v-4.5h-2.2v11h2.2v-4.5h4.1v4.5h2.2V16.2
		h-2.2V20.6z M126,23.6c0.1,0.9-0.5,1.7-1.4,1.7c-0.1,0-0.2,0-0.2,0c-0.7,0-1.4-0.5-1.4-1.7v-3.9h-2.1v4.1c0,2.2,1,3.6,2.9,3.6
		c1,0,1.8-0.5,2.2-1.4v1.2h2.1v-7.4h-2V23.6z M134.5,19.5c-1,0-1.8,0.5-2.2,1.4v-1.3h-2.1v7.4h2.1v-3.9c-0.1-0.8,0.5-1.7,1.4-1.7
		c0.1,0,0.2,0,0.2,0c0.7,0,1.4,0.5,1.4,1.7v3.9h2.1V23C137.5,20.8,136.5,19.5,134.5,19.5z M145.2,20.6c-0.6-0.7-1.4-1.1-2.3-1.1
		c-2,0-3.7,1.7-3.6,3.7c0,0.1,0,0.1,0,0.2c-0.1,2,1.4,3.8,3.5,3.9c0.1,0,0.1,0,0.2,0c0.9,0,1.8-0.4,2.4-1.1v0.2
		c0,1.9-0.8,2.6-2.2,2.6c-0.8,0-1.5-0.5-1.9-1.1l-1.7,0.8c0.7,1.4,2,2.3,3.6,2.3c2.6,0,4.2-1.5,4.2-4.8v-6.5h-2.1L145.2,20.6
		L145.2,20.6z M143.1,25.3c-1.1,0-1.9-0.9-1.9-2c0-1.1,0.8-2,1.9-2l0,0c1.1,0,2,0.9,1.9,2C145,24.5,144.2,25.3,143.1,25.3
		L143.1,25.3z M156.7,23.3c0.1-2-1.6-3.7-3.6-3.8c-0.1,0-0.2,0-0.2,0c-2.1,0-3.9,1.7-3.9,3.9c0,2.1,1.7,3.9,3.9,3.9h0.1
		c1.3,0,2.5-0.5,3.3-1.5l-1.2-1.2c-0.5,0.5-1.2,0.9-2,0.9c-0.9,0.1-1.7-0.5-1.9-1.4h5.6C156.7,23.7,156.7,23.5,156.7,23.3z
		 M151.1,22.8c0.2-0.8,0.9-1.5,1.8-1.4c0.8-0.1,1.7,0.5,1.7,1.4H151.1z M162.6,19.5c-1.1,0-2,0.8-2.2,1.8v-1.6h-2v7.4h2.1v-2.6
		c0-2.1,0.8-3.1,1.8-3.1c0.4,0,0.8,0.1,1.1,0.3l0.5-2C163.5,19.6,163.1,19.5,162.6,19.5L162.6,19.5z"/>
	<g id="Grupo_369" transform="translate(50 40)">
		<path id="Trazado_666" class="st1" d="M-37.8-12.5v-16.9l-3.2,11.2h-2.1l-3.2-11v16.8H-50v-27.2h3.3l4.5,14.3l4.5-14.3h3.4v27.2
			H-37.8z"/>
		<path id="Trazado_667" class="st1" d="M-19.2-12.5l-0.9-5.4h-5.5l-0.9,5.4h-3.9l5.8-27.2h3.6l5.7,27.2H-19.2z M-22.8-33.1l-2,11.4
			h4L-22.8-33.1z"/>
		<path id="Trazado_668" class="st1" d="M-12.1-12.5v-3.2l6.5-20.2h-6v-3.8h9.8v3.2l-6.4,20.2h6.4v3.8H-12.1z"/>
		<path id="Trazado_669" class="st1" d="M11.9-14.5c-1.9,2.5-5.5,3-8,1.2c-0.5-0.3-0.8-0.7-1.2-1.2C1-16.8,1.1-20.8,1.1-26.1
			s0-9.3,1.7-11.6c1.8-2.5,5.5-3,8-1.1c0.4,0.3,0.8,0.7,1.2,1.2c1.8,2.3,1.7,6.2,1.7,11.6S13.6-16.8,11.9-14.5z M9.1-35.1
			c-0.3-0.6-1-1-1.8-1c-0.8-0.1-1.5,0.4-1.8,1c-0.7,1.3-0.8,4.1-0.8,9s0.2,7.7,0.8,9c0.3,0.7,1,1.1,1.8,1c0.8,0.1,1.5-0.4,1.8-1
			c0.7-1.3,0.8-4,0.8-9S9.8-33.8,9.1-35.1L9.1-35.1z"/>
		<path id="Trazado_670" class="st1" d="M26.7-12.5l-5.5-16.2v16.2h-3.7v-27.2h3.3l5.5,16.2v-16.2H30v27.2H26.7z"/>
	</g>
</g>
</svg>
