<?xml version="1.0" encoding="utf-8"?>
<!-- Generator: Adobe Illustrator 24.3.0, SVG Export Plug-In . SVG Version: 6.00 Build 0)  -->
<svg version="1.1" id="Layer_1" xmlns="http://www.w3.org/2000/svg" xmlns:xlink="http://www.w3.org/1999/xlink" x="0px" y="0px"
	 viewBox="0 0 321.9 41.2" style="enable-background:new 0 0 321.9 41.2;" xml:space="preserve">
<style type="text/css">
	.st0{fill:#2B9CB7;}
	.st1{fill:#581038;}
</style>
<g id="Grupo_778" transform="translate(-50 -39.859)">
	<path id="Trazado_1084" class="st0" d="M206.8,55l-5.4-14.5h-3.2L192.9,55h3.1l1.2-3.5h5.4l1.2,3.5H206.8z M199.9,43.5l1.8,5.5H198
		L199.9,43.5z M211.6,59.9c3.4,0,4.7-2.2,4.7-4.9V40.5h-2.9v14.5c0,1.2-0.5,2.1-1.8,2.1c-0.6,0-1.2-0.1-1.8-0.2l-0.3,2.7
		C210.2,59.8,210.9,59.9,211.6,59.9L211.6,59.9z M229,49.9c0.1-2.7-2.1-4.9-4.8-5c-0.1,0-0.2,0-0.3,0c-2.8-0.1-5.1,2.1-5.2,4.9
		c0,0.1,0,0.2,0,0.3c-0.1,2.8,2.1,5.1,4.8,5.1c0.1,0,0.3,0,0.4,0c1.7,0,3.3-0.7,4.3-2l-1.6-1.6c-0.7,0.7-1.6,1.2-2.6,1.2
		c-1.2,0.1-2.2-0.7-2.5-1.8h7.4C229,50.5,229,50.2,229,49.9L229,49.9z M221.5,49.2c0.2-1.1,1.2-2,2.4-1.9c1.1-0.1,2.2,0.7,2.3,1.9
		H221.5z M240.7,51.2l-1.9-6h-2.3l-1.9,6l-1.8-6h-3l3.6,9.8h2.4l2-6.4l2,6.4h2.4l3.5-9.8h-3L240.7,51.2z M248.5,43.5
		c0.9,0,1.7-0.7,1.7-1.7c0,0,0,0,0,0c-0.1-1-0.9-1.7-1.8-1.6c-0.9,0.1-1.6,0.8-1.6,1.6C246.8,42.7,247.6,43.5,248.5,43.5z M249.9,55
		v-9.8h-2.8V55H249.9z M256.2,55.3c2,0,4.1-1.1,4.1-3.1c0-0.8-0.3-2.3-2.6-2.9l-1.6-0.4c-0.5-0.1-1-0.4-1-0.8c0-0.5,0.5-0.9,1.1-0.9
		c0.6-0.1,1.1,0.3,1.2,0.9c0,0,0,0.1,0,0.1h2.6c0-2.3-2.1-3.2-3.9-3.2c-2.3,0-3.8,1.4-3.8,2.9c0,1,0.3,2.4,2.9,3.1l1.3,0.3
		c0.7,0.2,1.1,0.4,1.1,0.8c0,0.6-0.6,1-1.4,1c-0.7,0.1-1.3-0.4-1.4-1.1c0,0,0,0,0-0.1h-2.6C252.2,54.1,254.2,55.3,256.2,55.3z
		 M268.3,44.9c-1.2,0-2.4,0.7-2.9,1.8v-6.9h-2.8V55h2.8v-5.1c-0.1-1.2,0.7-2.2,1.9-2.3c0.1,0,0.2,0,0.3,0c0.9,0,1.9,0.7,1.9,2.2V55
		h2.8v-5.4C272.2,46.7,270.9,44.9,268.3,44.9z M291.2,55l-3.7-5.3c2.1-0.5,3.5-2.3,3.5-4.4c0.2-2.5-1.7-4.6-4.2-4.7
		c-0.2,0-0.4,0-0.6,0h-5.8V55h2.9v-5.2h1l3.4,5.2H291.2z M285.9,43.1c1.1,0,2.1,0.9,2.1,2c0,0.1,0,0.1,0,0.2c0.1,1.1-0.8,2.1-2,2.2
		c-0.1,0-0.2,0-0.4,0h-2.3v-4.3H285.9z M302.7,49.9c0.1-2.7-2.1-4.9-4.8-5c-0.1,0-0.2,0-0.3,0c-2.8-0.1-5.1,2.1-5.2,4.9
		c0,0.1,0,0.2,0,0.3c-0.1,2.8,2.1,5.1,4.8,5.1c0.1,0,0.3,0,0.4,0c1.7,0,3.3-0.7,4.3-2l-1.6-1.6c-0.7,0.7-1.6,1.2-2.6,1.2
		c-1.2,0.1-2.2-0.7-2.5-1.8h7.4C302.7,50.5,302.7,50.2,302.7,49.9L302.7,49.9z M295.3,49.2c0.2-1.1,1.2-2,2.4-1.9
		c1.1-0.1,2.2,0.7,2.3,1.9H295.3z M308.4,55.3c2,0,4.1-1.1,4.1-3.1c0-0.8-0.3-2.3-2.6-2.9l-1.6-0.4c-0.5-0.1-1-0.4-1-0.8
		c0-0.5,0.5-0.9,1.1-0.9c0.6-0.1,1.1,0.3,1.2,0.9c0,0,0,0.1,0,0.1h2.6c0-2.3-2.1-3.2-3.9-3.2c-2.3,0-3.8,1.4-3.8,2.9
		c0,1,0.3,2.4,2.9,3.1l1.3,0.3c0.7,0.2,1.1,0.4,1.1,0.8c0,0.6-0.6,1-1.4,1c-0.7,0.1-1.3-0.4-1.4-1.1c0,0,0,0,0-0.1h-2.6
		C304.4,54.1,306.4,55.3,308.4,55.3L308.4,55.3z M320.7,44.9c-1.2,0-2.4,0.5-3.2,1.4v-1.2h-2.8v14.6h2.8v-6c0.8,1,1.9,1.5,3.2,1.5
		c2.7,0,4.9-2.3,4.8-5c0-0.1,0-0.1,0-0.2c0.1-2.7-1.9-5-4.6-5.1C320.8,44.9,320.8,44.9,320.7,44.9L320.7,44.9z M320.2,52.7
		c-1.4,0-2.6-1.2-2.5-2.6c0-1.4,1.1-2.5,2.5-2.5c1.4,0,2.6,1.2,2.5,2.7C322.7,51.5,321.6,52.6,320.2,52.7z M332.5,55.3
		c2.8-0.1,5.1-2.4,5-5.3c-0.1-2.8-2.4-5.1-5.3-5c-2.8,0.1-5,2.4-5,5.2c0,2.8,2.3,5.1,5.1,5.1C332.4,55.3,332.4,55.3,332.5,55.3
		L332.5,55.3z M332.5,52.7c-1.4,0-2.5-1.1-2.5-2.5c0,0,0-0.1,0-0.1c-0.1-1.4,1-2.5,2.4-2.6s2.5,1,2.6,2.4c0,0.1,0,0.2,0,0.2
		C335,51.5,333.9,52.6,332.5,52.7C332.5,52.7,332.5,52.7,332.5,52.7L332.5,52.7z M345.7,44.9c-1.3,0-2.4,0.7-2.9,1.9v-1.7H340V55
		h2.8v-5.1c-0.1-1.1,0.7-2.2,1.8-2.3c0.1,0,0.2,0,0.4,0c0.9,0,1.9,0.7,1.9,2.2V55h2.8v-5.4C349.6,46.7,348.3,44.9,345.7,44.9
		L345.7,44.9z M355.8,55.3c2,0,4.1-1.1,4.1-3.1c0-0.8-0.3-2.3-2.6-2.9l-1.6-0.4c-0.5-0.1-1-0.4-1-0.8c0-0.5,0.5-0.9,1.1-0.9
		c0.6-0.1,1.1,0.3,1.2,0.9c0,0,0,0.1,0,0.1h2.6c0-2.3-2.1-3.2-3.9-3.2c-2.3,0-3.8,1.4-3.8,2.9c0,1,0.3,2.4,2.9,3.1l1.3,0.3
		c0.7,0.2,1.1,0.4,1.1,0.8c0,0.6-0.6,1-1.4,1c-0.7,0.1-1.3-0.4-1.4-1.1c0,0,0,0,0-0.1h-2.6C351.8,54.1,353.8,55.3,355.8,55.3
		L355.8,55.3z M371.9,49.9c0.1-2.7-2.1-4.9-4.8-5c-0.1,0-0.2,0-0.3,0c-2.8-0.1-5.1,2.1-5.2,4.9c0,0.1,0,0.2,0,0.3
		c-0.1,2.8,2.1,5.1,4.8,5.1c0.1,0,0.3,0,0.4,0c1.7,0,3.3-0.7,4.3-2l-1.6-1.6c-0.7,0.7-1.6,1.2-2.6,1.2c-1.2,0.1-2.2-0.7-2.5-1.8h7.4
		C371.9,50.5,371.9,50.2,371.9,49.9L371.9,49.9z M364.5,49.2c0.2-1.1,1.2-2,2.4-1.9c1.1-0.1,2.2,0.7,2.3,1.9H364.5z M193.4,61.2v2.6
		h4v11.9h2.9V63.8h4v-2.6H193.4z M209.1,75.9c2.8,0.1,5.2-2.2,5.3-5c0.1-2.8-2.2-5.2-5-5.3c-0.1,0-0.2,0-0.2,0
		c-2.8-0.1-5.2,2.2-5.3,5c-0.1,2.8,2.2,5.2,5,5.3C209,75.9,209,75.9,209.1,75.9z M209.1,73.3c-1.4,0.1-2.7-1-2.7-2.5
		c-0.1-1.4,1-2.7,2.5-2.7c1.4-0.1,2.7,1,2.7,2.5c0,0,0,0.1,0,0.1C211.7,72.1,210.6,73.3,209.1,73.3
		C209.2,73.3,209.2,73.3,209.1,73.3z M230.5,67.1h-5.4v-6h-2.9v14.5h2.9v-5.9h5.4v5.9h2.9V61.2h-2.9V67.1z M243.1,71
		c0.1,1.2-0.7,2.2-1.9,2.3c-0.1,0-0.2,0-0.3,0c-0.9,0-1.9-0.7-1.9-2.2v-5.2h-2.8v5.4c0,2.9,1.3,4.7,3.9,4.7c1.3,0,2.4-0.7,2.9-1.8
		v1.6h2.8v-9.8h-2.7V71z M254.4,65.6c-1.3,0-2.4,0.7-2.9,1.9v-1.7h-2.8v9.8h2.8v-5.1c-0.1-1.1,0.7-2.2,1.9-2.3c0.1,0,0.2,0,0.3,0
		c0.9,0,1.9,0.7,1.9,2.2v5.2h2.8v-5.4C258.4,67.3,257,65.6,254.4,65.6z M268.5,67c-0.8-0.9-1.9-1.5-3.1-1.4c-2.7,0-4.9,2.2-4.8,4.9
		c0,0.1,0,0.1,0,0.2c-0.1,2.7,1.9,5,4.6,5.2c0.1,0,0.1,0,0.2,0c1.2,0,2.4-0.5,3.2-1.4v0.3c0,2.5-1.1,3.5-2.9,3.5c-1,0-2-0.6-2.5-1.5
		l-2.3,1c0.9,1.9,2.7,3,4.8,3c3.5,0,5.6-2,5.6-6.3v-8.6h-2.8V67z M265.8,73.3c-1.4,0-2.5-1.2-2.5-2.6c0-1.4,1.1-2.6,2.5-2.6
		c0,0,0,0,0,0c1.4,0,2.6,1.2,2.5,2.6C268.3,72.2,267.2,73.3,265.8,73.3L265.8,73.3z M283.8,70.6c0.1-2.7-2.1-4.9-4.8-5
		c-0.1,0-0.2,0-0.3,0c-2.8,0-5.2,2.2-5.2,5.1c0,2.8,2.2,5.2,5.1,5.2c0,0,0.1,0,0.1,0c1.7,0,3.3-0.7,4.3-2l-1.6-1.6
		c-0.7,0.7-1.6,1.2-2.6,1.2c-1.2,0.1-2.2-0.7-2.5-1.8h7.4C283.8,71.2,283.8,70.9,283.8,70.6z M276.4,69.9c0.2-1.1,1.2-2,2.4-1.9
		c1.1-0.1,2.2,0.7,2.3,1.9H276.4z M291.6,65.6c-1.4,0-2.6,1-2.9,2.4v-2.1H286v9.8h2.8v-3.4c0-2.8,1-4.1,2.4-4.1c0.5,0,1,0.1,1.4,0.4
		l0.6-2.6C292.7,65.7,292.2,65.6,291.6,65.6L291.6,65.6z"/>
	<g id="Grupo_369" transform="translate(50 40)">
		<path id="Trazado_666" class="st1" d="M15.8,35.7V13.7l-4.2,14.5H8.9L4.8,13.9v21.8H0V0.3h4.3l5.9,18.6l5.9-18.6h4.4v35.4H15.8z"
			/>
		<path id="Trazado_667" class="st1" d="M40.1,35.7l-1.2-7h-7.1l-1.2,7h-5.1L33,0.3h4.7l7.4,35.4H40.1z M35.4,8.9l-2.6,14.8H38
			L35.4,8.9z"/>
		<path id="Trazado_668" class="st1" d="M49.3,35.7v-4.2l8.4-26.2h-7.8v-5h12.8v4.2l-8.3,26.2h8.3v5L49.3,35.7z"/>
		<path id="Trazado_669" class="st1" d="M80.5,33.1c-2.5,3.3-7.1,3.9-10.4,1.5c-0.6-0.4-1.1-0.9-1.5-1.5c-2.3-3-2.2-8.1-2.2-15.1
			s0-12.1,2.2-15.1C71-0.3,75.7-1,79,1.5C79.5,1.9,80,2.4,80.5,3c2.3,3,2.2,8.1,2.2,15.1S82.7,30.1,80.5,33.1z M76.8,6.3
			C76.4,5.5,75.5,5,74.5,5c-1-0.1-1.9,0.5-2.3,1.3C71.3,8,71.1,11.6,71.1,18s0.2,10,1.1,11.7c0.4,0.9,1.3,1.4,2.3,1.3
			c1,0.1,1.9-0.5,2.3-1.3c0.9-1.7,1-5.2,1-11.7S77.7,8,76.8,6.3L76.8,6.3z"/>
		<path id="Trazado_670" class="st1" d="M99.7,35.7l-7.2-21v21h-4.8V0.3H92l7.2,21v-21h4.8v35.4H99.7z"/>
	</g>
	<path id="Trazado_671" class="st1" d="M176,76.1V40.3h1.6v35.7H176z"/>
</g>
</svg>
