<svg xmlns="http://www.w3.org/2000/svg" width="20" height="12" viewBox="0 0 20 12" fill="none">
<path d="M18.7958 4.87784C19.185 5.26814 19.185 5.89983 18.7958 6.29013L14.2244 10.874C13.8336 11.2658 13.199 11.2658 12.8082 10.874L12.5258 10.5908C12.1366 10.2005 12.1366 9.56882 12.5258 9.17852L14.912 6.78573H0.999999C0.447714 6.78573 0 6.33801 0 5.78573V5.38224C0 4.82996 0.447715 4.38224 1 4.38224H14.912L12.5258 1.98945C12.1366 1.59915 12.1366 0.967498 12.5258 0.577199L12.8082 0.294018C13.199 -0.0978071 13.8336 -0.0978161 14.2244 0.293998L18.7958 4.87784Z" fill="white"/>
</svg>