<svg width="17" height="16" viewBox="0 0 17 16" fill="none" xmlns="http://www.w3.org/2000/svg">
<path d="M15.5761 8.26691C15.7796 8.09254 15.8813 8.00536 15.9186 7.90161C15.9513 7.81055 15.9513 7.71094 15.9186 7.61988C15.8813 7.51613 15.7796 7.42894 15.5761 7.25457L8.51719 1.20405C8.167 0.903887 7.99191 0.753805 7.84367 0.750128C7.71483 0.746933 7.59177 0.803534 7.51035 0.903432C7.41667 1.01838 7.41667 1.24899 7.41667 1.71022V5.2896C5.63777 5.60081 4.00966 6.50221 2.79976 7.85563C1.48069 9.33117 0.751029 11.2407 0.75 13.2199V13.7299C1.62445 12.6765 2.71626 11.8245 3.95063 11.2323C5.03891 10.7103 6.21535 10.401 7.41667 10.3195V13.8113C7.41667 14.2725 7.41667 14.5031 7.51035 14.6181C7.59177 14.718 7.71483 14.7746 7.84367 14.7714C7.99191 14.7677 8.167 14.6176 8.51719 14.3174L15.5761 8.26691Z" stroke="white" stroke-width="1.5" stroke-linecap="square"/>
</svg>
