<svg xmlns="http://www.w3.org/2000/svg" width="20" height="12" viewBox="0 0 20 12" fill="none">
<path d="M0.291875 6.29013C-0.0973687 5.89983 -0.0973688 5.26814 0.291875 4.87784L4.86328 0.293999C5.25403 -0.0978153 5.88869 -0.0978067 6.27943 0.294018L6.56183 0.5772C6.95105 0.967499 6.95105 1.59915 6.56183 1.98945L4.17566 4.38224L18.0876 4.38224C18.6399 4.38224 19.0876 4.82996 19.0876 5.38224L19.0876 5.78573C19.0876 6.33801 18.6399 6.78573 18.0876 6.78573L4.17566 6.78573L6.56183 9.17852C6.95105 9.56882 6.95105 10.2005 6.56183 10.5908L6.27943 10.874C5.88869 11.2658 5.25403 11.2658 4.86328 10.874L0.291875 6.29013Z" fill="white"/>
</svg>